<?xml version="1.0" standalone="no"?>
<!DOCTYPE svg PUBLIC "-//W3C//DTD SVG 1.1//EN" "http://www.w3.org/Graphics/SVG/1.1/DTD/svg11.dtd" >
<svg>
<metadata>
Created by FontForge 20090622 at Wed Apr 15 23:34:00 2020
 By deploy user
2019 Iconian Fonts - www.iconian.com
</metadata>
<defs>
<font id="StrikeFighterBoldItalic" horiz-adv-x="814" >
  <font-face 
    font-family="Strike Fighter Bold Italic"
    font-weight="400"
    font-style="italic"
    font-stretch="normal"
    units-per-em="1000"
    panose-1="0 0 0 0 0 0 0 0 0 0"
    ascent="800"
    descent="-200"
    x-height="641"
    cap-height="641"
    bbox="-66.8 -168 1530 854"
    underline-thickness="50"
    underline-position="-75"
    unicode-range="U+0020-U+2122"
  />
<missing-glyph horiz-adv-x="495" 
 />
    <glyph glyph-name=".notdef" horiz-adv-x="495" 
 />
    <glyph glyph-name=".null" horiz-adv-x="0" 
 />
    <glyph glyph-name="nonmarkingreturn" horiz-adv-x="495" 
 />
    <glyph glyph-name="space" unicode=" " horiz-adv-x="423" 
 />
    <glyph glyph-name="space" unicode="&#xa0;" horiz-adv-x="423" 
 />
    <glyph glyph-name="FL0021h" unicode="!" horiz-adv-x="252" 
d="M97 222l9 -18q5 -5 10 -5h134q4 0 12 6l17 17l116 407q1 4 -3 10l-13 12h-137l-20 -12q-8 -6 -9 -10zM40 23l9 -18q5 -5 10 -5h134q4 0 12 6l17 17l33 116q2 5 -3 11l-14 12h-137l-19 -12q-7 -6 -9 -11z" />
    <glyph glyph-name="FL0022h" unicode="&#x22;" horiz-adv-x="464" 
d="M361 428l11 -19q3 -4 9 -4h71q14 0 32 10.5t35 26.5t30 33.5t18 32.5l34 121q1 4 -3 10l-13 12h-137l-21 -12q-8 -6 -9 -10zM158 428l11 -18q0 -2 3 -3.5t5 -1.5h72q13 0 31 10.5t35 26.5t30 33.5t18 32.5l34 121q1 4 -3 10l-13 12h-137l-20 -12q-8 -6 -9 -10z" />
    <glyph glyph-name="FL0025h" unicode="#" horiz-adv-x="760" 
d="M201 527l-16 -15l-35 -120q0 -6 2 -9l5 -11q3 -4 9 -4h86l-25 -85h-86q-6 0 -11 -4l-11 -11q-5 -4 -7 -9l-32 -114q-1 -2 -1 -5t2 -4l5 -11q3 -4 9 -4h86l-28 -98l10 -18q5 -5 10 -5h133q5 0 13 6l16 17l28 98h90l-28 -98l9 -18q5 -5 10 -5h133q5 0 13 6l17 17l28 98h85
q6 0 11 4l12 11q2 1 4 4t3 5l32 114q2 5 -1 9l-6 11q-3 4 -9 4h-85l25 85h85q6 0 11 4l12 11q6 4 6 9l33 115q2 5 -1 9l-6 11q-3 4 -9 4h-85l28 98q1 4 -3 10l-14 12h-136l-20 -12q-8 -6 -9 -10l-28 -98h-90l28 98q2 5 -2 10l-14 12h-136l-22 -12q-2 -2 -4.5 -5t-3.5 -5
l-28 -98h-86q-6 0 -11 -4zM434 368h90l-25 -85h-90z" />
    <glyph glyph-name="FL0024h" unicode="$" horiz-adv-x="727" 
d="M184 510l-46 -163q-4 -14 -2 -32t9 -34t19 -26.5t27 -10.5h144l-12 -43h-205q-6 0 -13 -6l-16 -17l-33 -116l3 -15q5 -8 11 -8h206l-12 -44l10 -18q5 -5 10 -5h133q7 0 15 8l13 15l12 44h146q15 0 33 10.5t34.5 26.5t29 33.5t16.5 32.5l46 162q4 15 2 32.5t-9.5 33.5
t-19 26.5t-26.5 10.5h-146l12 43h206q5 0 13 6l17 17l33 116l-6 18q-3 5 -10 5h-207l13 44q1 2 -0.5 5t-1.5 5l-13 13h-136l-22 -13q-6 -5 -8 -10l-13 -44h-144q-15 0 -33 -10.5t-34 -26t-28.5 -33.5t-16.5 -32zM563 244l-12 -43h-47l12 43h47zM348 450h46l-12 -43h-46z" />
    <glyph glyph-name="FL002Ah" unicode="%" horiz-adv-x="1091" 
d="M202 26l4 -18q3 -8 10 -8h168q7 0 12 5l17 14l639 596q4 4 6 9q2 6 -1 10l-10 13q-4 4 -8 4h-168l-24 -14l-639 -597q-8 -6 -6 -14zM662 -48h301q10 0 21 6t21 15.5t17.5 20.5t10.5 21l69 241q3 9 1.5 20t-6 20.5t-12 16t-17.5 6.5h-301q-10 0 -21 -6.5t-21 -16
t-17.5 -20.5t-10.5 -20l-69 -241q-3 -9 -1.5 -20t6 -20.5t12 -16t17.5 -6.5zM923 174l-22 -77h-93l22 77h93zM187 333h301q10 0 21.5 6t21.5 15t17.5 20t10.5 21l69 241q3 9 1.5 20t-6 20.5t-12.5 16t-18 6.5h-301q-10 0 -21 -6.5t-20.5 -16t-17 -20.5t-10.5 -20l-69 -241
q-3 -9 -1.5 -20t6 -20t11.5 -15.5t17 -6.5zM448 554l-22 -77h-93l22 77h93z" />
    <glyph glyph-name="FL0026h" unicode="&#x26;" horiz-adv-x="813" 
d="M876 392l-6 10q-3 5 -8 5h-499q-2 0 -5.5 -1t-4.5 -3l-13 -11q-5 -5 -6 -9l-33 -115q-2 -5 1 -9l6 -11q0 -2 3 -3t5 -1h281l-24 -82h-316l94 327h276l-9 -31l11 -19q3 -4 9 -4h133q5 0 12 5l16 18l26 90q4 15 2 32.5t-9 33.5t-19 26.5t-27 10.5h-472q-16 0 -34.5 -10.5
t-34.5 -26.5t-28.5 -33.5t-16.5 -32.5l-46 -161q-1 -3 1 -10t5.5 -16l7.5 -18.5t8 -16.5l-17.5 -15.5t-17.5 -17t-14 -15.5t-7 -10l-47 -165q-5 -15 -3 -33t9.5 -33.5t19.5 -26t28 -10.5h512q15 0 33.5 10.5t35 26t29 33.5t17.5 33l40 141h35q6 0 11 4l12 11q5 4 7 9l33 115
q2 5 -2 9z" />
    <glyph glyph-name="FL0027h" unicode="'" horiz-adv-x="252" 
d="M156 428l10 -18q3 -5 9 -5h72q13 0 31 10.5t35 26.5t30 33.5t18 32.5l34 121q1 4 -3 10l-13 12h-137l-20 -12q-8 -6 -9 -10z" />
    <glyph glyph-name="FL0028h" unicode="(" horiz-adv-x="427" 
d="M255 134h144q4 0 9 -6l8 -17l-34 -117l-17 -17q-8 -6 -11 -6h-244q-15 0 -27 10.5t-19.5 26.5t-9.5 33.5t2 32.5l144 503q4 15 16.5 32.5t29 33.5t34.5 26.5t33 10.5h244q3 0 8 -6l7 -17l-33 -117l-18 -16q-8 -6 -11 -6h-144z" />
    <glyph glyph-name="FL0029h" unicode=")" horiz-adv-x="427" 
d="M240 134h-145q-5 0 -12 -6l-16 -17l-34 -117l4 -15q5 -8 11 -8h244q16 0 34 10.5t34.5 26.5t28.5 33.5t16 32.5l144 503q4 15 2.5 32.5t-9 33.5t-19.5 26.5t-28 10.5h-244q-7 0 -15 -8l-13 -15l-33 -117l6 -16q4 -6 10 -6h145z" />
    <glyph glyph-name="FL0F98h" unicode="*" horiz-adv-x="301" 
d="M297 481l-10 26l-25 -26q-5 -5 -10.5 -6t-8.5 2l-58 51q-11 9 4 21l30 23l-19 6q-12 3 -4 17l46 78q9 13 21 9l17 -11l3 21q6 16 19 16h85q6 0 8.5 -4.5t-0.5 -11.5l-10 -22l32 12q12 5 14 -8l10 -78q0 -13 -14 -17l-32 -10l12 -19q6 -10 -8 -19l-83 -53q-6 -4 -11.5 -3
t-7.5 6z" />
    <glyph glyph-name="FL002Bh" unicode="+" horiz-adv-x="491" 
d="M305 509l-29 -102h-101q-7 0 -11 -4l-13 -11q-5 -5 -6 -9l-33 -115q-2 -5 1 -9l6 -11q3 -4 9 -4h101l-29 -101q-2 -5 1 -9l9 -10q3 -4 7 -4h115q7 0 12 4l12 10q5 4 7 9l29 101h102q7 0 10 4l12 11q5 4 7 9l33 115q2 5 -2 9l-5 11q-1 4 -8 4h-102l29 102q2 5 -1 9l-8 10
q-3 4 -8 4h-115q-1 0 -4.5 -1t-6.5 -3l-13 -10q-5 -4 -7 -9z" />
    <glyph glyph-name="FL002Ch" unicode="," horiz-adv-x="252" 
d="M17 -57l9 -18q5 -5 10 -5h72q13 0 31 10.5t35 26.5t30.5 34t17.5 32l33 116q2 5 -3 11l-14 12h-137l-19 -12q-7 -6 -9 -11z" />
    <glyph glyph-name="FL002Dh" unicode="-" horiz-adv-x="436" 
d="M501 392l-7 10q-3 5 -8 5h-312q-7 0 -11 -4l-12 -11q-5 -5 -6 -9l-33 -115q-2 -5 1 -9l5 -11q3 -4 9 -4h312q6 0 11 4l13 11q5 4 7 9l33 115q2 5 -2 9z" />
    <glyph glyph-name="FL002Eh" unicode="." horiz-adv-x="252" 
d="M40 23l9 -18q5 -5 10 -5h134q4 0 12 6l17 17l33 116q2 5 -3 11l-14 12h-137l-19 -12q-7 -6 -9 -11z" />
    <glyph glyph-name="FL002Fh" unicode="/" horiz-adv-x="745" 
d="M32 27l3 -19q3 -8 11 -8h168q6 0 11 5l18 14l638 596q4 4 6 9q2 6 -1 10l-9 13q-4 4 -9 4h-167l-24 -14l-639 -596q-9 -6 -6 -14z" />
    <glyph glyph-name="FL004Fh" unicode="0" 
d="M122 0h554q15 0 33 10.5t34.5 26t29 33.5t17.5 33l127 445q4 15 2 32.5t-9.5 33.5t-19.5 26.5t-27 10.5h-554q-15 0 -33 -10.5t-34.5 -26.5t-29 -33.5t-16.5 -32.5l-127 -445q-5 -15 -3 -33t9.5 -33.5t19.5 -26t27 -10.5zM718 489l-94 -327h-358l94 327h358z" />
    <glyph glyph-name="FL0031h" unicode="1" horiz-adv-x="336" 
d="M475 629l-5 16q-5 6 -10 6h-217q-7 0 -11 -4l-11 -10q-3 -1 -4.5 -4l-2.5 -5l-33 -115v-4t2 -5l4 -11q4 -4 9 -4h58l-133 -466l10 -18q5 -5 10 -5h132q5 0 13 6l16 17z" />
    <glyph glyph-name="FL0032h" unicode="2" horiz-adv-x="727" 
d="M775 347q-4 -14 -16.5 -32t-29 -34t-34.5 -26.5t-33 -10.5h-373l-24 -82h433q7 0 10 -5l7 -18l-33 -116l-16 -17q-8 -6 -13 -6h-532q-15 0 -27 10.5t-19.5 26t-9.5 33.5t3 33l57 201q4 15 16.5 32.5t29 33.5t34.5 26.5t33 10.5h372l23 82h-433q-5 0 -9 6l-6 17l33 117
l12 14q10 8 16 8h533q15 0 26.5 -10.5t19 -26.5t9.5 -33.5t-2 -32.5z" />
    <glyph glyph-name="FL0033h" unicode="3" horiz-adv-x="729" 
d="M541 162h-435q-5 0 -12 -5l-16 -18l-33 -116l3 -15q5 -8 11 -8h534q15 0 33 10.5t34.5 26t29 33.5t17.5 33l47 165q1 7 -7.5 25.5t-16.5 32.5l18 16.5t18.5 18.5t14.5 16t7 10l46 161q4 15 2 32.5t-9.5 33.5t-19.5 26.5t-27 10.5h-534q-6 0 -16 -8l-12 -14l-33 -117
l6 -17q4 -6 9 -6h435zM207 383l-33 -115q-2 -5 1 -9l7 -11q3 -4 8 -4h339q7 0 10 4l13 11q5 4 7 9l33 115q2 5 -2 9l-6 11q-1 4 -8 4h-339q-6 0 -10 -4l-14 -11q-5 -5 -6 -9z" />
    <glyph glyph-name="FL0034h" unicode="4" horiz-adv-x="728" 
d="M583 402l7 -10q4 -4 2 -9l-33 -115q-2 -5 -7 -9l-13 -11q-3 -4 -10 -4h-395q-5 0 -10 5l-9 18l103 362q1 2 3.5 5t4.5 5l21 12h136l14 -12q4 -5 2 -10l-63 -222h240q5 0 7 -5zM684 640l20 11h136l13 -12q4 -6 3 -10l-173 -606l-16 -17q-8 -6 -13 -6h-133q-4 0 -9 5
l-11 18l173 606q4 7 10 11z" />
    <glyph glyph-name="FL0035h" unicode="5" horiz-adv-x="727" 
d="M117 257l12 -13h434l-24 -82h-433q-5 0 -12 -5l-16 -18l-33 -116l3 -15q5 -8 11 -8h533q15 0 33 10.5t34 26t28.5 33.5t17.5 33l57 201q4 15 2 32.5t-9.5 33.5t-19 26.5t-26.5 10.5h-373l23 82h404q5 0 13 6l17 17l33 117l-6 16q-5 6 -9 6h-560q-7 0 -11 -4l-16 -12
q-6 -4 -7 -10l-102 -358q-1 -2 0.5 -5t1.5 -5z" />
    <glyph glyph-name="FL0036h" unicode="6" horiz-adv-x="810" 
d="M786 103l57 200q4 14 1 32t-10.5 34t-19 27t-24.5 11h-453l23 82h354l-9 -31l11 -19q3 -4 10 -4h133q4 0 11 5l17 18l26 90q4 15 2 32.5t-9.5 33.5t-19.5 26.5t-27 10.5h-550q-15 0 -33 -10.5t-34.5 -26.5t-29.5 -33.5t-17 -32.5l-127 -445q-5 -15 -2.5 -33t10 -33.5
t19.5 -26t27 -10.5h550q15 0 33 10.5t34.5 26t29 33.5t17.5 33zM644 244l-24 -82h-354l24 82h354z" />
    <glyph glyph-name="FL0037h" unicode="7" horiz-adv-x="645" 
d="M743 509l33 115q2 6 -1 10l-10 13q-4 4 -8 4h-512q-3 0 -8 -2.5t-7 -5.5l-13 -14l-33 -117l6 -17q4 -6 9 -6h330v-1h1l-339 -424l1 1q-8 -8 -10.5 -13t-4.5 -13l-4 -13q-3 -11 -1 -18.5t16 -7.5h138q8 0 14 8z" />
    <glyph glyph-name="FL0038h" unicode="8" horiz-adv-x="813" 
d="M195 548l-46 -161q-1 -3 1 -10t5.5 -16t8 -18.5t8.5 -16.5l-17.5 -15.5t-18 -17t-14.5 -15.5t-7 -10l-47 -165q-5 -15 -2.5 -33t10 -33.5t19.5 -26t27 -10.5h553q15 0 33 10.5t34.5 26t29 33.5t17.5 33l47 165q1 7 -8 25.5t-17 32.5l18 16t18.5 18l15 16.5t7.5 10.5
l46 161q4 15 2 32.5t-9.5 33.5t-19.5 26.5t-27 10.5h-553q-15 0 -33 -10.5t-34.5 -26.5t-29.5 -33.5t-17 -32.5zM360 489h357l-23 -82h-321q-7 0 -11 -4l-13 -11q-5 -5 -6 -9l-33 -115q-2 -5 1 -9l6 -11q3 -4 9 -4h321l-24 -82h-357z" />
    <glyph glyph-name="FL0039h" unicode="9" horiz-adv-x="810" 
d="M195 548l-57 -200q-4 -14 -1 -32t10.5 -34t19 -27t24.5 -11h453l-24 -82h-354l9 31l-10 19l-5 2.5t-5 1.5h-133q-3 0 -7.5 -2.5t-7.5 -4.5l-14 -16l-25 -90q-5 -15 -2.5 -33t10 -33.5t19.5 -26t27 -10.5h550q15 0 33 10.5t34.5 26t29 33.5t17.5 33l127 445q4 15 2 32.5
t-9.5 33.5t-19.5 26.5t-27 10.5h-550q-15 0 -33 -10.5t-34.5 -26.5t-29.5 -33.5t-17 -32.5zM337 407l23 82h354l-23 -82h-354z" />
    <glyph glyph-name="FL003Ah" unicode=":" horiz-adv-x="252" 
d="M40 23l9 -18q5 -5 10 -5h134q4 0 12 6l17 17l33 116q2 5 -3 11l-14 12h-137l-19 -12q-7 -6 -9 -11zM137 363l10 -18q3 -5 9 -5h134q4 0 12 6l17 17l34 117q0 4 -3 10l-14 13h-137l-19 -13q-9 -6 -9 -10z" />
    <glyph glyph-name="FL003Bh" unicode=";" horiz-adv-x="252" 
d="M137 363l10 -18q3 -5 9 -5h134q4 0 12 6l17 17l34 117q0 4 -3 10l-14 13h-137l-19 -13q-9 -6 -9 -10zM17 -57l9 -18q5 -5 10 -5h72q13 0 31 10.5t35 26.5t30.5 34t17.5 32l33 116q2 5 -3 11l-14 12h-137l-19 -12q-7 -6 -9 -11z" />
    <glyph glyph-name="FL003Ch" unicode="&#x3c;" horiz-adv-x="505" 
d="M444 637l-323 -300q-11 -9 -6 -18l151 -300l9 -14q5 -5 10 -5h168q8 0 14 8l14 18q6 6 2 14l-143 288l308 287q4 4 6 9q2 6 -1 10l-9 13q-4 4 -9 4h-167z" />
    <glyph glyph-name="FL003Dh" unicode="=" horiz-adv-x="488" 
d="M194 508l-18 -16l-34 -119q-2 -6 1 -10l6 -10q2 -2 4.5 -3t3.5 -1h364q6 0 11 4l12 10q6 4 7 10l33 114q2 6 -1 10l-6 11q-3 4 -9 4h-364q-1 0 -4 -1t-6 -3zM133 298l-17 -15l-34 -120q-3 -3 1 -9l6 -10q2 -2 4.5 -3t3.5 -1h364q6 0 11 4l12 10q3 2 4.5 5t2.5 4l33 115
q2 7 -2 9l-6 11q-3 4 -8 4h-364q-1 0 -4.5 -1t-6.5 -3z" />
    <glyph glyph-name="FL003Eh" unicode="&#x3e;" horiz-adv-x="503" 
d="M419 637l-16 14h-168q-7 0 -11 -4l-17 -13q-6 -4 -7 -10q-2 -5 0 -9l142 -287l-307 -288q-8 -6 -6 -14l4 -18q3 -8 10 -8h168q7 0 12 5l18 14l320 300q10 9 6 18z" />
    <glyph glyph-name="FL0040h" unicode="?" horiz-adv-x="712" 
d="M151 222l11 -19q2 -2 4.5 -3t3.5 -1h133q5 0 13 6l16 17l6 22h309q15 0 33 10.5t34.5 26.5t29.5 34t17 32l57 201q4 15 2 32.5t-9.5 33.5t-19.5 26.5t-27 10.5h-518q-6 0 -16 -8l-12 -14l-33 -117l6 -17q4 -6 9 -6h419l-23 -82h-309q-15 0 -33 -10.5t-34.5 -26.5
t-29 -33.5t-16.5 -32.5zM94 23l11 -19q2 -2 4.5 -3t3.5 -1h133q5 0 13 6l16 17l33 116q1 2 -0.5 5.5t-1.5 5.5l-14 12h-136l-21 -12q-6 -5 -8 -11z" />
    <glyph glyph-name="FL0BEEh" unicode="@" horiz-adv-x="922" 
d="M865 119h-610l119 413h462l-71 -245h-29l46 159q3 9 1.5 20t-6 21t-12 16.5t-17.5 6.5h-301q-10 0 -21 -6.5t-21 -16.5t-17.5 -21t-10.5 -20l-69 -240q-3 -9 -1.5 -20t6 -21t12 -16.5t17.5 -6.5h161q3 0 11 6l17 17l29 99q2 5 -3 11l-14 12h-56l22 77h93l-59 -208
q-5 -14 10 -14h269q15 0 33 10.5t34.5 26t29 34t17.5 33.5l98 345q4 15 2 33t-9.5 33.5t-19.5 26t-27 10.5h-658q-15 0 -33 -10.5t-34.5 -26t-29 -33.5t-16.5 -33l-152 -530q-5 -16 -2.5 -34t10 -33.5t19.5 -26t27 -10.5h709q2 0 6 2t5 3l17 18l34 116l-9 17q0 2 -3 4t-5 2z
" />
    <glyph glyph-name="FL0041h" unicode="A" horiz-adv-x="861" 
d="M43 53l-8 -18q-3 -10 -0.5 -22.5t12.5 -12.5h475q5 0 10 4l13 9q3 2 4 4.5t3 5.5l33 117l-8 17q-3 5 -9 5h-234l1 2l210 259l91 -415q3 -8 10 -8h153q14 0 20 7.5t9 18.5l4 13q3 12 0 26l-143 579q-3 7 -9 7h-140q-7 0 -13 -7z" />
    <glyph glyph-name="FL0042h" unicode="B" horiz-adv-x="813" 
d="M870 387q-1 -3 -7.5 -10.5l-15 -16.5t-18.5 -18l-18 -16q8 -14 17 -32.5t8 -25.5l-47 -165q-5 -15 -17.5 -33t-29 -33.5t-34.5 -26t-33 -10.5h-611q-4 0 -9 5l-10 18l172 601q1 6 7 10l17 13q2 2 5.5 3t4.5 1h611q15 0 27 -10.5t19.5 -26.5t9.5 -33.5t-2 -32.5zM647 244
h-321q-6 0 -9 4l-6 11q-3 4 -1 9l33 115q1 4 6 9l13 11q4 4 11 4h321l23 82h-357l-94 -327h357z" />
    <glyph glyph-name="FL0043h" unicode="C" horiz-adv-x="727" 
d="M359 489h274l-9 -31l12 -19q3 -4 9 -4h133q5 0 12 5l16 18l26 90q4 15 2 32.5t-9.5 33.5t-19 26.5t-26.5 10.5h-471q-15 0 -33 -10.5t-34.5 -26.5t-29 -33.5t-16.5 -32.5l-127 -445q-5 -15 -3 -33t9.5 -33.5t19.5 -26t27 -10.5h471q15 0 33 10.5t34 26t28.5 33.5t17.5 33
l25 90l-5 18q-2 1 -5 3t-5 2h-133q-2 0 -5.5 -1.5t-5.5 -2.5l-23 -19l-9 -31h-274z" />
    <glyph glyph-name="FL0044h" unicode="D" horiz-adv-x="815" 
d="M46 23l11 -19q2 -2 4.5 -3t3.5 -1h583q15 0 38.5 14t46.5 34t42 43t24 41l111 388q5 18 -0.5 40.5t-17 42.5t-27 34t-30.5 14h-586l-22 -12q-6 -5 -8 -10zM267 162l94 327h333q8 0 14 -8.5t4 -16.5l-78 -273q-2 -7 -12.5 -18t-22.5 -11h-332z" />
    <glyph glyph-name="FL0045h" unicode="E" horiz-adv-x="725" 
d="M218 629l-173 -606l9 -18q5 -5 10 -5h587q5 0 13 6l16 17l33 116l-7 18q-3 5 -10 5h-429l-1 3l92 321l3 3h429q5 0 13 6l17 17l33 117l-6 16q-5 6 -9 6h-591l-21 -12q-6 -5 -8 -10zM722 392l-7 10q-3 5 -7 5h-336q-7 0 -11 -4l-13 -11q-5 -5 -6 -9l-33 -115q-2 -5 1 -9
l6 -11q3 -4 9 -4h336q1 0 4 1t6 3l13 11q5 4 7 9l33 115q2 5 -2 9z" />
    <glyph glyph-name="FL0046h" unicode="F" horiz-adv-x="673" 
d="M46 12l12 -12h138l20 12q8 5 10 11l132 463l3 3h380q4 0 12 6l18 17l33 117l-7 16q-5 6 -8 6h-539q-2 0 -5.5 -1t-4.5 -3l-17 -13q-6 -4 -7 -10l-172 -601q-1 -4 2 -11zM657 407h-286q-1 0 -4.5 -1t-5.5 -3l-14 -11q-5 -5 -6 -9l-33 -115q-2 -5 1 -9l7 -11q2 -2 4.5 -3
t3.5 -1h286q6 0 11 4l12 11q5 4 7 9l33 115q2 5 -2 9l-5 11q-4 4 -9 4z" />
    <glyph glyph-name="FL0047h" unicode="G" 
d="M790 103l80 280q2 5 -2 9l-6 11q-4 4 -8 4h-438q-7 0 -11 -4l-13 -11q-5 -5 -6 -9l-33 -115q-2 -5 1 -9l6 -11q3 -4 9 -4h279l-24 -82h-358l94 327h358l-9 -31l11 -19q3 -4 10 -4h133q4 0 11 5l17 18l26 90q4 15 2 32.5t-9.5 33.5t-19.5 26.5t-27 10.5h-554
q-15 0 -33 -10.5t-34.5 -26.5t-29 -33.5t-16.5 -32.5l-127 -445q-5 -15 -3 -33t9.5 -33.5t19.5 -26t27 -10.5h554q15 0 33 10.5t34.5 26t29 33.5t17.5 33z" />
    <glyph glyph-name="FL0048h" unicode="H" horiz-adv-x="775" 
d="M630 402l7 -10q4 -4 2 -9l-33 -115q-2 -5 -7 -9l-13 -11q-5 -4 -11 -4h-285l-63 -221l-17 -17q-8 -6 -12 -6h-134q-7 0 -9 5l-10 18l173 606q1 4 9 10l20 12h137l13 -12q4 -6 3 -10l-63 -222h285q5 0 8 -5zM730 640l20 11h137l13 -12q4 -6 3 -10l-173 -606l-17 -17
q-8 -6 -12 -6h-134q-5 0 -10 5l-10 18l173 606q4 7 10 11z" />
    <glyph glyph-name="FL0049h" unicode="I" horiz-adv-x="278" 
d="M45 23l9 -18q5 -5 9 -5h132q4 0 12 6l17 17l170 596q2 6 -2 11l-14 11h-135l-19 -11q-6 -4 -9 -11z" />
    <glyph glyph-name="FL004Ah" unicode="J" horiz-adv-x="700" 
d="M121 0h444q16 0 34 10.5t34.5 26t28.5 33.5t17 33l150 526q1 4 -3 10l-12 12h-137l-21 -12q-8 -6 -9 -10l-134 -467h-248l46 160q2 5 -3 11l-13 12h-136l-21 -12q-7 -6 -9 -11l-62 -219q-5 -15 -2.5 -33t10 -33.5t19.5 -26t27 -10.5z" />
    <glyph glyph-name="FL004Bh" unicode="K" horiz-adv-x="760" 
d="M361 403l-19 -16l-34 -119q-2 -5 1 -9l7 -11q2 -2 4.5 -3t3.5 -1h76l121 -240q3 -5 9 -5h171q6 0 14 8l14 19q6 6 2 14l-140 288l305 287q4 4 6 9q2 6 -1 10l-10 13q-1 4 -8 4h-168l-24 -14l-246 -230h-74q-1 0 -4.5 -1t-5.5 -3zM397 639l-12 12h-138l-20 -12
q-8 -6 -9 -10l-173 -606l4 -15q3 -8 10 -8h134q7 0 12 5l22 18l173 606q1 4 -3 10z" />
    <glyph glyph-name="FL004Ch" unicode="L" horiz-adv-x="673" 
d="M44 23l10 -18q2 -5 9 -5h539q4 0 12 6l17 17l33 116l-8 18q-3 5 -9 5h-380l-1 3l133 464q1 4 -3 10l-13 12h-137l-20 -12q-8 -6 -9 -10z" />
    <glyph glyph-name="FL004Dh" unicode="M" horiz-adv-x="984" 
d="M540 8l304 343l-94 -328l7 -17q0 -2 3 -4t5 -2h134q6 0 11 5l22 18l173 606q1 4 -3 10l-12 12h-180l-24 -10l-163 -183.5l-162 -183.5l-114 367l-19 10h-179l-20 -12q-8 -6 -9 -10l-173 -606l10 -18q2 -5 9 -5h134q4 0 12 6l17 17l93 327l107 -342q2 -2 4 -4.5t5 -2.5h89
q3 0 6.5 2.5z" />
    <glyph glyph-name="FL004Eh" unicode="N" horiz-adv-x="797" 
d="M567 17l-240 356l-100 -350l-16 -17q-8 -6 -13 -6h-134q-4 0 -9 5l-10 18l173 606q1 4 9 10l20 12h135l19 -9l241 -360l99 347q1 4 9 10l21 12h137l12 -12q4 -6 3 -10l-173 -606l-16 -17q-8 -6 -13 -6h-137z" />
    <glyph glyph-name="FL0050h" unicode="O" 
d="M122 0h554q15 0 33 10.5t34.5 26t29 33.5t17.5 33l127 445q4 15 2 32.5t-9.5 33.5t-19.5 26.5t-27 10.5h-554q-15 0 -33 -10.5t-34.5 -26.5t-29 -33.5t-16.5 -32.5l-127 -445q-5 -15 -3 -33t9.5 -33.5t19.5 -26t27 -10.5zM718 489l-94 -327h-358l94 327h358z" />
    <glyph glyph-name="FL0051h" unicode="P" horiz-adv-x="753" 
d="M630 386h-264q-6 0 -10 -4l-14 -11q-6 -6 -6 -9l-33 -114q-2 -6 1 -10l7 -10q4 -4 8 -4h363q15 0 33 10.5t34 26t28.5 33.5t17.5 33l63 221q4 15 2 32.5t-9.5 33.5t-19 26.5t-26.5 10.5h-554q-7 0 -11 -4l-16 -13q-6 -4 -7 -10l-172 -601q-1 -4 2 -11l13 -12h137l20 12
q8 5 10 11l133 466h299z" />
    <glyph glyph-name="FL0052h" unicode="Q" 
d="M452 -80l-13 -9q-1 -2 -4.5 -3t-5.5 -1h-115q-4 0 -8 4l-7 9q-3 4 -1 10l20 70h-196q-15 0 -27 10.5t-19.5 26t-9.5 33.5t3 33l127 445q4 15 16.5 32.5t29 33.5t34.5 26.5t33 10.5h554q15 0 27 -10.5t19.5 -26.5t9.5 -33.5t-2 -32.5l-127 -445q-5 -15 -17.5 -33
t-29 -33.5t-34.5 -26t-33 -10.5h-196l-20 -70q-2 -5 -8 -10zM718 489h-358l-94 -327h98l46 158q1 6 7 10l12 9q5 4 10 4h115q2 0 5 -1t3 -3l9 -9q3 -4 1 -10l-46 -158h98z" />
    <glyph glyph-name="FL0053h" unicode="R" horiz-adv-x="753" 
d="M709 18l-18 -14q-5 -4 -11 -4h-139q-1 0 -4.5 2t-7 4.5t-6 4.5t-2.5 3l-173 329q5 15 17 29t30 14h234l1 1l29 102h-299l-133 -466q-2 -6 -10 -11l-20 -12h-137l-13 12q-3 7 -2 11l172 601q1 6 7 10l16 13q4 4 11 4h554q15 0 26.5 -10.5t19 -26.5t9.5 -33.5t-2 -32.5
l-70 -244q-9 -16 -25 -29.5t-36 -23.5t-41 -17t-39 -10l31 -62h48q7 0 10 -3l9 -15q3 -5 2 -9l-31 -107q-1 -6 -7 -10z" />
    <glyph glyph-name="FL0054h" unicode="S" horiz-adv-x="727" 
d="M195 548l-57 -201q-4 -14 -2 -32t9 -34t19 -26.5t27 -10.5h372l-24 -82h-433q-5 0 -12 -5l-16 -18l-33 -116l3 -15q5 -8 11 -8h533q15 0 33 10.5t34 26t28.5 33.5t17.5 33l57 201q4 15 2 32.5t-9.5 33.5t-19 26.5t-26.5 10.5h-373l23 82h433q5 0 13 6l17 17l33 117l-6 16
q-5 6 -9 6h-532q-15 0 -33 -10.5t-34.5 -26.5t-29 -33.5t-16.5 -32.5z" />
    <glyph glyph-name="FL0055h" unicode="T" horiz-adv-x="727" 
d="M822 512l32 112q2 6 -1 10l-9 13q-4 4 -9 4h-588q-6 0 -13 -6l-16 -16l-33 -117l4 -15q3 -8 10 -8h206l-133 -466l10 -18q5 -5 10 -5h133q7 0 15 8l13 15l133 466h202q6 0 13 5z" />
    <glyph glyph-name="FL0056h" unicode="U" 
d="M122 0h554q15 0 33 10.5t34.5 26t29 33.5t17.5 33l150 526q1 4 -3 10l-13 12h-136l-21 -12q-8 -6 -9 -10l-134 -467h-358l134 467q1 4 -3 10l-13 12h-136l-21 -12q-6 -5 -8 -10l-150 -526q-5 -15 -3 -33t9.5 -33.5t19.5 -26t27 -10.5z" />
    <glyph glyph-name="FL0057h" unicode="V" horiz-adv-x="847" 
d="M336 8l-138 579q-3 7 -2.5 11.5t2.5 9.5l6 18q3 11 9 18t21 7h152q7 0 10 -8l86 -412l322 412q8 8 15 8h153q14 0 16 -7t-1 -18l-6 -18q-2 -5 -3 -9.5t-9 -11.5l-235 -289.5l-235 -289.5q-6 -8 -14 -8h-139q-7 0 -10 8z" />
    <glyph glyph-name="FL0058h" unicode="W" horiz-adv-x="1172" 
d="M661 0h140q7 0 13 8l470 579q8 7 9 11.5t3 9.5l6 18q6 25 -14 25h-153q-6 0 -16 -8l-322 -412l-85 412q-3 8 -10 8h-154q-14 0 -20 -7t-9 -18l-6 -18q-1 -4 -1.5 -10t1.5 -11l59 -246l-87 -110l-86 412q-3 8 -9 8h-153q-15 0 -20.5 -7t-8.5 -18l-6 -18q-2 -5 -2.5 -9.5
t1.5 -11.5l138 -579q3 -8 10 -8h139q8 0 14 7l116 142l34 -142q1 -7 9 -7z" />
    <glyph glyph-name="FL0059h" unicode="X" horiz-adv-x="745" 
d="M421 637l-15 14h-169q-6 0 -10 -4l-18 -13q-6 -4 -7 -10q-2 -5 0 -9l142 -287l-307 -288q-8 -6 -6 -14l4 -18q5 -8 11 -8h168q6 0 11 5l18 14l86.5 81.5l87.5 81.5l82 -163l9 -14q5 -5 10 -5h168q3 0 7.5 2.5t6.5 5.5l14 18q6 6 2 14l-143 288l308 287q4 4 6 9q2 6 -1 10
l-9 13q-4 4 -9 4h-167l-24 -14l-176 -164z" />
    <glyph glyph-name="FL005Ah" unicode="Y" horiz-adv-x="733" 
d="M597 0h-538q-6 0 -11 8l-3 15l33 116l16 18q7 5 12 5h439l134 467q1 4 9 10l21 12h136l13 -12q4 -6 3 -10l-150 -526q-5 -15 -17.5 -33t-29 -33.5t-34.5 -26t-33 -10.5zM563 267l-22 -17q-5 -5 -12 -5h-337q-15 0 -27 10.5t-19 26.5t-9 34t2 32l80 281q1 2 3.5 5t4.5 5
l21 12h136l14 -12q4 -5 2 -10l-63 -221h239q6 0 9 -5l11 -18z" />
    <glyph glyph-name="FL005Ch" unicode="Z" horiz-adv-x="673" 
d="M328 170l-1 -1zM802 634l-10 13q-4 4 -8 4h-539q-7 0 -15 -8l-13 -14l-33 -117l7 -17q4 -6 8 -6h317l-414 -322l1 1l-14 -8q-7 -6 -9 -11l-36 -126l10 -18q2 -5 9 -5h539q4 0 12 6l17 17l33 116l-8 18q-3 5 -9 5h-313l410 321l-2 -1l17 9q7 6 9 11l35 122q2 6 -1 10z" />
    <glyph glyph-name="FL005Bh" unicode="[" horiz-adv-x="427" 
d="M255 134h144q4 0 9 -6l8 -17l-34 -117l-17 -17q-8 -6 -11 -6h-305l-13 13q-4 8 -3 10l191 664q2 5 9 10l19 12h305q3 0 8 -6l7 -17l-33 -117l-18 -16q-8 -6 -11 -6h-144z" />
    <glyph glyph-name="FL00B9h" unicode="\" horiz-adv-x="745" 
d="M715 27l-15 -19q-2 -3 -6.5 -5.5t-7.5 -2.5h-168q-5 0 -10 5l-9 14l-297 596q-2 4 0 9q1 6 7 10l18 13q4 4 10 4h168l16 -14l296 -596q3 -8 -2 -14z" />
    <glyph glyph-name="FL005Dh" unicode="]" horiz-adv-x="427" 
d="M240 134h-144q-5 0 -12 -6l-17 -17l-34 -117l6 -17q4 -6 10 -6h305l19 13q7 5 9 10l191 664q1 2 -3 10l-13 12h-305q-6 0 -13 -6l-16 -17l-33 -117l7 -16q4 -6 10 -6h144z" />
    <glyph glyph-name="FL005Eh" unicode="^" horiz-adv-x="861" 
d="M831 34l-1 -2q-2 -9 -12 -20.5t-19 -11.5h-475q-6 0 -9 4l-7 9q-3 3 0 10l33 117l17 17q7 5 12 5h233l1 2q-17 66 -31.5 130l-28.5 130l-331 -416q-6 -8 -13 -8h-153q-15 0 -16.5 7.5t1.5 18.5l4 13q2 8 4.5 13t10.5 13l475 579q6 7 13 7h140q6 0 9 -7l144 -591z" />
    <glyph glyph-name="FL005Fh" unicode="_" horiz-adv-x="557" 
d="M546 137l-6 10q-3 5 -8 5h-430q-2 0 -5.5 -1t-5.5 -3l-12 -11q-2 -1 -3.5 -4l-2.5 -5l-33 -115q-3 -3 1 -9l6 -11q0 -2 3 -3t5 -1h430q6 0 11 4l12 11q3 2 4.5 5t2.5 4l33 115q2 7 -2 9z" />
    <glyph glyph-name="FL0060h" unicode="`" horiz-adv-x="268" 
d="M404 841l-22 13h-139q-2 0 -6 -2t-6 -4l-13 -13q-3 -3 -5 -8t0 -8l40 -111l16 -16h136q3 0 7 2.5t6 4.5l14 14q4 2 4 7q2 5 0 7z" />
    <glyph glyph-name="FL0061h" unicode="a" horiz-adv-x="861" 
d="M46 52l-9 -18q-3 -9 0 -21.5t12 -12.5h468q7 0 10 4l13 9q3 2 4 4.5t3 5.5l33 115l-9 16q0 2 -3 4t-5 2h-230v2l207 255l90 -409q3 -8 9 -8h151q14 0 20 7.5t9 18.5l4 13q3 12 -1 25l-140 570q-3 7 -9 7h-138q-9 0 -13 -7z" />
    <glyph glyph-name="FL0062h" unicode="b" horiz-adv-x="813" 
d="M859 381q-1 -3 -7 -10t-14.5 -16t-18 -18l-17.5 -16q8 -14 16.5 -32.5t7.5 -24.5l-47 -163q-4 -15 -16 -32.5t-28 -32.5t-34 -25.5t-33 -10.5h-601q-5 0 -10 5l-9 18l169 592q1 1 2.5 4t4.5 5l16 13q5 4 11 4h601q15 0 27 -10.5t19 -25.5t9 -32.5t-2 -32.5zM640 241h-316
q-2 0 -5 0.5t-3 2.5l-7 11q-3 4 -1 9l32 113q2 5 7 9l13 11q3 4 10 4h316l23 81h-351l-92 -322h351z" />
    <glyph glyph-name="FL0063h" unicode="c" horiz-adv-x="727" 
d="M357 482h270l-9 -31l11 -18q3 -5 9 -5h131q3 0 11 6l17 17l26 89q4 15 2 32.5t-9.5 32.5t-19.5 25.5t-27 10.5h-463q-15 0 -33 -10.5t-34 -25.5t-28 -32.5t-16 -32.5l-126 -439q-4 -15 -2 -32.5t9 -32.5t19 -25.5t27 -10.5h463q15 0 33 10.5t34 25.5t28.5 32.5t16.5 32.5
l25 89l-7 17q-3 6 -8 6h-131q-4 0 -11 -5l-22 -18l-8 -30h-270z" />
    <glyph glyph-name="FL0064h" unicode="d" horiz-adv-x="815" 
d="M48 23l11 -19q3 -4 9 -4h573q15 0 38 13.5t46 33.5t41 42.5t23 40.5l110 382q5 18 -0.5 40t-17 42t-26.5 33.5t-30 13.5h-577l-20 -11q-9 -7 -10 -11zM267 160l92 322h328q8 0 13.5 -8.5t3.5 -16.5l-77 -269q-2 -7 -11.5 -17.5t-21.5 -10.5h-327z" />
    <glyph glyph-name="FL0065h" unicode="e" horiz-adv-x="725" 
d="M217 619l-170 -596l9 -18q5 -5 9 -5h579q4 0 12 6l17 17l32 114l-8 17q0 2 -3 4t-5 2h-422l-1 3l90 315q0 1 1.5 2t1.5 2h422q2 0 6 2t6 4l18 17l32 114l-7 16q-5 6 -8 6h-582l-20 -11q-2 -2 -5 -5.5t-4 -5.5zM714 386l-6 10q-5 5 -9 5h-330q-6 0 -11 -4l-12 -11
q-5 -4 -7 -9l-32 -113q-2 -5 1 -9l6 -11q1 -3 9 -3h330q6 0 11 3l12 11q5 4 7 9l32 113q2 5 -1 9z" />
    <glyph glyph-name="FL0066h" unicode="f" horiz-adv-x="673" 
d="M48 12l12 -12h135l20 12q8 5 10 11l130 455q0 1 1.5 2t1.5 2h374q2 0 6 2t6 4l18 17l32 114l-7 16q0 2 -3 4t-5 2h-530q-6 0 -11 -4l-16 -13q-3 -2 -4.5 -5t-2.5 -4l-169 -592q-1 -4 2 -11zM649 401h-281q-5 0 -10 -4l-13 -11q-5 -4 -7 -9l-32 -113q-2 -5 1 -9l7 -11
q1 -3 8 -3h281q6 0 11 3l12 11q5 4 7 9l32 113q2 5 -1 9l-6 11q-3 4 -9 4z" />
    <glyph glyph-name="FL00B6h" unicode="g" horiz-adv-x="775" 
d="M744 101l79 276q2 5 -1 9l-6 11q-3 4 -9 4h-394q-6 0 -11 -4l-12 -11q-5 -4 -7 -9l-32 -113q-2 -5 1 -9l6 -11q1 -3 9 -3h238l-23 -81h-316l92 322h316l-9 -31l11 -18q3 -5 10 -5h130q4 0 12 6l16 17l26 89q4 15 2 32.5t-9 32.5t-19 25.5t-27 10.5h-510
q-15 0 -32.5 -10.5t-33.5 -25.5t-28.5 -32.5t-16.5 -32.5l-126 -439q-4 -15 -2 -32.5t9.5 -32.5t19 -25.5t26.5 -10.5h510q15 0 33 10.5t34 25.5t28 32.5t16 32.5z" />
    <glyph glyph-name="FL0068h" unicode="h" horiz-adv-x="775" 
d="M624 396l7 -10q1 -3 0 -9l-32 -113q-2 -6 -6 -9l-13 -11q-5 -3 -10 -3h-282l-62 -218l-16 -17q-8 -6 -12 -6h-132q-4 0 -9 5l-10 18l170 596q1 4 10 11l19 11h135l14 -11q4 -6 1 -11l-62 -218h282q3 0 8 -5zM721 631l21 10h134l14 -11q4 -5 2 -11l-170 -596l-17 -17
q-8 -6 -12 -6h-132q-4 0 -9 5l-10 18l170 596q3 7 9 12z" />
    <glyph glyph-name="i" unicode="i" horiz-adv-x="278" 
d="M45 23l9 -18q5 -5 9 -5h132q4 0 12 6l17 17l170 596q2 6 -2 11l-14 11h-135l-19 -11q-6 -4 -9 -11z" />
    <glyph glyph-name="FL006Ah" unicode="j" horiz-adv-x="700" 
d="M122 0h437q15 0 33 10.5t34 25.5t28.5 32.5t16.5 32.5l148 518q2 6 -2 11l-13 11h-135l-20 -11q-2 -2 -5 -5.5t-4 -5.5l-131 -459h-245l45 157q1 6 -2 11l-14 12h-135l-19 -12q-7 -6 -9 -11l-62 -216q-4 -15 -2 -32.5t9.5 -32.5t19.5 -25.5t27 -10.5z" />
    <glyph glyph-name="FL006Bh" unicode="k" horiz-adv-x="760" 
d="M358 397l-17 -15l-34 -118q-2 -5 1 -9l6 -11q1 -3 9 -3h74l119 -237q3 -5 9 -5h168q8 0 14 8l14 19q3 2 3.5 7t-1.5 7l-138 283l301 283q10 10 4 18l-9 13q-3 4 -9 4h-166l-22 -14l-243 -226h-72q-6 0 -11 -4zM395 630l-13 11h-136l-19 -11q-9 -7 -10 -11l-170 -596
l4 -15q5 -8 10 -8h132q6 0 11 5l22 18l170 596q3 5 -1 11z" />
    <glyph glyph-name="FL006Ch" unicode="l" horiz-adv-x="673" 
d="M46 23l9 -18q5 -5 10 -5h530q2 0 6 2t6 4l17 17l32 114l-8 17q0 2 -3 4t-5 2h-374l-1 3l130 456q2 6 -2 11l-14 11h-134l-19 -11q-9 -7 -10 -11z" />
    <glyph glyph-name="FL006Dh" unicode="m" horiz-adv-x="984" 
d="M536 8l298 338l-92 -323l7 -17q4 -6 8 -6h132q6 0 11 5l21 18l170 596q3 5 -1 11l-13 11h-177l-24 -9l-158.5 -181l-161.5 -181l-112 362l-19 9h-176l-19 -11q-9 -7 -10 -11l-170 -596l9 -18q5 -5 10 -5h131q5 0 13 6l16 17l92 322l105 -337q2 -2 4 -4.5t5 -2.5h87
q3 0 7 2.5z" />
    <glyph glyph-name="FL006Eh" unicode="n" horiz-adv-x="797" 
d="M562 17l-237 350l-98 -344l-17 -17q-8 -6 -12 -6h-132q-4 0 -9 5l-9 18l170 596q1 2 4 5.5t5 5.5l20 11h132l20 -8l236 -356l98 342q1 4 10 11l20 11h134l13 -11q4 -5 2 -11l-170 -596l-16 -17q-8 -6 -13 -6h-135z" />
    <glyph glyph-name="FL006Fh" unicode="o" 
d="M123 0h546q15 0 33 10.5t34 25.5t28 32.5t16 32.5l126 439q4 15 2 32.5t-9 32.5t-19 25.5t-27 10.5h-546q-15 0 -32.5 -10.5t-33.5 -25.5t-28.5 -32.5t-16.5 -32.5l-126 -439q-4 -15 -2 -32.5t9.5 -32.5t19 -25.5t26.5 -10.5zM710 482l-92 -322h-352l92 322h352z" />
    <glyph glyph-name="FL0070h" unicode="p" horiz-adv-x="753" 
d="M623 380h-260q-5 0 -10 -4l-13 -10q-6 -4 -7 -10l-32 -112q-2 -5 1 -9l7 -11l4 -2t4 -1h357q15 0 33 10.5t34 25.5t28.5 32.5t16.5 32.5l63 218q4 15 2 32.5t-9.5 32.5t-19.5 25.5t-27 10.5h-545q-6 0 -11 -4l-16 -13q-3 -2 -4.5 -5t-2.5 -4l-169 -592q-1 -4 2 -11
l13 -12h134l20 12q8 5 10 11l131 459h295z" />
    <glyph glyph-name="FL0071h" unicode="q" 
d="M448 -79l-12 -9q-3 -4 -10 -4h-113q-5 0 -8 4l-8 9q-1 3 0 10l20 69h-194q-15 0 -26.5 10.5t-19 25.5t-9.5 32.5t2 32.5l126 439q4 15 16.5 32.5t28.5 32.5t33.5 25.5t32.5 10.5h546q15 0 27 -10.5t19 -25.5t9 -32.5t-2 -32.5l-126 -439q-4 -15 -16 -32.5t-28 -32.5
t-34 -25.5t-33 -10.5h-193l-20 -69q-2 -5 -8 -10zM710 482h-352l-92 -322h97l44 155q3 7 6 10l13 9q5 4 10 4h113q2 0 5 -1t3 -3l8 -9q3 -4 1 -10l-44 -155h96z" />
    <glyph glyph-name="FL0072h" unicode="r" horiz-adv-x="753" 
d="M702 18l-19 -14q-5 -4 -10 -4h-137q-1 0 -4.5 2t-7 4.5t-6 4.5t-2.5 3l-169 324q5 15 16 28.5t29 13.5h230l2 2l28 100h-295l-131 -459q-1 -2 -4 -5.5t-5 -5.5l-20 -12h-135l-13 12q-3 7 -2 11l169 592q1 1 2.5 4t4.5 5l16 13q5 4 11 4h545q15 0 27 -10.5t19.5 -25.5
t9.5 -32.5t-2 -32.5l-69 -241q-9 -16 -25.5 -29t-36 -23t-40 -16.5t-38.5 -9.5l31 -61h48q5 0 8 -4l11 -14v-9l-30 -106q-1 -1 -2.5 -4t-3.5 -5z" />
    <glyph glyph-name="FL0073h" unicode="s" horiz-adv-x="727" 
d="M195 540l-57 -198q-4 -14 -2 -31.5t9 -33t19 -26t27 -10.5h367l-23 -81h-427q-6 0 -13 -6l-16 -17l-32 -114l3 -15q5 -8 11 -8h524q15 0 33 10.5t34 25.5t28.5 32.5t16.5 32.5l57 198q4 15 2 32.5t-9.5 33t-19.5 26t-27 10.5h-366l23 81h426q4 0 12 6l18 17l32 114l-7 16
q-5 6 -8 6h-524q-15 0 -33 -10.5t-34 -25.5t-28 -32.5t-16 -32.5z" />
    <glyph glyph-name="FL0074h" unicode="t" horiz-adv-x="727" 
d="M813 505l31 110q3 3 -1 9l-9 13q-3 4 -9 4h-579q-6 0 -13 -6l-16 -16l-32 -114l4 -15q3 -8 10 -8h202l-131 -459l10 -18q5 -5 10 -5h131q7 0 15 8l13 15l131 459h199q6 0 13 5z" />
    <glyph glyph-name="FL0075h" unicode="u" 
d="M123 0h546q15 0 33 10.5t34 25.5t28 32.5t16 32.5l148 518q1 2 0 5.5t-1 5.5l-15 11h-133l-20 -11q-9 -7 -10 -11l-131 -459h-352l131 459q2 6 -2 11l-14 11h-134l-19 -11q-9 -7 -10 -11l-148 -518q-4 -15 -2 -32.5t9.5 -32.5t19 -25.5t26.5 -10.5z" />
    <glyph glyph-name="FL0076h" unicode="v" horiz-adv-x="847" 
d="M334 8l-135 571v-1q-4 7 -3 11.5t2 8.5l6 18q3 11 9 18t20 7h151q2 0 5 -2.5t5 -4.5l84 -407l317 407q3 2 7.5 4.5t7.5 2.5h150q14 0 16 -7t-1 -18l-6 -18q-1 -4 -2.5 -8.5t-8.5 -11.5v1l-232 -286l-232 -285q-6 -8 -13 -8h-137q-7 0 -10 8z" />
    <glyph glyph-name="FL0077h" unicode="w" horiz-adv-x="1172" 
d="M656 0h137q7 0 13 8l463 571v-1q7 7 8.5 11.5t2.5 8.5l6 18q7 25 -14 25h-150q-3 0 -7.5 -2.5t-7.5 -4.5l-317 -407l-84 407q-2 2 -5 4.5t-5 2.5h-152q-14 0 -20 -7t-9 -18l-6 -18q-1 -3 -1 -9t2 -11l57 -242l-85 -109l-84 407l-4.5 4.5t-5.5 2.5h-151q-14 0 -19.5 -7
t-8.5 -18l-6 -18q-1 -4 -1.5 -8.5t1.5 -11.5v1l135 -571q3 -8 10 -8h137q3 0 7 2t6 5l114 140l34 -140q3 -7 10 -7z" />
    <glyph glyph-name="FL0078h" unicode="x" horiz-adv-x="745" 
d="M417 627l-15 14h-166q-1 0 -4 -1t-6 -3l-17 -13q-12 -9 -6 -18l139 -283l-302 -283q-2 -2 -5 -7t-1 -7l3 -18q5 -8 11 -8h165q7 0 12 5l17 14l86 80l85 80l81 -160l9 -14q5 -5 10 -5h165q7 0 15 8l13 18q3 2 3.5 7t-1.5 7l-140 283l303 283q10 10 4 18l-9 13q-3 4 -8 4
h-165l-24 -14l-173 -161z" />
    <glyph glyph-name="FL0079h" unicode="y" horiz-adv-x="733" 
d="M591 0h-530q-6 0 -11 8l-3 15l32 114l16 17q7 6 13 6h432l131 459q1 4 10 11l20 11h134l14 -11q4 -6 1 -11l-148 -518q-4 -15 -16.5 -32.5t-28.5 -32.5t-33.5 -25.5t-32.5 -10.5zM556 263l-20 -17q-7 -5 -12 -5h-332q-15 0 -26.5 10.5t-19 26t-9.5 33.5t2 32l79 276
q1 4 10 11l19 11h134l14 -11q4 -5 2 -11l-62 -217h235q6 0 9 -5l11 -18z" />
    <glyph glyph-name="FL007Ah" unicode="z" horiz-adv-x="673" 
d="M326 168v-1q-1 1 0 1zM792 624l-9 13q-3 4 -9 4h-530q-3 0 -7 -2.5l-7 -4.5l-14 -15l-32 -114l6 -17q4 -6 9 -6h311l-408 -317l3 1l-15 -9q-8 -6 -9 -10l-35 -124l9 -18q5 -5 10 -5h530q2 0 6 2t6 4l17 17l32 114l-8 17q0 2 -3 4t-5 2h-308l404 315l-2 -1l16 10q8 6 9 10
l34 121q3 3 -1 9z" />
    <glyph glyph-name="FL007Bh" unicode="{" horiz-adv-x="519" 
d="M305 577q4 15 17 32.5t29.5 33.5t34.5 26.5t33 10.5h227q4 0 9 -6l6 -17l-33 -117l-17 -16q-8 -6 -12 -6h-128l-111 -384h128q5 0 10 -6l7 -17l-34 -117l-16 -17q-8 -6 -12 -6h-227q-15 0 -27 10.5t-19.5 26.5t-10 33.5t1.5 32.5l49 170h-82q-6 0 -9 4l-5 11q-3 4 -1 9
l33 115q1 4 6 9l12 11q4 4 11 4h82z" />
    <glyph glyph-name="FL007Ch" unicode="|" horiz-adv-x="252" 
d="M17 -57l9 -18q5 -5 10 -5h134q4 0 12 6l17 17l219 766q1 4 -3 10l-13 12h-137l-20 -12q-8 -6 -9 -10z" />
    <glyph glyph-name="FL007Dh" unicode="}" horiz-adv-x="519" 
d="M485 407l48 170q4 15 2.5 32.5t-9 33.5t-19.5 26.5t-27 10.5h-227q-6 0 -13 -6l-16 -17l-33 -117l7 -16q4 -6 10 -6h128l-111 -384h-128q-5 0 -12 -6l-17 -17l-34 -117l6 -17q4 -6 10 -6h227q15 0 33 10.5t34 26.5t28.5 33.5t16.5 32.5l49 170h83q6 0 11 4l11 11q5 4 7 9
l33 115q2 5 -2 9l-4 11q-4 4 -9 4h-83z" />
    <glyph glyph-name="FL007Eh" unicode="~" horiz-adv-x="436" 
d="M352 393l-16 14h-116q-2 0 -5.5 -1t-4.5 -3l-15 -12l-79 -113q-5 -8 -3 -12l4 -14l4.5 -4.5t5.5 -2.5h86l25 15l19 28l6 -29l17 -14h114q7 0 11 4l14 12l80 113q3 4 3 10l-4 14q-2 9 -10 9h-86l-25 -15l-20 -29z" />
    <glyph glyph-name="FL007Fh" horiz-adv-x="200" 
 />
    <glyph glyph-name="FL20ACh" unicode="&#x20ac;" horiz-adv-x="825" 
d="M187 467l-12 -7q-6 -4 -7 -11l-25 -88q-3 -7 1 -12l11 -10h86l-8 -27h-81q-6 0 -11 -4l-13 -9q-2 -2 -3.5 -5l-2.5 -5l-25 -88q-3 -7 1 -12l12 -9h86l-22 -77q-5 -15 -2.5 -33t10 -33.5t20 -26t27.5 -10.5h458q15 0 33 10.5t34 26t28.5 33.5t17.5 33l25 90l-5 18
q-2 1 -5 3t-5 2h-132q-2 0 -6 -1.5t-6 -2.5l-22 -19l-9 -31h-262l6 18h194l16 8q8 4 11 13l25 88q1 6 -2 11l-13 12h-194l8 27h194l17 9q8 4 11 13l25 88q1 6 -2 11l-13 11h-194l5 18h262l-9 -31l11 -19q3 -4 10 -4h132q5 0 12 5l16 18l26 90q4 15 2 32.5t-9.5 33.5
t-19 26.5t-26.5 10.5h-458q-15 0 -33.5 -10.5t-35 -26.5t-29.5 -33.5t-17 -32.5l-22 -77h-81q-6 0 -11 -4z" />
    <glyph glyph-name="FL201Ah" unicode="&#x201a;" horiz-adv-x="252" 
d="M17 -57l9 -18q5 -5 10 -5h72q13 0 31 10.5t35 26.5t30.5 34t17.5 32l33 116q2 5 -3 11l-14 12h-137l-19 -12q-7 -6 -9 -11z" />
    <glyph glyph-name="FL00A8h" unicode="&#x192;" horiz-adv-x="775" 
d="M712 619l-170 -596l10 -18q5 -5 9 -5h132q4 0 12 6l17 17l170 596q2 6 -2 11l-14 11h-134l-21 -11q-2 -2 -5 -5.5t-4 -5.5zM217 619l-170 -596l10 -18q5 -5 9 -5h132q4 0 12 6l16 17l170 596q3 5 -1 11l-14 11h-135l-19 -11q-9 -7 -10 -11zM616 401h-247q-1 0 -4 -1
t-6 -3l-12 -11q-5 -4 -7 -9l-32 -113q-2 -5 1 -9l6 -11q2 -2 4.5 -2.5t3.5 -0.5h247q5 0 10 3l13 11q4 3 6 9l32 113q1 6 0 9l-7 11q-3 4 -8 4z" />
    <glyph glyph-name="FL201Eh" unicode="&#x201e;" horiz-adv-x="464" 
d="M222 -57l11 -19q3 -4 9 -4h71q14 0 32 10.5t35 26.5t30.5 34t17.5 32l33 116q2 5 -3 11l-14 12h-137l-20 -12q-7 -6 -9 -11zM19 -57l10 -18q2 -5 9 -5h72q13 0 31 10.5t35 26.5t30.5 34t17.5 32l33 116q2 5 -3 11l-14 12h-137l-19 -12q-7 -6 -9 -11z" />
    <glyph glyph-name="FL2026h" unicode="&#x2026;" horiz-adv-x="714" 
d="M488 23l11 -19q3 -4 9 -4h132q5 0 13 6l17 17l33 116q2 5 -3 11l-15 12h-135l-20 -12q-7 -6 -9 -11zM266 23l11 -19q3 -4 9 -4h133q5 0 13 6l16 17l33 116q1 6 -2 11l-15 12h-136l-21 -12q-2 -2 -4.5 -5.5t-3.5 -5.5zM45 23l9 -18q5 -5 10 -5h133q5 0 13 6l16 17l33 116
q1 2 -0.5 5.5t-1.5 5.5l-15 12h-136l-20 -12q-6 -5 -8 -11z" />
    <glyph glyph-name="FL2020h" unicode="&#x2020;" horiz-adv-x="488" 
d="M199 527l-17 -15l-35 -120q0 -6 2 -9l6 -11q2 -2 4.5 -3t3.5 -1h91l-99 -345l10 -18q5 -5 10 -5h133q5 0 13 6l17 17l99 345h90q6 0 11 4l12 11q6 4 6 9l33 115q2 5 -1 9l-6 11q-3 4 -9 4h-90l28 98q1 4 -3 10l-14 12h-136l-21 -12q-8 -6 -9 -10l-28 -98h-91q-1 0 -4 -1
t-6 -3z" />
    <glyph glyph-name="FL2021h" unicode="&#x2021;" horiz-adv-x="488" 
d="M199 527l-17 -15l-35 -120q0 -6 2 -9l6 -11q2 -2 4.5 -3t3.5 -1h91l-25 -85h-91q-1 0 -4 -1t-6 -3l-12 -11q-5 -4 -7 -9l-32 -114q-1 -2 -1 -5t2 -4l6 -11q2 -2 4.5 -3t3.5 -1h91l-28 -98l10 -18q5 -5 10 -5h133q5 0 13 6l17 17l28 98h90q6 0 11 4l12 11q2 1 4 4t3 5
l32 114q2 5 -1 9l-6 11q-3 4 -9 4h-90l25 85h90q6 0 11 4l12 11q6 4 6 9l33 115q2 5 -1 9l-6 11q-3 4 -9 4h-90l28 98q1 4 -3 10l-14 12h-136l-21 -12q-8 -6 -9 -10l-28 -98h-91q-1 0 -4 -1t-6 -3z" />
    <glyph glyph-name="FL02C6h" unicode="&#x2c6;" horiz-adv-x="515" 
d="M486 704l22 -12h137q5 0 13 6l12 14q3 2 5 7t0 8l-40 111l-16 16h-241l-26 -16l-105 -110q-3 -3 -4.5 -8.5t0.5 -7.5l8 -15q3 -5 9 -5h136l28 12l41 42z" />
    <glyph glyph-name="FL2030h" unicode="&#x2030;" horiz-adv-x="1530" 
d="M206 26l4 -18q5 -8 10 -8h169q6 0 11 5l18 14l638 596q4 4 6 9q2 6 -1 10l-9 13q-4 4 -9 4h-167l-25 -14l-639 -597q-8 -6 -6 -14zM666 -48h301q10 0 21 6t21 15.5t17.5 20.5t10.5 21l69 241q3 9 1.5 20t-6 20.5t-12 16t-17.5 6.5h-301q-10 0 -21 -6.5t-21 -16
t-17.5 -20.5t-10.5 -20l-69 -241q-3 -9 -1.5 -20t6 -20.5t12 -16t17.5 -6.5zM927 174l-22 -77h-93l22 77h93zM191 333h301q10 0 21.5 6t21.5 15t17.5 20t10.5 21l69 241q3 9 1.5 20t-6 20.5t-12.5 16t-18 6.5h-301q-10 0 -21 -6.5t-20.5 -16t-17 -20.5t-10.5 -20l-69 -241
q-3 -9 -1.5 -20t6 -20t11.5 -15.5t17 -6.5zM452 554l-22 -77h-93l22 77h93zM1088 -49h300q10 0 21.5 6t21.5 15t17.5 20t10.5 21l69 241q3 9 1.5 20t-6 20.5t-12.5 16t-18 6.5h-300q-10 0 -21 -6.5t-21 -16t-17.5 -20.5t-10.5 -20l-69 -241q-3 -9 -1.5 -20t6 -20t12 -15.5
t17.5 -6.5zM1347 172l-22 -77h-92l22 77h92z" />
    <glyph glyph-name="FL0160h" unicode="&#x160;" horiz-adv-x="727" 
d="M566 842l-22 12h-138q-6 0 -13 -6l-12 -13q-3 -3 -5 -8t0 -8l41 -111l16 -16h241l26 16l106 110q3 3 4 8.5t-1 8.5l-9 14q-3 5 -9 5h-135l-29 -12l-41 -42zM195 548l-57 -201q-4 -14 -2 -32t9 -34t19 -26.5t27 -10.5h372l-24 -82h-433q-5 0 -12 -5l-16 -18l-33 -116
l3 -15q5 -8 11 -8h533q15 0 33 10.5t34 26t28.5 33.5t17.5 33l57 201q4 15 2 32.5t-9.5 33.5t-19 26.5t-26.5 10.5h-373l23 82h433q5 0 13 6l17 17l33 117l-6 16q-5 6 -9 6h-532q-15 0 -33 -10.5t-34.5 -26.5t-29 -33.5t-16.5 -32.5z" />
    <glyph glyph-name="FL2039h" unicode="&#x2039;" horiz-adv-x="504" 
d="M115 319l150 -300l9 -14q5 -5 10 -5h168q8 0 14 8l14 18q6 6 2 14l-142 288l307 287q4 4 6 9q2 6 -1 10l-9 13q-4 4 -9 4h-167l-24 -14l-322 -300q-11 -9 -6 -18z" />
    <glyph glyph-name="FL0152h" unicode="&#x152;" horiz-adv-x="1199" 
d="M1124 6l16 16l34 117l-8 18q-3 5 -10 5h-430l94 327h430q5 0 13 6l18 17l33 117l-7 16q-5 6 -9 6h-985q-15 0 -33 -10.5t-34.5 -26.5t-29.5 -33.5t-17 -32.5l-127 -445q-5 -15 -2.5 -33t10 -33.5t19.5 -26t27 -10.5h985q5 0 13 6zM364 489h274l-94 -327h-274zM1182 392
l-7 10q-2 5 -7 5h-335q-6 0 -10 -4l-14 -11q-5 -5 -6 -9l-33 -115q-2 -5 1 -9l7 -11q3 -4 8 -4h335q7 0 10 4l13 11q5 4 7 9l33 115q2 5 -2 9z" />
    <glyph glyph-name="FL017Dh" unicode="&#x17d;" horiz-adv-x="673" 
d="M540 842l-22 12h-138q-5 0 -12 -6l-13 -13q-3 -3 -5 -8t0 -8l40 -111l16 -16h242l26 16l106 110q3 3 4 8.5t-1 8.5l-9 14q-3 5 -8 5h-137l-28 -12l-41 -42zM328 170l-1 -1zM802 634l-10 13q-4 4 -8 4h-539q-7 0 -15 -8l-13 -14l-33 -117l7 -17q4 -6 8 -6h317l-414 -322
l1 1l-14 -8q-7 -6 -9 -11l-36 -126l10 -18q2 -5 9 -5h539q4 0 12 6l17 17l33 116l-8 18q-3 5 -9 5h-313l410 321l-2 -1l17 9q7 6 9 11l35 122q2 6 -1 10z" />
    <glyph glyph-name="FL2018h" unicode="&#x2018;" horiz-adv-x="252" 
d="M393 634l-9 13q-4 4 -9 4h-71q-14 0 -32 -11t-35 -26.5t-30 -33.5t-17 -32l-34 -120q-2 -5 3 -11l12 -12h137l21 12q7 6 9 11l56 196q2 6 -1 10z" />
    <glyph glyph-name="FL2019h" unicode="&#x2019;" horiz-adv-x="252" 
d="M156 428l10 -18q3 -5 9 -5h72q13 0 31 10.5t35 26.5t30 33.5t18 32.5l34 121q1 4 -3 10l-13 12h-137l-20 -12q-8 -6 -9 -10z" />
    <glyph glyph-name="FL201Ch" unicode="&#x201c;" horiz-adv-x="464" 
d="M395 633l-10 13q-3 4 -9 4h-71q-14 0 -32 -11t-34.5 -26.5t-29.5 -33.5t-17 -32l-35 -120q0 -7 3 -11l13 -12h137l20 12q9 7 9 11l57 196q2 6 -1 10zM599 633l-11 13q-3 4 -8 4h-71q-14 0 -32 -11t-35 -26.5t-30 -33.5t-17 -32l-35 -120q0 -7 3 -11l14 -12h137l20 12
q9 7 9 11l57 196q2 6 -1 10z" />
    <glyph glyph-name="FL201Dh" unicode="&#x201d;" horiz-adv-x="464" 
d="M361 428l11 -19q3 -4 9 -4h71q14 0 32 10.5t35 26.5t30 33.5t18 32.5l34 121q1 4 -3 10l-13 12h-137l-21 -12q-8 -6 -9 -10zM158 428l11 -18q0 -2 3 -3.5t5 -1.5h72q13 0 31 10.5t35 26.5t30 33.5t18 32.5l34 121q1 4 -3 10l-13 12h-137l-20 -12q-8 -6 -9 -10z" />
    <glyph glyph-name="FL2022h" unicode="&#x2022;" 
d="M122 0h554q15 0 33 10.5t34.5 26t29 33.5t17.5 33l127 445q4 15 2 32.5t-9.5 33.5t-19.5 26.5t-27 10.5h-554q-15 0 -33 -10.5t-34.5 -26.5t-29 -33.5t-16.5 -32.5l-127 -445q-5 -15 -3 -33t9.5 -33.5t19.5 -26t27 -10.5z" />
    <glyph glyph-name="FL2013h" unicode="&#x2013;" horiz-adv-x="436" 
d="M501 392l-7 10q-3 5 -8 5h-312q-7 0 -11 -4l-12 -11q-5 -5 -6 -9l-33 -115q-2 -5 1 -9l5 -11q3 -4 9 -4h312q6 0 11 4l13 11q5 4 7 9l33 115q2 5 -2 9z" />
    <glyph glyph-name="FL2014h" unicode="&#x2014;" horiz-adv-x="532" 
d="M594 392l-7 10q-3 5 -7 5h-405q-7 0 -11 -4l-12 -11q-5 -5 -6 -9l-33 -115q-2 -5 1 -9l5 -11q3 -4 9 -4h405q5 0 10 4l13 11q5 4 7 9l33 115q2 5 -2 9z" />
    <glyph glyph-name="FL02DCh" unicode="&#x2dc;" horiz-adv-x="579" 
d="M586 842l-21 12h-186l-26 -16l-105 -110q-3 -3 -4.5 -8.5t0.5 -7.5l8 -15q3 -5 9 -5h136l28 12l41 42l21 -42l22 -12h185l27 16l106 110q3 3 4 8.5t-1 8.5l-10 14q-3 5 -8 5h-137l-28 -12l-41 -42z" />
    <glyph glyph-name="FL2122h" unicode="&#x2122;" horiz-adv-x="332" 
d="M316 545h13q15 0 18 14l8 28l2 -28q2 -11 6 -12.5t11 -1.5t11 0.5t6.5 2t4.5 5t6 9.5l18 26l-9 -29q-3 -14 9 -14h14q14 0 17 14l38 130q3 14 -9 14h-5q-19 0 -36 -12t-38 -47v2l2 9q-2 17 -12.5 32.5t-18.5 15.5q-13 0 -17 -12q3 9 7 10q-11 -2 -19 -13l-37 -129
q-3 -14 10 -14zM232 545h19q15 0 18 14l28 96h30q13 0 17 13l6 21q3 14 -9 14h-106q-15 0 -18 -14l-6 -21q-4 -13 10 -13h30l-28 -96q-3 -14 9 -14z" />
    <glyph glyph-name="FL0161h" unicode="&#x161;" horiz-adv-x="727" 
d="M561 830l-23 11h-136q-3 0 -12 -6l-12 -13q-8 -6 -6 -15l41 -110l17 -15h238l24 15l104 109q8 8 4 16l-9 14q-3 5 -9 5h-134l-27 -11l-41 -42zM195 540l-57 -198q-4 -14 -2 -31.5t9 -33t19 -26t27 -10.5h367l-23 -81h-427q-6 0 -13 -6l-16 -17l-32 -114l3 -15q5 -8 11 -8
h524q15 0 33 10.5t34 25.5t28.5 32.5t16.5 32.5l57 198q4 15 2 32.5t-9.5 33t-19.5 26t-27 10.5h-366l23 81h426q4 0 12 6l18 17l32 114l-7 16q-5 6 -8 6h-524q-15 0 -33 -10.5t-34 -25.5t-28 -32.5t-16 -32.5z" />
    <glyph glyph-name="FL203Ah" unicode="&#x203a;" horiz-adv-x="503" 
d="M419 637l-16 14h-168q-7 0 -11 -4l-17 -13q-6 -4 -7 -10q-2 -5 0 -9l142 -287l-307 -288q-8 -6 -6 -14l4 -18q3 -8 10 -8h168q7 0 12 5l18 14l320 300q10 9 6 18z" />
    <glyph glyph-name="FL0153h" unicode="&#x153;" horiz-adv-x="1199" 
d="M1112 6l15 16l33 115l-7 17q-5 6 -9 6h-424l92 322h424q5 0 13 6l17 17l32 114l-6 16q-5 6 -9 6h-971q-15 0 -32.5 -10.5t-33.5 -25.5t-28.5 -32.5t-16.5 -32.5l-126 -439q-4 -15 -2 -32.5t9.5 -32.5t19 -25.5t26.5 -10.5h971q5 0 13 6zM363 482h270l-92 -322h-270z
M1169 386l-6 10q-5 5 -9 5h-329q-6 0 -11 -4l-12 -11q-5 -4 -7 -9l-32 -113q-2 -5 1 -9l6 -11q1 -3 9 -3h329q6 0 11 3l12 11q5 4 7 9l32 113q2 5 -1 9z" />
    <glyph glyph-name="FL017Eh" unicode="&#x17e;" horiz-adv-x="673" 
d="M535 830l-23 11h-135q-4 0 -13 -6l-11 -13q-8 -6 -6 -15l40 -110l17 -15h237l25 15l104 109q8 8 4 16l-8 14q-3 5 -10 5h-134l-27 -11l-40 -42zM326 168v-1q-1 1 0 1zM792 624l-9 13q-3 4 -9 4h-530q-3 0 -7 -2.5l-7 -4.5l-14 -15l-32 -114l6 -17q4 -6 9 -6h311
l-408 -317l3 1l-15 -9q-8 -6 -9 -10l-35 -124l9 -18q5 -5 10 -5h530q2 0 6 2t6 4l17 17l32 114l-8 17q0 2 -3 4t-5 2h-308l404 315l-2 -1l16 10q8 6 9 10l34 121q3 3 -1 9z" />
    <glyph glyph-name="FL0178h" unicode="&#x178;" horiz-adv-x="733" 
d="M347 715l12 -19q3 -4 7 -4h134q5 0 13 6l16 17l33 116q1 4 -3 10l-13 13h-136l-22 -13q-6 -5 -8 -10zM599 715l13 -19q3 -4 7 -4h133q5 0 13 6l16 17l33 116q1 4 -3 10l-13 13h-135l-22 -13q-8 -6 -9 -10zM596 385l-12 19q0 2 -3 3t-5 1h-239l63 221q2 5 -2 10l-14 12
h-136l-21 -12q-2 -2 -4.5 -5t-3.5 -5l-80 -281q-4 -14 -2 -32t9 -34t19 -26.5t27 -10.5h337q7 0 12 5l22 18zM59 0h538q15 0 33 10.5t34.5 26t29 33.5t17.5 33l150 526q1 4 -3 10l-13 12h-136l-21 -12q-8 -6 -9 -10l-134 -467h-439q-5 0 -12 -5l-16 -18l-33 -116l3 -15
q5 -8 11 -8z" />
    <glyph glyph-name="FL00A1h" unicode="&#xa1;" horiz-adv-x="252" 
d="M157 431l19 17q7 5 13 5h134q3 0 8 -6l7 -17l-116 -407q-2 -6 -10 -11l-20 -12h-137l-13 12q-3 7 -2 11zM214 630l21 17q4 4 11 4h134q3 0 8 -6l7 -16l-33 -117q-1 -4 -9 -10l-21 -13h-137l-12 13q-4 6 -3 10z" />
    <glyph glyph-name="FL00A2h" unicode="&#xa2;" horiz-adv-x="727" 
d="M179 491l-41 -144q-4 -14 -2 -32t9 -34t19 -26.5t27 -10.5h144l-7 -25h-205q-6 0 -13 -6l-16 -17l-33 -116l3 -16q2 -2 5 -4.5t6 -2.5h206l-9 -34l10 -18q5 -5 10 -5h133q7 0 15 8l13 15l9 34h146q15 0 33 10.5t34 26t28.5 33.5t17.5 33l41 144q4 15 2 32.5t-9.5 33.5
t-19 26.5t-26.5 10.5h-146l7 25h206q2 0 6 2l6 3l17 18l34 116l-6 17q-5 6 -10 6h-207l10 35q1 2 -0.5 5t-1.5 5l-13 12h-136l-22 -12q-6 -5 -8 -10l-10 -35h-144q-15 0 -33 -10.5t-34 -26t-28.5 -33.5t-16.5 -33zM563 244l-7 -25h-47l7 25h47zM343 432h46l-7 -25h-46z" />
    <glyph glyph-name="FL00A3h" unicode="&#xa3;" horiz-adv-x="758" 
d="M166 403l-17 -16l-34 -119q-2 -5 1 -9l5 -11q3 -4 9 -4h82l-24 -82h-82q-7 0 -10 -3l-12 -11q-5 -5 -6 -10l-33 -114q-2 -6 1 -10l5 -10q3 -4 9 -4h624q5 0 13 6l16 17l33 116l-7 18q-3 5 -10 5h-358l94 327h117q4 0 12 6l18 17l33 117l-7 16q-5 6 -8 6h-217
q-15 0 -33 -10.5t-34.5 -26.5t-29.5 -33.5t-17 -32.5l-40 -141h-82q-7 0 -11 -4zM672 407h-195q-7 0 -11 -4l-13 -11q-5 -5 -6 -9l-33 -115q-2 -5 1 -9l6 -11q3 -4 9 -4h195q6 0 11 4l13 11q2 2 3.5 4.5t2.5 4.5l33 115q1 3 -1 9l-6 11q-4 4 -9 4z" />
    <glyph glyph-name="FL00A4h" unicode="&#xa4;" horiz-adv-x="745" 
d="M421 637l-15 14h-169q-6 0 -10 -4l-18 -13q-6 -4 -7 -10q-2 -5 0 -9l87 -176l-64 -224l-188 -175q-8 -6 -6 -14l4 -18q5 -8 11 -8h168q6 0 11 5l18 14l136 126h58l62 -126l9 -14q5 -5 10 -5h168q3 0 7.5 2.5t6.5 5.5l14 18q6 6 2 14l-87 174l65 225l187 176q4 4 6 9
q2 6 -1 10l-9 13q-4 4 -9 4h-167l-24 -14l-68 -62.5l-66 -62.5h-61zM517 367l-22 -77h-93l22 77h93z" />
    <glyph glyph-name="FL00A5h" unicode="&#xa5;" horiz-adv-x="775" 
d="M241 204l-17 -16l-34 -119q-2 -5 1 -9l6 -10q3 -4 9 -4h96l-6 -23l10 -18q5 -5 10 -5h133q4 0 12 6l17 17l6 23h96q6 0 11 4l12 10q5 4 7 9l33 115q1 4 -2 9l-6 11q-3 4 -8 4h-96l4 14h96q6 0 11 4l12 11q2 1 4 4t3 5l32 114q2 5 -1 9l-6 11q-3 4 -9 4h-29l248 231
q4 4 6 9q2 6 -1 10l-10 13q-1 4 -8 4h-168l-24 -14l-176 -164l-79 164l-17 14h-168q-7 0 -11 -4l-16 -13q-6 -4 -7 -10q-2 -5 0 -9l115 -231h-29q-6 0 -11 -4l-12 -11q-5 -4 -7 -9l-32 -114q-1 -2 -1 -5t2 -4l6 -11q3 -4 9 -4h96l-4 -14h-96q-7 0 -12 -4z" />
    <glyph glyph-name="FL00A6h" unicode="&#xa6;" horiz-adv-x="252" 
d="M7 -89l10 -19q3 -5 10 -5h134q3 0 11 6l17 18l237 826q2 5 -3 11l-13 13h-137l-20 -13q-7 -6 -9 -11z" />
    <glyph glyph-name="FL00A7h" unicode="&#xa7;" horiz-adv-x="727" 
d="M206 586l-95 -332q-4 -15 -2 -32.5t9 -33.5t19 -26.5t27 -10.5h372l-7 -25h-433q-4 0 -13 -6l-15 -17l-34 -116l4 -16q3 -8 10 -8h533q15 0 33 10.5t34.5 26.5t29 33.5t16.5 32.5l95 332q4 15 2 32.5t-9.5 33.5t-19 26.5t-26.5 10.5h-373l7 25h433q4 0 13 6l16 17l34 116
l-6 18q-3 5 -10 5h-532q-15 0 -33 -10.5t-34 -26t-28.5 -33t-16.5 -32.5zM316 338h274l-7 -25h-274z" />
    <glyph glyph-name="FL00AAh" unicode="&#xa8;" horiz-adv-x="515" 
d="M241 715l10 -18q3 -5 9 -5h133q5 0 13 6l16 17l33 116q2 5 -2 10l-14 13h-136l-21 -13q-6 -5 -8 -10zM493 715l12 -19q3 -4 7 -4h133q5 0 13 6l16 17l33 116q1 2 -0.5 5t-1.5 5l-14 13h-135l-22 -13q-6 -5 -8 -10z" />
    <glyph glyph-name="FL00A9h" unicode="&#xa9;" horiz-adv-x="269" 
d="M333 701q28 0 48 -14h-1q28 -17 32 -42l-1 1q3 -13 3.5 -26.5t-3.5 -27.5q-7 -22 -31 -54l2 1q-13 -14 -24.5 -22.5t-27.5 -17.5q-29 -10 -43.5 -12t-15.5 -2q-14 0 -26 2.5t-24 10.5q-10 10 -17 18t-12 19q-7 28 2 57q5 16 11 28t14 23q24 30 56 44q17 7 30.5 10.5
t27.5 3.5zM321 659q-13 0 -26.5 -5.5t-25.5 -14.5t-20.5 -21.5t-12.5 -25.5q-4 -16 0 -31v1q5 -14 18 -25h-6h5q27 -9 30 -9q15 0 35 9q16 5 32 24q14 15 18 31q5 17 0.5 33t-19.5 25q-12 9 -28 9zM246 538l0.5 -0.5t1.5 -0.5zM335 590l13 -3q13 -5 5 -18q-26 -45 -71 -45
q-29 0 -41 18t-2 50q10 34 31.5 51t51.5 17q41 0 44 -40q0 -14 -15 -17l-16 -3q-6 -1 -8.5 1.5t-4.5 6.5t-4 7t-8 3q-19 0 -27 -26q-7 -25 11 -25q14 0 22 14q7 12 19 9z" />
    <glyph glyph-name="FL00ABh" unicode="&#xaa;" horiz-adv-x="861" 
d="M831 34l-1 -2q-2 -9 -12 -20.5t-19 -11.5h-475q-6 0 -9 4l-8 9q-3 3 0 10l33 117l18 17q7 5 12 5h232l2 4l-60 258l-332 -416q-6 -8 -13 -8h-152q-15 0 -16.5 7.5t1.5 18.5l4 13q2 8 4.5 13t10.5 13l71 87.5l81 98.5l85 104l85 104.5l80.5 98.5l71.5 86q6 7 13 7h140
q3 0 6 -2t3 -5l145 -591z" />
    <glyph glyph-name="FL00ACh" unicode="&#xab;" horiz-adv-x="858" 
d="M458 319l150 -300l9 -14q5 -5 9 -5h170q8 0 14 8l14 18q6 6 2 14l-143 288l308 287q4 4 6 9q2 6 -1 10l-10 13q-1 4 -8 4h-168l-24 -14l-322 -300q-11 -9 -6 -18zM118 319l150 -300l9 -14q5 -5 10 -5h168q7 0 15 8l13 18q9 8 3 14l-142 288l307 287q5 8 5 9q2 5 0 10
l-10 13q-4 4 -9 4h-167l-24 -14l-322 -300q-8 -9 -6 -18z" />
    <glyph glyph-name="FL00ADh" unicode="&#xac;" horiz-adv-x="491" 
d="M164 403l-18 -16l-34 -119q-2 -5 1 -9l6 -11q3 -4 9 -4h226l-29 -101q-2 -5 1 -9l9 -10q3 -4 7 -4h115q7 0 12 4l11 10q5 4 7 9l69 240q2 5 -2 9l-5 11q-1 4 -8 4h-366q-7 0 -11 -4z" />
    <glyph glyph-name="FL00AEh" unicode="&#xad;" horiz-adv-x="348" 
d="M416 392l-6 10q-3 5 -8 5h-229q-2 0 -5.5 -1t-4.5 -3l-13 -11q-5 -5 -6 -9l-33 -115q-2 -5 1 -9l6 -11q0 -2 3 -3t5 -1h229q6 0 11 4l12 11q5 4 7 9l33 115q2 5 -2 9z" />
    <glyph glyph-name="FL00AFh" unicode="&#xae;" horiz-adv-x="269" 
d="M333 701q28 0 48 -14h-1q28 -17 32 -42l-1 1q3 -13 3.5 -26.5t-3.5 -27.5q-7 -22 -31 -54l2 1q-10 -13 -24 -23t-31 -18q-24 -10 -39.5 -11.5t-16.5 -1.5q-31 0 -51 14q-9 8 -15.5 17t-13.5 23q-6 24 3 53q5 16 11 28t14 23q24 30 56 44q17 7 30.5 10.5t27.5 3.5z
M321 659q-17 0 -35 -8.5t-32 -25.5q-8 -10 -12.5 -17.5t-6.5 -13.5l1.5 -8t0.5 -28q1 -10 16 -21q27 -9 30 -9q15 0 35 9h-1q8 3 15.5 9t14.5 13q11 19 16 27l5 8q9 38 -19 56q-12 9 -28 9zM233 540l29 102q5 14 17 14h35q24 0 30 -6q9 -5 13 -11q5 -12 1 -25
q-3 -10 -10 -19.5t-17 -14.5l2 -2l5 -11l7 -20q3 -8 -3 -14t-14 -6h-22q-2 0 -4.5 2.5l-4.5 4.5l-5 19q-3 14 -7 15h-1l-8 -28q-4 -13 -18 -13h-16q-13 0 -9 13zM296 611h6q10 0 12 2q0 1 -2 3q0 -1 -10 -1h-5z" />
    <glyph glyph-name="FL00B0h" unicode="&#xaf;" horiz-adv-x="557" 
d="M693 647l-7 10q-3 5 -8 5h-430q-7 0 -10 -4l-12 -11q-6 -4 -7 -10l-33 -113q-2 -6 1 -10l7 -10q0 -4 7 -4h430q7 0 12 4l11 10q6 4 7 10l33 113q2 6 -1 10z" />
    <glyph glyph-name="FL00B2h" unicode="&#xb0;" horiz-adv-x="252" 
d="M354 760l1 2h-1v-2zM335 784l1 3h1l-11 -3h9zM361 784h4l3 -3l-5 12zM318 762l11 -8l-1 5v3h-10zM328 762l7 22h26l-7 -22h-26zM450 841l-13 13h-137l-20 -13q-8 -6 -9 -10l-33 -116l5 -15q2 -8 9 -8h134q7 0 12 5l22 18l33 116q1 4 -3 10z" />
    <glyph glyph-name="FL00B1h" unicode="&#xb1;" horiz-adv-x="491" 
d="M324 576l-29 -102h-101q-6 0 -11 -4l-12 -10q-6 -4 -7 -10l-32 -113q-2 -5 1 -10l6 -11q3 -4 8 -4h101l-28 -101q-3 -6 1 -10l8 -10q2 -2 4.5 -3t3.5 -1h115q6 0 11 4l13 10q4 4 7 10l28 101h102q2 0 5.5 1t5.5 3l12 11q3 2 4 4.5t3 5.5l32 113q2 6 -1 10l-6 10q0 2 -3 3
t-5 1h-102l29 102q2 6 -1 10l-7 9q-4 4 -9 4h-115q-1 0 -4.5 -1t-5.5 -3l-14 -9q-6 -4 -7 -10zM94 159l-18 -16l-34 -119q-2 -6 1 -10l6 -10q3 -4 9 -4h366q7 0 10 4l12 10q6 4 7 10l33 114q2 6 -2 10l-5 11q-1 2 -4 2.5t-5 0.5h-366q-7 0 -10 -3z" />
    <glyph glyph-name="FL00B3h" unicode="&#xb2;" horiz-adv-x="484" 
d="M203 585l9 -19q3 -4 10 -4h80l-125 -84q-6 -5 -8 -11l-18 -64q-3 -9 -2 -20t5.5 -21t11.5 -16.5t17 -6.5h297q5 0 13 6l16 17l28 100q1 4 -3 10l-13 13h-86l128 82q2 2 4.5 5t3.5 6l18 65q3 9 1.5 20t-6 21t-12 16.5t-17.5 6.5h-295l-20 -13q-8 -6 -9 -10z" />
    <glyph glyph-name="FL00B5h" unicode="&#xb3;" horiz-adv-x="755" 
d="M812 381l-36 -89q-5 -11 -17 -11l-18 2q-13 0 -9 13l27 93q2 7 7.5 11.5t12.5 2.5l28 -7q11 -2 5 -15zM761 246l-23 -18q-4 -4 -11 -4q-5 0 -9 4l-9 13q-3 4 -1 10q1 6 7 10l16 12q7 5 15 3l15 -8q8 -2 8 -9t-8 -13zM721 262l-18 -13q-21 0 -41 32l-6 -18q-3 -13 -16 -13
l-20 -2q-13 0 -10 14l35 121q3 10 12.5 13t13.5 -5l26 -50l16 48q2 8 8.5 11.5t12.5 1.5l15 -7q9 -4 7 -12zM598 251l-11 3q-2 1 -5 3.5t-3 4.5q-2 21 -8 21q-5 0 -21 -21q-2 -3 -6.5 -5.5t-7.5 -2.5h-24q-7 0 -9.5 4.5t-0.5 10.5q26 63 85 126q8 11 29 11q31 0 30 -49
l-27 -94q-2 -7 -8.5 -10.5t-12.5 -1.5zM554 388l-41 -120q-3 -11 -15 -12l-28 -8q-8 -2 -11 2.5t-1 11.5l47 122q1 3 4.5 6.5t7.5 4.5l23 7q9 2 13 -2t1 -12zM463 258l-18 -14q-24 0 -42 34l-5 -18q-4 -13 -16 -14l-21 -4q-15 -1 -12 14l35 122q3 10 13 13.5t14 -4.5l28 -50
l16 46q2 6 7 10t12 3l15 -5q11 -1 8 -13zM391 347l-2 -5q-41 -98 -82 -98q-2 0 -3.5 -0.5t-2.5 -0.5h2q-2 -1 -16 -1q-39 0 -42 29q13 47 35 78t51 47h16q47 0 44 -49zM296 387l-11 -30q-2 -9 -9.5 -12.5t-14.5 1.5q-9 2 -8 12q-2 -8 -0.5 -9.5t3.5 -1.5q-7 -1 -21 -12l2 2
q-19 -19 -27 -43q-3 -11 7 -11h11q8 6 15.5 3t4.5 -13l-4 -21q-1 -8 -13 -13l-10 -2h1q-6 -2 -10 -2.5t-9 -0.5q-43 0 -38 62q0 6 2 14l2 7q20 68 115 84q7 2 11 -2.5t1 -11.5zM204 382l-41 -118q-1 -3 -4 -6t-7 -5l-25 -10q-8 -3 -13 1.5t-2 12.5l45 124q3 10 15 12l20 3
q7 2 10.5 -3t1.5 -11zM589 337v-8l-9 -12l-7 20h16zM336 326q2 6 1 7l1 3q-3 5 -6 5q-9 0 -26 -26l-1 -6q-6 -17 -1 -17q6 0 19 7q5 7 8 12.5t5 14.5z" />
    <glyph glyph-name="FL00B4h" unicode="&#xb4;" horiz-adv-x="268" 
d="M240 713l4 -14l4.5 -4.5t5.5 -2.5h136l26 16l104 111q3 3 4 8t-1 8l-5 13q-5 6 -8 6h-138l-32 -13l-96 -114q-3 -3 -4 -7v-7z" />
    <glyph glyph-name="FL00BCh" unicode="&#xb5;" 
d="M122 0h554q15 0 33 10.5t34.5 26t29 33.5t17.5 33l150 526q1 4 -3 10l-13 12h-136l-21 -12q-8 -6 -9 -10l-134 -467h-358l134 467q1 4 -3 10l-13 12h-136l-21 -12q-6 -5 -8 -10l-150 -526q-5 -15 -3 -33t9.5 -33.5t19.5 -26t27 -10.5zM658 407h-285q-7 0 -11 -4l-13 -11
q-5 -5 -6 -9l-33 -115q-2 -5 1 -9l6 -11q3 -4 9 -4h285q6 0 11 4l13 11q4 3 6 9l33 115q2 6 -1 9l-6 11q-4 4 -9 4z" />
    <glyph glyph-name="FL0C3Dh" unicode="&#xb6;" horiz-adv-x="757" 
d="M813 381l-36 -89q-5 -11 -17 -11l-18 2q-13 0 -9 13l27 93q2 7 7.5 11.5t12.5 2.5l28 -7q11 -2 5 -15zM762 246l-23 -18q-4 -4 -11 -4q-5 0 -9 4l-9 13q-3 4 -1 10q1 6 7 10l16 12q7 5 15 3l15 -8q8 -2 8 -9t-8 -13zM722 262l-18 -13q-21 0 -41 32l-6 -18q-3 -13 -16 -13
l-21 -2q-12 0 -9 14l35 121q3 10 12.5 13t13.5 -5l25 -50l8.5 24.5t7.5 23.5q2 8 8.5 11.5t12.5 1.5l16 -7q9 -4 7 -12zM599 250l-12 4q-2 1 -5 3.5t-3 4.5q-2 21 -7 21t-21 -21q-6 -8 -14 -8h-24q-7 0 -9.5 4.5t-0.5 10.5q14 32 35.5 63.5t48.5 62.5q8 11 30 11
q29 0 30 -52l-27 -91q-2 -7 -8.5 -11t-12.5 -2zM554 388l-41 -120q-4 -10 -15 -12l-27 -8q-8 -2 -11 2.5t-1 11.5l46 122q1 3 4.5 6.5t7.5 4.5l23 7q9 2 13 -2t1 -12zM464 258l-18 -14q-12 0 -22 7.5t-21 24.5l-4 -16q-4 -13 -16 -14l-21 -4q-15 -1 -12 14l35 122
q3 10 13 13.5t14 -4.5l28 -50l16 46q2 6 7 10t12 3l15 -5q11 -1 8 -13zM392 347l-2 -5q-41 -98 -83 -98q-2 0 -3.5 -0.5t-2.5 -0.5h2q-2 -1 -16 -1q-38 0 -41 29q26 92 85 125h16q48 0 45 -49zM297 387l-11 -30q-2 -9 -9.5 -12.5t-14.5 1.5q-9 2 -8 12q-2 -8 -0.5 -9.5
t3.5 -1.5q-8 -1 -22 -12l2 2q-18 -16 -26 -43q-3 -11 6 -11h12q8 6 15.5 3t4.5 -13l-4 -21q-1 -8 -13 -13l-17 -4q-1 -1 -4 -1h-8q-42 0 -37 62q0 6 2 14l2 7q20 68 115 84q7 2 11 -2.5t1 -11.5zM205 382l-41 -118q-1 -3 -5 -6t-7 -5l-26 -10q-8 -3 -12.5 1.5t-1.5 12.5
l46 124q3 10 15 12l20 3q7 2 10.5 -3t1.5 -11zM590 337l1 -7l-10 -13l-7 20h16zM337 326q2 6 1 7l1 3q-3 5 -7 5q-8 0 -25 -26l-1 -6q-6 -17 -2 -17t20 8q10 14 13 26z" />
    <glyph glyph-name="FL00B7h" unicode="&#xb7;" horiz-adv-x="252" 
d="M110 267l9 -18q5 -5 10 -5h134q4 0 12 6l17 17l33 117q1 4 -3 10l-13 13h-137l-20 -13q-8 -6 -9 -10z" />
    <glyph glyph-name="FL00B7h" unicode="&#x2219;" horiz-adv-x="252" 
d="M110 267l9 -18q5 -5 10 -5h134q4 0 12 6l17 17l33 117q1 4 -3 10l-13 13h-137l-20 -13q-8 -6 -9 -10z" />
    <glyph glyph-name="FL00B8h" unicode="&#xb8;" horiz-adv-x="243" 
d="M53 13l-8 -28h-51q-7 0 -11 -4l-12 -10q-7 -5 -7 -9l-30 -106q-2 -6 1 -10l6 -10q3 -4 9 -4h183q6 0 11 4l14 9q5 5 6 10l46 158q3 14 -10 14h-130q-14 0 -17 -14z" />
    <glyph glyph-name="FL00BEh" unicode="&#xb9;" horiz-adv-x="270" 
d="M428 684l-5 17q-3 6 -10 6h-155q-6 0 -10 -4l-13 -11q-5 -5 -6 -9l-28 -97q-2 -6 1 -10l6 -11q1 -3 8 -3h21l-57 -200l10 -19q3 -5 10 -5h107q4 0 13 6l16 18z" />
    <glyph glyph-name="FL00BAh" unicode="&#xba;" horiz-adv-x="484" 
d="M183 339h301q10 0 21.5 6.5t21.5 16t18 20.5t11 21l68 240q3 9 1.5 20t-6 21t-12 16.5t-17.5 6.5h-301q-10 0 -21 -6.5t-21 -16.5t-17.5 -21t-10.5 -20l-68 -240q-3 -9 -2 -20t5.5 -21t11.5 -16.5t17 -6.5zM444 562l-22 -77h-93l22 77h93z" />
    <glyph glyph-name="FL00BBh" unicode="&#xbb;" horiz-adv-x="858" 
d="M566 319l-322 -300l-18 -14q-3 -5 -11 -5h-168q-6 0 -11 8l-4 18q1 9 6 14l308 288l-143 287q1 5 1 9q2 6 6 10l18 13q2 2 5.5 3t4.5 1h168l16 -14l150 -300q1 -9 -6 -18zM906 319l-323 -300l-17 -14q-5 -5 -12 -5h-168q-3 0 -6.5 2.5t-3.5 5.5l-4 18q-2 8 6 14l309 288
l-144 287q-2 4 0 9q1 6 7 10l17 13q4 4 11 4h167l16 -14l151 -300q4 -9 -6 -18z" />
    <glyph glyph-name="FL0192h" unicode="&#xbc;" horiz-adv-x="1034" 
d="M1080 335l2 2l-21 -28q-8 -9 -15 -9h-29l6 -18t6 -17q-1 -5 -0.5 -7.5l0.5 -2.5l-2 -9q-9 -30 -44 -44l-47 12l-25 -68q-18 -25 -44 -25q-16 0 -27.5 5.5t-26.5 15.5l-75 -68l-39 -9q-3 -1 -7 0.5t-4 3.5l-22 34l-126 -62q-3 -1 -6.5 -1.5t-4.5 0.5l-17 8q-7 4 -6 13
l7 24q-37 -6 -76.5 -13.5t-76.5 -12.5l-17 16q-2 2 -2.5 7t1.5 7l8 19q-35 3 -70.5 7t-70.5 7q-12 2 -8 14l7 26l12 12l-37 9.5t-36 7.5q-30 1 -18 41q0 2 2.5 5t4.5 5l29 20l-42 26q-2 1 -3.5 4.5t-2.5 5.5l4 34q1 5 6 10t11 6l48 9l-15 37l17 44q2 6 7 10t10 3l58 -7
q31 96 69 96h7l52 -24q59 64 97 77q3 2 7.5 1.5t6.5 -2.5l39 -35l120 58q11 5 16 -2l17 -23q4 -6 1 -11l-5 -10l117 25l47 -5q13 -1 8 -15l-12 -26h130q7 0 10 -5l11 -18q-8 -28 -19 -40l91 -29q6 -6 5 -13l-2 -7q-5 -16 -11.5 -25t-21.5 -16q50 -28 44 -51q-2 -5 -7 -9z
M956 318q-3 7 2 14t13 8l50 5l-67 47q-8 5 -4 14t14 11l45 13l-111 29q-9 2 -8.5 10t8.5 14l25 17h-129q-6 0 -9 5t1 11l15 28l-148 -23q-6 -1 -9 3t-2 10l5 31l-122 -56q-11 -4 -15 1l-30 31l-38.5 -35l-39.5 -35q-16 -8 -27 -8q-20 0 -45 20l-30 -75q-2 -5 -7.5 -9
t-10.5 -3l-59 7q0 -3 -1 -6l-2 -5q8 -14 12.5 -28.5t11.5 -28.5q3 -8 -2 -14.5t-13 -7.5l-38 -2l57 -40q7 -5 4 -12.5t-12 -11.5l-39 -17l104 -29q8 -2 8.5 -10.5t-9.5 -13.5l-24 -15l131 -6q7 0 9 -6t-3 -13l-16 -23l138 26q4 1 8 -1t6 -4l11 -27q-1 -2 -0.5 -4.5
t-0.5 -4.5l113 55q4 2 8 1.5t6 -2.5l37 -35l74 73q8 10 17 5l57 -22q4 10 7 19.5l6 19.5t6.5 19.5t6.5 19.5q6 13 19 12l63 -10q-3 14 -27 64zM549 70l-16 15l30 14v-2zM1024 426l-15 4l24 7h10l-17 -19zM1036 329l-1 8l-14 8l32 3zM984 247l-1 7l15 -3l-18 -12q0 2 2 5z
M648 566l-1 -1l2 10l6 -13q-2 1 -3 2t-4 2zM955 381l-36 -89q-5 -11 -17 -11l-17 2q-13 0 -9 13l27 93q2 7 7.5 11.5t12.5 2.5l27 -7q11 -2 5 -15zM904 247l-20 -18q-5 -5 -11.5 -5.5t-10.5 4.5l-9 13q-3 4 -1 10q1 6 7 10l16 12q3 2 8.5 3.5t7.5 -0.5l14 -8q14 -8 -1 -21z
M865 262l-18 -13q-21 0 -41 32l-6 -18q-3 -13 -16 -13l-20 -2q-13 0 -10 14l35 121q3 10 12.5 13t13.5 -5l26 -50q3 11 7.5 24.5t7.5 23.5q2 8 8.5 11.5t12.5 1.5l16 -7q9 -4 7 -12zM742 250l-12 4q-2 1 -5 3.5t-3 4.5q0 21 -8 21q-4 0 -20 -21q-2 -3 -6.5 -5.5t-7.5 -2.5
h-24q-7 0 -9.5 4.5t-0.5 10.5q14 32 35.5 63.5t48.5 62.5l-2 -3q9 14 31 14q30 0 31 -52l-27 -91q-2 -7 -8.5 -11t-12.5 -2zM697 388l-41 -120q-3 -11 -15 -12l-27 -8q-9 -2 -12 2.5t-1 11.5l47 122q1 3 5 6.5t7 4.5l23 7q9 2 13 -2t1 -12zM607 258l-18 -14q-22 0 -43 34
l-5 -18q-4 -13 -16 -14l-20 -4q-15 -1 -12 14l35 122q3 10 13 13.5t14 -4.5l28 -50l16 46q2 6 7 10t12 3l15 -5q11 -1 8 -13zM535 347l-2 -5q-41 -98 -83 -98q-2 0 -3.5 -0.5t-2.5 -0.5h2q-2 -1 -16 -1q-38 0 -41 29q26 92 85 125h16q48 0 45 -49zM440 387l-11 -30
q-2 -9 -9.5 -12.5t-14.5 1.5q-9 2 -8 12q-2 -8 -0.5 -9.5t3.5 -1.5q-8 -1 -22 -12l2 2q-19 -19 -27 -43q-3 -11 7 -11h12q8 6 15.5 3t4.5 -13l-4 -21q-1 -8 -13 -13l-17 -4q-1 -1 -4 -1h-8q-42 0 -37 62q0 6 2 14l2 7q20 68 115 84q7 2 11 -2.5t1 -11.5zM348 382l-41 -118
q-1 -3 -5 -6t-7 -5l-26 -10q-8 -3 -12.5 1.5t-1.5 12.5l46 124q3 10 15 12l20 3q7 2 10.5 -3t1.5 -11zM732 337v-9l-8 -11l-7 20h15zM480 326q2 6 1 7l1 3q-3 5 -7 5q-9 0 -26 -26l-1 -6q-6 -17 -1 -17q4 0 20 8q10 14 13 26z" />
    <glyph glyph-name="FL00BDh" unicode="&#xbd;" horiz-adv-x="899" 
d="M33 26l3 -18q5 -8 11 -8h168q7 0 12 5l17 14l638 596q4 4 6 9t0 10l-10 13q-4 4 -9 4h-167l-24 -14l-639 -597q-8 -6 -6 -14zM528 197l12 -19q3 -4 9 -4h78l-124 -84q-6 -5 -8 -10l-19 -65q-3 -9 -1.5 -20t6 -20.5t12 -16t17.5 -6.5h296q5 0 13 6l16 17l28 99q2 5 -3 11
l-13 12h-87l129 83q2 2 4.5 5t2.5 5l19 66q3 9 1.5 20t-6 20.5t-12 16t-17.5 6.5h-295l-20 -12q-7 -6 -9 -11zM452 676l-5 16l-4.5 4.5t-5.5 2.5h-155q-1 0 -4 -1t-6 -3l-13 -10q-5 -5 -6 -10l-28 -97q-2 -6 1 -10l7 -10q2 -2 4.5 -3t3.5 -1h21l-56 -195q-1 -2 -0.5 -5
t0.5 -5l10 -13q3 -4 9 -4h107q3 0 7.5 2.5t7.5 4.5l13 15z" />
    <glyph glyph-name="FL0D53h" unicode="&#xbe;" horiz-adv-x="993" 
d="M1044 340l-3 17l-63 43q8 2 11.5 3.5t6.5 2t6.5 1.5t11.5 3h4q18 0 17 18l-3 14q0 2 -3 5t-5 4l-108 28l36 24q11 7 9.5 15.5t-11.5 8.5h-150l18 31q5 8 1 13t-12 3l-154 -24l3 27q1 10 -6 12l-15 6l-126 -58l-32 34q-3 4 -9 3.5t-11 -5.5l-43 -39l-43 -39q-1 -1 -8 -1
q-18 0 -45 27q-5 5 -13 2.5t-11 -10.5l-34 -85l-65 7q-7 1 -12 -3.5t-7 -11.5l-5 -31l10 -23l10 -24l-57 -3q-10 -1 -15 -10.5t3 -14.5l34.5 -24l34.5 -24l-54 -24q-10 -4 -11.5 -14t7.5 -12l113 -31l-34 -20q-10 -6 -9.5 -15t11.5 -9l75 -4l75 -4l-19 -29q-5 -8 -1.5 -14
t12.5 -4l152 30q2 -6 3.5 -8t3.5 -7l-10 -21q-5 -9 0.5 -14t15.5 0l67.5 32l67.5 33l38 -38q8 -7 18 3l78 75l63 -25q6 -2 12.5 1t9.5 11l28 82l65 -12q13 -1 19 12q-2 -3 -5.5 -3.5t-5.5 -0.5q12 2 15 13q7 20 -18 70l54 6q8 1 13.5 6.5t3.5 12.5zM902 364l3 9h1zM902 364
l-22 -55q-5 0 -3.5 0.5t-3.5 0.5l10 -14zM871 265l-10 -8l-3 4l-6 -20l9 7q7 -5 10 -5v22zM782 336l2 6l3 -5q-1 0 -2.5 -0.5t-2.5 -0.5zM827 292l-3 -10l-8 7q5 0 11 3zM799 331q-3 6 -12 6l22 -42q0 -6 7 -6q-5 8 -9 18t-8 24zM772 323l-14 -48h-6l9 -13l21 74
q-9 -4 -10 -13zM835 304l23 66h-1q0 2 2 0l-6 13l-26 -91q7 5 8 12zM660 281h-16l9 -16l8 17q-1 0 -1 -1zM737 277l-7 2l-5 15l-9 -31zM703 310q-9 0 -20 -8t-22 -20q25 54 68 99q0 -2 5 -2t5.5 -7t2.5 -20l-17 -58q-7 16 -22 16zM651 390l-38 -110l-16 -5l12 -14l21 56
l22 56l13 4zM523 330l2 10l5 -9q-1 1 -7 -1zM569 289l-4 -13l-11 11q10 -1 15 2zM538 325q-3 6 -8 6l21 -39q0 -2 3 -5l-6 14.5zM577 301l22 63h3h-1h-1h2l-8 14l-25 -89q7 5 8 12zM511 317l-14 -47q-1 -1 -8 -1l12 -13l22 74q-9 -3 -12 -13zM486 341l1 5q0 -1 -2 -3
q0 -1 0.5 -1.5zM438 271q-2 0 -5 -0.5t-5 -0.5q-1 -1 -10 -1q-7 0 -12 3t-8 7q21 68 58 90h7q24 0 22 -26q-27 -72 -47 -72zM388 370l-4 -12l23 9h-1l1 1q0 6 -5 6h-12q-18 0 -43 -18q-30 -30 -39 -62q-11 -38 24 -38h10l-1 -4l14 12l-11 -2h1q-4 0 -7 -0.5t-4 -0.5
q-21 0 -15 47v2l2 7q12 40 67 53zM301 384l-38 -110l-16 -6l14 -13l22 56.5l22 56.5l8 1zM741 327l-3 40q1 10 -7.5 10.5t-16.5 -8.5l-32 -40q-6 -8 -3 -13.5t11 -5.5h33q8 0 13 5t5 12zM487 326l2 5q1 3 1 6l-1 -2q1 2 1 4q0 3 1 5q-11 24 -27 24q-27 0 -60 -49l-2 -10
q-14 -44 17 -44q11 0 44 16q11 13 16 22.5t8 22.5z" />
    <glyph glyph-name="FL00BFh" unicode="&#xbf;" horiz-adv-x="712" 
d="M735 430l-12 19q-3 4 -8 4h-134q-6 0 -13 -6l-16 -17l-6 -23h-308q-15 0 -33 -10.5t-34.5 -26.5t-29 -33.5t-16.5 -32.5l-57 -201q-5 -15 -3 -33t9.5 -33.5t19.5 -26t27 -10.5h517q5 0 13 6l17 17l33 116l-8 18q-3 5 -9 5h-419l24 82h309q15 0 33 10.5t34.5 26.5t29.5 34
t17 32zM790 634l-10 13q-4 4 -8 4h-134q-6 0 -13 -6l-16 -16l-33 -117q-1 -4 3 -10l13 -13h136l22 13q8 6 9 10l32 112q2 6 -1 10z" />
    <glyph glyph-name="FL00C0h" unicode="&#xc0;" horiz-adv-x="861" 
d="M832 53l-145 591q0 3 -3 5t-6 2h-140q-7 0 -13 -7l-71.5 -86l-80.5 -98.5l-85 -104.5l-85 -104l-81 -98.5l-71 -87.5q-8 -8 -10.5 -13t-4.5 -13l-4 -13q-3 -11 -1.5 -18.5t16.5 -7.5h152q7 0 13 8l332 416l60 -258l-2 -4h-232q-5 0 -12 -5l-18 -17l-33 -117q-3 -7 0 -10
l8 -9q3 -4 9 -4h475q9 0 19 12t13 22zM704 841l-23 13h-138q-6 0 -13 -6l-13 -13q-3 -3 -5 -8t0 -8l41 -111l16 -16h135q3 0 7.5 2.5t6.5 4.5l13 14q4 2 4 7q2 5 0 7z" />
    <glyph glyph-name="FL00C1h" unicode="&#xc1;" horiz-adv-x="861" 
d="M622 841l32 13h138q3 0 8 -6l5 -13q2 -3 1 -8t-4 -8l-104 -111l-26 -16h-135q-3 0 -5.5 2.5l-4.5 4.5l-5 14v7q1 4 4 7zM831 34l-1 -2q-2 -9 -12 -20.5t-19 -11.5h-475q-6 0 -9 4l-8 9q-3 3 0 10l33 117l18 17q7 5 12 5h232l2 4l-60 258l-332 -416q-6 -8 -13 -8h-152
q-15 0 -16.5 7.5t1.5 18.5l4 13q2 8 4.5 13t10.5 13l71 87.5l81 98.5l85 104l85 104.5l80.5 98.5l71.5 86q6 7 13 7h140q3 0 6 -2t3 -5l145 -591z" />
    <glyph glyph-name="FL00C2h" unicode="&#xc2;" horiz-adv-x="861" 
d="M594 704l-30 -12h-138q-4 0 -8 6l-5 14q-2 2 -1 7t4 8l104 111l26 16h242l16 -16l43 -110q2 -3 -0.5 -8.5t-5.5 -7.5l-16 -15q-7 -5 -13 -5h-137l-20 12l-16 43zM831 34l-1 -2q-2 -9 -12 -20.5t-19 -11.5h-475q-6 0 -9 4l-8 9q-3 3 0 10l33 117l18 17q7 5 12 5h232l2 4
l-60 258l-332 -416q-6 -8 -13 -8h-152q-15 0 -16.5 7.5t1.5 18.5l4 13q2 8 4.5 13t10.5 13l71 87.5l81 98.5l85 104l85 104.5l80.5 98.5l71.5 86q6 7 13 7h140q3 0 6 -2t3 -5l145 -591z" />
    <glyph glyph-name="FL00C3h" unicode="&#xc3;" horiz-adv-x="861" 
d="M832 53l-145 591q0 3 -3 5t-6 2h-140q-7 0 -13 -7l-71.5 -86l-80.5 -98.5l-85 -104.5l-85 -104l-81 -98.5l-71 -87.5q-8 -8 -10.5 -13t-4.5 -13l-4 -13q-3 -11 -1.5 -18.5t16.5 -7.5h152q7 0 13 8l332 416l60 -258l-2 -4h-232q-5 0 -12 -5l-18 -17l-33 -117q-3 -7 0 -10
l8 -9q3 -4 9 -4h475q9 0 19 12t13 22zM692 842l-21 12h-186l-26 -16l-106 -110q-4 -4 -5 -9t1 -7l9 -15q3 -5 9 -5h136l28 12l41 42l21 -42l22 -12h185l27 16l106 110q3 3 4 8.5t-1 8.5l-10 14q-3 5 -8 5h-137l-28 -12l-41 -42z" />
    <glyph glyph-name="FL00C4h" unicode="&#xc4;" horiz-adv-x="861" 
d="M845 714l-20 -17q-7 -5 -13 -5h-134q-4 0 -8 6l-7 17l33 116q1 4 9 10l21 13h137l12 -13q4 -6 3 -10zM593 714l-21 -17q-7 -5 -13 -5h-133q-4 0 -8 6l-7 17l33 116q1 4 9 10l21 13h136l13 -13q4 -6 3 -10zM831 34l-1 -2q-2 -9 -12 -20.5t-19 -11.5h-475q-6 0 -9 4l-8 9
q-3 3 0 10l33 117l18 17q7 5 12 5h232l2 4l-60 258l-332 -416q-6 -8 -13 -8h-152q-15 0 -16.5 7.5t1.5 18.5l4 13q2 8 4.5 13t10.5 13l71 87.5l81 98.5l85 104l85 104.5l80.5 98.5l71.5 86q6 7 13 7h140q3 0 6 -2t3 -5l145 -591z" />
    <glyph glyph-name="FL00C5h" unicode="&#xc5;" horiz-adv-x="861" 
d="M654 760l1 2h-1v-2zM635 784l1 3h1l-11 -3h9zM661 784h4l3 -3l-5 12zM619 762l10 -8l-1 5v3h-9zM628 762l7 22h26l-7 -22h-26zM832 53l-145 591q0 3 -3 5t-6 2h-140q-7 0 -13 -7l-71.5 -86l-80.5 -98.5l-85 -104.5l-85 -104l-81 -98.5l-71 -87.5q-8 -8 -10.5 -13
t-4.5 -13l-4 -13q-3 -11 -1.5 -18.5t16.5 -7.5h152q7 0 13 8l332 416l60 -258l-2 -4h-232q-5 0 -12 -5l-18 -17l-33 -117q-3 -7 0 -10l8 -9q3 -4 9 -4h475q9 0 19 12t13 22zM750 841l-13 13h-137l-21 -13q-8 -6 -9 -10l-33 -116l7 -17q4 -6 8 -6h134q6 0 13 5l21 18l33 116
q1 4 -3 10z" />
    <glyph glyph-name="FL00C6h" unicode="&#xc6;" horiz-adv-x="1332" 
d="M48 53l-9 -18q-3 -10 0 -22.5t12 -12.5h475q6 0 11 4l12 9q3 2 4 4.5t3 5.5l33 117l-7 17q-3 5 -10 5h-234l1 2l210 259l92 -415q0 -3 3 -5.5t6 -2.5h590q5 0 13 6l17 17l33 116l-8 18q-3 5 -10 5h-428l-1 3l92 321l3 3h428q5 0 13 6l18 17l33 117l-7 16q-5 6 -9 6h-591
l-21 -12q-8 -6 -9 -10l-58 -205l-54 220q-3 7 -10 7h-139q-8 0 -14 -7zM1311 392l-7 10q-2 5 -7 5h-336q-6 0 -10 -4l-14 -11q-5 -5 -6 -9l-33 -115q-2 -5 1 -9l7 -11q3 -4 8 -4h336q7 0 10 4l13 11q5 4 7 9l33 115q2 5 -2 9z" />
    <glyph glyph-name="FL00C7h" unicode="&#xc7;" horiz-adv-x="727" 
d="M359 489h274l-9 -31l12 -19q3 -4 9 -4h133q5 0 12 5l16 18l26 90q4 15 2 32.5t-9.5 33.5t-19 26.5t-26.5 10.5h-471q-15 0 -33 -10.5t-34.5 -26.5t-29 -33.5t-16.5 -32.5l-127 -445q-5 -15 -3 -33t9.5 -33.5t19.5 -26t27 -10.5h179l-4 -15h-52q-6 0 -10 -4l-12 -10
q-7 -5 -7 -9l-30 -106q-2 -6 1 -10l6 -10q3 -4 8 -4h185q7 0 10 4l13 9q5 5 6 10l42 145h136q15 0 33 10.5t34 26t28.5 33.5t17.5 33l25 90l-5 18q-2 1 -5 3t-5 2h-133q-2 0 -5.5 -1.5t-5.5 -2.5l-23 -19l-9 -31h-274z" />
    <glyph glyph-name="FL00C8h" unicode="&#xc8;" horiz-adv-x="725" 
d="M638 841l-24 13h-137q-6 0 -13 -6l-12 -13q-3 -3 -5 -8t0 -8l40 -111l16 -16h135q2 0 6.5 2.5t6.5 4.5l14 14q4 2 4 7q2 5 0 7zM218 629l-173 -606l9 -18q5 -5 10 -5h587q5 0 13 6l16 17l33 116l-7 18q-3 5 -10 5h-429l-1 3l92 321l3 3h429q5 0 13 6l17 17l33 117l-6 16
q-5 6 -9 6h-591l-21 -12q-6 -5 -8 -10zM722 392l-7 10q-3 5 -7 5h-336q-7 0 -11 -4l-13 -11q-5 -5 -6 -9l-33 -115q-2 -5 1 -9l6 -11q3 -4 9 -4h336q1 0 4 1t6 3l13 11q5 4 7 9l33 115q2 5 -2 9z" />
    <glyph glyph-name="FL00C9h" unicode="&#xc9;" horiz-adv-x="725" 
d="M453 713l6 -15q3 -6 9 -6h136l26 16l104 111q3 3 4 8t-1 8l-4 13q-5 6 -9 6h-138l-31 -13l-98 -114q-3 -3 -4 -7v-7zM218 629l-173 -606l9 -18q5 -5 10 -5h587q5 0 13 6l16 17l33 116l-7 18q-3 5 -10 5h-429l-1 3l92 321l3 3h429q5 0 13 6l17 17l33 117l-6 16q-5 6 -9 6
h-591l-21 -12q-6 -5 -8 -10zM722 392l-7 10q-3 5 -7 5h-336q-7 0 -11 -4l-13 -11q-5 -5 -6 -9l-33 -115q-2 -5 1 -9l6 -11q3 -4 9 -4h336q1 0 4 1t6 3l13 11q5 4 7 9l33 115q2 5 -2 9z" />
    <glyph glyph-name="FL00CAh" unicode="&#xca;" horiz-adv-x="725" 
d="M589 704l22 -12h137q5 0 13 6l12 14q3 2 5 7t0 8l-40 111l-16 16h-241l-26 -16l-106 -110q-4 -4 -5 -9t1 -7l9 -15q3 -5 9 -5h136l28 12l41 42zM218 629l-173 -606l9 -18q5 -5 10 -5h587q5 0 13 6l16 17l33 116l-7 18q-3 5 -10 5h-429l-1 3l92 321l3 3h429q5 0 13 6
l17 17l33 117l-6 16q-5 6 -9 6h-591l-21 -12q-6 -5 -8 -10zM722 392l-7 10q-3 5 -7 5h-336q-7 0 -11 -4l-13 -11q-5 -5 -6 -9l-33 -115q-2 -5 1 -9l6 -11q3 -4 9 -4h336q1 0 4 1t6 3l13 11q5 4 7 9l33 115q2 5 -2 9z" />
    <glyph glyph-name="FL00CBh" unicode="&#xcb;" horiz-adv-x="725" 
d="M343 715l12 -19q3 -4 8 -4h133q5 0 13 6l16 17l33 116q1 2 -0.5 5t-1.5 5l-14 13h-136l-22 -13q-6 -5 -8 -10zM596 715l12 -19q3 -4 7 -4h133q5 0 13 6l16 17l33 116q1 4 -3 10l-13 13h-135l-22 -13q-6 -5 -8 -10zM218 629l-173 -606l9 -18q5 -5 10 -5h587q5 0 13 6
l16 17l33 116l-7 18q-3 5 -10 5h-429l-1 3l92 321l3 3h429q5 0 13 6l17 17l33 117l-6 16q-5 6 -9 6h-591l-21 -12q-6 -5 -8 -10zM722 392l-7 10q-3 5 -7 5h-336q-7 0 -11 -4l-13 -11q-5 -5 -6 -9l-33 -115q-2 -5 1 -9l6 -11q3 -4 9 -4h336q1 0 4 1t6 3l13 11q5 4 7 9l33 115
q2 5 -2 9z" />
    <glyph glyph-name="FL00CCh" unicode="&#xcc;" horiz-adv-x="553" 
d="M43 23l5 -16q2 -2 4 -4.5t5 -2.5h138l20 12q8 5 10 11l133 466h266q7 0 11 4l13 11q6 6 6 9l33 115q2 7 -1 9l-6 10q-4 4 -9 4h-427q-7 0 -15 -8l-13 -14z" />
    <glyph glyph-name="FL00CDh" unicode="&#xcd;" horiz-adv-x="553" 
d="M513 22l-15 -16q-8 -6 -13 -6h-137l-15 12q-3 7 -2 11l133 466h-266q-7 0 -8 4l-5 11q-2 2 -2 5v4l33 115l2.5 5t4.5 4l12 10q1 2 4.5 3t5.5 1h427q4 0 9 -6l6 -16z" />
    <glyph glyph-name="FL00CEh" unicode="&#xce;" horiz-adv-x="553" 
d="M216 629l13 14q8 8 15 8h138l13 -12q4 -6 3 -10l-134 -467h266q7 0 10 -3l5 -11q4 -4 2 -10l-33 -114q-1 -6 -7 -10l-12 -10q-5 -4 -11 -4h-427q-7 0 -10 8l-4 15z" />
    <glyph glyph-name="FL00CFh" unicode="&#xcf;" horiz-adv-x="553" 
d="M687 629l-5 16q-5 6 -10 6h-137l-22 -12q-8 -6 -9 -10l-134 -467h-266q-2 0 -5 -0.5t-4 -2.5l-13 -11q-5 -5 -6 -10l-33 -114q-2 -6 1 -10l6 -10q0 -2 3 -3t5 -1h427q5 0 13 6l16 17z" />
    <glyph glyph-name="FL00D0h" unicode="&#xd0;" horiz-adv-x="929" 
d="M156 23l12 -19q0 -2 3 -3t5 -1h583q15 0 38 14t46.5 34t42 43t23.5 41l111 388q5 18 -0.5 40.5t-17 42.5t-26.5 34t-30 14h-587l-21 -12q-8 -6 -9 -10l-63 -222h-87q-7 0 -11 -4l-13 -11q-1 -2 -2.5 -4.5t-2.5 -4.5l-33 -115q-1 -2 -0.5 -4.5t0.5 -4.5l6 -11q3 -4 9 -4
h87zM724 392l-7 10q-3 5 -8 5h-260l23 82h333q8 0 14 -8.5t4 -16.5l-78 -273q-2 -7 -12.5 -18t-22.5 -11h-332l24 82h260q6 0 11 4l13 11q5 4 7 9l33 115q2 5 -2 9z" />
    <glyph glyph-name="FL00D1h" unicode="&#xd1;" horiz-adv-x="797" 
d="M662 842l-22 12h-186l-26 -16l-105 -110q-3 -3 -4.5 -8.5t0.5 -7.5l10 -15q3 -5 8 -5h136l29 12l41 42l19 -42l22 -12h186l26 16l106 110q3 3 4 8.5t-1 8.5l-9 14q-3 5 -9 5h-135l-29 -12l-41 -42zM584 0h137q5 0 13 6l16 17l173 606q1 4 -3 10l-12 12h-137l-21 -12
q-8 -6 -9 -10l-99 -347l-241 360l-19 9h-135l-20 -12q-8 -6 -9 -10l-173 -606l10 -18q5 -5 9 -5h134q5 0 13 6l16 17l100 350l240 -356z" />
    <glyph glyph-name="FL00D2h" unicode="&#xd2;" 
d="M122 0h554q15 0 33 10.5t34.5 26t29 33.5t17.5 33l127 445q4 15 2 32.5t-9.5 33.5t-19.5 26.5t-27 10.5h-554q-15 0 -33 -10.5t-34.5 -26.5t-29 -33.5t-16.5 -32.5l-127 -445q-5 -15 -3 -33t9.5 -33.5t19.5 -26t27 -10.5zM718 489l-94 -327h-358l94 327h358zM675 841
l-24 13h-139q-5 0 -12 -6l-13 -13q-3 -3 -5 -8t0 -8l41 -111l15 -16h136q3 0 7.5 2.5t6.5 4.5l13 14q4 2 4 7q2 5 0 7z" />
    <glyph glyph-name="FL00D3h" unicode="&#xd3;" 
d="M122 0h554q15 0 33 10.5t34.5 26t29 33.5t17.5 33l127 445q4 15 2 32.5t-9.5 33.5t-19.5 26.5t-27 10.5h-554q-15 0 -33 -10.5t-34.5 -26.5t-29 -33.5t-16.5 -32.5l-127 -445q-5 -15 -3 -33t9.5 -33.5t19.5 -26t27 -10.5zM718 489l-94 -327h-358l94 327h358zM505 713
l6 -15q3 -6 9 -6h135l26 16l104 111q3 3 4 8t-1 8l-5 13q0 2 -3 4t-5 2h-138l-32 -13l-96 -114q-3 -3 -4 -7v-7z" />
    <glyph glyph-name="FL00D4h" unicode="&#xd4;" 
d="M122 0h554q15 0 33 10.5t34.5 26t29 33.5t17.5 33l127 445q4 15 2 32.5t-9.5 33.5t-19.5 26.5t-27 10.5h-554q-15 0 -33 -10.5t-34.5 -26.5t-29 -33.5t-16.5 -32.5l-127 -445q-5 -15 -3 -33t9.5 -33.5t19.5 -26t27 -10.5zM718 489l-94 -327h-358l94 327h358zM632 704
l22 -12h138q5 0 13 6l13 14q2 2 4 7v8l-41 111l-15 16h-242l-26 -16l-105 -110q-3 -3 -4.5 -8.5t0.5 -7.5l9 -15q3 -5 9 -5h135l29 12l41 42z" />
    <glyph glyph-name="FL00D5h" unicode="&#xd5;" 
d="M670 842l-22 12h-186l-26 -16l-105 -110q-3 -3 -4.5 -8.5t0.5 -7.5l10 -15q3 -5 8 -5h136l29 12l41 42l19 -42l22 -12h186l26 16l106 110q3 3 4 8.5t-1 8.5l-9 14q-3 5 -9 5h-136l-29 -12l-40 -42zM122 0h554q15 0 33 10.5t34.5 26t29 33.5t17.5 33l127 445q4 15 2 32.5
t-9.5 33.5t-19.5 26.5t-27 10.5h-554q-15 0 -33 -10.5t-34.5 -26.5t-29 -33.5t-16.5 -32.5l-127 -445q-5 -15 -3 -33t9.5 -33.5t19.5 -26t27 -10.5zM718 489l-94 -327h-358l94 327h358z" />
    <glyph glyph-name="FL00D6h" unicode="&#xd6;" 
d="M122 0h554q15 0 33 10.5t34.5 26t29 33.5t17.5 33l127 445q4 15 2 32.5t-9.5 33.5t-19.5 26.5t-27 10.5h-554q-15 0 -33 -10.5t-34.5 -26.5t-29 -33.5t-16.5 -32.5l-127 -445q-5 -15 -3 -33t9.5 -33.5t19.5 -26t27 -10.5zM718 489l-94 -327h-358l94 327h358zM387 715
l12 -19q3 -4 8 -4h132q5 0 13 6l17 17l33 116q1 4 -3 10l-13 13h-136l-21 -13q-8 -6 -9 -10zM639 715l12 -19q3 -4 8 -4h133q5 0 13 6l16 17l33 116q2 5 -2 10l-14 13h-136l-22 -13q-2 -2 -4.5 -5t-3.5 -5z" />
    <glyph glyph-name="FL00D7h" unicode="&#xd7;" horiz-adv-x="459" 
d="M445 512l-94 -72l-51 72q-3 4 -8 4l-14 -1q-2 0 -5 -1t-5 -2l-104 -81q-6 -4 -7 -10l-5 -13q-2 -6 1 -10l51 -72l-92 -72q-6 -4 -7 -10l-3 -13q-2 -6 1 -10l58 -81q3 -3 8 -3l14 -1q5 0 10 3l93 73l52 -73q1 -3 8 -3l14 1q7 0 10 3l104 81q6 4 7 10l5 13q2 6 -1 10
l-52 72l93 72q6 4 7 10l3 13q2 6 -1 10l-58 81l-4 2t-4 1l-14 1q-5 0 -10 -4z" />
    <glyph glyph-name="FL00D8h" unicode="&#xd8;" 
d="M122 0h554q15 0 33 10.5t34.5 26t29 33.5t17.5 33l127 445q6 19 2.5 37.5t-12 33t-20.5 23.5t-24 9h-554q-15 0 -33 -10.5t-34.5 -26.5t-29 -33.5t-16.5 -32.5l-127 -445q-5 -15 -3 -33t9.5 -33.5t19.5 -26t27 -10.5zM432 162l264 250l-72 -250h-192zM553 489l-264 -249
l71 249h193z" />
    <glyph glyph-name="FL00D9h" unicode="&#xd9;" 
d="M675 841l-24 13h-139q-5 0 -12 -6l-13 -13q-3 -3 -5 -8t0 -8l41 -111l15 -16h136q3 0 7.5 2.5t6.5 4.5l13 14q4 2 4 7q2 5 0 7zM122 0h554q15 0 33 10.5t34.5 26t29 33.5t17.5 33l150 526q1 4 -3 10l-13 12h-136l-21 -12q-8 -6 -9 -10l-134 -467h-358l134 467q1 4 -3 10
l-13 12h-136l-21 -12q-6 -5 -8 -10l-150 -526q-5 -15 -3 -33t9.5 -33.5t19.5 -26t27 -10.5z" />
    <glyph glyph-name="FL00DAh" unicode="&#xda;" 
d="M122 0h554q15 0 33 10.5t34.5 26t29 33.5t17.5 33l150 526q1 4 -3 10l-13 12h-136l-21 -12q-8 -6 -9 -10l-134 -467h-358l134 467q1 4 -3 10l-13 12h-136l-21 -12q-6 -5 -8 -10l-150 -526q-5 -15 -3 -33t9.5 -33.5t19.5 -26t27 -10.5zM505 713l6 -15q3 -6 9 -6h135l26 16
l104 111q3 3 4 8t-1 8l-5 13q0 2 -3 4t-5 2h-138l-32 -13l-96 -114q-3 -3 -4 -7v-7z" />
    <glyph glyph-name="FL00DBh" unicode="&#xdb;" 
d="M122 0h554q15 0 33 10.5t34.5 26t29 33.5t17.5 33l150 526q1 4 -3 10l-13 12h-136l-21 -12q-8 -6 -9 -10l-134 -467h-358l134 467q1 4 -3 10l-13 12h-136l-21 -12q-6 -5 -8 -10l-150 -526q-5 -15 -3 -33t9.5 -33.5t19.5 -26t27 -10.5zM632 704l22 -12h138q5 0 13 6l13 14
q2 2 4 7v8l-41 111l-15 16h-242l-26 -16l-105 -110q-3 -3 -4.5 -8.5t0.5 -7.5l9 -15q3 -5 9 -5h135l29 12l41 42z" />
    <glyph glyph-name="FL00DDh" unicode="&#xdc;" 
d="M387 715l12 -19q3 -4 8 -4h132q5 0 13 6l17 17l33 116q1 4 -3 10l-13 13h-136l-21 -13q-8 -6 -9 -10zM639 715l12 -19q3 -4 8 -4h133q5 0 13 6l16 17l33 116q2 5 -2 10l-14 13h-136l-22 -13q-2 -2 -4.5 -5t-3.5 -5zM122 0h554q15 0 33 10.5t34.5 26t29 33.5t17.5 33
l150 526q1 4 -3 10l-13 12h-136l-21 -12q-8 -6 -9 -10l-134 -467h-358l134 467q1 4 -3 10l-13 12h-136l-21 -12q-6 -5 -8 -10l-150 -526q-5 -15 -3 -33t9.5 -33.5t19.5 -26t27 -10.5z" />
    <glyph glyph-name="FL00E0h" unicode="&#xdd;" horiz-adv-x="733" 
d="M457 713l6 -15q3 -6 9 -6h136l26 16l104 111q3 3 4 8t-1 8l-5 13q0 2 -3 4t-5 2h-139l-30 -13l-98 -114q-3 -3 -4 -7v-7zM596 385l-12 19q0 2 -3 3t-5 1h-239l63 221q2 5 -2 10l-14 12h-136l-21 -12q-2 -2 -4.5 -5t-3.5 -5l-80 -281q-4 -14 -2 -32t9 -34t19 -26.5
t27 -10.5h337q7 0 12 5l22 18zM59 0h538q15 0 33 10.5t34.5 26t29 33.5t17.5 33l150 526q1 4 -3 10l-13 12h-136l-21 -12q-8 -6 -9 -10l-134 -467h-439q-5 0 -12 -5l-16 -18l-33 -116l3 -15q5 -8 11 -8z" />
    <glyph glyph-name="FL00DEh" unicode="&#xde;" horiz-adv-x="753" 
d="M598 276h-264q-5 0 -10 -4l-13 -10q-6 -4 -7 -10l-32 -114q-3 -3 1 -9l7 -11q3 -4 8 -4h363q15 0 33 10.5t34 26.5t28.5 33.5t16.5 32.5l64 222q4 15 2 33t-9.5 33.5t-19.5 26t-27 10.5h-398l25 87q1 4 -3 10l-13 12h-137l-20 -12q-8 -6 -9 -10l-173 -606q-1 -4 2 -11
l13 -12h137l20 12q8 5 10 11l102 357h299z" />
    <glyph glyph-name="FL00DFh" unicode="&#xdf;" horiz-adv-x="813" 
d="M244 23l11 -19q2 -2 4.5 -3t3.5 -1h405q15 0 33 10.5t34 25.5t28 32.5t16 32.5l47 163q1 6 -7.5 24.5t-16.5 32.5l17.5 16t18 18t14.5 16t7 10l46 159q4 15 2 32.5t-9 32.5t-19 25.5t-27 10.5h-546q-17 0 -34.5 -10t-32.5 -25t-27 -33t-16 -33l-173 -603l10 -17
q3 -5 10 -5h131q2 0 6 2l6 3l16 17l156 545h351l-23 -81h-311q-6 0 -11 -4l-12 -11q-5 -4 -7 -9l-32 -113q-2 -5 1 -9l6 -11q1 -3 9 -3h311l-23 -81h-311l-21 -12q-7 -6 -9 -11z" />
    <glyph glyph-name="FL00E1h" unicode="&#xe0;" horiz-adv-x="861" 
d="M697 829l-23 12h-137q-3 0 -12 -6l-12 -13q-8 -6 -6 -15l40 -110l17 -15h134q4 0 12 6l15 15q1 1 3 6t0 7zM46 52l-9 -18q-3 -9 0 -21.5t12 -12.5h468q7 0 10 4l13 9q3 2 4 4.5t3 5.5l33 115l-9 16q0 2 -3 4t-5 2h-230v2l207 255l90 -409q3 -8 9 -8h151q14 0 20 7.5
t9 18.5l4 13q3 12 -1 25l-140 570q-3 7 -9 7h-138q-9 0 -13 -7z" />
    <glyph glyph-name="FL00E8h" unicode="&#xe1;" horiz-adv-x="861" 
d="M46 52l476 582q4 7 13 7h138q6 0 9 -7l140 -570q4 -13 1 -25l-4 -13q-3 -11 -9 -18.5t-20 -7.5h-151q-6 0 -9 8l-90 409l-207 -255v-2h230q2 0 5 -2t3 -4l9 -16l-33 -115q-2 -3 -3 -5.5t-4 -4.5l-13 -9q-3 -4 -10 -4h-468q-9 0 -12 12t-1 21zM617 829l30 12h136q5 0 8 -6
l6 -13q3 -8 -4 -15l-103 -110l-24 -15h-133q-6 0 -10 6l-5 15q-2 2 -1 6t4 7z" />
    <glyph glyph-name="FL00E2h" unicode="&#xe2;" horiz-adv-x="861" 
d="M648 693l22 -11h137q3 0 7 2.5l7 4.5l12 14q6 6 2 13l-39 110l-17 15h-238l-25 -15l-104 -109q-4 -3 -5 -8t1 -8l10 -14q0 -2 3.5 -3.5t5.5 -1.5h134l27 11l41 42zM46 52l-9 -18q-3 -9 0 -21.5t12 -12.5h468q7 0 10 4l13 9q3 2 4 4.5t3 5.5l33 115l-9 16q0 2 -3 4t-5 2
h-230v2l207 255l90 -409q3 -8 9 -8h151q14 0 20 7.5t9 18.5l4 13q3 12 -1 25l-140 570q-3 7 -9 7h-138q-9 0 -13 -7z" />
    <glyph glyph-name="FL00E3h" unicode="&#xe3;" horiz-adv-x="861" 
d="M685 830l-22 11h-182l-25 -15l-105 -109q-9 -9 -4 -16l9 -14q3 -5 9 -5h135l27 11l40 42l20 -42l23 -11h183l24 15l104 109q8 8 4 16l-9 14q-3 5 -9 5h-135l-26 -11l-41 -42zM46 52l-9 -18q-3 -9 0 -21.5t12 -12.5h468q7 0 10 4l13 9q3 2 4 4.5t3 5.5l33 115l-9 16
q0 2 -3 4t-5 2h-230v2l207 255l90 -409q3 -8 9 -8h151q14 0 20 7.5t9 18.5l4 13q3 12 -1 25l-140 570q-3 7 -9 7h-138q-9 0 -13 -7z" />
    <glyph glyph-name="FL00E4h" unicode="&#xe4;" horiz-adv-x="861" 
d="M407 705l12 -19q0 -2 3 -3t5 -1h131q2 0 5.5 2t5.5 3l16 18l33 113q1 6 -2 11l-14 12h-134l-20 -12q-6 -5 -8 -11zM655 705l12 -19q3 -4 8 -4h132q3 0 7 2.5l7 4.5l13 16l33 113q0 7 -3 11l-13 12h-135l-20 -12q-6 -5 -8 -11zM46 52l-9 -18q-3 -9 0 -21.5t12 -12.5h468
q7 0 10 4l13 9q3 2 4 4.5t3 5.5l33 115l-9 16q0 2 -3 4t-5 2h-230v2l207 255l90 -409q3 -8 9 -8h151q14 0 20 7.5t9 18.5l4 13q3 12 -1 25l-140 570q-3 7 -9 7h-138q-9 0 -13 -7z" />
    <glyph glyph-name="FL00E5h" unicode="&#xe5;" horiz-adv-x="861" 
d="M626 772l-6 -22h26l6 22h-26zM641 742l4 5l1 3h9zM629 781l-3 -9h-4q0 -3 -3 -3zM656 772h-4l3 9zM620 749l-1 1h1v-1zM46 52l476 582q4 7 13 7h138q6 0 9 -7l140 -570q4 -13 1 -25l-4 -13q-3 -11 -9 -18.5t-20 -7.5h-151q-6 0 -9 8l-90 409l-207 -255v-2h230q2 0 5 -2
t3 -4l9 -16l-33 -115q-2 -3 -3 -5.5t-4 -4.5l-13 -9q-3 -4 -10 -4h-468q-9 0 -12 12t-1 21zM571 829l20 12h135l14 -12q3 -4 3 -11l-33 -113l-17 -18q-2 -1 -5.5 -3t-5.5 -2h-132q-6 0 -9 5l-11 18l33 113q2 6 8 11z" />
    <glyph glyph-name="FL00E6h" unicode="&#xe6;" horiz-adv-x="1332" 
d="M52 52l-9 -18q-3 -9 0 -21.5t12 -12.5h468q7 0 10 4l13 9q3 2 4 4.5t3 5.5l33 115l-9 16q0 2 -3 4t-5 2h-230v2l207 255l90 -409q3 -8 9 -8h582q4 0 12 6l16 17l32 114l-7 17q-5 6 -8 6h-423l-1 3l90 315q0 1 1.5 2t1.5 2h423q4 0 12 6l17 17l32 114l-6 16q-5 6 -8 6
h-583l-20 -11q-6 -4 -9 -11l-57 -201l-54 216q-3 7 -9 7h-138q-7 0 -13 -7zM1297 386l-7 10q-3 5 -8 5h-331q-1 0 -4 -1t-6 -3l-12 -11q-5 -4 -7 -9l-32 -113q-2 -5 1 -9l6 -11q2 -2 4.5 -2.5t3.5 -0.5h331q2 0 5 0.5t5 2.5l13 11q5 4 7 9l32 113q2 5 -1 9z" />
    <glyph glyph-name="FL00E7h" unicode="&#xe7;" horiz-adv-x="727" 
d="M357 482h270l-9 -31l11 -18q3 -5 9 -5h131q3 0 11 6l17 17l26 89q4 15 2 32.5t-9.5 32.5t-19.5 25.5t-27 10.5h-463q-15 0 -33 -10.5t-34 -25.5t-28 -32.5t-16 -32.5l-126 -439q-4 -15 -2 -32.5t9 -32.5t19 -25.5t27 -10.5h176l-4 -15h-51q-6 0 -10 -4l-12 -9
q-6 -4 -7 -10l-30 -104q-2 -6 1 -10l7 -10q3 -4 7 -4h182q2 0 5.5 1t5.5 3l12 10q3 1 4.5 4l2.5 5l41 143h133q15 0 33 10.5t34 25.5t28.5 32.5t16.5 32.5l25 89l-7 17q-3 6 -8 6h-131q-4 0 -11 -5l-22 -18l-8 -30h-270z" />
    <glyph glyph-name="FL00E9h" unicode="&#xe8;" horiz-adv-x="725" 
d="M632 829l-25 12h-135q-3 0 -12 -6l-12 -13q-8 -6 -6 -15l40 -110l17 -15h133q4 0 12 6l14 15q1 1 3 6t0 7zM217 619l-170 -596l9 -18q5 -5 9 -5h579q4 0 12 6l17 17l32 114l-8 17q0 2 -3 4t-5 2h-422l-1 3l90 315q0 1 1.5 2t1.5 2h422q2 0 6 2t6 4l18 17l32 114l-7 16
q-5 6 -8 6h-582l-20 -11q-2 -2 -5 -5.5t-4 -5.5zM714 386l-6 10q-5 5 -9 5h-330q-6 0 -11 -4l-12 -11q-5 -4 -7 -9l-32 -113q-2 -5 1 -9l6 -11q1 -3 9 -3h330q6 0 11 3l12 11q5 4 7 9l32 113q2 5 -1 9z" />
    <glyph glyph-name="FL0DBDh" unicode="&#xe9;" horiz-adv-x="725" 
d="M450 703l5 -16q0 -2 4 -3.5t6 -1.5h133l25 15l102 110q7 7 4 15l-5 13q-3 6 -9 6h-136l-29 -12l-97 -113q-3 -3 -4 -7t1 -6zM217 619l-170 -596l9 -18q5 -5 9 -5h579q4 0 12 6l17 17l32 114l-8 17q0 2 -3 4t-5 2h-422l-1 3l90 315q0 1 1.5 2t1.5 2h422q2 0 6 2t6 4l18 17
l32 114l-7 16q-5 6 -8 6h-582l-20 -11q-2 -2 -5 -5.5t-4 -5.5zM714 386l-6 10q-5 5 -9 5h-330q-6 0 -11 -4l-12 -11q-5 -4 -7 -9l-32 -113q-2 -5 1 -9l6 -11q1 -3 9 -3h330q6 0 11 3l12 11q5 4 7 9l32 113q2 5 -1 9z" />
    <glyph glyph-name="FL00EAh" unicode="&#xea;" horiz-adv-x="725" 
d="M583 693l22 -11h136q2 0 5.5 2t5.5 3l12 14q8 8 5 15l-39 110l-16 15h-238l-25 -15l-105 -109q-9 -9 -4 -16l9 -14q3 -5 10 -5h134l27 11l40 42zM217 619l-170 -596l9 -18q5 -5 9 -5h579q4 0 12 6l17 17l32 114l-8 17q0 2 -3 4t-5 2h-422l-1 3l90 315q0 1 1.5 2t1.5 2
h422q2 0 6 2t6 4l18 17l32 114l-7 16q-5 6 -8 6h-582l-20 -11q-2 -2 -5 -5.5t-4 -5.5zM714 386l-6 10q-5 5 -9 5h-330q-6 0 -11 -4l-12 -11q-5 -4 -7 -9l-32 -113q-2 -5 1 -9l6 -11q1 -3 9 -3h330q6 0 11 3l12 11q5 4 7 9l32 113q2 5 -1 9z" />
    <glyph glyph-name="FL00EBh" unicode="&#xeb;" horiz-adv-x="725" 
d="M340 705l12 -19q3 -4 9 -4h131q2 0 6 2l6 3l16 18l33 113q0 2 -1 5.5t-1 5.5l-15 12h-134l-20 -12q-9 -7 -9 -11zM589 705l12 -19q3 -4 9 -4h131q2 0 5.5 2t5.5 3l16 18l33 113q1 6 -2 11l-14 12h-134l-20 -12q-9 -7 -9 -11zM217 619l-170 -596l9 -18q5 -5 9 -5h579
q4 0 12 6l17 17l32 114l-8 17q0 2 -3 4t-5 2h-422l-1 3l90 315q0 1 1.5 2t1.5 2h422q2 0 6 2t6 4l18 17l32 114l-7 16q-5 6 -8 6h-582l-20 -11q-2 -2 -5 -5.5t-4 -5.5zM714 386l-6 10q-5 5 -9 5h-330q-6 0 -11 -4l-12 -11q-5 -4 -7 -9l-32 -113q-2 -5 1 -9l6 -11q1 -3 9 -3
h330q6 0 11 3l12 11q5 4 7 9l32 113q2 5 -1 9z" />
    <glyph glyph-name="FL00ECh" unicode="&#xec;" horiz-adv-x="252" 
d="M420 829l-24 12h-136q-3 0 -12 -6l-12 -13q-8 -6 -6 -15l40 -110l17 -15h134q4 0 12 6l15 15q1 1 3 6t0 7zM41 23l9 -18q5 -5 9 -5h132q4 0 12 6l17 17l170 596q2 6 -2 11l-14 11h-135l-19 -11q-6 -4 -9 -11z" />
    <glyph glyph-name="FL00EDh" unicode="&#xed;" horiz-adv-x="252" 
d="M201 703l5 -16q3 -5 10 -5h133l25 15l103 110q6 6 4 15l-6 13q-3 6 -8 6h-137l-30 -12l-96 -113q-2 -2 -3 -7q-2 -5 0 -6zM41 23l9 -18q5 -5 9 -5h132q4 0 12 6l17 17l170 596q2 6 -2 11l-14 11h-135l-19 -11q-6 -4 -9 -11z" />
    <glyph glyph-name="FL00EEh" unicode="&#xee;" horiz-adv-x="252" 
d="M353 693l22 -11h137q2 0 5.5 2t5.5 3l13 14q7 9 5 15l-40 110l-17 15h-238l-25 -15l-104 -109q-4 -3 -5 -8t1 -8l10 -14q3 -5 9 -5h134l27 11l41 42zM41 23l9 -18q5 -5 9 -5h132q4 0 12 6l17 17l170 596q2 6 -2 11l-14 11h-135l-19 -11q-6 -4 -9 -11z" />
    <glyph glyph-name="FL00EFh" unicode="&#xef;" horiz-adv-x="252" 
d="M112 705l12 -19q0 -2 3 -3t5 -1h131q2 0 5.5 2t5.5 3l16 18l33 113q1 6 -2 11l-14 12h-134l-20 -12q-6 -5 -8 -11zM360 705l12 -19q3 -4 8 -4h132q2 0 5.5 2t5.5 3l17 18l33 113q0 7 -3 11l-14 12h-135l-20 -12q-6 -5 -8 -11zM41 23l9 -18q5 -5 9 -5h132q4 0 12 6l17 17
l170 596q2 6 -2 11l-14 11h-135l-19 -11q-6 -4 -9 -11z" />
    <glyph glyph-name="FL00F0h" unicode="&#xf0;" horiz-adv-x="810" 
d="M432 431l9 -13q3 -4 9 -4h130q4 0 12 6l16 16l13 46h85l-23 -81h-446q-13 0 -30.5 -11t-34 -26.5t-29.5 -33.5t-17 -32l-56 -197q-4 -15 -2 -32.5t9.5 -32.5t19 -25.5t26.5 -10.5h542q15 0 33 10.5t34 25.5t28 32.5t16 32.5l126 439q4 15 2 32.5t-9 32.5t-19 25.5
t-27 10.5h-182l19 66q2 5 -3 11l-14 11h-133l-20 -11q-7 -6 -9 -11l-19 -66h-181q-15 0 -32.5 -10.5t-33.5 -25.5t-28.5 -32.5t-16.5 -32.5l-26 -89l4 -15q5 -8 11 -8h131q5 0 12 5l21 18l9 31h84l-12 -42q-2 -5 2 -9zM637 241l-23 -81h-348l23 81h348z" />
    <glyph glyph-name="FL00F1h" unicode="&#xf1;" horiz-adv-x="797" 
d="M656 830l-23 11h-183l-25 -15l-103 -109q-4 -3 -5 -8t1 -8l9 -14q3 -5 9 -5h134l27 11l41 42l19 -42l23 -11h182l25 15l104 109q8 8 4 16l-9 14q-3 5 -10 5h-133l-28 -11l-40 -42zM578 0h135q5 0 13 6l16 17l170 596q2 6 -2 11l-13 11h-134l-20 -11q-9 -7 -10 -11
l-98 -342l-236 356l-20 8h-132l-20 -11q-2 -2 -5 -5.5t-4 -5.5l-170 -596l9 -18q5 -5 9 -5h132q4 0 12 6l17 17l98 344l237 -350z" />
    <glyph glyph-name="FL00F2h" unicode="&#xf2;" 
d="M123 0h546q15 0 33 10.5t34 25.5t28 32.5t16 32.5l126 439q4 15 2 32.5t-9 32.5t-19 25.5t-27 10.5h-546q-15 0 -32.5 -10.5t-33.5 -25.5t-28.5 -32.5t-16.5 -32.5l-126 -439q-4 -15 -2 -32.5t9.5 -32.5t19 -25.5t26.5 -10.5zM710 482l-92 -322h-352l92 322h352zM668 829
l-24 12h-137q-3 0 -12 -6l-12 -13q-8 -6 -6 -15l41 -110l16 -15h134q4 0 12 6l15 15q1 1 3 6t0 7z" />
    <glyph glyph-name="FL00F3h" unicode="&#xf3;" 
d="M123 0h546q15 0 33 10.5t34 25.5t28 32.5t16 32.5l126 439q4 15 2 32.5t-9 32.5t-19 25.5t-27 10.5h-546q-15 0 -32.5 -10.5t-33.5 -25.5t-28.5 -32.5t-16.5 -32.5l-126 -439q-4 -15 -2 -32.5t9.5 -32.5t19 -25.5t26.5 -10.5zM710 482l-92 -322h-352l92 322h352zM502 703
l4 -16q3 -5 10 -5h133l25 15l102 110q7 7 4 15l-6 13q-3 6 -8 6h-136l-30 -12l-95 -113q-3 -3 -4 -7t1 -6z" />
    <glyph glyph-name="FL00F4h" unicode="&#xf4;" 
d="M123 0h546q15 0 33 10.5t34 25.5t28 32.5t16 32.5l126 439q4 15 2 32.5t-9 32.5t-19 25.5t-27 10.5h-546q-15 0 -32.5 -10.5t-33.5 -25.5t-28.5 -32.5t-16.5 -32.5l-126 -439q-4 -15 -2 -32.5t9.5 -32.5t19 -25.5t26.5 -10.5zM710 482l-92 -322h-352l92 322h352zM625 693
l23 -11h136q2 0 6 2l6 3l12 14q8 8 5 15l-40 110l-16 15h-238l-25 -15l-104 -109q-4 -3 -5 -8t1 -8l9 -14q3 -5 10 -5h133l28 11l40 42z" />
    <glyph glyph-name="FL00F5h" unicode="&#xf5;" 
d="M663 830l-22 11h-183l-25 -15l-104 -109q-4 -3 -5 -8t1 -8l10 -14q0 -2 3.5 -3.5t5.5 -1.5h134l27 11l41 42l19 -42l22 -11h183l25 15l104 109q8 8 4 16l-9 14q-3 5 -10 5h-133l-28 -11l-40 -42zM123 0h546q15 0 33 10.5t34 25.5t28 32.5t16 32.5l126 439q4 15 2 32.5
t-9 32.5t-19 25.5t-27 10.5h-546q-15 0 -32.5 -10.5t-33.5 -25.5t-28.5 -32.5t-16.5 -32.5l-126 -439q-4 -15 -2 -32.5t9.5 -32.5t19 -25.5t26.5 -10.5zM710 482l-92 -322h-352l92 322h352z" />
    <glyph glyph-name="FL00F6h" unicode="&#xf6;" 
d="M123 0h546q15 0 33 10.5t34 25.5t28 32.5t16 32.5l126 439q4 15 2 32.5t-9 32.5t-19 25.5t-27 10.5h-546q-15 0 -32.5 -10.5t-33.5 -25.5t-28.5 -32.5t-16.5 -32.5l-126 -439q-4 -15 -2 -32.5t9.5 -32.5t19 -25.5t26.5 -10.5zM710 482l-92 -322h-352l92 322h352zM384 705
l12 -19q3 -4 9 -4h130q2 0 6 2l6 3l16 18l33 113q0 7 -3 11l-13 12h-134l-20 -12q-9 -7 -9 -11zM632 705l12 -19q3 -4 9 -4h131q2 0 6 2l6 3l16 18l33 113q0 7 -3 11l-14 12h-134l-20 -12q-9 -7 -9 -11z" />
    <glyph glyph-name="FL00F7h" unicode="&#xf7;" horiz-adv-x="552" 
d="M309 440l10 -13q1 -4 8 -4h133q2 0 6 2t6 4l17 16l33 117q1 4 -3 10l-12 13h-137l-21 -13q-8 -6 -9 -10l-32 -112q-2 -6 1 -10zM206 89l12 -19q0 -2 3 -3t5 -1h133q3 0 12 6l17 17l33 117q1 4 -3 10l-12 13h-137l-21 -13q-8 -6 -9 -10zM614 392l-6 10q-3 5 -8 5h-425
q-7 0 -11 -4l-12 -11q-5 -5 -6 -9l-33 -115q-2 -5 1 -9l5 -11q3 -4 9 -4h425q6 0 11 4l12 11q5 4 7 9l33 115q2 5 -2 9z" />
    <glyph glyph-name="FL00F8h" unicode="&#xf8;" 
d="M123 0h546q15 0 33 10.5t34 25.5t28 32.5t16 32.5l126 439q4 15 2 32.5t-9 32.5t-19 25.5t-27 10.5h-546q-15 0 -32.5 -10.5t-33.5 -25.5t-28.5 -32.5t-16.5 -32.5l-126 -439q-4 -15 -2 -32.5t9.5 -32.5t19 -25.5t26.5 -10.5zM710 482l-92 -322h-96l92 322h96zM455 482
l-92 -322h-97l92 322h97z" />
    <glyph glyph-name="FL00F9h" unicode="&#xf9;" 
d="M668 829l-24 12h-137q-3 0 -12 -6l-12 -13q-8 -6 -6 -15l41 -110l16 -15h134q4 0 12 6l15 15q1 1 3 6t0 7zM123 0h546q15 0 33 10.5t34 25.5t28 32.5t16 32.5l148 518q1 2 0 5.5t-1 5.5l-15 11h-133l-20 -11q-9 -7 -10 -11l-131 -459h-352l131 459q2 6 -2 11l-14 11h-134
l-19 -11q-9 -7 -10 -11l-148 -518q-4 -15 -2 -32.5t9.5 -32.5t19 -25.5t26.5 -10.5z" />
    <glyph glyph-name="FL00FAh" unicode="&#xfa;" 
d="M123 0h546q15 0 33 10.5t34 25.5t28 32.5t16 32.5l148 518q1 2 0 5.5t-1 5.5l-15 11h-133l-20 -11q-9 -7 -10 -11l-131 -459h-352l131 459q2 6 -2 11l-14 11h-134l-19 -11q-9 -7 -10 -11l-148 -518q-4 -15 -2 -32.5t9.5 -32.5t19 -25.5t26.5 -10.5zM502 703l4 -16
q3 -5 10 -5h133l25 15l102 110q7 7 4 15l-6 13q-3 6 -8 6h-136l-30 -12l-95 -113q-3 -3 -4 -7t1 -6z" />
    <glyph glyph-name="FL00FBh" unicode="&#xfb;" 
d="M123 0h546q15 0 33 10.5t34 25.5t28 32.5t16 32.5l148 518q1 2 0 5.5t-1 5.5l-15 11h-133l-20 -11q-9 -7 -10 -11l-131 -459h-352l131 459q2 6 -2 11l-14 11h-134l-19 -11q-9 -7 -10 -11l-148 -518q-4 -15 -2 -32.5t9.5 -32.5t19 -25.5t26.5 -10.5zM625 693l23 -11h136
q2 0 6 2l6 3l12 14q8 8 5 15l-40 110l-16 15h-238l-25 -15l-104 -109q-4 -3 -5 -8t1 -8l9 -14q3 -5 10 -5h133l28 11l40 42z" />
    <glyph glyph-name="FL00DCh" unicode="&#xfc;" 
d="M384 705l12 -19q3 -4 9 -4h130q2 0 6 2l6 3l16 18l33 113q0 7 -3 11l-13 12h-134l-20 -12q-9 -7 -9 -11zM632 705l12 -19q3 -4 9 -4h131q2 0 6 2l6 3l16 18l33 113q0 7 -3 11l-14 12h-134l-20 -12q-9 -7 -9 -11zM123 0h546q15 0 33 10.5t34 25.5t28 32.5t16 32.5l148 518
q1 2 0 5.5t-1 5.5l-15 11h-133l-20 -11q-9 -7 -10 -11l-131 -459h-352l131 459q2 6 -2 11l-14 11h-134l-19 -11q-9 -7 -10 -11l-148 -518q-4 -15 -2 -32.5t9.5 -32.5t19 -25.5t26.5 -10.5z" />
    <glyph glyph-name="FL00FDh" unicode="&#xfd;" horiz-adv-x="733" 
d="M454 703l4 -16q3 -5 11 -5h133l25 15l102 110q7 7 4 15l-5 13q-3 6 -9 6h-136l-30 -12l-96 -113q-3 -3 -4 -7t1 -6zM590 379l-12 19q-3 4 -8 4h-235l62 217q2 6 -2 11l-14 11h-134l-19 -11q-9 -7 -10 -11l-79 -276q-4 -14 -2 -32t9.5 -33.5t19 -26t26.5 -10.5h332
q5 0 12 5l21 18zM61 0h530q15 0 32.5 10.5t33.5 25.5t28.5 32.5t16.5 32.5l148 518q3 5 -1 11l-14 11h-134l-20 -11q-9 -7 -10 -11l-131 -459h-432q-6 0 -13 -6l-16 -17l-32 -114l3 -15q5 -8 11 -8z" />
    <glyph glyph-name="FL00FEh" unicode="&#xfe;" horiz-adv-x="753" 
d="M592 272h-260q-5 0 -10 -4l-13 -10q-6 -4 -7 -10l-32 -112q-2 -5 1 -9l7 -11l4 -2t4 -1h357q15 0 33 10.5t34 25.5t28.5 32.5t16.5 32.5l63 219q4 15 2 32.5t-9.5 32.5t-19.5 25.5t-27 10.5h-392l24 85q2 6 -2 11l-14 11h-134l-19 -11q-9 -7 -10 -11l-170 -596
q-1 -4 2 -11l13 -12h134l20 12q8 5 10 11l100 351h295z" />
    <glyph glyph-name="FL00FFh" unicode="&#xff;" horiz-adv-x="733" 
d="M344 705l12 -19q3 -4 9 -4h131q2 0 6 2l6 3l16 18l33 113q0 7 -3 11l-14 12h-134l-20 -12q-9 -7 -9 -11zM593 705l12 -19q3 -4 9 -4h130q2 0 6 2l6 3l16 18l33 113q0 2 -1 5.5t-1 5.5l-15 12h-133l-20 -12q-9 -7 -9 -11zM590 379l-12 19q-3 4 -8 4h-235l62 217q2 6 -2 11
l-14 11h-134l-19 -11q-9 -7 -10 -11l-79 -276q-4 -14 -2 -32t9.5 -33.5t19 -26t26.5 -10.5h332q5 0 12 5l21 18zM61 0h530q15 0 32.5 10.5t33.5 25.5t28.5 32.5t16.5 32.5l148 518q3 5 -1 11l-14 11h-134l-20 -11q-9 -7 -10 -11l-131 -459h-432q-6 0 -13 -6l-16 -17
l-32 -114l3 -15q5 -8 11 -8z" />
    </font>
</defs>
</svg>
