<?xml version="1.0" standalone="no"?>
<!DOCTYPE svg PUBLIC "-//W3C//DTD SVG 1.1//EN" "http://www.w3.org/Graphics/SVG/1.1/DTD/svg11.dtd" >
<svg>
<metadata>
Created by FontForge 20090622 at Wed Apr 15 02:44:33 2020
 By deploy user
2019 Iconian Fonts - www.iconian.com
</metadata>
<defs>
<font id="StrikeFighterLaserItalic" horiz-adv-x="822" >
  <font-face 
    font-family="Strike Fighter Laser Italic"
    font-weight="400"
    font-style="italic"
    font-stretch="normal"
    units-per-em="1000"
    panose-1="0 0 0 0 0 0 0 0 0 0"
    ascent="800"
    descent="-200"
    x-height="649"
    cap-height="649"
    bbox="-57 -175 1561.33 860"
    underline-thickness="50"
    underline-position="-75"
    unicode-range="U+0020-U+2122"
  />
<missing-glyph horiz-adv-x="495" 
 />
    <glyph glyph-name=".notdef" horiz-adv-x="495" 
 />
    <glyph glyph-name=".null" horiz-adv-x="0" 
 />
    <glyph glyph-name="nonmarkingreturn" horiz-adv-x="495" 
 />
    <glyph glyph-name="space" unicode=" " horiz-adv-x="423" 
 />
    <glyph glyph-name="space" unicode="&#xa0;" horiz-adv-x="423" 
 />
    <glyph glyph-name="FL0021h" unicode="!" horiz-adv-x="260" 
d="M395 640l-57 -196h-161l57 196l15 9h134zM114 222l49 173h161l-50 -174l-13 -14h-139zM54 15l34 116l15 10h134l12 -10l-34 -117l-13 -14h-139z" />
    <glyph glyph-name="FL0022h" unicode="&#x22;" horiz-adv-x="472" 
d="M570 514q-5 -16 -20 -35.5t-34 -34.5h-128l57 196l16 9h134l12 -9zM358 514q-5 -16 -20 -35.5t-34 -34.5h-127l57 196l15 9h134l12 -9z" />
    <glyph glyph-name="FL0025h" unicode="#" horiz-adv-x="768" 
d="M169 383l-6 11v1h669v-1l-13 -11h-103l-34 -117h103l7 -11l-34 -118l-13 -11h-103l-32 -112l-13 -14h-139l-9 15l32 111h-121l-32 -112l-13 -14h-139l-10 15l32 111h-103l-6 11l34 118l12 11h103l34 117h-103zM209 524h103l34 116l16 9h134l12 -9l-34 -116h121l34 116
l15 9h134l12 -9l-34 -116h103l7 -11l-20 -69h-669l20 69zM434 383l-34 -117h121l34 117h-121z" />
    <glyph glyph-name="FL0024h" unicode="$" horiz-adv-x="735" 
d="M150 347l13 48h564q12 -1 22 -11t16.5 -23.5t8.5 -29.5t-2 -29l-49 -168q-4 -14 -15 -30t-25 -30t-30 -23.5t-29 -9.5h-165l-16 -56l-12 -14h-139l-10 15l16 55h-228l-5 13l33 113l13 14h227l21 73h-163q-14 0 -24 9.5t-16.5 24t-8 30.5t2.5 29zM345 468l-7 -24h-161
l21 72q4 13 15 29t25.5 30.5t30 24t29.5 9.5h163l17 59l16 10h134l11 -10l-17 -59h229l5 -14l-33 -113l-14 -14h-228l-7 -24h-161l7 24h-75zM597 254h-77l-21 -73h77z" />
    <glyph glyph-name="FL002Ah" unicode="%" horiz-adv-x="1099" 
d="M682 -50q-8 0 -13.5 5.5t-9 13t-4 16.5t1.5 17l71 250q2 7 8 16.5t14 17t16.5 13t16.5 5.5h313q7 0 13 -5.5t9.5 -13t4 -17t-1.5 -16.5l-71 -250q-2 -8 -8 -17t-14 -17t-17 -13t-16 -5h-313zM629 647l-59 -203h-393l59 203q2 7 7.5 16.5t13 17t16 13t16.5 5.5h313
q7 0 13 -5.5t10 -13t5 -17t-1 -16.5zM214 19l402 376h202l-407 -380l-18 -15h-175zM1075 635l-205 -191h-201l210 196l16 9h170zM188 346q-15 0 -21.5 17t-3.5 32h393q-3 -8 -9.5 -16.5t-14 -16t-16 -12t-15.5 -4.5h-313zM473 576h-125l-31 -108h125zM967 181h-125l-31 -108
h125z" />
    <glyph glyph-name="FL0026h" unicode="&#x26;" horiz-adv-x="821" 
d="M891 384l-34 -119l-13 -11h-51l-46 -161q-4 -14 -15.5 -30t-26 -30t-30.5 -23.5t-29 -9.5h-533q-14 0 -24 9.5t-16.5 23.5t-8 30t2.5 30l49 172q1 3 9 11t19 17.5l21.5 18.5l15.5 13q-4 3 -9.5 12t-10.5 19.5t-8 19.5t-2 12l2 7h161l-73 -254h357l33 113h-306l-6 11
l34 119l12 11h519zM347 509l-19 -65h-161l32 112q4 13 15 29.5t25.5 30.5t30 23.5t29.5 9.5h491q13 0 23.5 -9.5t17 -23.5t8 -30.5t-2.5 -29.5l-25 -90l-13 -14h-138l-10 15l12 42h-315z" />
    <glyph glyph-name="FL0027h" unicode="'" horiz-adv-x="260" 
d="M358 514q-5 -16 -20 -35.5t-34 -34.5h-127l57 196l15 9h134l12 -9z" />
    <glyph glyph-name="FL0028h" unicode="(" horiz-adv-x="435" 
d="M243 111h164l6 -14l-33 -113l-13 -14h-253q-14 0 -24 9.5t-16 23.5t-8 30t2 30l95 332h161zM177 444l41 142q4 13 15 29.5t25.5 30.5t30 23.5t29.5 9.5h253l5 -14l-33 -113l-13 -13h-164l-28 -95h-161z" />
    <glyph glyph-name="FL0029h" unicode=")" horiz-adv-x="435" 
d="M256 111l81 284h161l-95 -332q-4 -14 -15 -30t-25.5 -30t-30.5 -23.5t-29 -9.5h-254l-4 14l33 113l13 14h165zM553 586l-41 -142h-161l28 95h-165l-6 13l33 113l12 14h254q13 0 23.5 -9.5t16.5 -23.5t8 -30.5t-2 -29.5z" />
    <glyph glyph-name="FL0F98h" unicode="*" horiz-adv-x="309" 
d="M320 494l-16 44l-43 -44l-60 53l53 41l-42 13l49 81l38 -22l8 48h88l-22 -48l59 22l9 -81l-56 -16l21 -36z" />
    <glyph glyph-name="FL002Bh" unicode="+" horiz-adv-x="499" 
d="M160 384l12 11h381l6 -11l-34 -119l-12 -11h-120l-34 -119l-14 -10h-119l-8 10l34 119h-120l-6 11zM327 515l14 10h119l8 -10l-21 -71h-141z" />
    <glyph glyph-name="FL002Ch" unicode="," horiz-adv-x="260" 
d="M31 -68l57 199l15 10h134l12 -10l-35 -121q-4 -13 -15.5 -29t-26.5 -30.5t-30.5 -24t-27.5 -9.5h-75z" />
    <glyph glyph-name="FL002Dh" unicode="-" horiz-adv-x="444" 
d="M504 384l-34 -119l-13 -11h-325l-6 11l34 119l12 11h325z" />
    <glyph glyph-name="FL002Eh" unicode="." horiz-adv-x="260" 
d="M54 15l34 116l15 10h134l12 -10l-34 -117l-13 -14h-139z" />
    <glyph glyph-name="FL002Fh" unicode="/" horiz-adv-x="753" 
d="M41 20l401 375h202l-407 -380l-18 -15h-175zM901 635l-205 -191h-202l211 196l16 9h170z" />
    <glyph glyph-name="FL004Fh" unicode="0" 
d="M123 0q-14 0 -24 9.5t-16.5 23.5t-8 30t2.5 30l86 302h161l-73 -254h400l73 254h161l-86 -302q-4 -14 -15 -30t-25.5 -30t-30.5 -23.5t-29 -9.5h-576zM757 509h-400l-19 -65h-161l32 112q4 13 15 29.5t25.5 30.5t30 23.5t29.5 9.5h576q13 0 23.5 -9.5t17 -23.5t8 -30.5
t-2.5 -29.5l-32 -112h-161z" />
    <glyph glyph-name="FL0031h" unicode="1" horiz-adv-x="344" 
d="M147 0l-10 15l109 380h161l-109 -381l-13 -14h-138zM476 636l-55 -192h-161l19 65h-74l-6 11l34 119l12 10h226z" />
    <glyph glyph-name="FL0032h" unicode="2" horiz-adv-x="735" 
d="M785 347q-4 -13 -15.5 -29t-25.5 -30.5t-30 -24t-29 -9.5h-401l-33 -113h464l6 -14l-32 -113l-13 -14h-553q-14 0 -24 9.5t-16.5 23.5t-8 30t2.5 30l60 209q4 13 14.5 29.5t25 30.5t30 23.5t29.5 9.5h562zM651 444l19 65h-465l-5 14l32 113l12 13h554q13 0 23.5 -9.5
t17 -23.5t8 -30.5t-2.5 -29.5l-32 -112h-161z" />
    <glyph glyph-name="FL0033h" unicode="3" horiz-adv-x="737" 
d="M566 141l73 254h161l-2 -7q-1 -3 -9.5 -12t-19.5 -19.5t-21.5 -19.5t-15.5 -12q3 -4 8.5 -13t10.5 -18.5l9 -17.5t3 -11l-49 -172q-4 -14 -15.5 -30t-25.5 -30t-30 -23.5t-29 -9.5h-556l-4 14l32 113l13 14h467zM846 556l-32 -112h-161l19 65h-467l-5 14l32 113l12 13
h556q13 0 23.5 -9.5t17 -23.5t8 -30.5t-2.5 -29.5zM222 384l13 11h352l7 -11l-34 -119l-13 -11h-352l-7 11z" />
    <glyph glyph-name="FL0034h" unicode="4" horiz-adv-x="736" 
d="M690 14l-13 -14h-138l-10 15l109 380h161zM587 395l7 -11l-34 -119l-13 -11h-411l-9 15l36 126h424zM177 444l57 196l15 9h134l12 -9l-57 -196h-161zM709 640l16 9h133l12 -9l-57 -196h-161z" />
    <glyph glyph-name="FL0035h" unicode="5" horiz-adv-x="735" 
d="M126 264l37 131h562q13 0 23.5 -9.5t17 -23.5t8.5 -30.5t-2 -29.5l-60 -209q-4 -14 -15.5 -30t-25.5 -30t-30 -23.5t-29 -9.5h-554l-4 14l32 113l13 14h465l33 113h-461zM357 509l-19 -65h-161l55 192l17 13h583l5 -13l-32 -113l-14 -14h-434z" />
    <glyph glyph-name="FL0036h" unicode="6" horiz-adv-x="818" 
d="M795 93q-4 -14 -15 -30t-25.5 -30t-30.5 -23.5t-29 -9.5h-572q-14 0 -24 9.5t-16.5 23.5t-8 30t2.5 30l86 302h648q11 -1 20.5 -11t15.5 -24.5t8.5 -30t-1.5 -28.5zM357 509l-19 -65h-161l32 112q4 13 15 29.5t25.5 30.5t30 23.5t29.5 9.5h572q13 0 23.5 -9.5t17 -23.5
t8 -30.5t-2.5 -29.5l-25 -90l-13 -14h-138l-10 15l12 42h-396zM680 254h-396l-33 -113h396z" />
    <glyph glyph-name="FL0037h" unicode="7" horiz-adv-x="653" 
d="M752 517l-59 -73h-174l41 50l-5 15h-350l-5 14l32 113l12 13h532l10 -14zM192 27q2 5 4 9t7 11l277 348h174l-317 -395h-144q-6 0 -6.5 4t1.5 9z" />
    <glyph glyph-name="FL0038h" unicode="8" horiz-adv-x="821" 
d="M191 325q-4 3 -9.5 12t-10.5 19.5t-8 19.5t-2 12l2 7h161l-73 -254h399l33 113h-348l-7 11l34 119l13 11h509l-2 -7q-1 -3 -9 -12t-19 -19l-21.5 -19.5t-16.5 -12.5q3 -4 8.5 -13t10.5 -18.5l9 -17.5t3 -11l-49 -172q-4 -14 -15 -30t-25.5 -30t-30.5 -23.5t-29 -9.5h-575
q-14 0 -24 9.5t-16.5 23.5t-8 30t2.5 30l49 172q1 3 9 11t19 17.5l21.5 18.5zM357 509l-19 -65h-161l32 112q4 13 15 29.5t25.5 30.5t30 23.5t29.5 9.5h575q13 0 23.5 -9.5t17 -23.5t8 -30.5t-2.5 -29.5l-32 -112h-161l19 65h-399z" />
    <glyph glyph-name="FL0039h" unicode="9" horiz-adv-x="818" 
d="M163 395h718l-86 -302q-4 -14 -15 -30t-25.5 -30t-30.5 -23.5t-29 -9.5h-572q-14 0 -24 9.5t-16.5 23.5t-8 30t2.5 30l25 90l12 14h139l10 -15l-12 -41h396l33 113h-485q-11 0 -21 10t-16.5 24.5t-9 30.5t1.5 29zM209 556q4 13 15 29.5t25.5 30.5t30 23.5t29.5 9.5h572
q13 0 23.5 -9.5t17 -23.5t8 -30.5t-2.5 -29.5l-32 -112h-161l19 65h-396l-19 -65h-161z" />
    <glyph glyph-name="FL003Ah" unicode=":" horiz-adv-x="260" 
d="M54 15l34 116l15 10h134l12 -10l-34 -117l-13 -14h-139zM350 485l-12 -41h-161l12 41l16 10h134zM156 369l7 26h161l-7 -27l-13 -14h-139z" />
    <glyph glyph-name="FL003Bh" unicode=";" horiz-adv-x="260" 
d="M31 -68l57 199l15 10h134l12 -10l-35 -121q-4 -13 -15.5 -29t-26.5 -30.5t-30.5 -24t-27.5 -9.5h-75zM350 485l-12 -41h-161l12 41l16 10h134zM156 369l7 26h161l-7 -27l-13 -14h-139z" />
    <glyph glyph-name="FL003Ch" unicode="&#x3c;" horiz-adv-x="513" 
d="M285 15l-156 312l72 68h202l-72 -68l153 -308l-14 -19h-175zM465 640l16 9h170l10 -14l-205 -191h-202z" />
    <glyph glyph-name="FL003Dh" unicode="=" horiz-adv-x="496" 
d="M141 286h378l7 -11l-34 -119l-13 -10h-378l-6 10l34 119zM204 504h378l6 -11l-14 -49h-397l14 49zM163 363l-6 11l6 21h397l-6 -21l-13 -11h-378z" />
    <glyph glyph-name="FL003Eh" unicode="&#x3e;" horiz-adv-x="511" 
d="M369 327l-34 68h202l34 -68l-334 -312l-18 -15h-175l-4 19zM417 640l96 -196h-202l-94 191l18 14h170z" />
    <glyph glyph-name="FL0040h" unicode="?" horiz-adv-x="720" 
d="M829 556l-32 -112h-161l19 65h-450l-5 14l32 113l12 13h539q13 0 23.5 -9.5t17 -23.5t8 -30.5t-2.5 -29.5zM165 222l23 80q4 13 14.5 29t24 29.5t28.5 23.5t29 11h499l-13 -48q-4 -13 -15 -29t-25.5 -30.5t-30.5 -24t-29 -9.5h-335l-10 -33l-13 -14h-138zM105 15l34 116
l16 10h134l11 -10l-34 -117l-13 -14h-138z" />
    <glyph glyph-name="FL0BEEh" unicode="@" horiz-adv-x="930" 
d="M887 96l6 -14l-33 -113l-13 -14h-737q-14 0 -24 9.5t-16.5 23.5t-8 30.5t2.5 30.5l99 346h161l-85 -299h648zM370 553l-32 -109h-161l45 157q4 13 15 29.5t25.5 30.5t30 23.5t29.5 9.5h684q13 0 23.5 -9.5t17 -23.5t8 -30.5t-2.5 -29.5l-45 -157h-161l32 109h-508z
M739 271h58l35 124h161l-44 -153q-4 -14 -15 -30.5t-25.5 -30.5t-30.5 -23.5t-29 -9.5h-280l67 231h-125l-31 -108h68l11 -10l-29 -99l-13 -14h-167q-8 0 -13.5 5.5t-8.5 13t-4 16.5t1 17l56 195h393zM790 450l-2 -6h-393l2 6q2 7 8 16.5t14 17t16.5 13t16.5 5.5h313
q7 0 13 -5.5t9.5 -13t4 -17t-1.5 -16.5z" />
    <glyph glyph-name="FL0041h" unicode="A" horiz-adv-x="869" 
d="M40 19l10 18l291 358h176l-190 -234l-3 -12q-3 -8 3 -8h251l7 -13l-34 -118l-13 -10h-494q-4 0 -5 7t1 12zM667 0l-87 395h176l86 -348q4 -11 1 -20l-4 -14q-2 -5 -4.5 -9t-8.5 -4h-159zM744 444h-363l168 205h145z" />
    <glyph glyph-name="FL0042h" unicode="B" horiz-adv-x="821" 
d="M882 388q-1 -3 -9 -12t-19 -19l-21.5 -19.5t-16.5 -12.5q3 -4 8.5 -13t10.5 -18.5l9 -17.5t3 -11l-49 -172q-4 -14 -15 -30t-25.5 -30t-30.5 -23.5t-29 -9.5h-635l-9 15l109 380h161l-73 -254h399l33 113h-348l-7 11l34 119l13 11h509zM177 444l55 191l17 14h635
q13 0 23.5 -9.5t17 -23.5t8 -30.5t-2.5 -29.5l-32 -112h-161l19 65h-399l-19 -65h-161z" />
    <glyph glyph-name="FL0043h" unicode="C" horiz-adv-x="735" 
d="M123 0q-14 0 -24 9.5t-16.5 23.5t-8 30t2.5 30l86 302h161l-73 -254h313l12 41l18 15h138l5 -14l-25 -90q-4 -14 -15.5 -30t-25.5 -30t-30 -23.5t-29 -9.5h-489zM357 509l-19 -65h-161l32 112q4 13 15 29.5t25.5 30.5t30 23.5t29.5 9.5h489q13 0 23.5 -9.5t17 -23.5
t8 -30.5t-2.5 -29.5l-25 -90l-13 -14h-138l-10 15l12 42h-313z" />
    <glyph glyph-name="FL0044h" unicode="D" horiz-adv-x="823" 
d="M252 141h359q10 0 19 5t16.5 11.5t12 14t6.5 13.5l60 210h161l-78 -272q-5 -17 -22 -38.5t-38.5 -40t-43 -31.5t-34.5 -13h-606l-10 15l109 380h162zM924 527l-24 -83h-161l7 25q4 13 -5.5 26.5t-22.5 13.5h-360l-19 -65h-162l57 196l16 9h606q13 0 27.5 -13t25 -31.5
t15.5 -40t0 -37.5z" />
    <glyph glyph-name="FL0045h" unicode="E" horiz-adv-x="733" 
d="M63 0l-9 15l109 380h161l-69 -240l5 -14h453l6 -14l-32 -113l-13 -14h-611zM234 640l15 9h611l5 -13l-32 -113l-14 -14h-453l-13 -15l-15 -50h-161zM731 384l-34 -119l-13 -11h-349l-7 11l34 119l13 11h349z" />
    <glyph glyph-name="FL0046h" unicode="F" horiz-adv-x="681" 
d="M353 494l-15 -50h-161l55 191l17 14h560l5 -13l-32 -113l-14 -14h-402zM53 10l110 385h161l-110 -385l-17 -10h-134zM672 395l7 -11l-34 -119l-13 -11h-297l-7 11l34 119l13 11h297z" />
    <glyph glyph-name="FL0047h" unicode="G" 
d="M799 93q-4 -14 -15 -30t-25.5 -30t-30.5 -23.5t-29 -9.5h-576q-14 0 -24 9.5t-16.5 23.5t-8 30t2.5 30l86 302h161l-73 -254h400l33 113h-304l-7 11l34 119l13 11h455l7 -11zM357 509l-19 -65h-161l32 112q4 13 15 29.5t25.5 30.5t30 23.5t29.5 9.5h576q13 0 23.5 -9.5
t17 -23.5t8 -30.5t-2.5 -29.5l-25 -90l-13 -14h-138l-10 15l12 42h-400z" />
    <glyph glyph-name="FL0048h" unicode="H" horiz-adv-x="783" 
d="M635 395l7 -11l-34 -119l-13 -11h-311l-69 -240l-13 -14h-139l-9 15l109 380h472zM738 14l-13 -14h-139l-10 15l109 380h162zM756 640l16 9h134l12 -9l-57 -196h-162zM177 444l57 196l15 9h134l12 -9l-57 -196h-161z" />
    <glyph glyph-name="FL0049h" unicode="I" horiz-adv-x="260" 
d="M54 15l109 380h161l-109 -381l-13 -14h-139zM395 640l-57 -196h-161l57 196l15 9h134z" />
    <glyph glyph-name="FL004Ah" unicode="J" horiz-adv-x="708" 
d="M123 0q-14 0 -24 9.5t-16.5 23.5t-8 30t2.5 30l65 228l16 10h134l11 -10l-52 -180h286l73 254h161l-86 -302q-4 -14 -15 -30t-25.5 -30t-30.5 -23.5t-29 -9.5h-462zM842 640l-57 -196h-161l57 196l16 9h134z" />
    <glyph glyph-name="FL004Bh" unicode="K" horiz-adv-x="768" 
d="M374 395h287l-72 -68l150 -308l-14 -20h-177l-128 255h-86l-7 11l34 119zM58 0l-4 14l109 381h161l-109 -380l-18 -15h-139zM916 635l-203 -191h-204l211 196l15 9h171zM395 640l-57 -196h-161l57 196l15 9h134z" />
    <glyph glyph-name="FL004Ch" unicode="L" horiz-adv-x="681" 
d="M54 15l109 380h161l-69 -240l5 -14h402l6 -14l-32 -113l-13 -14h-560zM395 640l-57 -196h-161l57 196l15 9h134z" />
    <glyph glyph-name="FL004Dh" unicode="M" horiz-adv-x="992" 
d="M542 1h-92l-123 394h192l47 -151l133 151h191zM790 0l-5 14l109 381h161l-109 -380l-17 -15h-139zM63 0l-9 15l109 380h161l-109 -381l-13 -14h-139zM429 649l14 -7l61 -198h-327l57 196l15 9h180zM1126 640l-57 -196h-327l175 198l18 7h180z" />
    <glyph glyph-name="FL004Eh" unicode="N" horiz-adv-x="805" 
d="M594 15l-257 380h225l102 -152l43 152h161l-109 -381l-13 -14h-138zM215 14l-13 -14h-139l-9 15l109 380h161zM177 444l57 196l15 9h134l15 -7l131 -198h-352zM721 444l57 196l16 9h134l11 -9l-57 -196h-161z" />
    <glyph glyph-name="FL0050h" unicode="O" 
d="M123 0q-14 0 -24 9.5t-16.5 23.5t-8 30t2.5 30l86 302h161l-73 -254h400l73 254h161l-86 -302q-4 -14 -15 -30t-25.5 -30t-30.5 -23.5t-29 -9.5h-576zM757 509h-400l-19 -65h-161l32 112q4 13 15 29.5t25.5 30.5t30 23.5t29.5 9.5h576q13 0 23.5 -9.5t17 -23.5t8 -30.5
t-2.5 -29.5l-32 -112h-161z" />
    <glyph glyph-name="FL0051h" unicode="P" horiz-adv-x="761" 
d="M871 556l-32 -112h-162l19 65h-339l-19 -65h-161l55 191l17 14h576q13 0 23.5 -9.5t17 -23.5t8 -30.5t-2.5 -29.5zM657 373l6 22h162l-20 -69q-4 -14 -15 -30t-25 -30t-30 -23.5t-29 -9.5h-377l-7 11l34 118l13 11h288zM63 0l-10 10l110 385h161l-110 -385l-17 -10h-134z
" />
    <glyph glyph-name="FL0052h" unicode="Q" 
d="M456 -87l-14 -10h-119l-7 10l25 87h-218q-14 0 -24 9.5t-16.5 23.5t-8 30t2.5 30l86 302h161l-73 -254h130l51 178l13 10h119l8 -10l-51 -178h130l73 254h161l-86 -302q-4 -14 -15 -30t-25.5 -30t-30.5 -23.5t-29 -9.5h-218zM757 509h-400l-19 -65h-161l32 112
q4 13 15 29.5t25.5 30.5t30 23.5t29.5 9.5h576q13 0 23.5 -9.5t17 -23.5t8 -30.5t-2.5 -29.5l-32 -112h-161z" />
    <glyph glyph-name="FL0053h" unicode="R" horiz-adv-x="761" 
d="M677 444l19 65h-339l-19 -65h-161l55 191l17 14h576q13 0 23.5 -9.5t17 -23.5t8 -30.5t-2.5 -29.5l-32 -112h-162zM723 15l-19 -15h-145q-1 0 -5.5 4.5l-5.5 5.5l-177 338q2 9 9.5 17t18.5 8h251l10 11l3 11h162l-26 -90q-9 -17 -28 -30.5t-42 -23t-45.5 -15t-38.5 -6.5
l2 -10l40 -79h57l11 -15zM214 10l-17 -10h-134l-10 10l110 385h161z" />
    <glyph glyph-name="FL0054h" unicode="S" horiz-adv-x="735" 
d="M150 347l13 48h562q13 0 23.5 -9.5t17 -23.5t8.5 -30.5t-2 -29.5l-60 -209q-4 -14 -15.5 -30t-25.5 -30t-30 -23.5t-29 -9.5h-554l-4 14l32 113l13 14h465l33 113h-401q-14 0 -24 9.5t-16.5 24t-8 30.5t2.5 29zM357 509l-19 -65h-161l32 112q4 13 15 29.5t25.5 30.5
t30 23.5t29.5 9.5h553l5 -13l-32 -113l-14 -14h-464z" />
    <glyph glyph-name="FL0055h" unicode="T" horiz-adv-x="735" 
d="M835 524l-18 -15h-224l-19 -65h-161l19 65h-228l-4 14l32 113l13 13h612l10 -14zM300 0l-10 15l109 380h161l-109 -381l-12 -14h-139z" />
    <glyph glyph-name="FL0056h" unicode="U" 
d="M123 0q-14 0 -24 9.5t-16.5 23.5t-8 30t2.5 30l86 302h161l-73 -254h400l73 254h161l-86 -302q-4 -14 -15 -30t-25.5 -30t-30.5 -23.5t-29 -9.5h-576zM395 640l-57 -196h-161l57 196l15 9h134zM956 640l-57 -196h-161l57 196l16 9h133z" />
    <glyph glyph-name="FL0057h" unicode="V" horiz-adv-x="855" 
d="M355 0l-94 395h181l41 -198l5 1l153 197h179l-320 -395h-145zM212 603q-2 5 -1.5 8.5t1.5 6.5l6 19q2 5 4 8.5t8 3.5h159l42 -205h-182zM679 444l160 205h159q6 0 7 -3.5t-1 -8.5l-6 -19q-1 -3 -2 -6.5t-6 -8.5l-130 -159h-181z" />
    <glyph glyph-name="FL0058h" unicode="W" horiz-adv-x="1180" 
d="M680 0l-41 171l-139 -171h-145l-94 395h181l41 -198l5 1l111 143l-14 54h181l41 -198l5 1l153 197h180l-320 -395h-145zM554 649h160l42 -205h-183l-37 159q-2 5 -1.5 8.5t1.5 6.5l6 19q2 5 4 8.5t8 3.5zM230 649h159l42 -205h-182l-37 159q-2 5 -1.5 8.5t1.5 6.5l6 19
q2 5 4 8.5t8 3.5zM1314 603l-130 -159h-181l161 205h159q8 0 5 -12l-6 -19q-1 -3 -2 -6.5t-6 -8.5z" />
    <glyph glyph-name="FL0059h" unicode="X" horiz-adv-x="753" 
d="M369 327l-34 68h308l-72 -68l153 -308l-14 -19h-175l-10 15l-92 183l-196 -183l-18 -15h-175l-4 19zM417 640l89 -185l199 185l16 9h170l10 -14l-205 -191h-385l-94 191l18 14h170z" />
    <glyph glyph-name="FL005Ah" unicode="Y" horiz-adv-x="741" 
d="M618 0h-560l-4 14l32 113l13 14h471l73 254h161l-86 -302q-4 -14 -15.5 -30t-25.5 -30t-30 -23.5t-29 -9.5zM565 270l-18 -15h-350q-14 0 -24 9.5t-16 24t-8 30.5t2 29l13 47h424l9 -14zM178 444l57 196l15 9h134l12 -9l-57 -196h-161zM657 444l57 196l16 9h133l12 -9
l-57 -196h-161z" />
    <glyph glyph-name="FL005Ch" unicode="Z" horiz-adv-x="681" 
d="M90 141l16 9l315 245h208l-308 -240l5 -14h336l6 -14l-32 -113l-13 -14h-560l-9 15zM814 635l-36 -127l-17 -10l-70 -54h-207l65 50l-5 15h-339l-5 14l32 113l12 13h560z" />
    <glyph glyph-name="FL005Bh" unicode="[" horiz-adv-x="435" 
d="M243 111h164l6 -14l-33 -113l-13 -14h-313l-10 10l119 415h161zM177 444l65 226l16 9h313l5 -14l-33 -113l-13 -13h-164l-28 -95h-161z" />
    <glyph glyph-name="FL00B9h" unicode="\" horiz-adv-x="753" 
d="M725 20l-15 -20h-175l-10 15l-189 380h202zM217 635l18 14h170l12 -9l96 -196h-202z" />
    <glyph glyph-name="FL005Dh" unicode="]" horiz-adv-x="435" 
d="M256 111l81 284h161l-119 -415l-16 -10h-313l-5 14l33 113l14 14h164zM577 670l-65 -226h-161l28 95h-164l-7 13l33 113l13 14h313z" />
    <glyph glyph-name="FL005Eh" unicode="^" horiz-adv-x="869" 
d="M840 19q-2 -5 -6 -12t-8 -7h-494l-7 10l34 118l13 13h251q6 0 9 8l3 12l-56 234h175l88 -358zM203 0h-159q-6 0 -6.5 4t1.5 9l4 14q2 5 4 9t7 11l285 348h176zM742 444h-363l169 205h145z" />
    <glyph glyph-name="FL005Fh" unicode="_" horiz-adv-x="565" 
d="M550 119l-34 -119l-13 -11h-447l-6 11l34 119l12 11h447z" />
    <glyph glyph-name="FL0060h" unicode="`" horiz-adv-x="276" 
d="M406 850l32 -115l-15 -15h-137l-11 10l-41 116l13 14h140z" />
    <glyph glyph-name="FL0061h" unicode="a" horiz-adv-x="869" 
d="M40 19l10 18l291 358h176l-190 -234l-3 -12q-3 -8 3 -8h251l7 -13l-34 -118l-13 -10h-494q-4 0 -5 7t1 12zM667 0l-87 395h176l86 -348q4 -11 1 -20l-4 -14q-2 -5 -4.5 -9t-8.5 -4h-159zM744 444h-363l168 205h145z" />
    <glyph glyph-name="FL0062h" unicode="b" horiz-adv-x="821" 
d="M882 388q-1 -3 -9 -12t-19 -19l-21.5 -19.5t-16.5 -12.5q3 -4 8.5 -13t10.5 -18.5l9 -17.5t3 -11l-49 -172q-4 -14 -15 -30t-25.5 -30t-30.5 -23.5t-29 -9.5h-635l-9 15l109 380h161l-73 -254h399l33 113h-348l-7 11l34 119l13 11h509zM177 444l55 191l17 14h635
q13 0 23.5 -9.5t17 -23.5t8 -30.5t-2.5 -29.5l-32 -112h-161l19 65h-399l-19 -65h-161z" />
    <glyph glyph-name="FL0063h" unicode="c" horiz-adv-x="735" 
d="M123 0q-14 0 -24 9.5t-16.5 23.5t-8 30t2.5 30l86 302h161l-73 -254h313l12 41l18 15h138l5 -14l-25 -90q-4 -14 -15.5 -30t-25.5 -30t-30 -23.5t-29 -9.5h-489zM357 509l-19 -65h-161l32 112q4 13 15 29.5t25.5 30.5t30 23.5t29.5 9.5h489q13 0 23.5 -9.5t17 -23.5
t8 -30.5t-2.5 -29.5l-25 -90l-13 -14h-138l-10 15l12 42h-313z" />
    <glyph glyph-name="FL0064h" unicode="d" horiz-adv-x="823" 
d="M252 141h359q10 0 19 5t16.5 11.5t12 14t6.5 13.5l60 210h161l-78 -272q-5 -17 -22 -38.5t-38.5 -40t-43 -31.5t-34.5 -13h-606l-10 15l109 380h162zM924 527l-24 -83h-161l7 25q4 13 -5.5 26.5t-22.5 13.5h-360l-19 -65h-162l57 196l16 9h606q13 0 27.5 -13t25 -31.5
t15.5 -40t0 -37.5z" />
    <glyph glyph-name="FL0065h" unicode="e" horiz-adv-x="733" 
d="M63 0l-9 15l109 380h161l-69 -240l5 -14h453l6 -14l-32 -113l-13 -14h-611zM234 640l15 9h611l5 -13l-32 -113l-14 -14h-453l-13 -15l-15 -50h-161zM731 384l-34 -119l-13 -11h-349l-7 11l34 119l13 11h349z" />
    <glyph glyph-name="FL0066h" unicode="f" horiz-adv-x="681" 
d="M353 494l-15 -50h-161l55 191l17 14h560l5 -13l-32 -113l-14 -14h-402zM53 10l110 385h161l-110 -385l-17 -10h-134zM672 395l7 -11l-34 -119l-13 -11h-297l-7 11l34 119l13 11h297z" />
    <glyph glyph-name="FL00B6h" unicode="g" horiz-adv-x="784" 
d="M761 93q-4 -14 -15 -30t-25.5 -30t-30.5 -23.5t-29 -9.5h-538q-14 0 -24 9.5t-16.5 23.5t-8 30t2.5 30l86 302h161l-73 -254h362l33 113h-266l-7 11l34 119l13 11h417l7 -11zM357 509l-19 -65h-161l32 112q4 13 15 29.5t25.5 30.5t30 23.5t29.5 9.5h538q13 0 23.5 -9.5
t17 -23.5t8 -30.5t-2.5 -29.5l-25 -90l-13 -14h-138l-10 15l12 42h-362z" />
    <glyph glyph-name="FL0068h" unicode="h" horiz-adv-x="783" 
d="M635 395l7 -11l-34 -119l-13 -11h-311l-69 -240l-13 -14h-139l-9 15l109 380h472zM738 14l-13 -14h-139l-10 15l109 380h162zM756 640l16 9h134l12 -9l-57 -196h-162zM177 444l57 196l15 9h134l12 -9l-57 -196h-161z" />
    <glyph glyph-name="i" unicode="i" horiz-adv-x="260" 
d="M54 15l109 380h161l-109 -381l-13 -14h-139zM395 640l-57 -196h-161l57 196l15 9h134z" />
    <glyph glyph-name="FL006Ah" unicode="j" horiz-adv-x="708" 
d="M123 0q-14 0 -24 9.5t-16.5 23.5t-8 30t2.5 30l65 228l16 10h134l11 -10l-52 -180h286l73 254h161l-86 -302q-4 -14 -15 -30t-25.5 -30t-30.5 -23.5t-29 -9.5h-462zM842 640l-57 -196h-161l57 196l16 9h134z" />
    <glyph glyph-name="FL006Bh" unicode="k" horiz-adv-x="768" 
d="M374 395h287l-72 -68l150 -308l-14 -20h-177l-128 255h-86l-7 11l34 119zM58 0l-4 14l109 381h161l-109 -380l-18 -15h-139zM916 635l-203 -191h-204l211 196l15 9h171zM395 640l-57 -196h-161l57 196l15 9h134z" />
    <glyph glyph-name="FL006Ch" unicode="l" horiz-adv-x="681" 
d="M54 15l109 380h161l-69 -240l5 -14h402l6 -14l-32 -113l-13 -14h-560zM395 640l-57 -196h-161l57 196l15 9h134z" />
    <glyph glyph-name="FL006Dh" unicode="m" horiz-adv-x="992" 
d="M542 1h-92l-123 394h192l47 -151l133 151h191zM790 0l-5 14l109 381h161l-109 -380l-17 -15h-139zM63 0l-9 15l109 380h161l-109 -381l-13 -14h-139zM429 649l14 -7l61 -198h-327l57 196l15 9h180zM1126 640l-57 -196h-327l175 198l18 7h180z" />
    <glyph glyph-name="FL006Eh" unicode="n" horiz-adv-x="805" 
d="M594 15l-257 380h225l102 -152l43 152h161l-109 -381l-13 -14h-138zM215 14l-13 -14h-139l-9 15l109 380h161zM177 444l57 196l15 9h134l15 -7l131 -198h-352zM721 444l57 196l16 9h134l11 -9l-57 -196h-161z" />
    <glyph glyph-name="FL006Fh" unicode="o" 
d="M123 0q-14 0 -24 9.5t-16.5 23.5t-8 30t2.5 30l86 302h161l-73 -254h400l73 254h161l-86 -302q-4 -14 -15 -30t-25.5 -30t-30.5 -23.5t-29 -9.5h-576zM757 509h-400l-19 -65h-161l32 112q4 13 15 29.5t25.5 30.5t30 23.5t29.5 9.5h576q13 0 23.5 -9.5t17 -23.5t8 -30.5
t-2.5 -29.5l-32 -112h-161z" />
    <glyph glyph-name="FL0070h" unicode="p" horiz-adv-x="761" 
d="M871 556l-32 -112h-162l19 65h-339l-19 -65h-161l55 191l17 14h576q13 0 23.5 -9.5t17 -23.5t8 -30.5t-2.5 -29.5zM657 373l6 22h162l-20 -69q-4 -14 -15 -30t-25 -30t-30 -23.5t-29 -9.5h-377l-7 11l34 118l13 11h288zM63 0l-10 10l110 385h161l-110 -385l-17 -10h-134z
" />
    <glyph glyph-name="FL0071h" unicode="q" 
d="M456 -87l-14 -10h-119l-7 10l25 87h-218q-14 0 -24 9.5t-16.5 23.5t-8 30t2.5 30l86 302h161l-73 -254h130l51 178l13 10h119l8 -10l-51 -178h130l73 254h161l-86 -302q-4 -14 -15 -30t-25.5 -30t-30.5 -23.5t-29 -9.5h-218zM757 509h-400l-19 -65h-161l32 112
q4 13 15 29.5t25.5 30.5t30 23.5t29.5 9.5h576q13 0 23.5 -9.5t17 -23.5t8 -30.5t-2.5 -29.5l-32 -112h-161z" />
    <glyph glyph-name="FL0072h" unicode="r" horiz-adv-x="761" 
d="M677 444l19 65h-339l-19 -65h-161l55 191l17 14h576q13 0 23.5 -9.5t17 -23.5t8 -30.5t-2.5 -29.5l-32 -112h-162zM723 15l-19 -15h-145q-1 0 -5.5 4.5l-5.5 5.5l-177 338q2 9 9.5 17t18.5 8h251l10 11l3 11h162l-26 -90q-9 -17 -28 -30.5t-42 -23t-45.5 -15t-38.5 -6.5
l2 -10l40 -79h57l11 -15zM214 10l-17 -10h-134l-10 10l110 385h161z" />
    <glyph glyph-name="FL0073h" unicode="s" horiz-adv-x="735" 
d="M150 347l13 48h562q13 0 23.5 -9.5t17 -23.5t8.5 -30.5t-2 -29.5l-60 -209q-4 -14 -15.5 -30t-25.5 -30t-30 -23.5t-29 -9.5h-554l-4 14l32 113l13 14h465l33 113h-401q-14 0 -24 9.5t-16.5 24t-8 30.5t2.5 29zM357 509l-19 -65h-161l32 112q4 13 15 29.5t25.5 30.5
t30 23.5t29.5 9.5h553l5 -13l-32 -113l-14 -14h-464z" />
    <glyph glyph-name="FL0074h" unicode="t" horiz-adv-x="735" 
d="M835 524l-18 -15h-224l-19 -65h-161l19 65h-228l-4 14l32 113l13 13h612l10 -14zM300 0l-10 15l109 380h161l-109 -381l-12 -14h-139z" />
    <glyph glyph-name="FL0075h" unicode="u" 
d="M123 0q-14 0 -24 9.5t-16.5 23.5t-8 30t2.5 30l86 302h161l-73 -254h400l73 254h161l-86 -302q-4 -14 -15 -30t-25.5 -30t-30.5 -23.5t-29 -9.5h-576zM395 640l-57 -196h-161l57 196l15 9h134zM956 640l-57 -196h-161l57 196l16 9h133z" />
    <glyph glyph-name="FL0076h" unicode="v" horiz-adv-x="855" 
d="M355 0l-94 395h181l41 -198l5 1l153 197h179l-320 -395h-145zM212 603q-2 5 -1.5 8.5t1.5 6.5l6 19q2 5 4 8.5t8 3.5h159l42 -205h-182zM679 444l160 205h159q6 0 7 -3.5t-1 -8.5l-6 -19q-1 -3 -2 -6.5t-6 -8.5l-130 -159h-181z" />
    <glyph glyph-name="FL0077h" unicode="w" horiz-adv-x="1180" 
d="M680 0l-41 171l-139 -171h-145l-94 395h181l41 -198l5 1l111 143l-14 54h181l41 -198l5 1l153 197h180l-320 -395h-145zM554 649h160l42 -205h-183l-37 159q-2 5 -1.5 8.5t1.5 6.5l6 19q2 5 4 8.5t8 3.5zM230 649h159l42 -205h-182l-37 159q-2 5 -1.5 8.5t1.5 6.5l6 19
q2 5 4 8.5t8 3.5zM1314 603l-130 -159h-181l161 205h159q8 0 5 -12l-6 -19q-1 -3 -2 -6.5t-6 -8.5z" />
    <glyph glyph-name="FL0078h" unicode="x" horiz-adv-x="753" 
d="M369 327l-34 68h308l-72 -68l153 -308l-14 -19h-175l-10 15l-92 183l-196 -183l-18 -15h-175l-4 19zM417 640l89 -185l199 185l16 9h170l10 -14l-205 -191h-385l-94 191l18 14h170z" />
    <glyph glyph-name="FL0079h" unicode="y" horiz-adv-x="741" 
d="M618 0h-560l-4 14l32 113l13 14h471l73 254h161l-86 -302q-4 -14 -15.5 -30t-25.5 -30t-30 -23.5t-29 -9.5zM565 270l-18 -15h-350q-14 0 -24 9.5t-16 24t-8 30.5t2 29l13 47h424l9 -14zM178 444l57 196l15 9h134l12 -9l-57 -196h-161zM657 444l57 196l16 9h133l12 -9
l-57 -196h-161z" />
    <glyph glyph-name="FL007Ah" unicode="z" horiz-adv-x="681" 
d="M90 141l16 9l315 245h208l-308 -240l5 -14h336l6 -14l-32 -113l-13 -14h-560l-9 15zM814 635l-36 -127l-17 -10l-70 -54h-207l65 50l-5 15h-339l-5 14l32 113l12 13h560z" />
    <glyph glyph-name="FL007Bh" unicode="{" horiz-adv-x="527" 
d="M352 111h147l6 -14l-33 -113l-13 -14h-236q-14 0 -24 9.5t-16 23.5t-8 30t2 30l55 191h-100l-6 11l34 119l12 11h261zM327 586q4 13 15 29.5t25.5 30.5t30 23.5t29.5 9.5h236l5 -14l-33 -113l-13 -13h-147l-28 -95h-161z" />
    <glyph glyph-name="FL007Ch" unicode="|" horiz-adv-x="260" 
d="M31 -68l132 463h161l-133 -464l-13 -14h-139zM418 723l-80 -279h-161l80 279l16 9h134z" />
    <glyph glyph-name="FL007Dh" unicode="}" horiz-adv-x="527" 
d="M92 111h147l81 284h261l6 -11l-34 -119l-12 -11h-100l-55 -191q-4 -14 -15 -30t-25.5 -30t-30.5 -23.5t-29 -9.5h-236l-5 14l33 113zM536 586l-41 -142h-161l28 95h-147l-7 13l33 113l13 14h236q13 0 23.5 -9.5t16.5 -23.5t8 -30.5t-2 -29.5z" />
    <glyph glyph-name="FL007Eh" unicode="~" horiz-adv-x="444" 
d="M347 385l10 -57l41 58l15 9h86l4 -15l-81 -115l-12 -10h-115l-12 10l-10 57l-40 -58l-16 -9h-85l-5 15l81 115l12 10h115z" />
    <glyph glyph-name="FL007Fh" horiz-adv-x="200" 
 />
    <glyph glyph-name="FL20ACh" unicode="&#x20ac;" horiz-adv-x="833" 
d="M162 353l-8 8l9 34h496l-9 -34l-15 -8h-212l-16 -57h212l9 -9l-26 -92l-14 -8h-212l-14 -46h300l12 41l18 15h138l5 -14l-25 -90q-4 -14 -15.5 -30t-25.5 -30t-30 -23.5t-29 -9.5h-476q-14 0 -24.5 9.5t-17 23.5t-8 30t2.5 30l27 94h-99l-9 8l26 92l14 9h99l16 57h-99z
M193 462h99l27 94q4 13 15.5 29.5t26 30.5t30 23.5t29.5 9.5h476q13 0 23.5 -9.5t17 -23.5t8 -30.5t-2.5 -29.5l-25 -90l-13 -14h-138l-10 15l12 42h-300l-14 -47h212l10 -9l-3 -9h-496l3 9z" />
    <glyph glyph-name="FL201Ah" unicode="&#x201a;" horiz-adv-x="260" 
d="M31 -68l57 199l15 10h134l12 -10l-35 -121q-4 -13 -15.5 -29t-26.5 -30.5t-30.5 -24t-27.5 -9.5h-75z" />
    <glyph glyph-name="FL00A8h" unicode="&#x192;" horiz-adv-x="783" 
d="M586 0l-10 15l109 380h162l-109 -381l-13 -14h-139zM63 0l-9 15l109 380h161l-109 -381l-13 -14h-139zM635 395l7 -11l-34 -119l-13 -11h-260l-7 11l34 119l13 11h260zM756 640l16 9h134l12 -9l-57 -196h-162zM234 640l15 9h134l12 -9l-57 -196h-161z" />
    <glyph glyph-name="FL201Eh" unicode="&#x201e;" horiz-adv-x="472" 
d="M242 -68l57 199l16 10h134l12 -10l-35 -121q-4 -13 -15.5 -29t-26.5 -30.5t-31 -24t-28 -9.5h-74zM31 -68l57 199l15 10h134l12 -10l-35 -121q-4 -13 -15.5 -29t-26.5 -30.5t-30.5 -24t-27.5 -9.5h-75z" />
    <glyph glyph-name="FL2026h" unicode="&#x2026;" horiz-adv-x="722" 
d="M284 15l34 116l16 10h134l12 -10l-34 -117l-13 -14h-139zM54 15l34 116l15 10h134l12 -10l-34 -117l-13 -14h-139zM515 15l34 116l16 10h133l12 -10l-34 -117l-13 -14h-138z" />
    <glyph glyph-name="FL2020h" unicode="&#x2020;" horiz-adv-x="496" 
d="M169 383l-6 11v1h397v-1l-13 -11h-108l-106 -369l-13 -14h-139l-10 15l106 368h-108zM209 524h108l34 116l16 9h134l12 -9l-34 -116h108l7 -11l-20 -69h-397l20 69z" />
    <glyph glyph-name="FL2021h" unicode="&#x2021;" horiz-adv-x="496" 
d="M169 383l-6 11v1h397v-1l-13 -11h-108l-34 -117h108l7 -11l-34 -118l-13 -11h-108l-32 -112l-13 -14h-139l-10 15l32 111h-108l-6 11l34 118l12 11h108l34 117h-108zM209 524h108l34 116l16 9h134l12 -9l-34 -116h108l7 -11l-20 -69h-397l20 69z" />
    <glyph glyph-name="FL02C6h" unicode="&#x2c6;" horiz-adv-x="523" 
d="M511 730l-26 57l-55 -58l-23 -9h-138l-8 15l110 115l17 10h243l11 -10l41 -116l-13 -14h-139z" />
    <glyph glyph-name="FL2030h" unicode="&#x2030;" horiz-adv-x="1538" 
d="M682 -50q-8 0 -13.5 5.5t-9 13t-4 16.5t1.5 17l71 250q2 7 8 16.5t14 17t16.5 13t16.5 5.5h313q7 0 13 -5.5t9.5 -13t4 -17t-1.5 -16.5l-71 -250q-2 -8 -8 -17t-14 -17t-17 -13t-16 -5h-313zM1120 -51q-8 0 -13.5 5t-9 13t-4 16.5t1.5 16.5l72 250q2 7 8 16.5t14 17
t16.5 13t16.5 5.5h312q7 0 13 -5.5t9.5 -13t4.5 -17t-1 -16.5l-72 -250q-2 -8 -8.5 -17t-14.5 -16.5t-17 -12.5t-16 -5h-312zM629 647l-59 -203h-393l59 203q2 7 7.5 16.5t13 17t16 13t16.5 5.5h313q7 0 13 -5.5t10 -13t5 -17t-1 -16.5zM214 19l402 376h202l-407 -380
l-18 -15h-175zM1075 635l-205 -191h-201l210 196l16 9h170zM188 346q-15 0 -21.5 17t-3.5 32h393q-3 -8 -9.5 -16.5t-14 -16t-16 -12t-15.5 -4.5h-313zM967 181h-125l-31 -108h125zM473 576h-125l-31 -108h125zM1404 179h-124l-31 -108h124z" />
    <glyph glyph-name="FL0160h" unicode="&#x160;" horiz-adv-x="735" 
d="M150 347l13 48h564q12 -1 22 -11t16.5 -23.5t8.5 -29.5t-2 -29l-60 -209q-4 -14 -15.5 -30t-25.5 -30t-30 -23.5t-29 -9.5h-554l-4 14l32 113l13 14h465l33 113h-401q-14 0 -24 9.5t-16.5 24t-8 30.5t2.5 29zM357 509l-19 -65h-161l32 112q4 13 15 29.5t25.5 30.5
t30 23.5t29.5 9.5h553l5 -13l-32 -113l-14 -14h-464zM571 850l25 -57l56 58l23 9h137l9 -15l-110 -115l-17 -10h-243l-11 10l-42 116l13 14h140z" />
    <glyph glyph-name="FL2039h" unicode="&#x2039;" horiz-adv-x="512" 
d="M129 327l72 68h202l-72 -68l152 -308l-14 -19h-175l-10 15zM660 635l-205 -191h-202l211 196l16 9h170z" />
    <glyph glyph-name="FL0152h" unicode="&#x152;" horiz-adv-x="1207" 
d="M1148 0h-1025q-14 0 -24 9.5t-16.5 23.5t-8 30t2.5 30l86 302h161l-73 -254h313l73 254h161l-73 -254h462l6 -14l-32 -113zM357 509l-19 -65h-161l32 112q4 13 15 29.5t25.5 30.5t30 23.5t29.5 9.5h1025l5 -13l-32 -113l-14 -14h-462l-19 -65h-161l19 65h-313zM1205 384
l-34 -119l-13 -11h-348l-7 11l34 119l13 11h348z" />
    <glyph glyph-name="FL017Dh" unicode="&#x17d;" horiz-adv-x="681" 
d="M90 141l16 9l315 245h208l-308 -240l5 -14h336l6 -14l-32 -113l-13 -14h-560l-9 15zM814 635l-36 -127l-17 -10l-70 -54h-207l65 50l-5 15h-339l-5 14l32 113l12 13h560zM544 850l26 -57l55 58l23 9h138l8 -15l-110 -115l-17 -10h-243l-11 10l-41 116l13 14h139z" />
    <glyph glyph-name="FL2018h" unicode="&#x2018;" horiz-adv-x="260" 
d="M393 635l-55 -191h-161l32 112q4 13 15.5 29t26.5 30t30.5 24t27.5 10h74z" />
    <glyph glyph-name="FL2019h" unicode="&#x2019;" horiz-adv-x="260" 
d="M358 514q-5 -16 -20 -35.5t-34 -34.5h-127l57 196l15 9h134l12 -9z" />
    <glyph glyph-name="FL201Ch" unicode="&#x201c;" horiz-adv-x="472" 
d="M605 634l-55 -190h-162l32 111q4 13 15.5 29t26.5 30t31 24t28 10h74zM393 634l-55 -190h-161l32 111q4 13 15.5 29t26.5 30t30.5 24t27.5 10h74z" />
    <glyph glyph-name="FL201Dh" unicode="&#x201d;" horiz-adv-x="472" 
d="M570 514q-5 -16 -20 -35.5t-34 -34.5h-128l57 196l16 9h134l12 -9zM358 514q-5 -16 -20 -35.5t-34 -34.5h-127l57 196l15 9h134l12 -9z" />
    <glyph glyph-name="FL2022h" unicode="&#x2022;" 
d="M123 0q-14 0 -24 9.5t-16.5 23.5t-8 30t2.5 30l86 302h722l-86 -302q-4 -14 -15 -30t-25.5 -30t-30.5 -23.5t-29 -9.5h-576zM931 556l-32 -112h-722l32 112q4 13 15 29.5t25.5 30.5t30 23.5t29.5 9.5h576q13 0 23.5 -9.5t17 -23.5t8 -30.5t-2.5 -29.5z" />
    <glyph glyph-name="FL2013h" unicode="&#x2013;" horiz-adv-x="444" 
d="M504 384l-34 -119l-13 -11h-325l-6 11l34 119l12 11h325z" />
    <glyph glyph-name="FL2014h" unicode="&#x2014;" horiz-adv-x="540" 
d="M600 384l-34 -119l-13 -11h-421l-6 11l34 119l12 11h421z" />
    <glyph glyph-name="FL02DCh" unicode="&#x2dc;" horiz-adv-x="587" 
d="M592 850l26 -57l56 58l22 9h138l9 -15l-110 -115l-17 -10h-185l-20 10l-26 57l-55 -58l-23 -9h-138l-8 15l110 115l17 10h185z" />
    <glyph glyph-name="FL2122h" unicode="&#x2122;" horiz-adv-x="340" 
d="M330 567l37 131q3 3 6 3q6 0 6 1l1 1q5 0 12 -12.5t9 -26.5l-1 -7q2 -17 2 -29v-21q7 11 12.5 21t12.5 24q18 31 32 41t28 10h5l-39 -136h-14l25 88l-4 9l-56 -89q-4 -6 -5.5 -7t-7.5 -1q-3 0 -4.5 1t-3.5 7l-7 87l-7 -7l-25 -88h-14zM243 567l32 114h-45l7 22h110
l-7 -22h-45l-32 -114h-20z" />
    <glyph glyph-name="FL0161h" unicode="&#x161;" horiz-adv-x="735" 
d="M150 347l13 48h564q12 -1 22 -11t16.5 -23.5t8.5 -29.5t-2 -29l-60 -209q-4 -14 -15.5 -30t-25.5 -30t-30 -23.5t-29 -9.5h-554l-4 14l32 113l13 14h465l33 113h-401q-14 0 -24 9.5t-16.5 24t-8 30.5t2.5 29zM357 509l-19 -65h-161l32 112q4 13 15 29.5t25.5 30.5
t30 23.5t29.5 9.5h553l5 -13l-32 -113l-14 -14h-464zM571 850l25 -57l56 58l23 9h137l9 -15l-110 -115l-17 -10h-243l-11 10l-42 116l13 14h140z" />
    <glyph glyph-name="FL203Ah" unicode="&#x203a;" horiz-adv-x="511" 
d="M369 327l-34 68h202l34 -68l-334 -312l-18 -15h-175l-4 19zM417 640l96 -196h-202l-94 191l18 14h170z" />
    <glyph glyph-name="FL0153h" unicode="&#x153;" horiz-adv-x="1207" 
d="M1148 0h-1025q-14 0 -24 9.5t-16.5 23.5t-8 30t2.5 30l86 302h161l-73 -254h313l73 254h161l-73 -254h462l6 -14l-32 -113zM357 509l-19 -65h-161l32 112q4 13 15 29.5t25.5 30.5t30 23.5t29.5 9.5h1025l5 -13l-32 -113l-14 -14h-462l-19 -65h-161l19 65h-313zM1205 384
l-34 -119l-13 -11h-348l-7 11l34 119l13 11h348z" />
    <glyph glyph-name="FL017Eh" unicode="&#x17e;" horiz-adv-x="681" 
d="M90 141l16 9l315 245h208l-308 -240l5 -14h336l6 -14l-32 -113l-13 -14h-560l-9 15zM814 635l-36 -127l-17 -10l-70 -54h-207l65 50l-5 15h-339l-5 14l32 113l12 13h560zM544 850l26 -57l55 58l23 9h138l8 -15l-110 -115l-17 -10h-243l-11 10l-41 116l13 14h139z" />
    <glyph glyph-name="FL0178h" unicode="&#x178;" horiz-adv-x="741" 
d="M618 0h-560l-4 14l32 113l13 14h471l73 254h161l-86 -302q-4 -14 -15.5 -30t-25.5 -30t-30 -23.5t-29 -9.5zM597 381l-32 -111l-18 -15h-350q-14 0 -24 9.5t-16 24t-8 30.5t2 29l13 47h424zM396 640l-57 -196h-161l57 196l15 9h134zM875 640l-57 -196h-161l57 196l16 9
h133zM369 735l33 115l17 10h134l11 -10l-34 -116l-13 -14h-139zM632 735l33 115l17 10h133l11 -10l-34 -116l-13 -14h-138z" />
    <glyph glyph-name="FL00A1h" unicode="&#xa1;" horiz-adv-x="260" 
d="M214 10l-17 -10h-134l-10 10l110 385h161zM232 635l17 14h139l5 -13l-33 -117l-17 -10h-134l-10 10z" />
    <glyph glyph-name="FL00A2h" unicode="&#xa2;" horiz-adv-x="735" 
d="M150 347l13 48h564q12 -1 22 -11t16.5 -23.5t8.5 -29.5t-2 -29l-43 -150q-4 -14 -15.5 -30t-25.5 -30t-30 -23.5t-29 -9.5h-165l-13 -45l-12 -14h-139l-10 15l13 44h-228l-4 14l32 113l13 14h227l16 54h-163q-14 0 -24 9.5t-16.5 24t-8 30.5t2.5 29zM340 449l-2 -5h-161
l16 53q4 13 14.5 29.5t25 30.5t30 23.5t29.5 9.5h163l15 50l16 9h134l11 -9l-15 -50h229l5 -14l-32 -113l-14 -14h-228l-2 -5h-161l2 5h-75zM597 254h-77l-16 -54h77z" />
    <glyph glyph-name="FL00A3h" unicode="&#xa3;" horiz-adv-x="766" 
d="M172 395h261l-73 -254h387l6 -14l-32 -113l-13 -14h-649l-6 11l34 119l12 11h99l33 113h-99l-6 11l34 119zM466 509l-19 -65h-162l32 112q4 13 15.5 29.5t26 30.5t30 23.5t29.5 9.5h225l5 -13l-32 -113l-14 -14h-136zM687 395l7 -11l-34 -119l-13 -11h-203l-7 11l34 119
l13 11h203z" />
    <glyph glyph-name="FL00A4h" unicode="&#xa4;" horiz-adv-x="753" 
d="M40 19l199 186l54 190h393l-55 -191l93 -185l-14 -19h-175l-10 15l-69 136h-73l-146 -136l-18 -15h-175zM417 640l66 -135h77l145 135l16 9h170l10 -14l-200 -187l-1 -4h-393l1 4l-91 187l18 14h170zM549 382h-125l-31 -108h125z" />
    <glyph glyph-name="FL00A5h" unicode="&#xa5;" horiz-adv-x="783" 
d="M251 188h114l12 43h-114l-7 11l34 118l13 11h58l-12 24h310l-26 -24h59l7 -11l-34 -118l-13 -11h-114l-12 -43h114l7 -11l-34 -119l-13 -10h-114l-10 -34l-13 -14h-138l-10 15l10 33h-114l-7 10l34 119zM916 635l-205 -191h-386l-93 191l17 14h171l12 -9l89 -185l199 185
l15 9h171z" />
    <glyph glyph-name="FL00A6h" unicode="&#xa6;" horiz-adv-x="260" 
d="M21 -102l142 497h161l-143 -498l-13 -14h-139zM427 753l-89 -309h-161l89 309l16 10h134z" />
    <glyph glyph-name="FL00A7h" unicode="&#xa7;" horiz-adv-x="735" 
d="M122 250l41 145h635l-97 -340q-4 -14 -15.5 -30t-25.5 -30t-30 -23.5t-29 -9.5h-554l-4 14l33 113l13 14h465l15 54h-401q-14 0 -24 9.5t-16 24t-8 30.5t2 29zM753 493q17 0 29 -14.5t17 -34.5h-622l44 151q4 13 14.5 29.5t25 30.5t30 23.5t29.5 9.5h553l5 -14l-32 -113
l-14 -14h-464l-16 -54h401zM312 352l-16 -54h313l16 54h-313z" />
    <glyph glyph-name="FL00AAh" unicode="&#xa8;" horiz-adv-x="523" 
d="M261 735l33 115l16 10h134l11 -10l-34 -116l-13 -14h-139zM523 735l33 115l17 10h133l11 -10l-34 -116l-13 -14h-138z" />
    <glyph glyph-name="FL00A9h" unicode="&#xa9;" horiz-adv-x="277" 
d="M340 701q26 0 43 -13q23 -13 28 -37q6 -23 0 -49q-7 -22 -28 -49q-10 -12 -21.5 -20t-26.5 -16q-26 -9 -38 -11t-13 -2q-25 0 -47 13q-9 8 -15 16t-11 20q-6 24 2 49q4 14 10.5 25.5t15.5 23.5q21 24 48 37q29 13 53 13zM335 685q-21 0 -44 -10.5t-40 -31.5
q-16 -21 -22 -41q-6 -19 -1 -40q6 -17 22 -30l5 -2q28 -9 33 -9q20 0 44 11q21 9 39 30q17 20 23 40q6 22 0.5 41.5t-23.5 30.5q-17 11 -36 11zM338 587l15 -5q-21 -37 -58 -37q-24 0 -33.5 15t-1.5 42q8 28 26 42t43 14q34 0 35 -31l-17 -3q-3 19 -23 19q-35 0 -46 -41
q-12 -40 21 -40q26 0 39 25z" />
    <glyph glyph-name="FL00ABh" unicode="&#xaa;" horiz-adv-x="869" 
d="M840 19q-2 -5 -6 -12t-8 -7h-494l-8 10l34 118l14 13h250q6 0 9 8l3 12l-56 234h176l88 -358zM202 0h-158q-6 0 -6.5 4t1.5 9l4 14q2 5 4 9t7 11l285 348h176zM566 452l-6 -1l-6 -7h-175l168 205h145l50 -205h-175z" />
    <glyph glyph-name="FL00ACh" unicode="&#xab;" horiz-adv-x="866" 
d="M482 327l72 68h202l-72 -68l153 -308l-14 -19h-176l-9 15zM129 327l72 68h202l-72 -68l152 -308l-14 -19h-175l-10 15zM1014 635l-205 -191h-202l211 196l15 9h171zM660 635l-205 -191h-202l211 196l16 9h170z" />
    <glyph glyph-name="FL00ADh" unicode="&#xac;" horiz-adv-x="499" 
d="M172 395h381l6 -11l-71 -249l-13 -10h-119l-8 10l34 119h-250l-6 11l34 119z" />
    <glyph glyph-name="FL00AEh" unicode="&#xad;" horiz-adv-x="356" 
d="M417 384l-34 -119l-13 -11h-238l-6 11l34 119l12 11h238z" />
    <glyph glyph-name="FL00AFh" unicode="&#xae;" horiz-adv-x="277" 
d="M340 701q26 0 43 -13q23 -13 28 -37q6 -23 0 -49q-7 -22 -28 -49q-18 -23 -48 -36q-23 -10 -36.5 -11.5t-14.5 -1.5q-28 0 -47 13q-8 7 -14.5 16t-11.5 20q-6 24 2 49q4 14 10.5 25.5t15.5 23.5q21 24 48 37q29 13 53 13zM335 685q-21 0 -44 -10.5t-40 -31.5
q-16 -21 -22 -41v-11q0 -10 -1 -30q3 -16 22 -29l5 -2q28 -9 33 -9q20 0 44 11q10 5 19.5 12t19.5 17l17 30.5l6 10.5q6 22 0.5 41.5t-23.5 30.5q-17 11 -36 11zM253 548l31 106h36q20 0 25 -4q6 -3 10 -8q4 -7 1 -17q-3 -11 -13.5 -19.5t-24.5 -9.5q7 -4 9 -10t7 -17l8 -21
h-22l-4 16q-4 22 -11 25q-3 4 -12 4h-10l-13 -45h-17zM287 607h20q15 0 22 4.5t9 12.5q3 10 -5 15q0 1 -17 1h-19z" />
    <glyph glyph-name="FL00B0h" unicode="&#xaf;" horiz-adv-x="565" 
d="M702 649l-34 -118l-13 -11h-447l-6 11l34 118l12 11h447z" />
    <glyph glyph-name="FL00B2h" unicode="&#xb0;" horiz-adv-x="260" 
d="M455 850l-33 -115l-19 -15h-139l-4 14l34 116l16 10h134zM378 771l12 40l-5 4h-44l-6 -4l-12 -40l2 -7h45z" />
    <glyph glyph-name="FL00B1h" unicode="&#xb1;" horiz-adv-x="499" 
d="M99 141h381l6 -11l-34 -119l-12 -11h-381l-6 11l34 119zM152 325l-6 11l17 59h399l-17 -59l-12 -11h-120l-34 -120l-14 -10h-119l-8 10l34 120h-120zM347 585l14 10h119l8 -10l-35 -120h120l6 -11l-3 -10h-399l3 10l12 11h120z" />
    <glyph glyph-name="FL00B3h" unicode="&#xb2;" horiz-adv-x="492" 
d="M222 599l28 98l16 10h303q7 0 13 -5.5t9.5 -13t4.5 -17t-1 -16.5l-20 -68l-173 -111h127l12 -10l-7 -22h-357l8 28l166 112h-121zM190 353q-13 0 -20 14t-6 28h356l-8 -28l-13 -14h-309z" />
    <glyph glyph-name="FL00B5h" unicode="&#xb3;" horiz-adv-x="763" 
d="M384 344q-38 -90 -68 -90q-7 -1 -12 -1.5t-9 -0.5q-30 0 -33 20q24 83 75 112h12q36 0 35 -40zM623 260l-13 4q-5 30 -20 30q-14 0 -36 -30h-25q27 64 84 126q3 4 17 4q21 0 19 -41zM460 254q-25 0 -51 62l-18 -60l-21 -4l37 127l43 -80l29 85l17 -5zM728 259
q-27 0 -49 63l-17 -62l-21 -2l36 126l42 -82l29 89l16 -7zM287 389l-12 -32q-2 2 -3.5 2.5l-1.5 0.5q1 1 -5 1q-13 0 -35 -17q-24 -23 -32 -52q-8 -26 16 -26q18 0 22 4l-4 -22q-10 -2 -14 -3.5t-10 -1.5q-34 0 -28 56q-2 1 0 9l3 8q16 58 104 73zM356 325q1 2 1 6t1 9
q-6 15 -16 15q-20 0 -44 -39l-3 -9q-9 -31 9 -31q9 0 33 12q8 10 12 18t7 19zM555 391l-43 -125l-29 -8l48 126zM190 384l-42 -122l-26 -10l47 129zM824 384l-38 -92l-19 2l28 97zM620 322l-3 42l-33 -42h36zM776 252l-23 -19l-10 14l18 13z" />
    <glyph glyph-name="FL00B4h" unicode="&#xb4;" horiz-adv-x="276" 
d="M261 735l97 115l26 10h139l5 -14l-109 -116l-17 -10h-137z" />
    <glyph glyph-name="FL00BCh" unicode="&#xb5;" 
d="M123 0q-14 0 -24 9.5t-16.5 23.5t-8 30t2.5 30l86 302h161l-73 -254h400l73 254h161l-86 -302q-4 -14 -15 -30t-25.5 -30t-30.5 -23.5t-29 -9.5h-576zM672 395l7 -11l-34 -119l-13 -11h-297l-7 11l34 119l13 11h297zM395 640l-57 -196h-161l57 196l15 9h134zM956 640
l-57 -196h-161l57 196l16 9h133z" />
    <glyph glyph-name="FL0C3Dh" unicode="&#xb6;" horiz-adv-x="765" 
d="M385 344q-38 -90 -69 -90q-7 -1 -12 -1.5t-9 -0.5q-29 0 -32 20q24 83 74 112h12q37 0 36 -40zM624 260l-14 4q-5 30 -19 30t-36 -30h-25q27 64 84 126q3 4 17 4q19 0 19 -41zM461 254q-27 0 -51 62l-18 -60l-21 -4l37 127l43 -80l29 85l17 -5zM729 259q-27 0 -49 63
l-17 -62l-21 -2l36 126l41 -82l29 89l17 -7zM288 389l-12 -32q-2 2 -3.5 2.5l-1.5 0.5q1 1 -5 1q-14 0 -36 -17q-24 -22 -31 -52q-8 -26 15 -26q19 0 23 4l-4 -22q-11 -2 -15 -3.5t-10 -1.5q-33 0 -27 56q-2 1 0 9l3 8q16 58 104 73zM357 325q1 2 1 6t1 9q-6 15 -17 15
q-19 0 -43 -39l-3 -9q-9 -31 8 -31q8 0 34 12q8 10 12 18t7 19zM555 391l-43 -125l-28 -8l47 126zM191 384l-42 -122l-27 -10l48 129zM825 384l-38 -92l-19 2l28 97zM620 322l-2 42l-33 -42h35zM777 252l-23 -19l-10 14l18 13z" />
    <glyph glyph-name="FL00B7h" unicode="&#xb7;" horiz-adv-x="260" 
d="M127 269l33 116l16 10h134l11 -10l-33 -117l-13 -14h-139z" />
    <glyph glyph-name="FL00B8h" unicode="&#xb8;" horiz-adv-x="251" 
d="M67 0h135l-47 -165l-14 -10h-191l-7 11l32 110l12 10h67z" />
    <glyph glyph-name="FL00BEh" unicode="&#xb9;" horiz-adv-x="278" 
d="M428 693l-72 -249h-135l40 140h-35l-5 11l29 101l12 11h161zM209 352l-10 15l8 28h135l-8 -29l-13 -14h-112z" />
    <glyph glyph-name="FL00BAh" unicode="&#xba;" horiz-adv-x="492" 
d="M631 655l-61 -211h-393l61 211q2 7 8 16.5t13.5 17t16 13t16.5 5.5h313q7 0 13 -5.5t9.5 -13t4.5 -17t-1 -16.5zM190 353q-13 0 -20 14t-6 28h390q-8 -15 -23 -28.5t-28 -13.5h-313zM475 584h-125l-31 -108h125z" />
    <glyph glyph-name="FL00BBh" unicode="&#xbb;" horiz-adv-x="866" 
d="M926 327l-336 -312l-18 -15h-175l-4 19l331 308l-35 68h202zM572 327l-335 -312l-18 -15h-175l-4 19l330 308l-34 68h202zM570 635l18 14h170l12 -9l97 -196h-202zM217 635l18 14h170l12 -9l96 -196h-202z" />
    <glyph glyph-name="FL0192h" unicode="&#xbc;" horiz-adv-x="1042" 
d="M1106 344l-3 -2l-22 -30h-56l20 -56q-1 -5 -0.5 -7l0.5 -2l-2 -5q-6 -22 -27 -31l-60 16l-31 -85q-12 -16 -30 -16q-15 0 -26 6t-26 17l-6 3l-84 -76l-36 -8l-27 43l-142 -70l-18 8l12 41l-169 -28l-15 14l17 35l-163 16l8 25l27 25l-98 22q-19 0 -12 28l51 35l-61 37
l4 35l74 13l-21 48h20v-5l26 -64l-84 -6l91 -64l-82 -35l145 -40l-63 -39l175 -8l-33 -49l171 33l12 -28l-14 -28l148 72l47 -44l89 87l74 -30l35 100l81 -14q2 6 3 7l1 1q5 18 -29 85l85 8l-2 13l-72 48h36q67 -33 62 -51zM276 444q28 90 55 90h4l63 -28q36 38 59 57t43 27
l46 -41l135 65l18 -24l-10 -21l2 -8l136 29l46 -5l-20 -43h152l10 -15q-11 -38 -37 -41l119 -39l-1 -3h-40l-126 33l63 43h-173l27 49l-176 -27l8 43l-12 5l-135 -63l-38 42l-94 -83q-8 -4 -17 -4q-23 0 -54 31l-28 -69h-25zM531 344q-38 -90 -69 -90q-7 -1 -12 -1.5
t-9 -0.5q-29 0 -32 20q24 83 74 112h12q37 0 36 -40zM770 260l-14 4q-5 30 -20 30q-13 0 -35 -30h-25q14 32 34.5 63.5t48.5 62.5q3 4 17 4q20 0 20 -41zM607 254q-26 0 -52 62l-18 -60l-20 -4l37 127l43 -80l29 85l17 -5zM875 259q-28 0 -49 63l-17 -62l-21 -2l36 126
l41 -82l29 89l17 -7zM434 389l-12 -32q-2 2 -3.5 2.5l-1.5 0.5q1 1 -5 1q-14 0 -36 -17q-24 -23 -32 -52q-8 -26 16 -26q19 0 23 4l-4 -22q-11 -2 -15 -3.5t-10 -1.5q-33 0 -27 56q-2 1 0 9l3 8q16 58 104 73zM503 325q1 2 1 6t1 9q-6 15 -17 15q-20 0 -44 -39l-3 -9
q-9 -31 9 -31q8 0 34 12q8 10 12 18t7 19zM701 391l-43 -125l-29 -8l48 126zM337 384l-42 -122l-27 -10l48 129zM970 384l-38 -92l-18 2l28 97zM766 322l-3 42l-32 -42h35zM922 252l-22 -19l-10 14l18 13z" />
    <glyph glyph-name="FL00BDh" unicode="&#xbd;" horiz-adv-x="907" 
d="M556 196l28 98l17 10h303q7 0 13 -5.5t9.5 -13t4 -17t-1.5 -16.5l-19 -68l-172 -111h126l11 -10l-28 -99l-13 -14h-308q-8 0 -13.5 5.5t-9 13t-4 16.5t1.5 17l19 67l167 112h-121zM40 19l402 376h202l-407 -380l-18 -15h-175zM901 635l-205 -191h-201l210 196l16 9h170z
M446 685l-69 -241h-134l38 132h-35l-7 11l29 101l13 11h161zM229 345l-10 14l10 36h134l-10 -37l-12 -13h-112z" />
    <glyph glyph-name="FL0D53h" unicode="&#xbe;" horiz-adv-x="1001" 
d="M1062 334l-85 -8q35 -66 30 -85l-1 -1t-3 -7l-82 14l-35 -100l-74 30l-89 -87l-46 44l-149 -72l14 28l-12 28l-170 -33l32 49l-175 8l63 39l-145 40l83 35l-91 64l83 6l-26 64v5h804l72 -48zM974 520l-64 -43l126 -33h-755l28 69q31 -31 54 -31q10 0 18 4l93 83l38 -42
l135 63l12 -5l-8 -43l176 27l-27 -49h174zM511 344q1 40 -36 40h-12q-50 -29 -74 -112q3 -20 32 -20q4 0 9 0.5t12 1.5q31 0 69 90zM750 260l26 93q0 41 -19 41q-14 0 -17 -4q-57 -62 -84 -126h25q22 30 36 30t19 -30zM587 254l36 125l-17 5l-29 -85l-43 80l-37 -127l21 4
l18 60q24 -62 51 -62zM855 259l36 125l-17 7l-29 -89l-41 82l-36 -126l21 2l17 62q22 -63 49 -63zM414 389q-88 -15 -104 -73l-3 -8q-2 -8 0 -9q-6 -56 27 -56q6 0 10 1.5t15 3.5l4 22q-4 -4 -23 -4q-23 0 -15 26q7 30 31 52q22 17 36 17q6 0 5 -1l1.5 -0.5t3.5 -2.5z
M483 325q-3 -11 -7 -19t-12 -18q-26 -12 -34 -12q-17 0 -8 31l3 9q24 39 43 39q11 0 17 -15q-1 -5 -1 -9t-1 -6zM681 391l-24 -7l-47 -126l28 8zM317 384l-21 -3l-48 -129l27 10zM951 384l-29 7l-28 -97l19 -2zM746 322h-35l33 42zM903 252l-15 8l-18 -13l10 -14z" />
    <glyph glyph-name="FL00BFh" unicode="&#xbf;" horiz-adv-x="720" 
d="M137 302q4 13 14.5 29t24 29.5t28.5 23.5t29 11h499l-13 -48q-4 -13 -15.5 -29t-25.5 -30.5t-30 -24t-29 -9.5h-335l-33 -113h449l6 -14l-32 -113l-13 -14h-538q-14 0 -24 9.5t-16.5 23.5t-8 30t2.5 30zM801 635l-33 -116l-17 -10h-134l-11 10l33 117l13 13h139z" />
    <glyph glyph-name="FL00C0h" unicode="&#xc0;" horiz-adv-x="869" 
d="M842 37l-2 -18q-2 -5 -6 -12t-8 -7h-494l-8 10l34 118l14 13h250q6 0 9 8l3 12l-56 234h176zM43 27q2 5 4 9t7 11l285 348h176l-313 -395h-158q-6 0 -6.5 4t1.5 9zM547 649h145l50 -205h-175l-1 8l-6 -1l-6 -7h-175zM711 850l32 -115l-15 -15h-137l-11 10l-41 116l13 14
h140z" />
    <glyph glyph-name="FL00C1h" unicode="&#xc1;" horiz-adv-x="869" 
d="M840 19q-2 -5 -6 -12t-8 -7h-494l-8 10l34 118l14 13h250q6 0 9 8l3 12l-56 234h176l88 -358zM202 0h-158q-6 0 -6.5 4t1.5 9l4 14q2 5 4 9t7 11l285 348h176zM566 452l-6 -1l-6 -7h-175l168 205h145l50 -205h-175zM646 850l26 10h139l5 -14l-109 -116l-17 -10h-136
l-5 15z" />
    <glyph glyph-name="FL00C2h" unicode="&#xc2;" horiz-adv-x="869" 
d="M840 19q-2 -5 -6 -12t-8 -7h-494l-8 10l34 118l14 13h250q6 0 9 8l3 12l-56 234h176l88 -358zM202 0h-158q-6 0 -6.5 4t1.5 9l4 14q2 5 4 9t7 11l285 348h176zM566 452l-6 -1l-6 -7h-175l168 205h145l50 -205h-175zM604 730l-26 -10h-139l-5 14l109 116l17 10h243l11 -10
l44 -115l-18 -15h-138l-17 9l-21 58z" />
    <glyph glyph-name="FL00C3h" unicode="&#xc3;" horiz-adv-x="869" 
d="M842 37l-2 -18q-2 -5 -6 -12t-8 -7h-494l-8 10l34 118l14 13h250q6 0 9 8l3 12l-56 234h176zM43 27q2 5 4 9t7 11l285 348h176l-313 -395h-158q-6 0 -6.5 4t1.5 9zM700 850l26 -57l56 58l22 9h138l9 -15l-110 -115l-17 -10h-185l-20 10l-26 57l-55 -58l-23 -9h-138l-9 15
l111 115l17 10h185zM547 649h145l50 -205h-175l-1 8l-6 -1l-6 -7h-175z" />
    <glyph glyph-name="FL00C4h" unicode="&#xc4;" horiz-adv-x="869" 
d="M840 19q-2 -5 -6 -12t-8 -7h-494l-8 10l34 118l14 13h250q6 0 9 8l3 12l-56 234h176l88 -358zM202 0h-158q-6 0 -6.5 4t1.5 9l4 14q2 5 4 9t7 11l285 348h176zM566 452l-6 -1l-6 -7h-175l168 205h145l50 -205h-175zM858 735l-18 -15h-139l-5 14l34 116l17 10h134l10 -10z
M596 735l-19 -15h-138l-5 14l34 116l17 10h133l11 -10z" />
    <glyph glyph-name="FL00C5h" unicode="&#xc5;" horiz-adv-x="869" 
d="M842 37l-2 -18q-2 -5 -6 -12t-8 -7h-494l-8 10l34 118l14 13h250q6 0 9 8l3 12l-56 234h176zM43 27q2 5 4 9t7 11l285 348h176l-313 -395h-158q-6 0 -6.5 4t1.5 9zM547 649h145l50 -205h-175l-1 8l-6 -1l-6 -7h-175zM761 850l-33 -115l-19 -15h-139l-5 14l34 116l17 10
h134zM684 771l12 40l-5 4h-44l-6 -4l-12 -40l2 -7h45z" />
    <glyph glyph-name="FL00C6h" unicode="&#xc6;" horiz-adv-x="1340" 
d="M667 0l-87 395h175l7 -25l7 25h162l-69 -240l5 -14h453l6 -14l-32 -113l-13 -14h-614zM40 19l10 18l291 358h176l-190 -234l-3 -12q-3 -8 3 -8h251l7 -13l-34 -118l-13 -10h-494q-4 0 -5 7t1 12zM960 494l-15 -50h-162l57 196l16 9h611l5 -13l-32 -113l-14 -14h-453z
M564 452l-7 -8h-176l168 205h145l49 -205h-174l-1 7zM1338 384l-34 -119l-13 -11h-349l-7 11l34 119l13 11h349z" />
    <glyph glyph-name="FL00C7h" unicode="&#xc7;" horiz-adv-x="735" 
d="M123 0q-14 0 -24 9.5t-16.5 23.5t-8 30t2.5 30l86 302h161l-73 -254h313l12 41l18 15h138l5 -14l-25 -90q-4 -14 -15.5 -30t-25.5 -30t-30 -23.5t-29 -9.5h-155l-47 -165l-13 -10h-192l-6 11l32 110l11 10h68l13 44h-200zM357 509l-19 -65h-161l32 112q4 13 15 29.5
t25.5 30.5t30 23.5t29.5 9.5h489q13 0 23.5 -9.5t17 -23.5t8 -30.5t-2.5 -29.5l-25 -90l-13 -14h-138l-10 15l12 42h-313z" />
    <glyph glyph-name="FL00C8h" unicode="&#xc8;" horiz-adv-x="733" 
d="M63 0l-9 15l109 380h161l-69 -240l5 -14h453l6 -14l-32 -113l-13 -14h-611zM234 640l15 9h611l5 -13l-32 -113l-14 -14h-453l-13 -15l-15 -50h-161zM731 384l-34 -119l-13 -11h-349l-7 11l34 119l13 11h349zM644 850l31 -115l-15 -15h-136l-11 10l-41 116l13 14h139z" />
    <glyph glyph-name="FL00C9h" unicode="&#xc9;" horiz-adv-x="733" 
d="M63 0l-9 15l109 380h161l-69 -240l5 -14h453l6 -14l-32 -113l-13 -14h-611zM234 640l15 9h611l5 -13l-32 -113l-14 -14h-453l-13 -15l-15 -50h-161zM731 384l-34 -119l-13 -11h-349l-7 11l34 119l13 11h349zM479 735l98 115l25 10h140l5 -14l-109 -116l-17 -10h-137z" />
    <glyph glyph-name="FL00CAh" unicode="&#xca;" horiz-adv-x="733" 
d="M63 0l-9 15l109 380h161l-69 -240l5 -14h453l6 -14l-32 -113l-13 -14h-611zM234 640l15 9h611l5 -13l-32 -113l-14 -14h-453l-13 -15l-15 -50h-161zM731 384l-34 -119l-13 -11h-349l-7 11l34 119l13 11h349zM616 730l-26 57l-55 -58l-23 -9h-138l-9 15l111 115l17 10h243
l11 -10l41 -116l-13 -14h-139z" />
    <glyph glyph-name="FL00CBh" unicode="&#xcb;" horiz-adv-x="733" 
d="M63 0l-9 15l109 380h161l-69 -240l5 -14h453l6 -14l-32 -113l-13 -14h-611zM234 640l15 9h611l5 -13l-32 -113l-14 -14h-453l-13 -15l-15 -50h-161zM731 384l-34 -119l-13 -11h-349l-7 11l34 119l13 11h349zM365 735l33 115l17 10h134l11 -10l-34 -116l-13 -14h-139z
M628 735l33 115l17 10h133l11 -10l-34 -116l-13 -14h-138z" />
    <glyph glyph-name="FL00CCh" unicode="&#xcc;" horiz-adv-x="561" 
d="M357 509l-19 -65h-161l55 192l12 13h444l7 -10l-34 -119l-13 -11h-291zM54 14l109 381h161l-110 -385l-17 -10h-139z" />
    <glyph glyph-name="FL00CDh" unicode="&#xcd;" horiz-adv-x="561" 
d="M477 444l19 65h-291l-6 11l34 119l12 10h444l5 -13l-55 -192h-162zM516 14l-13 -14h-139l-11 10l110 385h162z" />
    <glyph glyph-name="FL00CEh" unicode="&#xce;" horiz-adv-x="561" 
d="M251 141h291l7 -11l-34 -119l-13 -11h-444l-4 14l109 381h161zM232 636l12 13h139l12 -9l-57 -196h-161z" />
    <glyph glyph-name="FL00CFh" unicode="&#xcf;" horiz-adv-x="561" 
d="M99 141h291l73 254h162l-109 -381l-13 -14h-444l-6 11l34 119zM694 636l-55 -192h-162l57 196l16 9h139z" />
    <glyph glyph-name="FL00D0h" unicode="&#xd0;" horiz-adv-x="937" 
d="M731 384l-34 -119l-13 -11h-285l-33 -113h359q10 0 19 5t16.5 11.5t12 14t6.5 13.5l60 210h161l-78 -272q-5 -17 -22 -38.5t-38.5 -40t-43 -31.5t-34.5 -13h-606l-10 15l69 239h-105l-6 11l34 119l12 11h552zM1038 527l-24 -83h-161l7 25q4 13 -5.5 26.5t-22.5 13.5h-360
l-19 -65h-162l57 196l16 9h606q13 0 27.5 -13t25 -31.5t15.5 -40t0 -37.5z" />
    <glyph glyph-name="FL00D1h" unicode="&#xd1;" horiz-adv-x="805" 
d="M608 0l-14 15l-257 380h225l102 -152l43 152h161l-109 -381l-13 -14h-138zM63 0l-9 15l109 380h161l-109 -381l-13 -14h-139zM670 850l25 -57l56 58l23 9h137l9 -15l-110 -115l-17 -10h-185l-20 10l-25 57l-56 -58l-23 -9h-137l-9 15l110 115l17 10h185zM383 649l15 -7
l131 -198h-352l57 196l15 9h134zM939 640l-57 -196h-161l57 196l16 9h134z" />
    <glyph glyph-name="FL00D2h" unicode="&#xd2;" 
d="M123 0q-14 0 -24 9.5t-16.5 23.5t-8 30t2.5 30l86 302h161l-73 -254h400l73 254h161l-86 -302q-4 -14 -15 -30t-25.5 -30t-30.5 -23.5t-29 -9.5h-576zM757 509h-400l-19 -65h-161l32 112q4 13 15 29.5t25.5 30.5t30 23.5t29.5 9.5h576q13 0 23.5 -9.5t17 -23.5t8 -30.5
t-2.5 -29.5l-32 -112h-161zM681 850l31 -115l-15 -15h-137l-10 10l-42 116l13 14h140z" />
    <glyph glyph-name="FL00D3h" unicode="&#xd3;" 
d="M123 0q-14 0 -24 9.5t-16.5 23.5t-8 30t2.5 30l86 302h161l-73 -254h400l73 254h161l-86 -302q-4 -14 -15 -30t-25.5 -30t-30.5 -23.5t-29 -9.5h-576zM757 509h-400l-19 -65h-161l32 112q4 13 15 29.5t25.5 30.5t30 23.5t29.5 9.5h576q13 0 23.5 -9.5t17 -23.5t8 -30.5
t-2.5 -29.5l-32 -112h-161zM532 735l97 115l26 10h139l5 -14l-109 -116l-17 -10h-136z" />
    <glyph glyph-name="FL00D4h" unicode="&#xd4;" 
d="M123 0q-14 0 -24 9.5t-16.5 23.5t-8 30t2.5 30l86 302h161l-73 -254h400l73 254h161l-86 -302q-4 -14 -15 -30t-25.5 -30t-30.5 -23.5t-29 -9.5h-576zM757 509h-400l-19 -65h-161l32 112q4 13 15 29.5t25.5 30.5t30 23.5t29.5 9.5h576q13 0 23.5 -9.5t17 -23.5t8 -30.5
t-2.5 -29.5l-32 -112h-161zM660 730l-25 57l-56 -58l-23 -9h-137l-9 15l110 115l17 10h244l10 -10l42 -116l-13 -14h-140z" />
    <glyph glyph-name="FL00D5h" unicode="&#xd5;" 
d="M123 0q-14 0 -24 9.5t-16.5 23.5t-8 30t2.5 30l86 302h161l-73 -254h400l73 254h161l-86 -302q-4 -14 -15 -30t-25.5 -30t-30.5 -23.5t-29 -9.5h-576zM757 509h-400l-19 -65h-161l32 112q4 13 15 29.5t25.5 30.5t30 23.5t29.5 9.5h576q13 0 23.5 -9.5t17 -23.5t8 -30.5
t-2.5 -29.5l-32 -112h-161zM678 850l25 -57l56 58l23 9h137l9 -15l-110 -115l-17 -10h-185l-20 10l-25 57l-56 -58l-23 -9h-137l-9 15l110 115l17 10h185z" />
    <glyph glyph-name="FL00D6h" unicode="&#xd6;" 
d="M123 0q-14 0 -24 9.5t-16.5 23.5t-8 30t2.5 30l86 302h161l-73 -254h400l73 254h161l-86 -302q-4 -14 -15 -30t-25.5 -30t-30.5 -23.5t-29 -9.5h-576zM757 509h-400l-19 -65h-161l32 112q4 13 15 29.5t25.5 30.5t30 23.5t29.5 9.5h576q13 0 23.5 -9.5t17 -23.5t8 -30.5
t-2.5 -29.5l-32 -112h-161zM672 735l33 115l17 10h134l11 -10l-34 -116l-13 -14h-139zM410 735l33 115l17 10h134l10 -10l-34 -116l-13 -14h-138z" />
    <glyph glyph-name="FL00D7h" unicode="&#xd7;" horiz-adv-x="467" 
d="M228 325l-50 70h338l-90 -70l61 -85l-5 -14l-108 -84l-15 -1l-60 85l-110 -85l-13 1l-60 84l3 14zM465 509l14 -1l45 -64h-143zM281 508l14 1l46 -65h-143z" />
    <glyph glyph-name="FL00D8h" unicode="&#xd8;" 
d="M408 141h243l73 254h161l-86 -302q-4 -14 -15 -30t-25.5 -30t-30.5 -23.5t-29 -9.5h-576q-14 0 -24 9.5t-16.5 23.5t-8 30t2.5 30l86 302h161l-57 -201l211 201h199zM599 509h-242l-19 -65h-161l32 112q4 13 15 29.5t25.5 30.5t30 23.5t29.5 9.5h576q10 0 20.5 -8t18 -21
t10 -30t-2.5 -34l-32 -112h-161l3 11l-12 -11h-199z" />
    <glyph glyph-name="FL00D9h" unicode="&#xd9;" 
d="M123 0q-14 0 -24 9.5t-16.5 23.5t-8 30t2.5 30l86 302h161l-73 -254h400l73 254h161l-86 -302q-4 -14 -15 -30t-25.5 -30t-30.5 -23.5t-29 -9.5h-576zM395 640l-57 -196h-161l57 196l15 9h134zM956 640l-57 -196h-161l57 196l16 9h133zM681 850l31 -115l-15 -15h-137
l-10 10l-42 116l13 14h140z" />
    <glyph glyph-name="FL00DAh" unicode="&#xda;" 
d="M123 0q-14 0 -24 9.5t-16.5 23.5t-8 30t2.5 30l86 302h161l-73 -254h400l73 254h161l-86 -302q-4 -14 -15 -30t-25.5 -30t-30.5 -23.5t-29 -9.5h-576zM395 640l-57 -196h-161l57 196l15 9h134zM956 640l-57 -196h-161l57 196l16 9h133zM532 735l97 115l26 10h139l5 -14
l-109 -116l-17 -10h-136z" />
    <glyph glyph-name="FL00DBh" unicode="&#xdb;" 
d="M123 0q-14 0 -24 9.5t-16.5 23.5t-8 30t2.5 30l86 302h161l-73 -254h400l73 254h161l-86 -302q-4 -14 -15 -30t-25.5 -30t-30.5 -23.5t-29 -9.5h-576zM660 730l-25 57l-56 -58l-23 -9h-137l-9 15l110 115l17 10h244l10 -10l42 -116l-13 -14h-140zM395 640l-57 -196h-161
l57 196l15 9h134zM956 640l-57 -196h-161l57 196l16 9h133z" />
    <glyph glyph-name="FL00DDh" unicode="&#xdc;" 
d="M123 0q-14 0 -24 9.5t-16.5 23.5t-8 30t2.5 30l86 302h161l-73 -254h400l73 254h161l-86 -302q-4 -14 -15 -30t-25.5 -30t-30.5 -23.5t-29 -9.5h-576zM395 640l-57 -196h-161l57 196l15 9h134zM956 640l-57 -196h-161l57 196l16 9h133zM672 735l33 115l17 10h134l11 -10
l-34 -116l-13 -14h-139zM410 735l33 115l17 10h134l10 -10l-34 -116l-13 -14h-138z" />
    <glyph glyph-name="FL00E0h" unicode="&#xdd;" horiz-adv-x="741" 
d="M618 0h-560l-4 14l32 113l13 14h471l73 254h161l-86 -302q-4 -14 -15.5 -30t-25.5 -30t-30 -23.5t-29 -9.5zM597 381l-32 -111l-18 -15h-350q-14 0 -24 9.5t-16 24t-8 30.5t2 29l13 47h424zM396 640l-57 -196h-161l57 196l15 9h134zM875 640l-57 -196h-161l57 196l16 9
h133zM483 735l98 115l25 10h140l5 -14l-109 -116l-17 -10h-137z" />
    <glyph glyph-name="FL00DEh" unicode="&#xde;" horiz-adv-x="761" 
d="M624 259l39 136h162l-52 -183q-4 -14 -15.5 -30t-25.5 -30t-30 -23.5t-29 -9.5h-377l-7 11l34 118l13 11h288zM793 536q12 0 22.5 -9.5t17 -23t8.5 -30t-2 -29.5h-662l57 196l15 9h134l12 -9l-30 -104h428zM63 0l-10 10l110 385h161l-110 -385l-17 -10h-134z" />
    <glyph glyph-name="FL00DFh" unicode="&#xdf;" horiz-adv-x="821" 
d="M261 15l34 116l16 10h339l33 113h-343l-7 11l34 119l13 11h504l-2 -7q-1 -3 -9 -12t-19 -19l-21.5 -19.5t-16.5 -12.5q3 -4 8.5 -13t10.5 -18.5l9 -17.5t3 -11l-49 -172q-4 -14 -15 -30t-25.5 -30t-30.5 -23.5t-29 -9.5h-427zM930 556l-32 -112h-161l19 65h-399l-19 -65
h-161l32 112q4 14 14.5 30.5t24 30.5t29.5 23t31 9h576q13 0 23.5 -9.5t17 -23.5t8 -30.5t-2.5 -29.5zM37 -90l-9 15l135 470h161l-135 -471l-13 -14h-139z" />
    <glyph glyph-name="FL00E1h" unicode="&#xe0;" horiz-adv-x="869" 
d="M40 19l10 18l291 358h176l-190 -234l-3 -12q-3 -8 3 -8h251l7 -13l-34 -118l-13 -10h-494q-4 0 -5 7t1 12zM667 0l-87 395h176l86 -348q4 -11 1 -20l-4 -14q-2 -5 -4.5 -9t-8.5 -4h-159zM564 452l-7 -8h-176l168 205h145l50 -205h-175l-1 7zM711 850l32 -115l-15 -15
h-137l-11 10l-41 116l13 14h140z" />
    <glyph glyph-name="FL00E8h" unicode="&#xe1;" horiz-adv-x="869" 
d="M50 37l291 358h176l-190 -234l-3 -12q-3 -8 3 -8h251l7 -13l-34 -118l-13 -10h-494q-4 0 -5 7t1 12zM756 395l86 -348q4 -11 1 -20l-4 -14q-2 -5 -4.5 -9t-8.5 -4h-159l-87 395h176zM381 444l168 205h145l50 -205h-175l-1 7l-4 1l-7 -8h-176zM646 850l26 10h139l5 -14
l-109 -116l-17 -10h-136l-5 15z" />
    <glyph glyph-name="FL00E2h" unicode="&#xe2;" horiz-adv-x="869" 
d="M40 19l10 18l291 358h176l-190 -234l-3 -12q-3 -8 3 -8h251l7 -13l-34 -118l-13 -10h-494q-4 0 -5 7t1 12zM667 0l-87 395h176l86 -348q4 -11 1 -20l-4 -14q-2 -5 -4.5 -9t-8.5 -4h-159zM564 452l-7 -8h-176l168 205h145l50 -205h-175l-1 7zM683 730l-25 57l-56 -58
l-23 -9h-137l-9 15l110 115l17 10h243l11 -10l41 -116l-12 -14h-140z" />
    <glyph glyph-name="FL00E3h" unicode="&#xe3;" horiz-adv-x="869" 
d="M40 19l10 18l291 358h176l-190 -234l-3 -12q-3 -8 3 -8h251l7 -13l-34 -118l-13 -10h-494q-4 0 -5 7t1 12zM667 0l-87 395h176l86 -348q4 -11 1 -20l-4 -14q-2 -5 -4.5 -9t-8.5 -4h-159zM700 850l26 -57l56 58l22 9h138l9 -15l-110 -115l-17 -10h-185l-20 10l-26 57
l-55 -58l-23 -9h-138l-9 15l111 115l17 10h185zM564 452l-7 -8h-176l168 205h145l50 -205h-175l-1 7z" />
    <glyph glyph-name="FL00E4h" unicode="&#xe4;" horiz-adv-x="869" 
d="M40 19l10 18l291 358h176l-190 -234l-3 -12q-3 -8 3 -8h251l7 -13l-34 -118l-13 -10h-494q-4 0 -5 7t1 12zM667 0l-87 395h176l86 -348q4 -11 1 -20l-4 -14q-2 -5 -4.5 -9t-8.5 -4h-159zM564 452l-7 -8h-176l168 205h145l50 -205h-175l-1 7zM695 735l33 115l17 10h134
l10 -10l-34 -116l-12 -14h-139zM433 735l33 115l17 10h133l11 -10l-34 -116l-13 -14h-138z" />
    <glyph glyph-name="FL00E5h" unicode="&#xe5;" horiz-adv-x="869" 
d="M50 37l291 358h176l-190 -234l-3 -12q-3 -8 3 -8h251l7 -13l-34 -118l-13 -10h-494q-4 0 -5 7t1 12zM756 395l86 -348q4 -11 1 -20l-4 -14q-2 -5 -4.5 -9t-8.5 -4h-159l-87 395h176zM381 444l168 205h145l50 -205h-175l-1 7l-4 1l-7 -8h-176zM596 850l17 10h134l11 -10
l-34 -116l-13 -14h-139l-9 15zM627 771l4 -7h45l6 7l12 40l-4 4h-44l-7 -4z" />
    <glyph glyph-name="FL00E6h" unicode="&#xe6;" horiz-adv-x="1340" 
d="M667 0l-87 395h175l7 -25l7 25h162l-69 -240l5 -14h453l6 -14l-32 -113l-13 -14h-614zM40 19l10 18l291 358h176l-190 -234l-3 -12q-3 -8 3 -8h251l7 -13l-34 -118l-13 -10h-494q-4 0 -5 7t1 12zM960 494l-15 -50h-162l57 196l16 9h611l5 -13l-32 -113l-14 -14h-453z
M564 452l-7 -8h-176l168 205h145l49 -205h-174l-1 7zM1338 384l-34 -119l-13 -11h-349l-7 11l34 119l13 11h349z" />
    <glyph glyph-name="FL00E7h" unicode="&#xe7;" horiz-adv-x="735" 
d="M123 0q-14 0 -24 9.5t-16.5 23.5t-8 30t2.5 30l86 302h161l-73 -254h313l12 41l18 15h138l5 -14l-25 -90q-4 -14 -15.5 -30t-25.5 -30t-30 -23.5t-29 -9.5h-155l-47 -165l-13 -10h-192l-6 11l32 110l11 10h68l13 44h-200zM357 509l-19 -65h-161l32 112q4 13 15 29.5
t25.5 30.5t30 23.5t29.5 9.5h489q13 0 23.5 -9.5t17 -23.5t8 -30.5t-2.5 -29.5l-25 -90l-13 -14h-138l-10 15l12 42h-313z" />
    <glyph glyph-name="FL00E9h" unicode="&#xe8;" horiz-adv-x="733" 
d="M63 0l-9 15l109 380h161l-69 -240l5 -14h453l6 -14l-32 -113l-13 -14h-611zM234 640l15 9h611l5 -13l-32 -113l-14 -14h-453l-13 -15l-15 -50h-161zM731 384l-34 -119l-13 -11h-349l-7 11l34 119l13 11h349zM644 850l31 -115l-15 -15h-136l-11 10l-41 116l13 14h139z" />
    <glyph glyph-name="FL0DBDh" unicode="&#xe9;" horiz-adv-x="733" 
d="M63 0l-9 15l109 380h161l-69 -240l5 -14h453l6 -14l-32 -113l-13 -14h-611zM234 640l15 9h611l5 -13l-32 -113l-14 -14h-453l-13 -15l-15 -50h-161zM731 384l-34 -119l-13 -11h-349l-7 11l34 119l13 11h349zM479 735l98 115l25 10h140l5 -14l-109 -116l-17 -10h-137z" />
    <glyph glyph-name="FL00EAh" unicode="&#xea;" horiz-adv-x="733" 
d="M63 0l-9 15l109 380h161l-69 -240l5 -14h453l6 -14l-32 -113l-13 -14h-611zM234 640l15 9h611l5 -13l-32 -113l-14 -14h-453l-13 -15l-15 -50h-161zM731 384l-34 -119l-13 -11h-349l-7 11l34 119l13 11h349zM616 730l-26 57l-55 -58l-23 -9h-138l-9 15l111 115l17 10h243
l11 -10l41 -116l-13 -14h-139z" />
    <glyph glyph-name="FL00EBh" unicode="&#xeb;" horiz-adv-x="733" 
d="M63 0l-9 15l109 380h161l-69 -240l5 -14h453l6 -14l-32 -113l-13 -14h-611zM234 640l15 9h611l5 -13l-32 -113l-14 -14h-453l-13 -15l-15 -50h-161zM731 384l-34 -119l-13 -11h-349l-7 11l34 119l13 11h349zM365 735l33 115l17 10h134l11 -10l-34 -116l-13 -14h-139z
M628 735l33 115l17 10h133l11 -10l-34 -116l-13 -14h-138z" />
    <glyph glyph-name="FL00ECh" unicode="&#xec;" horiz-adv-x="260" 
d="M54 15l109 380h161l-109 -381l-13 -14h-139zM395 640l-57 -196h-161l57 196l15 9h134zM427 850l32 -115l-15 -15h-137l-11 10l-41 116l13 14h139z" />
    <glyph glyph-name="FL00EDh" unicode="&#xed;" horiz-adv-x="260" 
d="M54 15l109 380h161l-109 -381l-13 -14h-139zM395 640l-57 -196h-161l57 196l15 9h134zM223 735l97 115l26 10h140l5 -14l-110 -116l-17 -10h-136z" />
    <glyph glyph-name="FL00EEh" unicode="&#xee;" horiz-adv-x="260" 
d="M54 15l109 380h161l-109 -381l-13 -14h-139zM380 730l-25 57l-56 -58l-23 -9h-137l-9 15l110 115l17 10h243l11 -10l42 -116l-13 -14h-140zM395 640l-57 -196h-161l57 196l15 9h134z" />
    <glyph glyph-name="FL00EFh" unicode="&#xef;" horiz-adv-x="260" 
d="M54 15l109 380h161l-109 -381l-13 -14h-139zM395 640l-57 -196h-161l57 196l15 9h134zM392 735l33 115l17 10h134l11 -10l-34 -116l-13 -14h-139zM130 735l33 115l17 10h133l11 -10l-34 -116l-13 -14h-138z" />
    <glyph glyph-name="FL00F0h" unicode="&#xf0;" horiz-adv-x="818" 
d="M235 395h646l-86 -302q-4 -14 -15 -30t-25.5 -30t-30.5 -23.5t-29 -9.5h-572q-14 0 -24 9.5t-16.5 23.5t-8 30t2.5 30l59 208q4 13 15.5 29.5t26.5 30.5t30.5 24t26.5 10zM457 451l17 58h-117l-12 -42l-18 -15h-139l-4 14l25 90q4 13 15 29.5t25.5 30.5t30 23.5t29.5 9.5
h205l24 84l17 9h133l11 -9l-24 -84h206q13 0 23.5 -9.5t17 -23.5t8 -30.5t-2.5 -29.5l-32 -112h-161l19 65h-118l-17 -59l-6 -6h-150zM680 254h-396l-33 -113h396z" />
    <glyph glyph-name="FL00F1h" unicode="&#xf1;" horiz-adv-x="805" 
d="M608 0l-14 15l-257 380h225l102 -152l43 152h161l-109 -381l-13 -14h-138zM63 0l-9 15l109 380h161l-109 -381l-13 -14h-139zM670 850l25 -57l56 58l23 9h137l9 -15l-110 -115l-17 -10h-185l-20 10l-25 57l-56 -58l-23 -9h-137l-9 15l110 115l17 10h185zM383 649l15 -7
l131 -198h-352l57 196l15 9h134zM939 640l-57 -196h-161l57 196l16 9h134z" />
    <glyph glyph-name="FL00F2h" unicode="&#xf2;" 
d="M123 0q-14 0 -24 9.5t-16.5 23.5t-8 30t2.5 30l86 302h161l-73 -254h400l73 254h161l-86 -302q-4 -14 -15 -30t-25.5 -30t-30.5 -23.5t-29 -9.5h-576zM757 509h-400l-19 -65h-161l32 112q4 13 15 29.5t25.5 30.5t30 23.5t29.5 9.5h576q13 0 23.5 -9.5t17 -23.5t8 -30.5
t-2.5 -29.5l-32 -112h-161zM681 850l31 -115l-15 -15h-137l-10 10l-42 116l13 14h140z" />
    <glyph glyph-name="FL00F3h" unicode="&#xf3;" 
d="M123 0q-14 0 -24 9.5t-16.5 23.5t-8 30t2.5 30l86 302h161l-73 -254h400l73 254h161l-86 -302q-4 -14 -15 -30t-25.5 -30t-30.5 -23.5t-29 -9.5h-576zM757 509h-400l-19 -65h-161l32 112q4 13 15 29.5t25.5 30.5t30 23.5t29.5 9.5h576q13 0 23.5 -9.5t17 -23.5t8 -30.5
t-2.5 -29.5l-32 -112h-161zM532 735l97 115l26 10h139l5 -14l-109 -116l-17 -10h-136z" />
    <glyph glyph-name="FL00F4h" unicode="&#xf4;" 
d="M123 0q-14 0 -24 9.5t-16.5 23.5t-8 30t2.5 30l86 302h161l-73 -254h400l73 254h161l-86 -302q-4 -14 -15 -30t-25.5 -30t-30.5 -23.5t-29 -9.5h-576zM757 509h-400l-19 -65h-161l32 112q4 13 15 29.5t25.5 30.5t30 23.5t29.5 9.5h576q13 0 23.5 -9.5t17 -23.5t8 -30.5
t-2.5 -29.5l-32 -112h-161zM660 730l-25 57l-56 -58l-23 -9h-137l-9 15l110 115l17 10h244l10 -10l42 -116l-13 -14h-140z" />
    <glyph glyph-name="FL00F5h" unicode="&#xf5;" 
d="M123 0q-14 0 -24 9.5t-16.5 23.5t-8 30t2.5 30l86 302h161l-73 -254h400l73 254h161l-86 -302q-4 -14 -15 -30t-25.5 -30t-30.5 -23.5t-29 -9.5h-576zM757 509h-400l-19 -65h-161l32 112q4 13 15 29.5t25.5 30.5t30 23.5t29.5 9.5h576q13 0 23.5 -9.5t17 -23.5t8 -30.5
t-2.5 -29.5l-32 -112h-161zM678 850l25 -57l56 58l23 9h137l9 -15l-110 -115l-17 -10h-185l-20 10l-25 57l-56 -58l-23 -9h-137l-9 15l110 115l17 10h185z" />
    <glyph glyph-name="FL00F6h" unicode="&#xf6;" 
d="M123 0q-14 0 -24 9.5t-16.5 23.5t-8 30t2.5 30l86 302h161l-73 -254h400l73 254h161l-86 -302q-4 -14 -15 -30t-25.5 -30t-30.5 -23.5t-29 -9.5h-576zM757 509h-400l-19 -65h-161l32 112q4 13 15 29.5t25.5 30.5t30 23.5t29.5 9.5h576q13 0 23.5 -9.5t17 -23.5t8 -30.5
t-2.5 -29.5l-32 -112h-161zM672 735l33 115l17 10h134l11 -10l-34 -116l-13 -14h-139zM410 735l33 115l17 10h134l10 -10l-34 -116l-13 -14h-138z" />
    <glyph glyph-name="FL00F7h" unicode="&#xf7;" horiz-adv-x="560" 
d="M621 384l-34 -119l-13 -11h-442l-6 11l34 119l12 11h442zM224 84l33 116l17 10h134l10 -10l-33 -117l-13 -14h-138zM329 454l33 116l17 10h134l10 -10l-33 -117l-9 -9h-145z" />
    <glyph glyph-name="FL00F8h" unicode="&#xf8;" 
d="M123 0q-14 0 -24 9.5t-16.5 23.5t-8 30t2.5 30l86 302h161l-73 -254h130l73 254h140l-73 -254h130l73 254h161l-86 -302q-4 -14 -15 -30t-25.5 -30t-30.5 -23.5t-29 -9.5h-576zM487 509h-130l-19 -65h-161l32 112q4 13 15 29.5t25.5 30.5t30 23.5t29.5 9.5h576
q13 0 23.5 -9.5t17 -23.5t8 -30.5t-2.5 -29.5l-32 -112h-161l19 65h-130l-19 -65h-140z" />
    <glyph glyph-name="FL00F9h" unicode="&#xf9;" 
d="M123 0q-14 0 -24 9.5t-16.5 23.5t-8 30t2.5 30l86 302h161l-73 -254h400l73 254h161l-86 -302q-4 -14 -15 -30t-25.5 -30t-30.5 -23.5t-29 -9.5h-576zM395 640l-57 -196h-161l57 196l15 9h134zM956 640l-57 -196h-161l57 196l16 9h133zM681 850l31 -115l-15 -15h-137
l-10 10l-42 116l13 14h140z" />
    <glyph glyph-name="FL00FAh" unicode="&#xfa;" 
d="M123 0q-14 0 -24 9.5t-16.5 23.5t-8 30t2.5 30l86 302h161l-73 -254h400l73 254h161l-86 -302q-4 -14 -15 -30t-25.5 -30t-30.5 -23.5t-29 -9.5h-576zM395 640l-57 -196h-161l57 196l15 9h134zM956 640l-57 -196h-161l57 196l16 9h133zM532 735l97 115l26 10h139l5 -14
l-109 -116l-17 -10h-136z" />
    <glyph glyph-name="FL00FBh" unicode="&#xfb;" 
d="M123 0q-14 0 -24 9.5t-16.5 23.5t-8 30t2.5 30l86 302h161l-73 -254h400l73 254h161l-86 -302q-4 -14 -15 -30t-25.5 -30t-30.5 -23.5t-29 -9.5h-576zM660 730l-25 57l-56 -58l-23 -9h-137l-9 15l110 115l17 10h244l10 -10l42 -116l-13 -14h-140zM395 640l-57 -196h-161
l57 196l15 9h134zM956 640l-57 -196h-161l57 196l16 9h133z" />
    <glyph glyph-name="FL00DCh" unicode="&#xfc;" 
d="M123 0q-14 0 -24 9.5t-16.5 23.5t-8 30t2.5 30l86 302h161l-73 -254h400l73 254h161l-86 -302q-4 -14 -15 -30t-25.5 -30t-30.5 -23.5t-29 -9.5h-576zM395 640l-57 -196h-161l57 196l15 9h134zM956 640l-57 -196h-161l57 196l16 9h133zM672 735l33 115l17 10h134l11 -10
l-34 -116l-13 -14h-139zM410 735l33 115l17 10h134l10 -10l-34 -116l-13 -14h-138z" />
    <glyph glyph-name="FL00FDh" unicode="&#xfd;" horiz-adv-x="741" 
d="M618 0h-560l-4 14l32 113l13 14h471l73 254h161l-86 -302q-4 -14 -15.5 -30t-25.5 -30t-30 -23.5t-29 -9.5zM597 381l-32 -111l-18 -15h-350q-14 0 -24 9.5t-16 24t-8 30.5t2 29l13 47h424zM396 640l-57 -196h-161l57 196l15 9h134zM875 640l-57 -196h-161l57 196l16 9
h133zM483 735l98 115l25 10h140l5 -14l-109 -116l-17 -10h-137z" />
    <glyph glyph-name="FL00FEh" unicode="&#xfe;" horiz-adv-x="761" 
d="M624 259l39 136h162l-52 -183q-4 -14 -15.5 -30t-25.5 -30t-30 -23.5t-29 -9.5h-377l-7 11l34 118l13 11h288zM793 536q12 0 22.5 -9.5t17 -23t8.5 -30t-2 -29.5h-662l57 196l15 9h134l12 -9l-30 -104h428zM63 0l-10 10l110 385h161l-110 -385l-17 -10h-134z" />
    <glyph glyph-name="FL00FFh" unicode="&#xff;" horiz-adv-x="741" 
d="M618 0h-560l-4 14l32 113l13 14h471l73 254h161l-86 -302q-4 -14 -15.5 -30t-25.5 -30t-30 -23.5t-29 -9.5zM597 381l-32 -111l-18 -15h-350q-14 0 -24 9.5t-16 24t-8 30.5t2 29l13 47h424zM396 640l-57 -196h-161l57 196l15 9h134zM875 640l-57 -196h-161l57 196l16 9
h133zM369 735l33 115l17 10h134l11 -10l-34 -116l-13 -14h-139zM632 735l33 115l17 10h133l11 -10l-34 -116l-13 -14h-138z" />
    </font>
</defs>
</svg>
