<?xml version="1.0" standalone="no"?>
<!DOCTYPE svg PUBLIC "-//W3C//DTD SVG 1.1//EN" "http://www.w3.org/Graphics/SVG/1.1/DTD/svg11.dtd" >
<svg>
<metadata>
Created by FontForge 20090622 at Wed Apr 15 02:46:35 2020
 By deploy user
2019 Iconian Fonts - www.iconian.com
</metadata>
<defs>
<font id="StrikeFighter3DItalic" horiz-adv-x="848" >
  <font-face 
    font-family="Strike Fighter 3D Italic"
    font-weight="400"
    font-style="italic"
    font-stretch="normal"
    units-per-em="1000"
    panose-1="0 0 0 0 0 0 0 0 0 0"
    ascent="800"
    descent="-200"
    x-height="662"
    cap-height="662"
    bbox="-71 -221 1598.29 873"
    underline-thickness="50"
    underline-position="-75"
    unicode-range="U+0020-U+2122"
  />
<missing-glyph horiz-adv-x="495" 
 />
    <glyph glyph-name=".notdef" horiz-adv-x="495" 
 />
    <glyph glyph-name=".null" horiz-adv-x="0" 
 />
    <glyph glyph-name="nonmarkingreturn" horiz-adv-x="495" 
 />
    <glyph glyph-name="FL0020h" unicode=" " horiz-adv-x="438" 
 />
    <glyph glyph-name="FL0021h" unicode="!" horiz-adv-x="286" 
d="M99 215l123 431l26 16h143l19 -15l-2 -5l24 -34l-122 -427l-20 -21h-150l-25 33h-4zM250 647l-15 -9l-119 -415l8 -15h136l13 14l119 416l-11 9h-131zM40 9l37 130l26 17h143l18 -17l-1 -4l24 -34l-36 -126l-20 -22h-150l-25 34h-4zM104 141l-14 -10l-33 -114l8 -15h136
l13 14l33 115l-12 10h-131z" />
    <glyph glyph-name="FL0022h" unicode="&#x22;" horiz-adv-x="498" 
d="M370 428l1 5q-20 -24 -45.5 -43t-44.5 -19h-80l-24 34h-4l-14 22l63 217l26 15h143l19 -14l-1 -5l15 -22l8 27l27 14h143l19 -14l-1 -5l24 -34l-38 -131q-4 -15 -17.5 -33t-30.5 -33.5t-35.5 -26.5t-31.5 -11h-78l-24 34h-4zM461 645l-17 -9l-57 -201l9 -15h72
q12 0 27.5 9.5t30.5 23.5t26.5 29.5t15.5 28.5l35 125l-11 9h-131zM250 645l-16 -9l-57 -201l8 -15h73q12 0 27.5 9.5t30 23.5t26 29.5t15.5 28.5l35 125l-11 9h-131z" />
    <glyph glyph-name="FL0025h" unicode="#" horiz-adv-x="794" 
d="M207 537h96l32 110l27 15h143l19 -15l-2 -5l24 -34l-20 -71h59l31 109l27 16h143l19 -15l-2 -5l24 -34l-20 -71h61l13 -18l-1 -3l13 -18l11 -17l-37 -129l-21 -17h-97l-16 -55h61l13 -19l-1 -3l13 -18l11 -17l-36 -127l-21 -17h-97l-30 -104l-20 -22h-150l-25 34h-4
l-13 22l20 70h-59l-30 -104l-20 -22h-150l-24 34h-4l-15 23l20 69h-58l-25 34h-4l-10 19l37 129l21 19h96l16 55h-58l-24 34h-4l-11 19l38 131zM314 523h-103l-12 -11l-34 -117l6 -11h103l-34 -119h-103l-12 -11l-33 -115l6 -11h103l-32 -111l10 -15h136l13 14l32 112h123
l-32 -111l9 -15h136l13 14l32 112h103l13 11l33 115l-7 11h-103l34 119h103l13 11l34 117l-7 11h-103l33 115l-11 9h-131l-16 -9l-33 -115h-123l33 115l-11 9h-131l-17 -9zM399 265l34 119h123l-34 -119h-123zM468 335l-16 -55h59l16 55h-59z" />
    <glyph glyph-name="FL0024h" unicode="$" horiz-adv-x="761" 
d="M137 347l48 169q4 15 17 33.5t29.5 34.5t35.5 27t35 11h148l15 52l28 17h144l17 -17l-1 -4l24 -34l-4 -14h188l5 -15l19 -25l8 -21l-35 -120l-21 -21h-222l-3 -11h116q17 0 30.5 -13t20.5 -32l14 -18q13 -17 17 -39t-2 -42l-48 -167q-4 -15 -17 -33t-29.5 -34
t-34.5 -26.5t-33 -10.5h-153l-13 -48l-20 -22h-150l-24 34h-4l-15 23l3 13h-183l-24 34h-5l-7 21l36 124l21 22h220l3 11h-111q-24 0 -39 23l-15 20q-10 7 -17 19t-10.5 25.5t-4 27.5t2.5 26zM200 516l-48 -169q-4 -13 -2.5 -29t7.5 -30t16 -23.5t24 -9.5h163l-21 -74h-226
l-13 -14l-32 -111l4 -13h227l-15 -55l9 -15h137l12 13l16 57h165q13 0 28.5 9.5t30 23t25.5 29.5t15 30l48 167q4 13 2 29.5t-8 30t-16.5 23t-23.5 9.5h-165l21 75h227l14 14l32 110l-5 14h-228l17 59l-10 10h-132l-17 -10l-17 -59h-163q-14 0 -29.5 -9.5t-29.5 -23
t-24.5 -29.5t-14.5 -29zM519 255h78l-21 -74h-78zM323 394l21 75h77l-21 -75h-77zM554 206l-3 -11h15l3 11h-15zM379 420l-3 -11h13l3 11h-13z" />
    <glyph glyph-name="FL002Ah" unicode="%" horiz-adv-x="1125" 
d="M199 22l295 276h-282q-14 0 -24 14l-16 23h1q-15 7 -21 26.5t-1 35.5l71 249q3 9 10.5 20.5t17.5 21.5t21.5 17t22.5 7h312q13 0 21.5 -9.5t13.5 -22.5l16 -22q7 -10 9.5 -23.5t-0.5 -25.5l-60 -208l266 249l22 12h180l19 -27l-2 -2l25 -34l-301 -281h284q13 0 21.5 -10
t13.5 -23l15 -21q7 -10 9.5 -23.5t-0.5 -25.5l-72 -249q-3 -9 -10.5 -20t-17.5 -20.5t-21 -16t-20 -6.5h-312q-13 0 -24 14l-16 23h1q-15 8 -21.5 27.5t-1.5 35.5l60 208l-258 -239l-23 -19h-186l-25 34h-4zM682 -48h312q7 0 15.5 5t16.5 12.5t14 16.5t8 17l71 249
q2 7 1.5 16t-4 17t-9 13t-12.5 5h-312q-8 0 -16.5 -5t-16 -13t-13.5 -17t-8 -16l-71 -249q-2 -8 -1.5 -16.5t3.5 -16.5t8.5 -13t13.5 -5zM190 347h312q7 0 16 5t16.5 12.5t13.5 16t8 16.5l71 249q4 15 -3 33t-22 18h-312q-7 0 -15.5 -5t-16 -13t-13.5 -17t-8 -16l-71 -249
q-5 -15 2.5 -32.5t21.5 -17.5zM879 638l-663 -619l4 -17h173l18 15l661 617l-9 13h-167zM348 577h126l-31 -110h-126zM841 183h126l-31 -110h-126zM383 528l-13 -46h62l13 46h-62zM875 134l-13 -46h63l13 46h-63z" />
    <glyph glyph-name="FL0026h" unicode="&#x26;" horiz-adv-x="847" 
d="M906 390l-1 -3l13 -18l11 -17l-37 -129l-21 -17h-45l-43 -149q-4 -15 -16.5 -33t-29 -34t-35 -26.5t-33.5 -10.5h-531q-23 0 -40 23l-14 20q-10 7 -17.5 18.5t-11.5 25t-4.5 28t3.5 26.5l49 171q1 3 7 10t15 15.5l18.5 17.5l18.5 17q-5 8 -9.5 18t-8 19t-5.5 16t-1 10
l48 167q4 15 17 34t30 35t36 27t35 11h489q18 0 31.5 -13.5t20.5 -32.5l13 -17q12 -17 16 -39t-1 -41l-27 -93l-16 -17h63zM842 255l13 11l34 117l-7 11h-516l-12 -11l-34 -117l6 -11h306l-33 -114h-359l106 369h317l-12 -42l10 -15h135l13 14l25 88q4 13 2.5 29.5t-7.5 30
t-16.5 23t-23.5 9.5h-489q-14 0 -29.5 -9.5t-30 -23t-25 -30t-14.5 -29.5l-48 -167q-1 -3 2.5 -12t8.5 -19.5t10.5 -19.5t9.5 -12l-15.5 -13l-22 -19l-20 -18t-8.5 -10l-49 -171q-4 -14 -2 -30t8 -29.5t16 -23t24 -9.5h531q13 0 29 9.5t30 23t25 29.5t15 30l46 161h51z
M342 206l-24 34l-24 -84h295l14 50h-261zM650 438l-16 23h-253l-15 -52h308l-20 29h-4z" />
    <glyph glyph-name="FL0027h" unicode="'" horiz-adv-x="286" 
d="M159 427l63 217l25 15h143l19 -14l-1 -5l24 -34l-38 -131q-4 -15 -17.5 -33t-30.5 -33.5t-35 -26.5t-31 -11h-80l-24 34h-4zM249 645l-15 -9l-57 -201l7 -15h74q11 0 26 9.5t30 23.5t26.5 29.5t15.5 28.5l35 125l-11 9h-131z" />
    <glyph glyph-name="FL0028h" unicode="(" horiz-adv-x="461" 
d="M365 540l-123 -429h163l6 -14l-32 -111l-13 -14h-251q-14 0 -24 9.5t-16 23t-7.5 29.5t2.5 30l150 521q4 13 14.5 29.5t24.5 30t29 23t29 9.5h251l5 -14l-31 -110l-14 -13h-163zM85 -34l14 -20q15 -23 39 -23h258l20 22l35 120l-9 21l-18 24l-7 16h-122l105 365h158
l21 20l34 119l-8 22l-19 25l-5 15h-260q-15 0 -33.5 -11t-35.5 -27t-30 -35t-17 -34l-150 -521q-3 -12 -2.5 -26.5t4.5 -28t11 -25t17 -18.5z" />
    <glyph glyph-name="FL0029h" unicode=")" horiz-adv-x="461" 
d="M67 103l21 23h158l105 365h-119l-24 34h-4l-10 22l35 121l20 24h260q18 0 31.5 -13.5t20.5 -32.5l13 -17q13 -17 17 -38.5t-2 -41.5l-149 -522q-5 -15 -17.5 -33t-29 -34t-34.5 -26.5t-33 -10.5h-259l-24 34h-4l-7 24zM380 540l-123 -429h-164l-13 -14l-32 -112l3 -13
h252q13 0 29 9.5t30 23t24.5 29.5t14.5 30l150 521q4 13 2 29.5t-8 30t-16.5 23t-23.5 9.5h-252l-11 -13l-31 -111l5 -13h164z" />
    <glyph glyph-name="FL0F98h" unicode="*" horiz-adv-x="335" 
d="M304 537l-45 -44l-56 51l52 41l-42 13l47 78l39 -22l8 49h86l-22 -49l57 23l10 -79l-56 -16l21 -36l-84 -53zM191 531l20 -26l73 -66l32 32l23 -32l108 69l-20 30l51 15l-13 103l-21 30l-1 -1v11l-17 -6l-15 23l3 5h-119l-7 -39l-32 18l-64 -109l8 -3h-1l13 -17l-32 -25z
" />
    <glyph glyph-name="FL002Bh" unicode="+" horiz-adv-x="525" 
d="M314 520l24 18h131l14 -18l-1 -4l23 -34l-21 -74h79l11 -19l-1 -1l15 -20l9 -17l-37 -128l-19 -17h-115l-32 -112l-22 -16h-128l-12 16l-13 18h-3l-14 17l22 77h-74l-24 34h-4l-11 19l38 130l21 19h112zM341 523l-14 -10l-34 -120h-119l-12 -11l-34 -116l6 -11h119
l-34 -119l8 -10h117l14 10l34 119h119l12 11l34 116l-6 11h-119l34 120l-8 10h-117z" />
    <glyph glyph-name="FL002Ch" unicode="," horiz-adv-x="286" 
d="M16 -73l61 211l25 17h143l19 -17l-2 -4l25 -34l-36 -126q-5 -15 -18 -32.5t-30 -33.5t-35 -26.5t-31 -10.5h-80l-24 34h-4zM104 140l-15 -10l-56 -196l8 -14h74q11 0 26 9.5t29.5 23t26 29.5t15.5 29l34 119l-11 10h-131z" />
    <glyph glyph-name="FL002Dh" unicode="-" horiz-adv-x="470" 
d="M518 387l-1 -3l13 -18l11 -16l-36 -128l-21 -17h-334l-24 34h-4l-11 18l37 130l21 19h336zM501 380l-7 11h-321l-12 -11l-33 -116l6 -11h321l13 11z" />
    <glyph glyph-name="FL002Eh" unicode="." horiz-adv-x="286" 
d="M40 9l37 129l25 16h143l19 -16l-2 -4l25 -34l-36 -125l-20 -22h-150l-25 34h-4zM104 140l-15 -10l-32 -113l8 -15h136l13 14l32 114l-11 10h-131z" />
    <glyph glyph-name="FL002Fh" unicode="/" horiz-adv-x="779" 
d="M28 24l670 626l22 12h180l19 -27l-2 -2l24 -35l-670 -626l-23 -19h-186l-25 34h-5zM705 638l-662 -618l3 -18h173l18 15l661 617l-9 13h-167z" />
    <glyph glyph-name="FL004Fh" unicode="0" 
d="M108 -24l-14 20q-10 7 -17.5 18.5t-11.5 25t-4.5 28t3.5 26.5l132 461q4 15 17 34t30 35t36 27t35 11h574q18 0 31.5 -13.5t20.5 -32.5l13 -17q12 -17 16 -39t-1 -41l-133 -462q-4 -15 -16.5 -33t-29 -34t-34.5 -26.5t-33 -10.5h-574q-23 0 -40 23zM125 2h574
q13 0 29 9.5t30 23t24.5 29.5t14.5 30l132 461q4 13 2.5 29.5t-7.5 30t-16.5 23t-23.5 9.5h-574q-14 0 -29.5 -9.5t-30 -23t-25 -30t-14.5 -29.5l-132 -461q-4 -14 -2 -30t8 -29.5t16 -23t24 -9.5zM356 510h401l-106 -369h-401zM391 461l-87 -305h337l87 305h-337z" />
    <glyph glyph-name="FL0031h" unicode="1" horiz-adv-x="370" 
d="M222 461l-23 34h-4l-11 19l38 130l22 18h237l6 -15l18 -25l9 -20l-180 -627l-20 -22h-148l-25 34h-4l-15 23l129 451h-29zM284 2l13 14l177 618l-5 13h-222l-12 -10l-34 -116l6 -11h73l-141 -493l10 -15h135z" />
    <glyph glyph-name="FL0032h" unicode="2" horiz-adv-x="761" 
d="M842 555l-59 -208q-4 -13 -15 -29t-25.5 -30t-30 -23.5t-28.5 -9.5h-401l-33 -114h463l6 -14l-31 -111l-13 -14h-550q-14 0 -24 9.5t-16 23t-8 29.5t2 30l60 208q4 13 14.5 29.5t24.5 30t29.5 23t29.5 9.5h400l33 116h-463l-5 14l32 110l12 13h551q13 0 23 -9.5t16 -23
t8 -30t-2 -29.5zM199 495l24 -34h419l-15 -52h-386q-16 0 -35 -11t-35.5 -27t-29.5 -35t-17 -34l-60 -208q-4 -12 -3.5 -26.5t4.5 -28t11.5 -25t17.5 -18.5l14 -20q17 -23 40 -23h557l20 22l34 120l-9 21l-18 24l-6 16h-422l14 50h389q15 0 33 11t34.5 26.5t29.5 33.5t17 33
l60 209q5 19 1 41t-16 39l-14 19q-8 18 -21 31t-30 13h-561l-19 -21l-35 -123l8 -23h5z" />
    <glyph glyph-name="FL0033h" unicode="3" horiz-adv-x="763" 
d="M211 390l23 19h363l13 -19l-1 -3l10 -14l25 88h-421l-24 34h-5l-8 23l35 123l19 21h563q17 0 30 -13t21 -32l14 -18q12 -17 16 -39t-1 -41l-48 -168q-1 -3 -8 -11t-16.5 -17.5l-19.5 -19l-18 -16.5l9 -16t9 -17.5t6.5 -15.5t1.5 -10l-49 -171q-4 -15 -16.5 -33t-29 -34
t-34.5 -26.5t-33 -10.5h-561l-25 34h-4l-7 24l35 122l22 23h460l14 50h-357l-24 34h-4l-13 19zM672 510l-106 -369h-465l-13 -14l-32 -112l4 -13h554q13 0 28.5 9.5t30 23t25 29.5t14.5 30l49 171q0 2 -4 10l-9 18t-10.5 19t-8.5 13q4 3 15 12t22 19.5l20 19.5t10 12l48 167
q4 13 2 29.5t-8 30t-16 23t-23 9.5h-553l-12 -13l-32 -110l5 -14h465zM237 394l-13 -11l-34 -117l7 -11h349l13 11l34 117l-7 11h-349z" />
    <glyph glyph-name="FL0034h" unicode="4" horiz-adv-x="762" 
d="M586 394l7 -11l-34 -117l-13 -11h-408l-9 15l106 368l16 9h131l11 -9l-70 -244h263zM708 638l17 9h131l11 -9l-178 -622l-13 -14h-136l-10 15zM409 642l2 5l-19 15h-143l-27 -16l-110 -384l14 -22h4l24 -34h416l-56 -196l14 -23h4l25 -34h149l20 22l181 633l-24 34l2 5
l-19 15h-143l-26 -15l-79 -273l-9 13l1 3l-13 19h-221l57 199z" />
    <glyph glyph-name="FL0035h" unicode="5" horiz-adv-x="761" 
d="M111 257l110 384l27 21h594l6 -15l18 -25l9 -20l-35 -120l-21 -21h-428l-15 -52h352q17 0 30.5 -13t20.5 -32l14 -18q13 -17 17 -39t-2 -42l-60 -208q-4 -15 -16.5 -33t-29 -34t-34.5 -26.5t-33 -10.5h-559l-25 34h-4l-7 24l35 122l22 23h458l14 50h-413l-16 15l-16 22z
M251 647l-17 -13l-106 -369l10 -10h459l-33 -114h-463l-13 -14l-32 -112l4 -13h552q13 0 28.5 9.5t30 23t25 29.5t14.5 30l60 208q4 13 2 29.5t-8 30t-16.5 23t-23.5 9.5h-401l33 116h433l14 14l32 110l-5 13h-579z" />
    <glyph glyph-name="FL0036h" unicode="6" horiz-adv-x="844" 
d="M917 404h-88q10 -5 17.5 -15.5t13.5 -22.5l14 -19q12 -17 17 -40t0 -43l-60 -207q-4 -15 -16.5 -33t-29 -34t-34.5 -26.5t-33 -10.5h-570q-23 0 -40 23l-14 20q-10 7 -17.5 18.5t-11.5 25t-4.5 28t3.5 26.5l132 461q4 15 17 34t30 35t36 27t35 11h570q18 0 31.5 -13.5
t20.5 -32.5l13 -17q12 -17 16 -39t-1 -41l-27 -93zM793 94l59 207q4 13 1.5 29t-9 30.5t-16 24t-20.5 9.5h-485l33 116h397l-12 -42l10 -15h136l13 14l25 88q4 13 2.5 29.5t-7.5 30t-16.5 23t-23.5 9.5h-570q-14 0 -29.5 -9.5t-30 -23t-25 -30t-14.5 -29.5l-132 -461
q-4 -14 -2 -30t8 -29.5t16 -23t24 -9.5h570q13 0 29 9.5t30 23t24.5 29.5t14.5 30zM283 255h397l-33 -114h-397zM740 438l-16 23h-333l-15 -52h388l-20 29h-4zM318 206l-14 -50h333l14 50h-333z" />
    <glyph glyph-name="FL0037h" unicode="7" horiz-adv-x="679" 
d="M223 461l-24 34h-5l-8 23l35 123l19 21h545l16 -22l-2 -4l25 -34l-36 -125l-421 -524h-150q-11 0 -14 4l-22 31h1q-11 2 -11 9t3 17l4 14q2 8 4 13t10 13l324 407h-293zM189 14q-3 -12 5 -12h143l413 515l34 116l-10 14h-528l-12 -13l-32 -110l5 -14h349l5 -15l-356 -447
q-6 -7 -8 -11t-4 -9z" />
    <glyph glyph-name="FL0038h" unicode="8" horiz-adv-x="847" 
d="M196 555q4 15 17 34t30 35t36 27t35 11h573q18 0 31.5 -13.5t20.5 -32.5l13 -17q12 -17 16 -39t-1 -41l-48 -168q-1 -3 -8 -11t-16.5 -17.5l-19.5 -19l-18 -16.5l9 -16t9 -17.5t6.5 -15.5t1.5 -10l-49 -171q-4 -15 -16.5 -33t-29 -34t-34.5 -26.5t-33 -10.5h-573
q-23 0 -40 23l-14 20q-10 7 -17.5 18.5t-11.5 25t-4.5 28t3.5 26.5l49 171q1 3 7 10t15 15.5l18.5 17.5l18.5 17q-5 8 -9.5 18t-8 19t-5.5 16t-1 10zM211 555l-48 -167q-1 -3 2.5 -12t8.5 -19.5t10.5 -19.5t9.5 -12l-15.5 -13l-22 -19l-20 -18t-8.5 -10l-49 -171
q-4 -14 -2 -30t8 -29.5t16 -23t24 -9.5h573q13 0 29 9.5t30 23t24.5 29.5t14.5 30l49 171q0 2 -4 10l-9 18t-10.5 19t-8.5 13q6 3 16.5 12.5l21.5 19.5t19.5 19t9.5 12l48 167q4 13 2.5 29.5t-7.5 30t-16.5 23t-23.5 9.5h-573q-14 0 -29.5 -9.5t-30 -23t-25 -30t-14.5 -29.5
zM250 141l106 369h400l-33 -116h-347l-13 -11l-34 -117l7 -11h347l-33 -114h-400zM353 206l-24 34h-1l-24 -84h336l14 50h-301zM391 461l-15 -52h336l15 52h-336z" />
    <glyph glyph-name="FL0039h" unicode="9" horiz-adv-x="844" 
d="M196 555q4 15 17 34t30 35t36 27t35 11h570q18 0 31.5 -13.5t20.5 -32.5l13 -17q12 -17 16 -39t-1 -41l-133 -462q-4 -15 -16.5 -33t-29 -34t-34.5 -26.5t-33 -10.5h-570q-23 0 -40 23l-14 20q-10 7 -17.5 18.5t-11.5 25t-4.5 28t3.5 26.5l27 93l21 24h90q-11 7 -18 17
l-14 19q-9 7 -16.5 19t-12.5 26.5t-6 29t2 26.5zM211 555l-59 -207q-4 -13 -1.5 -29t9 -30.5t16 -24t20.5 -9.5h484l-33 -114h-397l12 40l-10 15h-137l-11 -13l-25 -89q-4 -14 -2 -30t8 -29.5t16 -23t24 -9.5h570q13 0 29 9.5t30 23t24.5 29.5t14.5 30l132 461
q4 13 2.5 29.5t-7.5 30t-16.5 23t-23.5 9.5h-570q-14 0 -29.5 -9.5t-30 -23t-25 -30t-14.5 -29.5zM720 394h-397l33 116h397zM278 185l10 -13l11 -16h338l14 50h-384l12 -18zM391 461l-15 -52h333l15 52h-333z" />
    <glyph glyph-name="FL003Ah" unicode=":" horiz-adv-x="286" 
d="M40 9l37 130l25 16h143l19 -16l-1 -4l24 -34l-36 -126l-20 -22h-150l-25 34h-4zM141 362l37 129l26 17h143l18 -17l-1 -4l24 -34l-36 -125l-20 -22h-150l-25 34h-4zM205 493l-15 -10l-32 -113l8 -15h136l13 14l32 114l-11 10h-131zM104 140l-14 -9l-33 -114l8 -15h136
l13 14l33 115l-12 9h-131z" />
    <glyph glyph-name="FL003Bh" unicode=";" horiz-adv-x="286" 
d="M16 -74l61 213l26 17h143l18 -17l-1 -4l24 -34l-36 -127q-5 -15 -18 -33t-30 -33.5t-35 -26.5t-31 -11h-80l-25 34h-4zM141 362l37 129l26 17h143l18 -17l-1 -4l24 -33l-36 -126l-20 -22h-150l-25 34h-4zM104 141l-14 -10l-57 -197l8 -15h74q11 0 26 9.5t29.5 23.5t26 30
t15.5 29l35 120l-12 10h-131zM205 493l-15 -10l-32 -113l8 -15h136l13 14l32 114l-11 10h-131z" />
    <glyph glyph-name="FL003Ch" unicode="&#x3c;" horiz-adv-x="539" 
d="M458 650l22 12h180l19 -27l-2 -2l24 -35l-330 -308l153 -305l-25 -32h-185l-25 34h-4l-13 20l-161 320zM482 647l-17 -9l-333 -311l155 -310l10 -15h172l12 17l-152 308l329 307l-9 13h-167z" />
    <glyph glyph-name="FL003Dh" unicode="=" horiz-adv-x="522" 
d="M201 517h389l13 -19l-1 -3l13 -18l11 -17l-37 -129l-21 -17h-387l-24 34h-4l-11 19l38 131zM139 300h389l13 -19l-1 -3l13 -18l11 -17l-37 -129l-21 -15h-386l-24 33h-4l-12 18l38 131zM586 491l-7 11h-374l-12 -11l-34 -117l6 -11h374l13 11zM524 274l-7 11h-374
l-12 -11l-34 -117l6 -10h374l13 10z" />
    <glyph glyph-name="FL003Eh" unicode="&#x3e;" horiz-adv-x="537" 
d="M428 650l9 -19l17 -22l157 -319l-340 -318l-23 -19h-186l-25 34h-4l-8 35l326 305l-152 308l35 27h180zM219 2l18 15l331 310l-153 311l-11 9h-167l-17 -13l151 -307l-329 -308l4 -17h173z" />
    <glyph glyph-name="FL0040h" unicode="?" horiz-adv-x="746" 
d="M150 216l25 86q4 15 17 34t30 35t35.5 27t33.5 11h321l15 52h-404l-24 34h-5l-8 23l35 123l19 21h546q18 0 31.5 -13.5t20.5 -32.5l13 -17q12 -17 16 -39t-1 -41l-60 -209q-4 -15 -17 -33t-29.5 -33.5t-34.5 -26.5t-33 -11h-323l-7 -25l-20 -21h-148l-25 33h-4zM190 302
l-23 -79l10 -15h135l13 14l9 33h335q13 0 29 9.5t30 23.5t25 30t15 29l59 208q4 13 2.5 29.5t-7.5 30t-16.5 23t-23.5 9.5h-536l-12 -13l-32 -110l5 -14h449l-33 -116h-336q-13 0 -28 -9.5t-29.5 -23t-25 -30t-14.5 -29.5zM91 10l37 129l28 17h143l17 -17l-1 -4l24 -34
l-36 -126l-20 -22h-148l-25 34h-4zM157 141l-16 -10l-33 -114l10 -15h135l13 14l33 115l-11 10h-131z" />
    <glyph glyph-name="FL0BEEh" unicode="@" horiz-adv-x="956" 
d="M95 -70l-16 23q-20 15 -27.5 43.5t-0.5 53.5l158 550q4 15 17 34t30 35t36 27t35 11h682q18 0 31.5 -13.5t20.5 -32.5l13 -17q12 -17 16 -38.5t-1 -41.5l-103 -359q-3 -12 -12 -26.5t-21.5 -28t-26.5 -25t-28 -17.5l5 -13l18 -24l9 -21l-34 -120l-20 -22h-741
q-13 0 -23 6t-17 16zM891 82l-6 14h-646l131 458h508l-82 -284h-59l52 180q2 7 1.5 16t-4 17t-9 13t-12.5 5h-313q-8 0 -16.5 -5t-16 -13t-13.5 -17t-8 -16l-72 -250q-4 -15 3 -32.5t22 -17.5h166l13 14l28 96l-12 10h-68l32 110h127l-66 -230h278q13 0 29 9t30 23t24.5 30
t14.5 30l103 358q4 13 2 29.5t-8 30t-16.5 23t-23.5 9.5h-682q-14 0 -29.5 -9.5t-29.5 -23t-24.5 -30t-14.5 -29.5l-158 -550q-4 -14 -2 -30t8 -30t16 -23.5t24 -9.5h734l13 14zM575 268l-1 -4l10 -15l24 82h-63l-13 -46h25zM817 462q8 -15 11 -30l21 73h-57q4 -5 6 -10.5
t5 -11.5zM334 138h1q-11 5 -17 16.5t-8 23.5l-19 -67h62l-2 3zM394 472q13 19 32 33h-22zM566 122l-10 -11h19z" />
    <glyph glyph-name="FL0041h" unicode="A" horiz-adv-x="895" 
d="M29 23l9 20l507 619h162l1 -12l1 1l21 -28l150 -607q2 -8 1.5 -13t-2.5 -12l-4 -14q-2 -10 -7 -17t-19 -7h-166l-25 34h-4l-85 386l-178 -217h199l8 -18l16 -22l10 -20l-37 -127l-20 -16h-498q-6 0 -9 4l-22 30q-9 2 -10.5 14.5t1.5 21.5zM52 38l-9 -18q-2 -5 -1 -11.5
t4 -6.5h492l12 10l34 116l-7 13h-250q-7 0 -4 9l3 12l238 291l6 -1l97 -450h159q8 0 11 12l4 14q2 9 0 20l-148 599h-144z" />
    <glyph glyph-name="FL0042h" unicode="B" horiz-adv-x="847" 
d="M376 409l15 52h336l-15 -52h-336zM329 240l24 -34h301l-14 -50h-336l24 84h1zM650 141l33 114h-347l-7 11l34 117l13 11h347l33 116h-400l-106 -369h400zM928 555l-48 -167q-1 -3 -9.5 -12t-19.5 -19l-21.5 -19.5t-16.5 -12.5q3 -4 8.5 -13t10.5 -19l9 -18t4 -10
l-49 -171q-4 -14 -14.5 -30t-24.5 -29.5t-30 -23t-29 -9.5h-632l-9 15l177 616l17 14h632q13 0 23.5 -9.5t16.5 -23t7.5 -30t-2.5 -29.5zM57 -13l25 -34h639q15 0 33 10.5t34.5 26.5t29 34t16.5 33l49 171q1 3 -1.5 10t-6.5 15.5t-9 17.5l-9 16l18 16.5l19.5 19t16.5 17.5
t8 11l48 168q5 19 1 41t-16 39l-13 17q-7 19 -20.5 32.5t-31.5 13.5h-639l-27 -22l-181 -631l13 -22h4z" />
    <glyph glyph-name="FL0043h" unicode="C" horiz-adv-x="761" 
d="M657 438l-15 23h-251l-87 -305h251l9 32l28 23h152l4 -15l19 -24l8 -22l-27 -93q-4 -15 -16.5 -33t-29 -34t-34.5 -26.5t-33 -10.5h-487q-23 0 -40 23l-14 20q-10 7 -17.5 18.5t-11.5 25t-4.5 28t3.5 26.5l132 461q4 15 17 34t30 35t36 27t35 11h487q17 0 30 -13t21 -31
l14 -19q12 -17 16 -39t-1 -41l-27 -93l-20 -22h-149l-24 34h-4zM250 141l106 369h314l-12 -42l10 -15h136l13 14l25 88q4 13 2 29.5t-8 30t-16 23t-23 9.5h-487q-14 0 -29.5 -9.5t-30 -23t-25 -30t-14.5 -29.5l-132 -461q-4 -14 -2 -30t8 -29.5t16 -23t24 -9.5h487
q13 0 28.5 9.5t30 23t25 29.5t14.5 30l25 88l-5 14h-136l-18 -15l-12 -40h-314z" />
    <glyph glyph-name="FL0044h" unicode="D" horiz-adv-x="849" 
d="M40 10l183 637l27 15h609q18 0 36.5 -19t30.5 -45l9 -12q16 -22 24 -48t2 -48l-116 -403q-5 -18 -24 -41.5t-42.5 -44t-47 -34.5t-38.5 -14h-609l-25 34h-4zM252 647l-17 -9l-178 -621l10 -15h603q13 0 34.5 12.5t42.5 31.5t38 40t22 38l115 403q5 16 0 37t-15.5 39.5
t-24.5 31t-27 12.5h-603zM611 141h-360l106 369h361q12 0 22 -14t6 -27l-81 -284q-2 -5 -6.5 -12.5t-12 -14.5t-16.5 -12t-19 -5zM616 156q12 0 22 10.5t12 18.5l79 276h-337l-87 -305h311z" />
    <glyph glyph-name="FL0045h" unicode="E" horiz-adv-x="759" 
d="M746 390l-1 -3l13 -18l11 -17l-37 -129l-21 -17h-358l-24 34h-1l-24 -84h420l6 -16l18 -24l9 -21l-34 -120l-20 -22h-621l-25 34h-4l-13 22l182 637l27 16h621l6 -15l18 -25l9 -20l-35 -120l-21 -21h-452l-6 -8l-13 -44h357zM251 647l-16 -9l-178 -621l9 -15h607l13 14
l31 111l-6 14h-452l-5 14l98 340l13 15h452l14 14l32 110l-5 13h-607zM729 383l-7 11h-346l-13 -11l-34 -117l7 -11h346l13 11z" />
    <glyph glyph-name="FL0046h" unicode="F" horiz-adv-x="707" 
d="M38 4l183 636l27 22h571l6 -15l18 -25l9 -20l-35 -120l-21 -21h-401l-6 -8l-13 -44h305l13 -19l-1 -3l13 -18l11 -17l-37 -129l-21 -17h-306l-24 34h-1l-78 -272l-25 -15h-141l-16 15l-17 23zM251 647l-17 -14l-179 -621l11 -10h131l16 10l139 483l13 15h401l14 14
l32 110l-5 13h-556zM677 383l-7 11h-294l-13 -11l-34 -117l7 -11h294l13 11z" />
    <glyph glyph-name="FL0047h" unicode="G" 
d="M108 -24l-14 20q-10 7 -17.5 18.5t-11.5 25t-4.5 28t3.5 26.5l132 461q4 15 17 34t30 35t36 27t35 11h574q18 0 31.5 -13.5t20.5 -32.5l13 -17q12 -17 16 -39t-1 -41l-27 -93l-20 -22h-33l9 -14l-1 -3l13 -18l11 -17l-85 -295q-4 -15 -16.5 -33t-29 -34t-34.5 -26.5
t-33 -10.5h-574q-23 0 -40 23zM797 94l83 289l-7 11h-452l-13 -11l-34 -117l7 -11h303l-33 -114h-401l106 369h401l-12 -42l10 -15h136l13 14l25 88q4 13 2.5 29.5t-7.5 30t-16.5 23t-23.5 9.5h-574q-14 0 -29.5 -9.5t-30 -23t-25 -30t-14.5 -29.5l-132 -461q-4 -14 -2 -30
t8 -29.5t16 -23t24 -9.5h574q13 0 29 9.5t30 23t24.5 29.5t14.5 30zM398 206l-24 34h-4l-13 19l38 131l23 19h350l-20 29h-4l-16 23h-337l-87 -305h337l14 50h-257z" />
    <glyph glyph-name="FL0048h" unicode="H" horiz-adv-x="809" 
d="M755 638l17 9h132l11 -9l-178 -622l-13 -14h-137l-10 15zM634 394l7 -11l-34 -117l-13 -11h-311l-68 -239l-13 -14h-136l-9 15l178 621l16 9h131l11 -9l-70 -244h311zM409 642l2 5l-19 15h-143l-27 -16l-182 -637l13 -22h4l25 -34h150l20 22l66 231h299l-56 -196l14 -23
h4l25 -34h150l20 22l181 633l-24 34l2 5l-19 15h-144l-26 -15l-78 -272l-9 12l1 3l-13 19h-269l57 199z" />
    <glyph glyph-name="FL0049h" unicode="I" horiz-adv-x="286" 
d="M40 9l182 637l26 16h143l19 -15l-2 -5l24 -34l-181 -633l-20 -22h-150l-25 34h-4zM250 647l-15 -9l-178 -621l8 -15h136l13 14l178 622l-11 9h-131z" />
    <glyph glyph-name="FL004Ah" unicode="J" horiz-adv-x="734" 
d="M342 290l-38 -134h224l141 491l26 15h144l17 -16l-1 -4l24 -34l-158 -551q-4 -15 -16.5 -33t-29 -34t-34.5 -26.5t-33 -10.5h-460q-23 0 -40 23l-14 20q-10 7 -17.5 18.5t-11.5 25t-4.5 28t3.5 26.5l67 234l27 17h143l18 -17l-1 -4zM125 2h460q13 0 29 9.5t30 23
t24.5 29.5t14.5 30l156 544l-10 9h-132l-16 -9l-143 -497h-288l52 179l-11 10h-131l-16 -10l-65 -226q-4 -14 -2 -30t8 -29.5t16 -23t24 -9.5z" />
    <glyph glyph-name="FL004Bh" unicode="K" horiz-adv-x="794" 
d="M411 647l-2 -5l24 -34l-57 -199h77l259 240l22 13h181l19 -27l-3 -3l25 -34l-327 -308l149 -304l-24 -34h-190l-23 34h-4l-112 220h-73l-24 34l-76 -266l-26 -21h-150l-25 34h-4l-7 24l182 635l27 16h143zM458 394h-83l-13 -11l-34 -117l7 -11h86l128 -254h174l13 18
l-149 308l326 307l-9 13h-168l-16 -9zM393 638l-11 9h-131l-16 -9l-179 -623l4 -13h137l18 15z" />
    <glyph glyph-name="FL004Ch" unicode="L" horiz-adv-x="707" 
d="M40 9l182 637l27 16h143l19 -15l-2 -5l24 -34l-129 -452h369l6 -16l18 -24l9 -21l-34 -120l-20 -22h-570l-25 34h-4zM251 647l-16 -9l-178 -621l9 -15h556l13 14l31 111l-6 14h-401l-5 14l139 483l-11 9h-131z" />
    <glyph glyph-name="FL004Dh" unicode="M" horiz-adv-x="1018" 
d="M461 638l19 -26l102 -331l324 369l29 12h188l17 -16l-1 -4l24 -34l-182 -635l-23 -20h-151l-25 34h-5l-8 23l70 245l-266 -301h-106l-24 34h-5l-96 303l-90 -316l-20 -22h-150l-25 34h-4l-13 22l182 637l27 16h187l22 -11l3 -14v1zM327 405l125 -402h90l355 402
l-111 -389l5 -14h137l17 15l178 621l-10 9h-179l-18 -7h1l-352 -399l-123 399h1l-14 7h-178l-16 -9l-178 -621l9 -15h137l13 14z" />
    <glyph glyph-name="FL004Eh" unicode="N" horiz-adv-x="831" 
d="M609 2l-14 15l-267 395l-113 -396l-13 -14h-136l-9 15l178 621l16 9h132l15 -7h-1l266 -400l114 398l17 9h132l10 -9l-178 -622l-13 -14h-136zM581 5l16 -18h1l12 -17l16 -17h149l20 22l181 633l-24 34l1 4l-17 16h-144l-27 -15l-106 -369l-249 374l-20 10h-141l-27 -16
l-182 -637l13 -22h4l25 -34h150l20 22l104 363z" />
    <glyph glyph-name="FL0050h" unicode="O" 
d="M108 -24l-14 20q-10 7 -17.5 18.5t-11.5 25t-4.5 28t3.5 26.5l132 461q4 15 17 34t30 35t36 27t35 11h574q18 0 31.5 -13.5t20.5 -32.5l13 -17q12 -17 16 -39t-1 -41l-133 -462q-4 -15 -16.5 -33t-29 -34t-34.5 -26.5t-33 -10.5h-574q-23 0 -40 23zM125 2h574
q13 0 29 9.5t30 23t24.5 29.5t14.5 30l132 461q4 13 2.5 29.5t-7.5 30t-16.5 23t-23.5 9.5h-574q-14 0 -29.5 -9.5t-30 -23t-25 -30t-14.5 -29.5l-132 -461q-4 -14 -2 -30t8 -29.5t16 -23t24 -9.5zM356 510h401l-106 -369h-401zM391 461l-87 -305h337l87 305h-337z" />
    <glyph glyph-name="FL0051h" unicode="P" horiz-adv-x="787" 
d="M68 -32l-17 23l-13 13l183 636l27 22h580q17 0 30 -13t21 -32l14 -18q12 -17 16 -39t-1 -41l-66 -230q-5 -15 -17.5 -33t-29 -34t-34.5 -26.5t-33 -10.5h-381l-24 34h-1l-72 -251l-25 -15h-141zM696 510l-39 -138h-287l-13 -11l-34 -116l7 -11h375q13 0 28.5 9.5t30 23
t25 29.5t14.5 30l66 229q4 13 2 29.5t-8 30t-16 23t-23 9.5h-573l-17 -14l-179 -621l11 -10h131l16 10l143 498h340zM391 461l-21 -74h277l21 74h-277z" />
    <glyph glyph-name="FL0052h" unicode="Q" 
d="M587 321l1 4l-14 18h-131l-23 -18l-48 -169h-68l87 305h337l-87 -305h-67l37 131zM651 141l106 369h-401l-106 -369h132l51 177l13 10h117l8 -10l-51 -177h131zM456 -85l-14 -10h-117l-7 10l25 87h-218q-14 0 -24 9.5t-16 23t-8 29.5t2 30l132 462q4 13 15 29t25 30
t29.5 23t29.5 9h574q13 0 23.5 -9t16.5 -23t7.5 -30t-2.5 -29l-132 -462q-4 -14 -14.5 -30t-24.5 -29.5t-30 -23t-29 -9.5h-218zM94 -4l14 -20q17 -23 40 -23h166l-13 -45l12 -18h4l25 -34h129l21 16l24 81h206q15 0 33 10.5t34.5 26.5t29 34t16.5 33l133 462q6 20 1.5 42
t-16.5 39l-13 16q-7 19 -20.5 32.5t-31.5 13.5h-574q-16 0 -35 -11t-36 -27t-30 -34.5t-17 -33.5l-132 -462q-4 -12 -3.5 -26.5t4.5 -28t11.5 -25t17.5 -18.5z" />
    <glyph glyph-name="FL0053h" unicode="R" horiz-adv-x="787" 
d="M648 389l-3 -2h-242q-14 0 -24 -8t-17 -19l29 101h277zM742 141l11 -15l-31 -109l-19 -15h-144q-1 0 -5 4.5t-5 5.5l-177 337q2 8 9 15.5t18 7.5h252l9 11l36 127h-340l-143 -498l-16 -10h-131l-11 10l179 621l17 14h573q13 0 23 -9.5t16 -23t8 -30t-2 -29.5l-72 -250
q-8 -17 -27.5 -30t-42 -22.5t-45.5 -15t-39 -6.5l2 -14l40 -76h57zM769 129l1 4l-16 23h-53l-15 28q18 3 40 10t43.5 17.5t39.5 24t26 30.5l73 253q5 19 1 41t-16 39l-14 18q-8 19 -21 32t-30 13h-580l-27 -22l-183 -636l13 -13l17 -23l16 -15h141l25 15l106 371l179 -337
q0 -2 10 -9l18 -26q0 -1 8.5 -7.5t10.5 -6.5h150l27 21l34 121z" />
    <glyph glyph-name="FL0054h" unicode="S" horiz-adv-x="761" 
d="M137 347l59 208q4 15 17 34t30 35t36 27t35 11h558l6 -15l18 -25l9 -20l-35 -120l-21 -21h-458l-15 -52h352q17 0 30.5 -13t20.5 -32l14 -18q13 -17 17 -39t-2 -42l-60 -208q-4 -15 -16.5 -33t-29 -34t-34.5 -26.5t-33 -10.5h-559l-25 34h-4l-7 24l35 122l22 23h458
l14 50h-349q-24 0 -39 23l-15 20q-10 7 -17 19t-10.5 25.5t-4 27.5t2.5 26zM211 555l-59 -208q-4 -13 -2.5 -29t7.5 -30t16 -23.5t24 -9.5h400l-33 -114h-463l-13 -14l-32 -112l4 -13h552q13 0 28.5 9.5t30 23t25 29.5t14.5 30l60 208q4 13 2 29.5t-8 30t-16.5 23t-23.5 9.5
h-401l33 116h463l14 14l32 110l-5 13h-550q-14 0 -29.5 -9.5t-30 -23t-25 -30t-14.5 -29.5z" />
    <glyph glyph-name="FL0055h" unicode="T" horiz-adv-x="761" 
d="M905 602l-35 -120l-26 -21h-217l-139 -486l-19 -22h-150l-25 34h-4l-15 23l129 451h-183l-24 34h-4l-7 24l35 121l22 22h623l16 -22l-2 -4zM815 510l19 15l31 108l-10 14h-608l-13 -13l-32 -111l3 -13h228l-141 -493l10 -15h137l11 13l142 495h223z" />
    <glyph glyph-name="FL0056h" unicode="U" 
d="M433 608l-129 -452h337l141 491l27 15h143l19 -15l-2 -5l24 -34l-158 -551q-4 -15 -16.5 -33t-29 -34t-34.5 -26.5t-33 -10.5h-574q-23 0 -40 23l-14 20q-10 7 -17.5 18.5t-11.5 25t-4.5 28t3.5 26.5l158 552l27 16h143l19 -15l-2 -5zM125 2h574q13 0 29 9.5t30 23
t24.5 29.5t14.5 30l156 544l-11 9h-131l-17 -9l-143 -497h-401l143 497l-11 9h-131l-16 -9l-156 -544q-4 -14 -2 -30t8 -29.5t16 -23t24 -9.5z" />
    <glyph glyph-name="FL0057h" unicode="V" horiz-adv-x="881" 
d="M214 617l5 19q3 11 12 11h158l94 -451l5 1l350 450h159q7 0 4 -11l-5 -19q-1 -3 -2 -6.5t-6 -8.5l-488 -600h-144l-142 600q-2 5 -1.5 8.5t1.5 6.5zM425 623l-21 29v-1l-3 11h-166q-16 0 -21.5 -7t-9.5 -19l-5 -19q-2 -5 -2.5 -9.5t1.5 -11.5l145 -609h4l25 -34h158
l494 607q5 7 6.5 11l3.5 9l6 19q3 14 0 19l-21 29q1 15 -18 15h-168l-329 -422z" />
    <glyph glyph-name="FL0058h" unicode="W" horiz-adv-x="1206" 
d="M668 -13l-26 104l-112 -138h-158l-25 34h-4l-145 609q-2 7 -1.5 11.5t2.5 9.5l5 19q4 12 9.5 19t21.5 7h167l3 -11v1l21 -29l78 -383l78 100l-61 256q-2 7 -1.5 11.5t2.5 9.5l5 19q4 12 9.5 19t21.5 7h168l3 -11v1l21 -29l78 -383l330 422h168q16 0 16 -17l21 -28
q4 -6 1 -18l-6 -19l-3.5 -9t-6.5 -11l-493 -607h-158l-25 34h-4zM640 174l41 -172h144l487 600q5 5 6 8.5t2 6.5l5 19q3 11 -3 11h-159l-351 -450l-5 -1l-94 451h-159q-9 0 -12 -11l-5 -19q-1 -3 -1.5 -6.5t1.5 -8.5l63 -261l-112 -144l-5 -1l-94 451h-158q-9 0 -12 -11
l-5 -19q-1 -3 -1.5 -6.5t1.5 -8.5l142 -600h144z" />
    <glyph glyph-name="FL0059h" unicode="X" horiz-adv-x="779" 
d="M428 650l9 -18l17 -23l62 -128l182 169l22 12h180l19 -27l-2 -2l24 -35l-329 -308l152 -305l-25 -32h-186l-24 34h-4l-13 20l-66 128l-175 -163l-23 -19h-186l-25 34h-4l-8 35l326 305l-152 308l35 27h180zM506 453l-91 185l-11 9h-167l-17 -13l151 -307l-329 -308l4 -17
h173l18 15l196 183l94 -183l10 -15h172l12 17l-152 308l329 307l-9 13h-167l-17 -9z" />
    <glyph glyph-name="FL005Ah" unicode="Y" horiz-adv-x="767" 
d="M586 395l10 -15l-31 -109l-19 -15h-348q-14 0 -24 9.5t-16 23.5t-7.5 30t2.5 29l83 290l16 9h131l11 -9l-70 -243h262zM618 2h-558l-4 13l32 112l13 14h469l143 497l17 9h131l11 -9l-156 -544q-4 -14 -14.5 -30t-25 -29.5t-30 -23t-28.5 -9.5zM612 384l1 3l-15 23h-220
l56 198l-24 34l2 5l-19 15h-143l-27 -16l-85 -298q-3 -12 -2.5 -26t4 -27.5t11 -25.5t17.5 -19l14 -20q17 -23 39 -23h354l-14 -51h-464l-22 -23l-35 -122l7 -24h4l25 -34h565q15 0 33 10.5t34.5 26.5t29 34t16.5 33l158 551l-24 34l2 5l-19 15h-143l-26 -15l-80 -277z" />
    <glyph glyph-name="FL005Ch" unicode="Z" horiz-adv-x="707" 
d="M829 640l-2 -4l25 -34l-40 -137l-20 -12l-1 -1l-379 -296h261l6 -16l18 -24l9 -21l-34 -120l-20 -22h-570l-25 34h-4l-13 22l40 140l21 13l385 299h-263l-24 34h-5l-8 23l35 123l19 21h573zM812 633l-10 14h-556l-12 -13l-32 -110l5 -14h338l6 -16l-443 -344l-16 -9
l-35 -124l9 -15h556l13 14l31 111l-6 14h-335l-5 15l439 343l17 10z" />
    <glyph glyph-name="FL005Bh" unicode="[" horiz-adv-x="461" 
d="M365 540l-123 -429h163l6 -14l-32 -111l-13 -14h-309l-10 10l197 686l15 9h309l5 -14l-31 -110l-14 -13h-163zM43 -39l16 -23l16 -15h321l20 22l35 120l-9 21l-18 24l-7 16h-122l105 365h158l21 20l34 119l-8 22l-19 25l-5 15h-324l-26 -16l-201 -702z" />
    <glyph glyph-name="FL00B9h" unicode="\" horiz-adv-x="779" 
d="M709 2h-172l-10 15l-307 617l17 13h167l11 -9l307 -618zM437 631l-9 19l-14 12h-180l-35 -27l313 -628l13 -20h4l24 -34h187l23 34l-309 622z" />
    <glyph glyph-name="FL005Dh" unicode="]" horiz-adv-x="461" 
d="M67 103l23 23h156l105 365h-118l-24 34h-4l-11 22l35 122l21 23h324l18 -16l-1 -4l24 -34l-201 -700l-24 -15h-321l-24 34h-5l-9 23zM380 540l-123 -429h-163l-14 -14l-32 -111l5 -14h309l16 10l197 686l-11 9h-309l-13 -14l-31 -110l6 -13h163z" />
    <glyph glyph-name="FL005Eh" unicode="^" horiz-adv-x="895" 
d="M567 374l53 -217v-1h-227zM840 38l-1 -18q-2 -5 -6 -11.5t-7 -6.5h-492l-8 10l34 116l13 13h250q7 0 10 9l3 12l-70 291l-6 -1l-356 -450h-158q-8 0 -5 12l4 14q2 5 4 9t8 11l491 599h144zM33 -12l22 -31q3 -4 14 -4h164l96 121l-20 -69l13 -18h4l25 -34h498q9 0 18 12
t11 20l1 20l-150 618l-21 28l-1 -1l-1 12h-162l-500 -608q-8 -8 -10 -13t-4 -13l-4 -14q-3 -10 -3 -17t11 -9h-1z" />
    <glyph glyph-name="FL005Fh" unicode="_" horiz-adv-x="591" 
d="M565 125l-1 -3l13 -18l11 -17l-37 -128l-20 -16h-456l-25 33h-4l-10 19l37 130l21 19h458zM548 118l-7 11h-443l-12 -11l-33 -116l5 -11h443l14 11z" />
    <glyph glyph-name="FL0060h" unicode="`" horiz-adv-x="302" 
d="M417 852l3 -9v1l21 -29l33 -124l-24 -25h-146l-14 12l-17 24l-12 12l-45 125l25 27h150zM286 715h135l13 14l-32 113l-18 9h-138l-11 -12l41 -114z" />
    <glyph glyph-name="FL0061h" unicode="a" horiz-adv-x="895" 
d="M29 23l9 20l507 619h162l1 -12l1 1l21 -28l150 -607q2 -8 1.5 -13t-2.5 -12l-4 -14q-2 -10 -7 -17t-19 -7h-166l-25 34h-4l-85 386l-178 -217h199l8 -18l16 -22l10 -20l-37 -127l-20 -16h-498q-6 0 -9 4l-22 30q-9 2 -10.5 14.5t1.5 21.5zM52 38l-9 -18q-2 -5 -1 -11.5
t4 -6.5h492l12 10l34 116l-7 13h-250q-7 0 -4 9l3 12l238 291l6 -1l97 -450h159q8 0 11 12l4 14q2 9 0 20l-148 599h-144z" />
    <glyph glyph-name="FL0062h" unicode="b" horiz-adv-x="847" 
d="M376 409l15 52h336l-15 -52h-336zM329 240l24 -34h301l-14 -50h-336l24 84h1zM650 141l33 114h-347l-7 11l34 117l13 11h347l33 116h-400l-106 -369h400zM928 555l-48 -167q-1 -3 -9.5 -12t-19.5 -19l-21.5 -19.5t-16.5 -12.5q3 -4 8.5 -13t10.5 -19l9 -18t4 -10
l-49 -171q-4 -14 -14.5 -30t-24.5 -29.5t-30 -23t-29 -9.5h-632l-9 15l177 616l17 14h632q13 0 23.5 -9.5t16.5 -23t7.5 -30t-2.5 -29.5zM57 -13l25 -34h639q15 0 33 10.5t34.5 26.5t29 34t16.5 33l49 171q1 3 -1.5 10t-6.5 15.5t-9 17.5l-9 16l18 16.5l19.5 19t16.5 17.5
t8 11l48 168q5 19 1 41t-16 39l-13 17q-7 19 -20.5 32.5t-31.5 13.5h-639l-27 -22l-181 -631l13 -22h4z" />
    <glyph glyph-name="FL0063h" unicode="c" horiz-adv-x="761" 
d="M657 438l-15 23h-251l-87 -305h251l9 32l28 23h152l4 -15l19 -24l8 -22l-27 -93q-4 -15 -16.5 -33t-29 -34t-34.5 -26.5t-33 -10.5h-487q-23 0 -40 23l-14 20q-10 7 -17.5 18.5t-11.5 25t-4.5 28t3.5 26.5l132 461q4 15 17 34t30 35t36 27t35 11h487q17 0 30 -13t21 -31
l14 -19q12 -17 16 -39t-1 -41l-27 -93l-20 -22h-149l-24 34h-4zM250 141l106 369h314l-12 -42l10 -15h136l13 14l25 88q4 13 2 29.5t-8 30t-16 23t-23 9.5h-487q-14 0 -29.5 -9.5t-30 -23t-25 -30t-14.5 -29.5l-132 -461q-4 -14 -2 -30t8 -29.5t16 -23t24 -9.5h487
q13 0 28.5 9.5t30 23t25 29.5t14.5 30l25 88l-5 14h-136l-18 -15l-12 -40h-314z" />
    <glyph glyph-name="FL0064h" unicode="d" horiz-adv-x="849" 
d="M40 10l183 637l27 15h609q18 0 36.5 -19t30.5 -45l9 -12q16 -22 24 -48t2 -48l-116 -403q-5 -18 -24 -41.5t-42.5 -44t-47 -34.5t-38.5 -14h-609l-25 34h-4zM252 647l-17 -9l-178 -621l10 -15h603q13 0 34.5 12.5t42.5 31.5t38 40t22 38l115 403q5 16 0 37t-15.5 39.5
t-24.5 31t-27 12.5h-603zM611 141h-360l106 369h361q12 0 22 -14t6 -27l-81 -284q-2 -5 -6.5 -12.5t-12 -14.5t-16.5 -12t-19 -5zM616 156q12 0 22 10.5t12 18.5l79 276h-337l-87 -305h311z" />
    <glyph glyph-name="FL0065h" unicode="e" horiz-adv-x="759" 
d="M746 390l-1 -3l13 -18l11 -17l-37 -129l-21 -17h-358l-24 34h-1l-24 -84h420l6 -16l18 -24l9 -21l-34 -120l-20 -22h-621l-25 34h-4l-13 22l182 637l27 16h621l6 -15l18 -25l9 -20l-35 -120l-21 -21h-452l-6 -8l-13 -44h357zM251 647l-16 -9l-178 -621l9 -15h607l13 14
l31 111l-6 14h-452l-5 14l98 340l13 15h452l14 14l32 110l-5 13h-607zM729 383l-7 11h-346l-13 -11l-34 -117l7 -11h346l13 11z" />
    <glyph glyph-name="FL0066h" unicode="f" horiz-adv-x="707" 
d="M38 4l183 636l27 22h571l6 -15l18 -25l9 -20l-35 -120l-21 -21h-401l-6 -8l-13 -44h305l13 -19l-1 -3l13 -18l11 -17l-37 -129l-21 -17h-306l-24 34h-1l-78 -272l-25 -15h-141l-16 15l-17 23zM251 647l-17 -14l-179 -621l11 -10h131l16 10l139 483l13 15h401l14 14
l32 110l-5 13h-556zM677 383l-7 11h-294l-13 -11l-34 -117l7 -11h294l13 11z" />
    <glyph glyph-name="FL00B6h" unicode="g" horiz-adv-x="811" 
d="M108 -24l-14 20q-10 7 -17.5 18.5t-11.5 25t-4.5 28t3.5 26.5l132 461q4 15 17 34t30 35t36 27t35 11h537q18 0 31.5 -13.5t20.5 -32.5l13 -17q12 -17 16 -39t-1 -41l-27 -93l-20 -22h-33l9 -14l-1 -3l13 -18l11 -17l-85 -295q-4 -15 -16.5 -33t-29 -34t-34.5 -26.5
t-33 -10.5h-537q-23 0 -40 23zM760 94l83 289l-7 11h-415l-13 -11l-34 -117l7 -11h266l-33 -114h-364l106 369h364l-12 -42l10 -15h136l13 14l25 88q4 13 2.5 29.5t-7.5 30t-16.5 23t-23.5 9.5h-537q-14 0 -29.5 -9.5t-30 -23t-25 -30t-14.5 -29.5l-132 -461q-4 -14 -2 -30
t8 -29.5t16 -23t24 -9.5h537q13 0 29 9.5t30 23t24.5 29.5t14.5 30zM398 206l-24 34h-4l-13 19l38 131l23 19h313l-20 29h-4l-16 23h-300l-87 -305h300l14 50h-220z" />
    <glyph glyph-name="FL0068h" unicode="h" horiz-adv-x="809" 
d="M755 638l17 9h132l11 -9l-178 -622l-13 -14h-137l-10 15zM634 394l7 -11l-34 -117l-13 -11h-311l-68 -239l-13 -14h-136l-9 15l178 621l16 9h131l11 -9l-70 -244h311zM409 642l2 5l-19 15h-143l-27 -16l-182 -637l13 -22h4l25 -34h150l20 22l66 231h299l-56 -196l14 -23
h4l25 -34h150l20 22l181 633l-24 34l2 5l-19 15h-144l-26 -15l-78 -272l-9 12l1 3l-13 19h-269l57 199z" />
    <glyph glyph-name="i" unicode="i" horiz-adv-x="286" 
d="M40 9l182 637l26 16h143l19 -15l-2 -5l24 -34l-181 -633l-20 -22h-150l-25 34h-4zM250 647l-15 -9l-178 -621l8 -15h136l13 14l178 622l-11 9h-131z" />
    <glyph glyph-name="FL006Ah" unicode="j" horiz-adv-x="734" 
d="M342 290l-38 -134h224l141 491l26 15h144l17 -16l-1 -4l24 -34l-158 -551q-4 -15 -16.5 -33t-29 -34t-34.5 -26.5t-33 -10.5h-460q-23 0 -40 23l-14 20q-10 7 -17.5 18.5t-11.5 25t-4.5 28t3.5 26.5l67 234l27 17h143l18 -17l-1 -4zM125 2h460q13 0 29 9.5t30 23
t24.5 29.5t14.5 30l156 544l-10 9h-132l-16 -9l-143 -497h-288l52 179l-11 10h-131l-16 -10l-65 -226q-4 -14 -2 -30t8 -29.5t16 -23t24 -9.5z" />
    <glyph glyph-name="FL006Bh" unicode="k" horiz-adv-x="794" 
d="M411 647l-2 -5l24 -34l-57 -199h77l259 240l22 13h181l19 -27l-3 -3l25 -34l-327 -308l149 -304l-24 -34h-190l-23 34h-4l-112 220h-73l-24 34l-76 -266l-26 -21h-150l-25 34h-4l-7 24l182 635l27 16h143zM458 394h-83l-13 -11l-34 -117l7 -11h86l128 -254h174l13 18
l-149 308l326 307l-9 13h-168l-16 -9zM393 638l-11 9h-131l-16 -9l-179 -623l4 -13h137l18 15z" />
    <glyph glyph-name="FL006Ch" unicode="l" horiz-adv-x="707" 
d="M40 9l182 637l27 16h143l19 -15l-2 -5l24 -34l-129 -452h369l6 -16l18 -24l9 -21l-34 -120l-20 -22h-570l-25 34h-4zM251 647l-16 -9l-178 -621l9 -15h556l13 14l31 111l-6 14h-401l-5 14l139 483l-11 9h-131z" />
    <glyph glyph-name="FL006Dh" unicode="m" horiz-adv-x="1018" 
d="M461 638l19 -26l102 -331l324 369l29 12h188l17 -16l-1 -4l24 -34l-182 -635l-23 -20h-151l-25 34h-5l-8 23l70 245l-266 -301h-106l-24 34h-5l-96 303l-90 -316l-20 -22h-150l-25 34h-4l-13 22l182 637l27 16h187l22 -11l3 -14v1zM327 405l125 -402h90l355 402
l-111 -389l5 -14h137l17 15l178 621l-10 9h-179l-18 -7h1l-352 -399l-123 399h1l-14 7h-178l-16 -9l-178 -621l9 -15h137l13 14z" />
    <glyph glyph-name="FL006Eh" unicode="n" horiz-adv-x="831" 
d="M609 2l-14 15l-267 395l-113 -396l-13 -14h-136l-9 15l178 621l16 9h132l15 -7h-1l266 -400l114 398l17 9h132l10 -9l-178 -622l-13 -14h-136zM581 5l16 -18h1l12 -17l16 -17h149l20 22l181 633l-24 34l1 4l-17 16h-144l-27 -15l-106 -369l-249 374l-20 10h-141l-27 -16
l-182 -637l13 -22h4l25 -34h150l20 22l104 363z" />
    <glyph glyph-name="FL006Fh" unicode="o" 
d="M108 -24l-14 20q-10 7 -17.5 18.5t-11.5 25t-4.5 28t3.5 26.5l132 461q4 15 17 34t30 35t36 27t35 11h574q18 0 31.5 -13.5t20.5 -32.5l13 -17q12 -17 16 -39t-1 -41l-133 -462q-4 -15 -16.5 -33t-29 -34t-34.5 -26.5t-33 -10.5h-574q-23 0 -40 23zM125 2h574
q13 0 29 9.5t30 23t24.5 29.5t14.5 30l132 461q4 13 2.5 29.5t-7.5 30t-16.5 23t-23.5 9.5h-574q-14 0 -29.5 -9.5t-30 -23t-25 -30t-14.5 -29.5l-132 -461q-4 -14 -2 -30t8 -29.5t16 -23t24 -9.5zM356 510h401l-106 -369h-401zM391 461l-87 -305h337l87 305h-337z" />
    <glyph glyph-name="FL0070h" unicode="p" horiz-adv-x="787" 
d="M68 -32l-17 23l-13 13l183 636l27 22h580q17 0 30 -13t21 -32l14 -18q12 -17 16 -39t-1 -41l-66 -230q-5 -15 -17.5 -33t-29 -34t-34.5 -26.5t-33 -10.5h-381l-24 34h-1l-72 -251l-25 -15h-141zM696 510l-39 -138h-287l-13 -11l-34 -116l7 -11h375q13 0 28.5 9.5t30 23
t25 29.5t14.5 30l66 229q4 13 2 29.5t-8 30t-16 23t-23 9.5h-573l-17 -14l-179 -621l11 -10h131l16 10l143 498h340zM391 461l-21 -74h277l21 74h-277z" />
    <glyph glyph-name="FL0071h" unicode="q" 
d="M587 321l1 4l-14 18h-131l-23 -18l-48 -169h-68l87 305h337l-87 -305h-67l37 131zM651 141l106 369h-401l-106 -369h132l51 177l13 10h117l8 -10l-51 -177h131zM456 -85l-14 -10h-117l-7 10l25 87h-218q-14 0 -24 9.5t-16 23t-8 29.5t2 30l132 462q4 13 15 29t25 30
t29.5 23t29.5 9h574q13 0 23.5 -9t16.5 -23t7.5 -30t-2.5 -29l-132 -462q-4 -14 -14.5 -30t-24.5 -29.5t-30 -23t-29 -9.5h-218zM94 -4l14 -20q17 -23 40 -23h166l-13 -45l12 -18h4l25 -34h129l21 16l24 81h206q15 0 33 10.5t34.5 26.5t29 34t16.5 33l133 462q6 20 1.5 42
t-16.5 39l-13 16q-7 19 -20.5 32.5t-31.5 13.5h-574q-16 0 -35 -11t-36 -27t-30 -34.5t-17 -33.5l-132 -462q-4 -12 -3.5 -26.5t4.5 -28t11.5 -25t17.5 -18.5z" />
    <glyph glyph-name="FL0072h" unicode="r" horiz-adv-x="787" 
d="M648 389l-3 -2h-242q-14 0 -24 -8t-17 -19l29 101h277zM742 141l11 -15l-31 -109l-19 -15h-144q-1 0 -5 4.5t-5 5.5l-177 337q2 8 9 15.5t18 7.5h252l9 11l36 127h-340l-143 -498l-16 -10h-131l-11 10l179 621l17 14h573q13 0 23 -9.5t16 -23t8 -30t-2 -29.5l-72 -250
q-8 -17 -27.5 -30t-42 -22.5t-45.5 -15t-39 -6.5l2 -14l40 -76h57zM769 129l1 4l-16 23h-53l-15 28q18 3 40 10t43.5 17.5t39.5 24t26 30.5l73 253q5 19 1 41t-16 39l-14 18q-8 19 -21 32t-30 13h-580l-27 -22l-183 -636l13 -13l17 -23l16 -15h141l25 15l106 371l179 -337
q0 -2 10 -9l18 -26q0 -1 8.5 -7.5t10.5 -6.5h150l27 21l34 121z" />
    <glyph glyph-name="FL0073h" unicode="s" horiz-adv-x="761" 
d="M137 347l59 208q4 15 17 34t30 35t36 27t35 11h558l6 -15l18 -25l9 -20l-35 -120l-21 -21h-458l-15 -52h352q17 0 30.5 -13t20.5 -32l14 -18q13 -17 17 -39t-2 -42l-60 -208q-4 -15 -16.5 -33t-29 -34t-34.5 -26.5t-33 -10.5h-559l-25 34h-4l-7 24l35 122l22 23h458
l14 50h-349q-24 0 -39 23l-15 20q-10 7 -17 19t-10.5 25.5t-4 27.5t2.5 26zM211 555l-59 -208q-4 -13 -2.5 -29t7.5 -30t16 -23.5t24 -9.5h400l-33 -114h-463l-13 -14l-32 -112l4 -13h552q13 0 28.5 9.5t30 23t25 29.5t14.5 30l60 208q4 13 2 29.5t-8 30t-16.5 23t-23.5 9.5
h-401l33 116h463l14 14l32 110l-5 13h-550q-14 0 -29.5 -9.5t-30 -23t-25 -30t-14.5 -29.5z" />
    <glyph glyph-name="FL0074h" unicode="t" horiz-adv-x="761" 
d="M905 602l-35 -120l-26 -21h-217l-139 -486l-19 -22h-150l-25 34h-4l-15 23l129 451h-183l-24 34h-4l-7 24l35 121l22 22h623l16 -22l-2 -4zM815 510l19 15l31 108l-10 14h-608l-13 -13l-32 -111l3 -13h228l-141 -493l10 -15h137l11 13l142 495h223z" />
    <glyph glyph-name="FL0075h" unicode="u" 
d="M433 608l-129 -452h337l141 491l27 15h143l19 -15l-2 -5l24 -34l-158 -551q-4 -15 -16.5 -33t-29 -34t-34.5 -26.5t-33 -10.5h-574q-23 0 -40 23l-14 20q-10 7 -17.5 18.5t-11.5 25t-4.5 28t3.5 26.5l158 552l27 16h143l19 -15l-2 -5zM125 2h574q13 0 29 9.5t30 23
t24.5 29.5t14.5 30l156 544l-11 9h-131l-17 -9l-143 -497h-401l143 497l-11 9h-131l-16 -9l-156 -544q-4 -14 -2 -30t8 -29.5t16 -23t24 -9.5z" />
    <glyph glyph-name="FL0076h" unicode="v" horiz-adv-x="881" 
d="M214 617l5 19q3 11 12 11h158l94 -451l5 1l350 450h159q7 0 4 -11l-5 -19q-1 -3 -2 -6.5t-6 -8.5l-488 -600h-144l-142 600q-2 5 -1.5 8.5t1.5 6.5zM425 623l-21 29v-1l-3 11h-166q-16 0 -21.5 -7t-9.5 -19l-5 -19q-2 -5 -2.5 -9.5t1.5 -11.5l145 -609h4l25 -34h158
l494 607q5 7 6.5 11l3.5 9l6 19q3 14 0 19l-21 29q1 15 -18 15h-168l-329 -422z" />
    <glyph glyph-name="FL0077h" unicode="w" horiz-adv-x="1206" 
d="M668 -13l-26 104l-112 -138h-158l-25 34h-4l-145 609q-2 7 -1.5 11.5t2.5 9.5l5 19q4 12 9.5 19t21.5 7h167l3 -11v1l21 -29l78 -383l78 100l-61 256q-2 7 -1.5 11.5t2.5 9.5l5 19q4 12 9.5 19t21.5 7h168l3 -11v1l21 -29l78 -383l330 422h168q16 0 16 -17l21 -28
q4 -6 1 -18l-6 -19l-3.5 -9t-6.5 -11l-493 -607h-158l-25 34h-4zM640 174l41 -172h144l487 600q5 5 6 8.5t2 6.5l5 19q3 11 -3 11h-159l-351 -450l-5 -1l-94 451h-159q-9 0 -12 -11l-5 -19q-1 -3 -1.5 -6.5t1.5 -8.5l63 -261l-112 -144l-5 -1l-94 451h-158q-9 0 -12 -11
l-5 -19q-1 -3 -1.5 -6.5t1.5 -8.5l142 -600h144z" />
    <glyph glyph-name="FL0078h" unicode="x" horiz-adv-x="779" 
d="M428 650l9 -18l17 -23l62 -128l182 169l22 12h180l19 -27l-2 -2l24 -35l-329 -308l152 -305l-25 -32h-186l-24 34h-4l-13 20l-66 128l-175 -163l-23 -19h-186l-25 34h-4l-8 35l326 305l-152 308l35 27h180zM506 453l-91 185l-11 9h-167l-17 -13l151 -307l-329 -308l4 -17
h173l18 15l196 183l94 -183l10 -15h172l12 17l-152 308l329 307l-9 13h-167l-17 -9z" />
    <glyph glyph-name="FL0079h" unicode="y" horiz-adv-x="767" 
d="M586 395l10 -15l-31 -109l-19 -15h-348q-14 0 -24 9.5t-16 23.5t-7.5 30t2.5 29l83 290l16 9h131l11 -9l-70 -243h262zM618 2h-558l-4 13l32 112l13 14h469l143 497l17 9h131l11 -9l-156 -544q-4 -14 -14.5 -30t-25 -29.5t-30 -23t-28.5 -9.5zM612 384l1 3l-15 23h-220
l56 198l-24 34l2 5l-19 15h-143l-27 -16l-85 -298q-3 -12 -2.5 -26t4 -27.5t11 -25.5t17.5 -19l14 -20q17 -23 39 -23h354l-14 -51h-464l-22 -23l-35 -122l7 -24h4l25 -34h565q15 0 33 10.5t34.5 26.5t29 34t16.5 33l158 551l-24 34l2 5l-19 15h-143l-26 -15l-80 -277z" />
    <glyph glyph-name="FL007Ah" unicode="z" horiz-adv-x="707" 
d="M829 640l-2 -4l25 -34l-40 -137l-20 -12l-1 -1l-379 -296h261l6 -16l18 -24l9 -21l-34 -120l-20 -22h-570l-25 34h-4l-13 22l40 140l21 13l385 299h-263l-24 34h-5l-8 23l35 123l19 21h573zM812 633l-10 14h-556l-12 -13l-32 -110l5 -14h338l6 -16l-443 -344l-16 -9
l-35 -124l9 -15h556l13 14l31 111l-6 14h-335l-5 15l439 343l17 10z" />
    <glyph glyph-name="FL007Bh" unicode="{" horiz-adv-x="553" 
d="M273 394l55 191q4 13 14.5 29.5t24.5 30t29.5 23t29.5 9.5h234l5 -14l-31 -110l-14 -13h-146l-123 -429h146l6 -14l-32 -111l-13 -14h-234q-14 0 -24 9.5t-16 23t-8 29.5t2 30l55 191h-99l-6 11l34 117l12 11h99zM170 409l-21 -19l-38 -131l11 -19h4l24 -34h54l-41 -142
q-3 -12 -2.5 -26.5t4.5 -28t11 -25t17 -18.5l15 -20q15 -23 39 -23h241l20 22l35 120l-9 21l-18 24l-7 16h-106l105 365h142l21 20l34 119l-8 22l-19 25l-5 15h-243q-16 0 -34.5 -11t-35.5 -27t-30 -35t-17 -34l-51 -176h-92z" />
    <glyph glyph-name="FL007Ch" unicode="|" horiz-adv-x="286" 
d="M16 -74l230 803l26 16h143l18 -15l-1 -5l24 -34l-229 -799l-20 -22h-150l-25 34h-4zM273 730l-14 -9l-226 -787l8 -15h136l13 14l226 788l-12 9h-131z" />
    <glyph glyph-name="FL007Dh" unicode="}" horiz-adv-x="553" 
d="M233 491l-24 34h-4l-11 22l35 122l21 23h243q18 0 31.5 -13.5t20.5 -32.5l12 -17q13 -17 17 -38.5t-2 -41.5l-40 -140h59l11 -19v-1l14 -20l9 -17l-37 -129l-19 -17h-95l-51 -179q-5 -15 -17.5 -33t-28.5 -34t-34 -26.5t-33 -10.5h-241l-24 34h-5l-9 23l36 123l23 23h139
l105 365h-101zM479 394l55 191q4 13 2.5 29.5t-7.5 30t-16.5 23t-23.5 9.5h-234l-13 -14l-31 -110l6 -13h146l-123 -429h-146l-14 -14l-32 -111l5 -14h234q13 0 28.5 9.5t29.5 23t24.5 29.5t14.5 30l55 191h100l12 11l34 117l-6 11h-100z" />
    <glyph glyph-name="FL007Eh" unicode="~" horiz-adv-x="470" 
d="M360 393l2 -10v1l10 -14l16 22l24 14h98l2 -12v1l21 -28l7 -25l-87 -122l-16 -14h-123l-16 13l-17 23l-16 -24l-21 -12h-95l-24 34h-5l-9 25l89 125l18 16h126zM356 324l-10 58l-1 -1l-12 10h-113l-11 -10l1 1l-81 -114l5 -14h82l15 9v-1l42 60l10 -59l1 1l12 -10h112
l12 10l-1 -1l81 114l-4 14h-83l-15 -9v1z" />
    <glyph glyph-name="FL007Fh" horiz-adv-x="200" 
 />
    <glyph glyph-name="FL20ACh" unicode="&#x20ac;" horiz-adv-x="859" 
d="M192 476h91l23 79q4 15 17.5 34t31 35t36 27t33.5 11h475q17 0 30 -13t21 -32l14 -18q12 -17 16 -39t-1 -41l-27 -93l-20 -22h-149l-24 34h-4l-16 23h-49l2 -1l-1 -4l24 -34l-30 -104l-23 -13h-30l12 -11l-1 -4l24 -34l-28 -100h13l9 32l29 23h152l4 -15l19 -24l8 -22
l-27 -93q-4 -15 -16.5 -33t-29 -34t-34.5 -26.5t-33 -10.5h-475q-24 0 -41 23l-15 21q-9 7 -16 18.5t-10.5 25t-4 27.5t2.5 26l13 46h-52l-14 13l-17 24l-13 11l30 106l24 16h32l-9 8l-17 24l-12 12l30 106zM294 461h-99l-13 -9l-26 -90l9 -8h99l-17 -59h-99l-14 -9l-26 -90
l9 -8h99l-27 -94q-4 -14 -2 -30t8 -29.5t16 -23t24 -9.5h475q13 0 28.5 9.5t30 23t25 29.5t14.5 30l25 88l-5 14h-136l-18 -15l-12 -40h-301l14 47h212l14 8l26 90l-9 9h-212l17 59h212l14 8l26 90l-10 9h-212l14 49h301l-12 -42l10 -15h136l13 14l25 88q4 13 2 29.5t-8 30
t-16 23t-23 9.5h-475q-14 0 -29.5 -9.5t-30 -23t-25 -30t-14.5 -29.5z" />
    <glyph glyph-name="FL201Ah" unicode="&#x201a;" horiz-adv-x="286" 
d="M16 -73l61 211l25 17h143l19 -17l-2 -4l25 -34l-36 -126q-5 -15 -18 -32.5t-30 -33.5t-35 -26.5t-31 -10.5h-80l-24 34h-4zM104 140l-15 -10l-56 -196l8 -14h74q11 0 26 9.5t29.5 23t26 29.5t15.5 29l34 119l-11 10h-131z" />
    <glyph glyph-name="FL00A8h" unicode="&#x192;" horiz-adv-x="809" 
d="M222 646l27 16h143l19 -15l-2 -5l24 -34l-57 -199h269l13 -19l-1 -3l9 -12l78 272l26 15h144l19 -15l-2 -5l24 -34l-181 -633l-20 -22h-150l-25 34h-4l-14 23l56 196h-264l-24 34h-1l-76 -265l-20 -22h-150l-25 34h-4l-13 22zM772 647l-17 -9l-178 -621l10 -15h137l13 14
l178 622l-11 9h-132zM251 647l-16 -9l-178 -621l9 -15h136l13 14l178 622l-11 9h-131zM641 383l-7 11h-258l-13 -11l-34 -117l7 -11h258l13 11z" />
    <glyph glyph-name="FL201Eh" unicode="&#x201e;" horiz-adv-x="498" 
d="M226 -72l2 5q-20 -24 -45.5 -43t-44.5 -19h-80l-24 34h-4l-14 22l61 211l26 17h143l19 -17l-2 -4l16 -22l8 26l27 17h143l19 -17l-2 -4l25 -34l-36 -126q-5 -15 -18 -32.5t-30.5 -33.5t-35.5 -26.5t-31 -10.5h-78l-24 34h-4zM316 140l-17 -10l-56 -196l10 -14h72
q12 0 27.5 9.5t30 23t26 29.5t15.5 29l34 119l-11 10h-131zM105 140l-16 -10l-56 -196l9 -14h73q12 0 27 9.5t29.5 23t26 29.5t15.5 29l34 119l-11 10h-131z" />
    <glyph glyph-name="FL2026h" unicode="&#x2026;" horiz-adv-x="748" 
d="M269 10l37 128l27 16h144l19 -16l-2 -4l25 -34l-36 -125l-20 -22h-150l-25 34h-4zM40 9l37 129l26 16h143l19 -16l-2 -4l25 -34l-36 -125l-20 -22h-150l-25 34h-4zM500 10l37 128l26 16h143l19 -16l-2 -4l25 -34l-36 -125l-20 -22h-149l-25 34h-4zM335 140l-17 -10
l-32 -113l10 -15h137l13 14l32 114l-11 10h-132zM105 140l-16 -10l-32 -113l9 -15h136l13 14l32 114l-11 10h-131zM565 140l-17 -10l-32 -113l10 -15h136l13 14l32 114l-11 10h-131z" />
    <glyph glyph-name="FL2020h" unicode="&#x2020;" horiz-adv-x="522" 
d="M207 537h100l32 110l27 15h144l19 -15l-2 -5l23 -34l-20 -71h66l13 -18l-1 -3l13 -18l11 -17l-37 -129l-21 -17h-102l-103 -360l-20 -22h-149l-25 34h-4l-15 23l93 325h-62l-24 34h-4l-11 19l38 131zM318 523h-107l-12 -11l-34 -117l6 -11h107l-105 -367l10 -15h137
l13 14l105 368h107l13 11l34 117l-7 11h-107l33 115l-11 9h-132l-17 -9z" />
    <glyph glyph-name="FL2021h" unicode="&#x2021;" horiz-adv-x="522" 
d="M207 537h100l32 110l27 15h144l19 -15l-2 -5l23 -34l-20 -71h66l13 -18l-1 -3l13 -18l11 -17l-37 -129l-21 -17h-102l-16 -55h66l13 -19l-1 -3l13 -18l11 -17l-36 -127l-21 -17h-102l-30 -104l-20 -22h-149l-25 34h-4l-15 23l20 69h-62l-25 34h-4l-10 19l37 129l21 19
h100l16 55h-62l-24 34h-4l-11 19l38 131zM318 523h-107l-12 -11l-34 -117l6 -11h107l-34 -119h-107l-12 -11l-33 -115l6 -11h107l-32 -111l10 -15h137l13 14l32 112h107l13 11l33 115l-7 11h-107l34 119h107l13 11l34 117l-7 11h-107l33 115l-11 9h-132l-17 -9z" />
    <glyph glyph-name="FL02C6h" unicode="&#x2c6;" horiz-adv-x="549" 
d="M496 713l-1 2l-36 -37l-28 -12h-145l-24 34h-4l-17 28l121 124l22 14h252l16 -14l6 -13l17 -24l45 -124l-23 -25h-146l-26 13l-22 30h1zM483 782l28 -57h-1l20 -10h137l12 13l-42 114l-11 9h-240l-17 -9l-107 -113l8 -14h136l23 9h-1z" />
    <glyph glyph-name="FL2030h" unicode="&#x2030;" horiz-adv-x="1564" 
d="M199 22l295 276h-282q-14 0 -24 14l-16 23h1q-15 7 -21 26.5t-1 35.5l71 249q3 9 10.5 20.5t17.5 21.5t21.5 17t22.5 7h312q13 0 21.5 -9.5t13.5 -22.5l16 -22q7 -10 9.5 -23.5t-0.5 -25.5l-60 -208l266 249l22 12h181l19 -27l-2 -2l25 -34l-302 -281h285q13 0 21.5 -10
t13.5 -23l15 -21l4 -10q4 9 12 20t17.5 20.5t20.5 15.5t21 6h312q13 0 21 -9.5t13 -22.5l16 -22q7 -10 10 -23.5t-1 -25.5l-71 -249q-3 -9 -10.5 -20t-17.5 -20.5t-21.5 -15.5t-20.5 -6h-312q-16 0 -25 14l-16 24h1q-12 9 -18 20q-4 -9 -11.5 -19.5t-17 -18.5t-19.5 -13.5
t-19 -5.5h-313q-13 0 -24 14l-16 23h1q-15 8 -21.5 27.5t-1.5 35.5l60 208l-258 -239l-23 -19h-186l-25 34h-4zM682 -48h313q7 0 15.5 5t16.5 12.5t14 16.5t8 17l71 249q2 7 1.5 16t-4 17t-9 13t-12.5 5h-313q-8 0 -16.5 -5t-16 -13t-13.5 -17t-8 -16l-71 -249
q-2 -8 -1.5 -16.5t3.5 -16.5t8.5 -13t13.5 -5zM190 347h312q7 0 16 5t16.5 12.5t13.5 16t8 16.5l71 249q4 15 -3 33t-22 18h-312q-7 0 -15.5 -5t-16 -13t-13.5 -17t-8 -16l-71 -249q-5 -15 2.5 -32.5t21.5 -17.5zM1120 -49h312q7 0 16 5t16.5 12.5t13.5 16t8 16.5l72 249
q4 15 -3.5 33t-22.5 18h-312q-7 0 -15.5 -5t-16 -13t-13 -17t-7.5 -16l-72 -249q-4 -15 3 -32.5t21 -17.5zM879 638l-663 -619l4 -17h173l18 15l662 617l-9 13h-168zM841 183h127l-31 -110h-127zM348 577h127l-31 -110h-127zM1279 181h126l-32 -110h-126zM876 134l-13 -46
h63l13 46h-63zM383 528l-13 -46h63l13 46h-63zM1314 132l-13 -46h62l13 46h-62z" />
    <glyph glyph-name="FL0160h" unicode="&#x160;" horiz-adv-x="761" 
d="M137 347l59 209q4 15 17 34t30 35t36 27t35 11h558l6 -15l19 -25l8 -20l-35 -121l-21 -21h-458l-15 -52h352q17 0 30.5 -13t20.5 -32l14 -18q13 -17 17 -39t-2 -42l-60 -208q-4 -15 -16.5 -33t-29 -34t-34.5 -26.5t-33 -10.5h-559l-25 34h-4l-7 24l35 122l22 23h458
l14 51h-349q-22 0 -39 23l-15 19q-10 7 -17 19t-10.5 25.5t-4 27.5t2.5 26zM211 556l-59 -209q-4 -13 -2.5 -29t7.5 -30t16 -23.5t24 -9.5h400l-33 -114h-463l-13 -14l-32 -112l4 -13h552q13 0 28.5 9.5t30 23t25 29.5t14.5 30l60 208q4 13 2 29.5t-8 30t-16.5 23t-23.5 9.5
h-401l33 116h463l14 14l32 111l-5 13h-550q-14 0 -29.5 -9.5t-29.5 -23t-25 -30t-15 -29.5zM583 860l6 -15l18 -23v-2l39 41l29 12h145l19 -27l-2 -3l8 -10l17 -25l-120 -123l-21 -13h-250l-14 12l-18 23l-13 12l-45 126l26 28h150zM596 790l-27 58h1l-20 10h-138l-13 -13
l42 -115l11 -10h241l17 10l108 114l-9 14h-135l-23 -9h1z" />
    <glyph glyph-name="FL2039h" unicode="&#x2039;" horiz-adv-x="538" 
d="M111 327l346 323l22 12h180l19 -27l-2 -2l24 -35l-329 -308l152 -305l-25 -32h-185l-25 34h-4l-13 20zM464 638l-332 -311l154 -310l10 -15h172l12 17l-151 308l328 307l-9 13h-167z" />
    <glyph glyph-name="FL0152h" unicode="&#x152;" horiz-adv-x="1233" 
d="M1220 390l-1 -3l13 -18l11 -17l-37 -129l-21 -17h-357l-24 34h-2l-24 -84h420l6 -16l18 -24l9 -21l-34 -120l-20 -22h-1029q-23 0 -40 23l-14 20q-10 7 -17.5 18.5t-11.5 25t-4.5 28t3.5 26.5l132 461q4 15 17 34t30 35t36 27t35 11h1030l6 -15l18 -25l9 -20l-35 -120
l-21 -21h-456l-15 -52h357zM125 2h1022l13 14l31 111l-6 14h-461l106 369h461l14 14l32 110l-5 13h-1022q-14 0 -29.5 -9.5t-30 -23t-25 -30t-14.5 -29.5l-132 -461q-4 -14 -2 -30t8 -29.5t16 -23t24 -9.5zM251 141l106 369h314l-106 -369h-314zM392 461l-87 -305h250
l87 305h-250zM1156 255l13 11l34 117l-7 11h-345l-13 -11l-34 -117l7 -11h345z" />
    <glyph glyph-name="FL017Dh" unicode="&#x17d;" horiz-adv-x="707" 
d="M829 641l-1 -4l24 -34l-40 -138l-21 -13l-379 -296h261l6 -16l18 -24l9 -21l-34 -120l-20 -22h-570l-25 34h-4l-13 22l40 140l20 12l386 300h-263l-24 34h-5l-8 23l35 124l19 21h573zM759 499l17 10l36 125l-10 14h-556l-12 -13l-32 -111l5 -14h338l6 -16l-443 -344
l-16 -9l-35 -124l9 -15h556l13 14l31 111l-6 14h-335l-5 15zM556 860l6 -13l18 -25l38 38l30 13h147l17 -28l-1 -1l9 -11l15 -25l-120 -123l-21 -13h-250l-14 12l-18 23l-13 12l-44 126l26 28h149zM570 790l-28 58h1l-20 10h-137l-13 -13l41 -115l11 -10h241l17 10l108 114
l-8 14h-136l-23 -9h1z" />
    <glyph glyph-name="FL2018h" unicode="&#x2018;" horiz-adv-x="286" 
d="M407 638l-1 -4l24 -34l-61 -214l-26 -15h-141l-15 15l-16 22l-13 14l38 131q4 15 17.5 33t30.5 34.5t35.5 27.5t32.5 11h79zM390 631l-10 14h-72q-12 0 -27.5 -9.5t-29.5 -23.5t-25 -30t-15 -29l-36 -123l9 -10h131l17 10z" />
    <glyph glyph-name="FL2019h" unicode="&#x2019;" horiz-adv-x="286" 
d="M159 427l63 217l25 15h143l19 -14l-1 -5l24 -34l-38 -131q-4 -15 -17.5 -33t-30.5 -33.5t-35 -26.5t-31 -11h-80l-24 34h-4zM249 645l-15 -9l-57 -201l7 -15h74q11 0 26 9.5t30 23.5t26.5 29.5t15.5 28.5l35 125l-11 9h-131z" />
    <glyph glyph-name="FL201Ch" unicode="&#x201c;" horiz-adv-x="498" 
d="M619 637l-1 -4l24 -34l-62 -214l-25 -15h-141l-17 15l-18 24l-2 2l-8 -26l-25 -15h-141l-16 15l-16 22l-13 14l37 131q4 15 18 33t31.5 34.5t35.5 27.5t32 11h80l16 -21l-1 -4l24 -34l-2 -7q10 12 22 24t24.5 21.5t25 15t22.5 5.5h80zM602 630l-10 14h-73
q-12 0 -27.5 -9.5t-30 -23.5t-26 -30t-15.5 -29l-35 -123l11 -10h131l17 10zM316 419l17 10l58 201l-10 14h-73q-12 0 -27.5 -9.5t-30 -23.5t-25.5 -30t-15 -29l-35 -123l10 -10h131z" />
    <glyph glyph-name="FL201Dh" unicode="&#x201d;" horiz-adv-x="498" 
d="M370 428l1 5q-20 -24 -45.5 -43t-44.5 -19h-80l-24 34h-4l-14 22l63 217l26 15h143l19 -14l-1 -5l15 -22l8 27l27 14h143l19 -14l-1 -5l24 -34l-38 -131q-4 -15 -17.5 -33t-30.5 -33.5t-35.5 -26.5t-31.5 -11h-78l-24 34h-4zM461 645l-17 -9l-57 -201l9 -15h72
q12 0 27.5 9.5t30.5 23.5t26.5 29.5t15.5 28.5l35 125l-11 9h-131zM250 645l-16 -9l-57 -201l8 -15h73q12 0 27.5 9.5t30 23.5t26 29.5t15.5 28.5l35 125l-11 9h-131z" />
    <glyph glyph-name="FL2022h" unicode="&#x2022;" 
d="M108 -24l-14 20q-10 7 -17.5 18.5t-11.5 25t-4.5 28t3.5 26.5l132 461q4 15 17 34t30 35t36 27t35 11h574q18 0 31.5 -13.5t20.5 -32.5l13 -17q12 -17 16 -39t-1 -41l-133 -462q-4 -15 -16.5 -33t-29 -34t-34.5 -26.5t-33 -10.5h-574q-23 0 -40 23zM125 2h574
q13 0 29 9.5t30 23t24.5 29.5t14.5 30l132 461q4 13 2.5 29.5t-7.5 30t-16.5 23t-23.5 9.5h-574q-14 0 -29.5 -9.5t-30 -23t-25 -30t-14.5 -29.5l-132 -461q-4 -14 -2 -30t8 -29.5t16 -23t24 -9.5z" />
    <glyph glyph-name="FL2013h" unicode="&#x2013;" horiz-adv-x="470" 
d="M518 387l-1 -3l13 -18l11 -16l-36 -128l-21 -17h-334l-24 34h-4l-11 18l37 130l21 19h336zM501 380l-7 11h-321l-12 -11l-33 -116l6 -11h321l13 11z" />
    <glyph glyph-name="FL2014h" unicode="&#x2014;" horiz-adv-x="566" 
d="M614 387l-1 -3l13 -18l11 -16l-36 -128l-21 -17h-430l-24 34h-4l-11 18l37 130l21 19h432zM597 380l-7 11h-417l-12 -11l-33 -116l6 -11h417l13 11z" />
    <glyph glyph-name="FL02DCh" unicode="&#x2dc;" horiz-adv-x="613" 
d="M602 853l7 -14l17 -23v-2l40 40l28 12h146l19 -26l-2 -3l8 -10l17 -25l-119 -123l-22 -13h-190l-26 13l-22 30h1l-8 4l-1 2l-36 -37l-28 -12h-145l-24 34h-4l-17 28l121 124l23 14h192zM616 784l-28 58h1l-19 9h-183l-17 -9l-108 -113l8 -14h136l23 9h-1l55 58l28 -57h-1
l20 -10h183l17 10l108 113l-9 13h-136l-21 -8h1z" />
    <glyph glyph-name="FL2122h" unicode="&#x2122;" horiz-adv-x="366" 
d="M224 548l23 80h-5l-24 33h-6l14 50h137l-2 -5q2 1 6 1l1 4q11 0 25.5 -14.5t19.5 -30.5v1l4 -7q20 29 36 40t35 11h19l-2 -6l24 -34l-44 -156h-36l-12 15q-7 -11 -10 -13t-15 -2t-13 4l-15 21l-7 -25h-36l-25 33h-6l23 80h-5l-32 -113h-42l-24 33h-6zM366 692l-37 -129
h12l25 87l9 9l7 -89q1 -5 2.5 -6t4.5 -1q5 0 6 1t5 6l59 91l3 -11l-25 -87h12l39 133h-4q-14 0 -27.5 -10t-31.5 -40q-7 -14 -11.5 -24t-13.5 -23v11q0 8 -0.5 17.5t-1.5 23.5l1 7q-2 14 -8.5 25t-11.5 13q-2 -2 -8 -2q-1 0 -5 -2zM275 676l-33 -113h18l33 113h45l6 20h-107
l-6 -20h44z" />
    <glyph glyph-name="FL0161h" unicode="&#x161;" horiz-adv-x="761" 
d="M137 347l59 209q4 15 17 34t30 35t36 27t35 11h558l6 -15l19 -25l8 -20l-35 -121l-21 -21h-458l-15 -52h352q17 0 30.5 -13t20.5 -32l14 -18q13 -17 17 -39t-2 -42l-60 -208q-4 -15 -16.5 -33t-29 -34t-34.5 -26.5t-33 -10.5h-559l-25 34h-4l-7 24l35 122l22 23h458
l14 51h-349q-22 0 -39 23l-15 19q-10 7 -17 19t-10.5 25.5t-4 27.5t2.5 26zM211 556l-59 -209q-4 -13 -2.5 -29t7.5 -30t16 -23.5t24 -9.5h400l-33 -114h-463l-13 -14l-32 -112l4 -13h552q13 0 28.5 9.5t30 23t25 29.5t14.5 30l60 208q4 13 2 29.5t-8 30t-16.5 23t-23.5 9.5
h-401l33 116h463l14 14l32 111l-5 13h-550q-14 0 -29.5 -9.5t-29.5 -23t-25 -30t-15 -29.5zM583 860l6 -15l18 -23v-2l39 41l29 12h145l19 -27l-2 -3l8 -10l17 -25l-120 -123l-21 -13h-250l-14 12l-18 23l-13 12l-45 126l26 28h150zM596 790l-27 58h1l-20 10h-138l-13 -13
l42 -115l11 -10h241l17 10l108 114l-9 14h-135l-23 -9h1z" />
    <glyph glyph-name="FL203Ah" unicode="&#x203a;" horiz-adv-x="537" 
d="M428 650l9 -19l17 -22l157 -319l-340 -318l-23 -19h-186l-25 34h-4l-8 35l326 305l-152 308l35 27h180zM219 2l18 15l331 310l-153 311l-11 9h-167l-17 -13l151 -307l-329 -308l4 -17h173z" />
    <glyph glyph-name="FL0153h" unicode="&#x153;" horiz-adv-x="1233" 
d="M1220 390l-1 -3l13 -18l11 -17l-37 -129l-21 -17h-357l-24 34h-2l-24 -84h420l6 -16l18 -24l9 -21l-34 -120l-20 -22h-1029q-23 0 -40 23l-14 20q-10 7 -17.5 18.5t-11.5 25t-4.5 28t3.5 26.5l132 461q4 15 17 34t30 35t36 27t35 11h1030l6 -15l18 -25l9 -20l-35 -120
l-21 -21h-456l-15 -52h357zM125 2h1022l13 14l31 111l-6 14h-461l106 369h461l14 14l32 110l-5 13h-1022q-14 0 -29.5 -9.5t-30 -23t-25 -30t-14.5 -29.5l-132 -461q-4 -14 -2 -30t8 -29.5t16 -23t24 -9.5zM251 141l106 369h314l-106 -369h-314zM392 461l-87 -305h250
l87 305h-250zM1156 255l13 11l34 117l-7 11h-345l-13 -11l-34 -117l7 -11h345z" />
    <glyph glyph-name="FL017Eh" unicode="&#x17e;" horiz-adv-x="707" 
d="M829 641l-1 -4l24 -34l-40 -138l-21 -13l-379 -296h261l6 -16l18 -24l9 -21l-34 -120l-20 -22h-570l-25 34h-4l-13 22l40 140l20 12l386 300h-263l-24 34h-5l-8 23l35 124l19 21h573zM759 499l17 10l36 125l-10 14h-556l-12 -13l-32 -111l5 -14h338l6 -16l-443 -344
l-16 -9l-35 -124l9 -15h556l13 14l31 111l-6 14h-335l-5 15zM556 860l6 -13l18 -25l38 38l30 13h147l17 -28l-1 -1l9 -11l15 -25l-120 -123l-21 -13h-250l-14 12l-18 23l-13 12l-44 126l26 28h149zM570 790l-28 58h1l-20 10h-137l-13 -13l41 -115l11 -10h241l17 10l108 114
l-8 14h-136l-23 -9h1z" />
    <glyph glyph-name="FL0178h" unicode="&#x178;" horiz-adv-x="767" 
d="M613 387l-1 -3l10 -14l80 278l26 15h143l19 -15l-2 -5l25 -34l-159 -552q-4 -15 -16.5 -33t-29 -34t-34.5 -26.5t-33 -10.5h-565l-25 34h-4l-7 24l35 122l22 23h464l15 52h-354q-13 0 -22.5 6t-17.5 16l-14 20q-10 7 -17.5 19t-11 25.5t-4 27.5t2.5 26l86 299l26 16h143
l19 -15l-2 -5l25 -34l-57 -199h220zM101 141l-13 -14l-32 -112l4 -13h558q13 0 28.5 9.5t30 23t25 29.5t14.5 30l156 545l-11 9h-131l-17 -9l-143 -498h-469zM596 380l-10 15h-262l70 244l-11 9h-131l-16 -9l-83 -291q-4 -13 -2.5 -29t7.5 -30t16 -23.5t24 -9.5h348l19 15z
M354 728l36 128l28 17h143l18 -17l-1 -4l25 -34l-36 -125l-20 -21h-150l-24 33h-4zM616 728l36 128l28 17h142l18 -17l-1 -4l25 -34l-36 -125l-20 -21h-148l-25 33h-4zM420 858l-17 -10l-32 -113l9 -15h136l13 14l33 114l-11 10h-131zM682 858l-17 -10l-32 -113l9 -15h135
l13 14l33 114l-11 10h-130z" />
    <glyph glyph-name="space" unicode="&#xa0;" horiz-adv-x="423" 
 />
    <glyph glyph-name="FL00A1h" unicode="&#xa1;" horiz-adv-x="286" 
d="M234 633l16 14h136l5 -13l-33 -114l-17 -10h-131l-9 10zM221 640l-37 -128l13 -14l15 -22l16 -15h141l25 15l37 126l-9 20l-18 25l-6 15h-151zM174 427l17 15h136l5 -14l-120 -416l-16 -10h-131l-10 10zM162 435l-124 -431l13 -13l16 -23l16 -15h141l25 15l122 427l-7 22
l-19 25l-5 15h-153z" />
    <glyph glyph-name="FL00A2h" unicode="&#xa2;" horiz-adv-x="761" 
d="M137 347l43 150q4 15 17 33.5t29.5 34.5t35.5 27t35 11h148l13 44l27 15h144l17 -16l-1 -4l24 -34l-1 -5h188l5 -15l18 -25l8 -22l-34 -119l-21 -21h-81q20 -14 28 -37l14 -18q13 -17 17 -39t-2 -42l-43 -149q-4 -15 -17 -33t-29.5 -34t-34.5 -26.5t-33 -10.5h-153
l-10 -37l-19 -22h-150l-25 34h-4l-15 23v2h-183l-24 34h-4l-7 24l35 121l21 23h81q-9 7 -13 15l-15 20q-10 7 -17 19t-10.5 25.5t-4 27.5t2.5 26zM195 497l-43 -150q-4 -13 -2.5 -29t7.5 -30t16 -23.5t24 -9.5h163l-16 -56h-226l-13 -14l-32 -111l3 -13h228l-12 -44l10 -15
h137l11 13l13 46h165q13 0 29 9.5t30 23t25 29.5t15 30l43 149q4 13 2 29.5t-8 30t-16.5 23t-23.5 9.5h-165l16 56h227l14 14l32 110l-5 14h-228l14 50l-10 9h-132l-17 -9l-14 -50h-163q-14 0 -29.5 -9.5t-29.5 -23t-24.5 -29.5t-14.5 -29zM519 255h78l-16 -56h-78zM323 394
l16 56h77l-16 -56h-77z" />
    <glyph glyph-name="FL00A3h" unicode="&#xa3;" horiz-adv-x="792" 
d="M696 409l13 -19l-1 -3l13 -18l11 -17l-37 -129l-21 -17h-212l-24 34h-1l-24 -84h345l6 -16l18 -24l9 -21l-34 -120l-20 -22h-659l-25 34h-4l-10 19l37 131l22 19h92l14 50h-54l-24 34h-4l-11 19l38 131l21 19h92l42 146q4 15 17 34t30 35t36 27t35 11h232l6 -15l18 -25
l9 -20l-35 -120l-21 -21h-131l-15 -52h211zM273 394h-99l-12 -11l-34 -117l6 -11h99l-33 -114h-99l-12 -11l-33 -117l6 -11h645l13 14l31 111l-6 14h-386l106 369h136l14 14l32 110l-5 13h-224q-14 0 -29.5 -9.5t-30 -23t-25 -30t-14.5 -29.5zM692 383l-7 11h-200l-13 -11
l-34 -117l7 -11h200l13 11z" />
    <glyph glyph-name="FL00A4h" unicode="&#xa4;" horiz-adv-x="779" 
d="M428 650l9 -18l17 -23l44 -90h58l142 131l22 12h180l19 -27l-2 -2l24 -35l-205 -192l-67 -234l95 -187l-25 -32h-186l-24 34h-4l-13 19l-50 98h-49l-142 -132l-23 -19h-186l-25 34h-4l-8 35l202 188l67 233l-95 192l35 27h180zM482 504l-67 134l-11 9h-167l-17 -13
l91 -185l-71 -245l-198 -185l4 -17h173l18 15l146 136h75l69 -136l10 -15h172l12 17l-92 184l71 246l198 185l-9 13h-167l-17 -9l-144 -134h-79zM423 383h127l-32 -110h-127zM458 334l-13 -46h63l13 46h-63z" />
    <glyph glyph-name="FL00A5h" unicode="&#xa5;" horiz-adv-x="809" 
d="M249 202h19l-11 15h-4l-11 19l37 130l22 19h34l-121 249l34 28h181l14 -12l9 -18l17 -23l62 -128l181 168l22 13h181l19 -27l-2 -2l24 -35l-245 -228l3 -4l-1 -3l13 -18l11 -17l-37 -128l-21 -17h-18v-3l13 -17l11 -17l-37 -129l-21 -16h-107l-7 -26l-20 -22h-149l-25 34
h-4l-10 14h-76l-24 34h-4l-12 18l37 130zM366 187h-114l-13 -10l-34 -117l7 -10h114l-9 -33l10 -15h136l13 14l9 34h113l13 10l34 117l-7 10h-113l13 45h113l13 11l33 116l-7 11h-60l283 264l-9 13h-168l-16 -9l-199 -185l-91 185l-11 9h-168l-16 -13l129 -264h-60l-13 -11
l-33 -116l7 -11h114z" />
    <glyph glyph-name="FL00A6h" unicode="&#xa6;" horiz-adv-x="286" 
d="M6 -108l249 867l26 17h143l18 -17l-2 -4l25 -34l-248 -863l-20 -22h-150l-24 34h-4zM282 761l-15 -10l-244 -851l8 -15h136l13 14l244 852l-11 10h-131z" />
    <glyph glyph-name="FL00A7h" unicode="&#xa7;" horiz-adv-x="761" 
d="M109 250l98 344q4 15 17 34t30 35t36 27t35 11h559l5 -15l19 -25l7 -22l-34 -119l-21 -21h-81q20 -13 28 -37l14 -18q13 -17 17 -39t-2 -42l-99 -344q-4 -15 -16.5 -33t-29 -34t-34.5 -26.5t-33 -10.5h-559l-25 34h-4l-7 24l35 122l22 23h81q-10 6 -14 15l-14 20
q-10 7 -17.5 18.5t-11 25t-4 27.5t2.5 26zM222 594l-98 -344q-4 -13 -2 -29t8 -29.5t16 -23t24 -9.5h400l-16 -56h-463l-13 -14l-33 -112l4 -13h552q13 0 28.5 9.5t30 23t25 29.5t14.5 30l99 344q4 13 2 29.5t-8 30t-16.5 23t-23.5 9.5h-401l16 56h463l14 14l32 110l-5 14
h-550q-14 0 -29.5 -9.5t-29.5 -23t-25 -30t-15 -29.5zM295 297l16 56h314l-16 -56h-314z" />
    <glyph glyph-name="FL00AAh" unicode="&#xa8;" horiz-adv-x="549" 
d="M244 722l37 128l26 16h143l19 -16l-1 -4l24 -34l-36 -124l-20 -22h-150l-24 34h-4zM505 723l37 127l27 16h142l19 -16l-1 -4l24 -34l-36 -124l-20 -22h-148l-24 34h-4zM309 851l-16 -9l-32 -112l9 -15h136l13 14l32 113l-11 9h-131zM571 851l-17 -9l-32 -112l10 -15h135
l13 14l32 113l-11 9h-130z" />
    <glyph glyph-name="FL00A9h" unicode="&#xa9;" horiz-adv-x="303" 
d="M295 543q-23 0 -33.5 14.5t-2.5 40.5q8 27 26 41t42 14q31 0 34 -29l-15 -3q-3 19 -22 19q-36 0 -49 -42q-10 -40 23 -40q26 0 40 24l13 -4q-21 -35 -56 -35zM335 682q-21 0 -44.5 -10.5t-41.5 -32.5q-16 -22 -22 -41q-5 -21 -1 -40q6 -17 21 -29l7 -3q28 -9 33 -9
q19 0 43 11q20 8 40 31q18 21 22 39q7 22 1.5 41.5t-23.5 31.5q-17 11 -35 11zM339 696q23 0 42 -13q23 -15 27 -40q7 -18 -1 -45q-6 -23 -27 -48q-9 -11 -20 -18.5t-26 -16.5h1q-26 -9 -38.5 -11t-13.5 -2q-26 0 -46 13h1q-9 8 -15 16t-11 20v-1q-5 21 1 48q5 14 11.5 25.5
t15.5 23.5l-1 -1q11 12 22 21.5t25 15.5q27 13 53 13zM343 710q-15 0 -28.5 -2.5t-30.5 -10.5q-19 -9 -30 -17.5t-19 -16.5q-14 -18 -23 -33.5t-14 -31.5q-4 -15 -4 -29q0 -13 2 -26q5 -15 12.5 -24.5t18.5 -19.5l9 -12q7 -11 16 -19l1 -1q0 1 1 0q22 -14 52 -14q1 0 14.5 2
t41.5 12l28 18t23 22h1q13 14 21 28.5t11 26.5q9 29 1 54l-1 1v-1q-2 8 -4.5 12.5t-4.5 9.5l-6 8v-1l-8 11q-3 4 -3 8q-5 11 -17 25h1q-29 21 -61 21z" />
    <glyph glyph-name="FL00ABh" unicode="&#xaa;" horiz-adv-x="895" 
d="M567 374l52 -217v-1h-226zM840 38l-1 -18q-2 -5 -6 -11.5t-7 -6.5h-492l-9 10l34 116l14 13h249q7 0 10 9l3 12l-69 291l-6 -1l-357 -450h-157q-8 0 -5 12l4 14q2 5 4 9t8 11l490 599h144zM33 -12l22 -31q3 -4 14 -4h163l96 120l-20 -68l14 -18h3l13 -18l13 -16h498
q9 0 18 12t11 20l1 20l-151 618l-21 28l-1 -1l-1 12h-162l-499 -608q-8 -8 -10 -13t-4 -13l-4 -14q-3 -10 -3 -17t11 -9h-1z" />
    <glyph glyph-name="FL00ACh" unicode="&#xab;" horiz-adv-x="892" 
d="M111 327l346 323l22 12h181l19 -27l-2 -2l24 -35l-329 -308l152 -305l-25 -32h-186l-25 34h-4l-13 20zM463 327l347 322l22 13h181l19 -27l-2 -2l24 -35l-330 -308l153 -305l-25 -32h-188l-24 34h-4l-11 19zM818 638l-334 -311l156 -310l9 -15h173l12 17l-152 308
l329 307l-9 13h-168zM464 638l-332 -311l154 -310l10 -15h173l12 17l-152 308l329 307l-9 13h-168z" />
    <glyph glyph-name="FL00ADh" unicode="&#xac;" horiz-adv-x="525" 
d="M170 408h393l11 -19l-1 -1l15 -20l9 -17l-74 -258l-21 -15h-129l-11 15l-13 18h-3l-14 18l22 77h-204l-24 34h-4l-11 18l38 131zM557 382l-6 11h-377l-12 -11l-34 -117l6 -11h249l-34 -118l8 -10h116l13 10z" />
    <glyph glyph-name="FL00AEh" unicode="&#xad;" horiz-adv-x="382" 
d="M431 387l-1 -3l13 -18l11 -16l-36 -128l-21 -17h-248l-23 34h-4l-11 18l37 130l21 19h249zM414 380l-7 11h-234l-12 -11l-33 -116l6 -11h234l13 11z" />
    <glyph glyph-name="FL00AFh" unicode="&#xae;" horiz-adv-x="303" 
d="M379 626v-3q-1 -1 0 -2l-5 7l1 -1h1q2 0 3 -1zM295 637l-10 -35h21q16 0 22.5 4.5t9.5 13.5q3 12 -6 16h1q0 1 -18 1h-20zM283 649h35q18 0 23 -3q5 -2 12 -9q4 -9 1 -16q-3 -11 -13 -19t-24 -9l-1 -2q5 -3 6.5 -7t5.5 -9q2 -4 4 -10l7 -19h-19l-4 15q-4 19 -12 25h1
q-3 4 -13 4h-11l-12 -44h-15zM335 682q-21 0 -44.5 -10.5t-41.5 -32.5q-16 -22 -22 -41v-8v-7v-10q0 -5 -1 -15q3 -17 21 -29l7 -3q28 -9 33 -9q19 0 43 11q28 14 39 28q12 19 14.5 25.5t8.5 16.5q7 22 1.5 41.5t-23.5 31.5q-17 11 -35 11zM339 696q23 0 42 -13
q23 -15 27 -40q7 -18 -1 -45q-6 -23 -27 -48q-15 -21 -45 -35q-23 -10 -37 -11.5t-15 -1.5q-28 0 -45 13q-15 12 -26 36v-1q-5 21 1 48q5 14 11.5 25.5t15.5 23.5l-1 -1q11 12 22 21.5t25 15.5q27 13 53 13zM343 710q-15 0 -28.5 -2.5t-30.5 -10.5q-19 -9 -30 -17.5
t-19 -16.5q-14 -18 -23 -33.5t-14 -31.5q-4 -15 -4 -29q0 -13 2 -26q10 -27 28 -42l1 -2l11 -14q7 -9 17 -18q19 -14 53 -14q1 0 15.5 1.5t39.5 12.5q16 7 29.5 17t22.5 23h1q13 14 21 28.5t11 26.5q9 29 1 54l-1 1v-1q-2 8 -4.5 12.5t-4.5 9.5l-15 19v2v2q-2 2 -2 3
q-5 11 -17 25h1q-29 21 -61 21z" />
    <glyph glyph-name="FL00B0h" unicode="&#xaf;" horiz-adv-x="591" 
d="M715 650v-3l12 -18l11 -17l-36 -127l-21 -17h-456l-24 34h-4l-11 19l37 129l22 18h458zM698 643l-7 10h-443l-12 -10l-33 -115l6 -11h443l13 11z" />
    <glyph glyph-name="FL00B2h" unicode="&#xb0;" horiz-adv-x="286" 
d="M468 850l-1 -4l24 -34l-36 -125l-26 -21h-150l-23 34h-4l-7 24l36 126l25 16h143zM450 842l-11 9h-131l-15 -9l-32 -114l2 -13h137l18 15zM389 805l-12 -42l-8 -7h-46l-3 8l12 41l6 4h46z" />
    <glyph glyph-name="FL00B1h" unicode="&#xb1;" horiz-adv-x="525" 
d="M98 156h161l-7 8l-13 17h-3l-14 18l22 78h-74l-24 34h-4l-10 19l37 130l21 19h112l32 111l24 18h131l14 -18l-1 -4l23 -34l-21 -73h79l11 -19v-1l14 -20l9 -17l-37 -128l-19 -17h-115l-32 -113l-11 -8h88l10 -19v-1l14 -20l9 -17l-37 -129l-18 -17h-391l-25 34h-4l-10 19
l37 131zM361 593l-14 -10l-34 -119h-119l-12 -11l-33 -116l5 -11h119l-34 -120l8 -10h117l14 10l34 120h119l13 11l33 116l-6 11h-119l34 119l-8 10h-117zM484 130l-6 11h-377l-12 -11l-33 -117l6 -11h377l12 11z" />
    <glyph glyph-name="FL00B3h" unicode="&#xb2;" horiz-adv-x="518" 
d="M206 590l32 112l27 17h306q13 0 21.5 -9.5t13.5 -22.5l17 -24q6 -10 8.5 -23t-0.5 -24l-22 -74l-84 -53h12l18 -17l-1 -4l24 -34l-31 -108l-20 -21h-314q-13 0 -22 12l-17 24h1q-16 7 -21.5 27t-0.5 36l21 74l83 56h-9l-24 34h-4zM267 704l-16 -10l-28 -96l9 -15h122
l-167 -113l-19 -66q-2 -8 -1.5 -16.5t3.5 -16.5t8.5 -13t12.5 -5h306l13 14l28 97l-11 10h-129l175 112l19 67q4 15 -3 33t-22 18h-300z" />
    <glyph glyph-name="FL00B5h" unicode="&#xb3;" horiz-adv-x="789" 
d="M752 234l-8 12l15 11l14 -6zM581 319h39l-3 45zM767 294l27 94l27 -7l-37 -89zM124 252l46 126l19 3l-41 -120zM484 258l47 123l22 6l-42 -122zM357 323q0 2 0.5 4.5t0.5 4.5q1 2 0.5 3.5t0.5 3.5q-6 15 -17 15q-21 0 -46 -40l-3 -9q-9 -31 11 -31q10 0 33 12
q9 10 12.5 17.5t7.5 19.5zM271 359q-1 1 -6 1q-13 0 -36 -17q-23 -23 -32 -52q-8 -27 18 -27q14 0 20 2l-3 -18q-2 -1 -4 -1.5t-5 -1.5q-6 -2 -14 -2q-33 0 -27 56q-3 0 0 7l2 8q16 57 102 72l-11 -29zM678 324l-18 -64l-19 -2l34 120l42 -80l30 89l14 -6l-35 -122
q-26 2 -48 65zM408 318l-18 -62l-19 -4l35 121l44 -78l29 85l15 -4l-35 -122q-25 1 -51 64zM590 294q-13 0 -37 -30h-23q13 31 33.5 61t48.5 61q3 5 17 5q19 0 18 -40l-26 -91l-11 4q-5 30 -20 30zM382 342q-36 -88 -66 -88q-2 0 -3.5 -0.5t-3.5 -0.5q-4 -1 -14 -1
q-29 0 -32 19q22 81 74 110h11q37 0 34 -39zM841 393l-56 14l-6 -21l-1 1l1 5l-40 16l-23 -65l-14 32l-17 22l-12 25l-12 -43q-5 27 -28 27q-17 0 -28 -8v1q-3 -3 -6 -7.5t-8 -9.5l-4 -4l-15 23l3 7l-54 -15l-7 -16l-3 6l1 5l-41 12l-23 -64l-16 33l-13 17l-15 31l-12 -39
q-11 18 -39 18h-17q-7 -4 -12.5 -7.5t-10.5 -7.5l-10 16l3 7q-57 -11 -86 -28l-13 16l3 6l-50 -6l-58 -163l5 2l25 -34l52 19l4 12l15 -21q10 -13 29 -13q4 0 7.5 0.5t9.5 2.5l7.5 1.5t11.5 2.5l4 27l9 -11q11 -14 37 -14q12 0 15 1h2q1 0 2 0.5t2 0.5q16 0 30 13l13 -17
l44 8l10 35l6 -9q22 -30 52 -30l43 12l2 -2h44q6 8 12 14.5l11 11.5l18 -25l30 -9l1 1l40 4l10 37l9 -12q15 -23 36 -27l23 -31l48 38l-19 26l15 -1l47 112l-26 34z" />
    <glyph glyph-name="FL00B4h" unicode="&#xb4;" horiz-adv-x="302" 
d="M242 727l105 125l35 14h148l5 -15v1l20 -25l9 -25l-117 -124l-20 -12h-147l-23 34h-5zM381 851l-26 -9l-94 -113l5 -14h134l17 10l106 114l-5 12h-137z" />
    <glyph glyph-name="FL00BCh" unicode="&#xb5;" 
d="M682 409l13 -19l-1 -3l9 -14l79 274l27 15h143l19 -15l-2 -5l24 -34l-158 -551q-4 -15 -16.5 -33t-29 -34t-34.5 -26.5t-33 -10.5h-574q-23 0 -40 23l-14 20q-10 7 -17.5 18.5t-11.5 25t-4.5 28t3.5 26.5l158 552l27 16h143l19 -15l-2 -5l24 -34l-57 -199h306zM125 2h574
q13 0 29 9.5t30 23t24.5 29.5t14.5 30l156 544l-11 9h-131l-17 -9l-143 -497h-401l143 497l-11 9h-131l-16 -9l-156 -544q-4 -14 -2 -30t8 -29.5t16 -23t24 -9.5zM678 383l-7 11h-295l-13 -11l-34 -117l7 -11h295l13 11zM353 206l-24 34h-1l-24 -84h337l14 50h-302z" />
    <glyph glyph-name="FL0C3Dh" unicode="&#xb6;" horiz-adv-x="791" 
d="M753 234l-8 12l15 11l14 -6zM582 319h38l-2 45zM768 294l27 94l27 -7l-37 -89zM124 252l47 126l19 3l-41 -120zM485 258l46 123l22 6l-42 -122zM358 323q0 2 0.5 4.5t0.5 4.5q1 2 0.5 3.5t0.5 3.5q-6 15 -18 15q-20 0 -45 -40l-3 -9q-9 -31 10 -31q10 0 35 13
q8 8 11.5 16t7.5 20zM272 359q-1 1 -6 1q-14 0 -37 -17q-22 -22 -31 -52q-8 -27 17 -27q15 0 21 2l-3 -18q-4 -1 -10 -3q-4 -1 -7 -1.5t-7 -0.5q-32 0 -26 56q-3 0 0 7l2 8q16 57 102 72l-11 -29zM679 324l-18 -64l-19 -2l34 120l41 -80l30 89l15 -6l-35 -122q-26 2 -48 65z
M409 318l-18 -62l-19 -4l35 121l44 -78l29 85l15 -4l-35 -122q-25 1 -51 64zM591 294q-13 0 -37 -30h-23q13 31 33.5 61t48.5 61q3 5 17 5q18 0 18 -40l-26 -91l-12 4q-5 30 -19 30zM383 342q-36 -88 -67 -88q-2 0 -3.5 -0.5t-3.5 -0.5q-4 -1 -14 -1q-28 0 -31 19
q22 81 73 110h11q38 0 35 -39zM842 393l-56 14l-7 -22v1l1 5l-41 17l-22 -65l-14 32l-16 21l-13 26l-13 -44q-3 28 -27 28q-17 0 -28 -8v1q-5 -5 -8.5 -9t-8.5 -11l-17 22l3 7l-54 -15l-7 -16l-2 5l1 6l-41 12l-23 -64l-16 33l-13 17l-15 31l-12 -39q-11 18 -40 18h-17
q-7 -4 -11.5 -7.5t-9.5 -6.5l-11 15l3 7q-57 -11 -86 -28l-13 16l3 6l-50 -6l-59 -162l6 2l25 -34l52 18l4 11l15 -21q9 -12 28 -12q8 0 10 1q-2 -1 6 1t14 4q2 1 7 1l4 27l9 -11q11 -14 36 -14q12 0 15 1h2q1 0 2 0.5t2 0.5q15 0 31 14l13 -18l44 8l10 35l7 -10
q21 -29 51 -29l43 12l2 -2h45q6 8 11.5 14.5t10.5 10.5l17 -24l29 -8h2l41 4l10 37l9 -12q15 -23 36 -27l23 -31l48 38l-19 26l15 -1l47 112l-26 34z" />
    <glyph glyph-name="FL00B7h" unicode="&#xb7;" horiz-adv-x="286" 
d="M112 260l37 129l25 17h143l19 -17l-2 -4l25 -33l-36 -125l-20 -22h-150l-24 34h-4zM176 391l-15 -10l-32 -113l8 -15h136l13 14l32 114l-11 10h-131z" />
    <glyph glyph-name="FL00B8h" unicode="&#xb8;" horiz-adv-x="277" 
d="M58 15h161l-1 -6l24 -34l-51 -179l-22 -16h-199l-24 34h-4l-13 18l35 121l23 18h59zM155 -162l46 162h-133l-13 -44h-66l-12 -10l-31 -107l7 -11h188z" />
    <glyph glyph-name="FL00BEh" unicode="&#xb9;" horiz-adv-x="304" 
d="M227 304l-24 33h-4l-16 23l53 184l-16 24h-4l-11 19l33 113l21 19h174l5 -15l19 -25l7 -22l-95 -332l-20 -21h-122zM319 352l13 14l93 324l-5 14h-158l-11 -11l-29 -99l5 -11h35l-62 -216l10 -15h109z" />
    <glyph glyph-name="FL00BAh" unicode="&#xba;" horiz-adv-x="518" 
d="M191 317l-17 24h1q-16 7 -21.5 27t-0.5 36l71 249q3 9 10.5 20.5t17.5 21.5t21.5 17t22.5 7h311q13 0 21.5 -9.5t13.5 -22.5l16 -22q7 -10 9.5 -23.5t-0.5 -25.5l-72 -249q-3 -9 -10.5 -20t-17.5 -20.5t-21.5 -15.5t-20.5 -6h-312q-8 0 -12.5 3.5t-9.5 8.5zM191 353h311
q7 0 16 5t17 12.5t14 16.5t8 17l71 249q4 15 -3 33t-22 18h-311q-7 0 -15.5 -5t-16 -13t-13.5 -17t-8 -16l-71 -249q-2 -8 -1.5 -16.5t3.5 -16.5t8.5 -13t12.5 -5zM349 583h127l-31 -109h-127zM384 534l-13 -45h63l13 45h-63z" />
    <glyph glyph-name="FL00BBh" unicode="&#xbb;" horiz-adv-x="892" 
d="M237 17l-18 -15h-173l-4 17l330 308l-152 307l17 13h167l11 -9l155 -311zM590 17l-18 -15h-174l-4 17l332 308l-154 307l17 13h168l11 -9l155 -311zM437 631l-9 19l-14 12h-180l-35 -27l153 -308l-327 -305l8 -35h4l25 -34h186l23 19l342 318l-159 319zM791 631l-10 19
l-14 12h-181l-35 -27l155 -308l-329 -305l8 -35h4l25 -34h187l23 19l342 318l-159 319z" />
    <glyph glyph-name="FL0192h" unicode="&#xbc;" horiz-adv-x="1068" 
d="M262 207l8 3l4 -6zM259 261l-22 15l28 3zM1002 339l8 17l-4 4l27 -18zM899 235l-8 12l15 11l13 -6zM730 321h37l-3 45zM1008 250l-39 7l18 47q15 -36 21 -54zM915 295l27 95l26 -7l-38 -90zM242 357v-1l2 14l53 -5l-28 -74zM271 253l47 127l19 3l-42 -121zM630 259
l48 124l22 6l-43 -123zM504 325q2 6 2 9q1 2 0.5 3.5t0.5 3.5q-6 15 -19 15q-21 0 -45 -40l-3 -9q-9 -32 10 -32q10 0 36 13q8 8 11.5 16.5t6.5 20.5zM418 361q-1 1 -6 1q-15 0 -37 -17q-11 -11 -19.5 -24.5t-12.5 -28.5q-8 -27 17 -27q14 0 22 2l-4 -18l-9 -3
q-5 -1 -8 -1.5t-7 -0.5q-31 0 -25 56q-2 2 0 8l3 8q17 57 100 72l-10 -29q-2 1 -2.5 1.5t-1.5 0.5zM826 326l-18 -65l-19 -2l35 121l40 -81l30 90l15 -6l-35 -123q-27 1 -48 66zM555 320l-18 -63l-18 -4l35 122l43 -79l30 86l14 -4l-35 -123q-25 1 -51 65zM737 295
q-12 0 -37 -30h-23q14 31 34.5 62t46.5 61q3 5 18 5q19 0 19 -40l-26 -92l-13 4q-3 30 -19 30zM530 344q-36 -89 -68 -89q-2 0 -3.5 -0.5t-3.5 -0.5q-3 -1 -13 -1q-29 0 -32 19q24 83 74 111h11q36 0 35 -39zM287 201l43 16l4 11l15 -21q9 -12 28 -12q9 0 11 1q-2 -1 6.5 1
t14.5 4q1 1 6 1l5 27l9 -11q9 -14 35 -14q12 0 16 1h2q1 0 1.5 0.5t1.5 0.5q16 0 30 13l14 -18l43 9l11 36l6 -9q24 -31 51 -31l45 12l1 -2h44q6 8 11 14t12 11l18 -24l29 -8h2l40 4l10 35l7 -10q13 -23 39 -27l10 -15l-10 -30l-67 28l-86 -83l-41 41l-121 -58l-17 25l-6 15
l-107 -21l-21 29l3 6l-84 3l-23 33l7 4zM970 398l-38 11l-6 -22l-1 1l2 5l-40 17l-22 -65l-15 32l-16 21l-12 27l-13 -45q-9 28 -29 28q-14 0 -22 -5l1 4h-2l-18 -21q-3 -4 -5 -5l-15 22l3 7l-55 -15l-6 -15l-3 5l2 5l-42 12l-22 -64l-17 33l-13 17l-15 31l-11 -39
q-12 18 -41 18h-17l-11 -7.5t-10 -6.5l-11 15l3 7q-29 -5 -50.5 -12.5t-35.5 -15.5l-12 16l3 6l-23 -3l23 57q25 -20 48 -20q15 0 26 7l85 74l36 -38l105 47l26 -33l115 17l-1 -3h7l24 -33h71l-2 -2l11 -4h-1l22 -32l58 -15l-32 -9zM998 325l83 8l-1 15l-87 57l70 20h8
l-2 17l-138 35l64 43h-174l27 49l-176 -27l8 43l-13 5l-135 -63l-38 43l-95 -84q-5 -4 -15 -4q-23 0 -55 32l-41 -101l-80 8l-4 -32l25 -62l-86 -6l92 -65l-82 -35l145 -41l-63 -38l175 -8l-33 -49l172 33l12 -28l-15 -29l149 72l48 -44l88 86l75 -28l35 99l81 -14q2 3 2 4
q0 2 1 3q0 1 1 1q5 18 -28 85zM1104 345l-1 -1l-23 -31h-57l20 -58q0 -5 -1 -6v-1l1 -1l-2 -5q-6 -22 -26 -30l-61 16l-31 -85q-12 -15 -28 -15q-14 0 -24.5 5.5t-25.5 16.5l-10 4l-83 -76h1l-34 -8l-28 43l-143 -70l-17 7l12 42l-169 -28l-15 14l17 35l-161 16l7 23l28 26
l-100 22q-19 0 -11 26l52 36l-62 37l3 34l75 13l-22 54l15 40l75 -8q28 100 57 100h4l64 -28q34 38 56 56.5t42 26.5l47 -40l134 64l19 -23l-10 -20l2 -9l137 29l44 -5l-19 -43h151l10 -15q-11 -36 -36 -39v-2l118 -38l-2 -7q-9 -33 -61 -39q74 -37 72 -55zM1131 402l5 17
l-24 34l1 5l-66 20q2 2 3 6t3 10l-14 21l-10 14l1 3l-16 23h-101l2 2l-25 35l2 5l-63 6l-109 -23l-7 10l2 4l-27 37l-137 -67l-45 40q-26 -11 -50.5 -29.5t-57.5 -52.5l-56 25h-6q-41 0 -72 -99l-73 8l-23 -62l15 -38l-65 -10l-6 -57l8 -6l22 -29l5 -5l-21 -15
q-12 -40 9 -48h-1l21 -27q4 -7 17 -7l32 -8l-8 -29l7 -1h-1l24 -33l118 -12h-1l10 -10l18 -24l22 -21l128 21l22 -29l29 -13l132 64l4 -3l4 1l25 -35l46 10l77 71q17 -11 29 -16.5t29 -5.5q22 0 43 25l26 72l50 -14q34 13 43 43l2 7q-2 1 0 3q0 1 0.5 2.5t0.5 4.5l-16 42h44
l25 35l-1 -1l6 4q3 13 -5 25l-18 24l-1 -1q0 8 -7 18q17 15 21 34z" />
    <glyph glyph-name="FL00BDh" unicode="&#xbd;" horiz-adv-x="933" 
d="M25 22l294 275h-71l-24 34h-4l-16 22l54 186l-17 23h-4l-12 19l32 112l23 19h174l3 -13l1 1l20 -27l6 -23l-78 -273l292 273l22 12h180l19 -27l-2 -2l25 -34l-301 -281h266q13 0 21.5 -10t13.5 -23l15 -21q7 -10 9.5 -23.5t-0.5 -25.5l-21 -73l-85 -54h12l18 -17l-1 -4
l24 -34l-31 -108l-20 -22h-313q-13 0 -24 14l-16 23h1q-15 8 -21.5 27.5t-1.5 35.5l21 74l84 57h-8l-24 34h-4l-15 23l12 43l-282 -262l-23 -19h-186l-25 34h-4zM705 638l-663 -619l4 -17h174l17 15l661 617l-9 13h-167zM602 303l-17 -10l-27 -95l9 -15h123l-169 -114
l-19 -66q-2 -8 -1.5 -16.5t3.5 -16.5t8.5 -13t13.5 -5h306l13 14l28 97l-11 10h-129l175 113l19 66q2 7 1.5 16t-4 17t-9 13t-12.5 5h-301zM340 346l12 13l93 325l-4 13h-158l-13 -11l-28 -98l6 -11h35l-62 -217l10 -14h109z" />
    <glyph glyph-name="FL0D53h" unicode="&#xbe;" horiz-adv-x="1027" 
d="M1069 378l-19 -6l22 -14l1 -9v1l22 -30l5 -33l-79 -8q27 -59 19 -86q-2 0 -2 -1q0 -2 -4 -9l-82 14l-34 -100l-80 30l-91 -89l-49 46l-166 -79l-25 34l-8 -4l13 27l-145 -28l-26 34l-7 -1l14 23l-135 6l-25 33l-13 1l42 25l-85 25l-24 32h1l-15 5l81 34l-54 39l-18 26
l-21 15l106 7l-19 46l7 51l84 -8l46 111q43 -43 62 -43q7 0 9 1h-1l103 92l38 -46l133 62l24 -10l-1 -6l19 -27l159 25l-4 -7l25 -34l-6 -12h150l-9 -6l25 -35l-36 -24l65 -15l2 -11v1l21 -28l9 -37h-24zM975 327l84 8l-2 11l-88 60l74 21h6l-3 13l-140 36l63 42h-170l26 49
l-175 -27l7 43l-10 5l-136 -63l-38 41l-90 -82q-8 -4 -19 -4q-24 0 -55 29l-39 -98l-81 8l-3 -29v1l27 -66l-82 -6l90 -63l-83 -35l146 -40l-63 -37l173 -8l-32 -49l169 33l12 -28l-13 -27l149 71l44 -43l88 85l74 -29l34 99l82 -14q2 5 2.5 6t1.5 2q4 16 -30 85zM512 344
q-37 -91 -70 -91q-2 0 -4 -0.5t-4 -0.5q-3 -1 -13 -1q-29 0 -33 21q24 84 74 113h13q39 0 37 -41zM777 353l-27 -94l-16 4q-3 30 -17 30q-13 0 -37 -30h-26q28 67 85 128v-1q3 5 18 5q20 0 20 -42zM624 380l-36 -127q-29 0 -53 59l-16 -57l-23 -4l38 131l43 -80l28 83z
M891 385l-36 -127q-27 0 -49 60l-17 -59l-22 -2l37 131l40 -83l29 87zM415 390l-12 -35q-3 3 -4 3.5t-3 0.5q0 1 -5 1q-12 0 -35 -17q-22 -23 -29 -51q-7 -25 14 -25q16 0 24 6l-5 -26q-10 -2 -12 -3q-10 -2 -15 -2q-32 0 -26 57l-1 -1v3q0 3 1 7l3 8q17 59 105 74zM482 325
q2 6 2 9q0 1 -0.5 2t0.5 3q-6 15 -16 15q-18 0 -42 -38l-3 -9q-9 -30 7 -30q10 0 34 12h-1q9 10 12.5 17.5t6.5 18.5zM656 385l26 7l-43 -127l-30 -8zM297 382l22 3l-42 -124l-29 -10zM920 392l31 -7l-39 -94l-20 2zM744 361l-31 -38h32zM886 261l18 -9l-26 -21l-11 16z" />
    <glyph glyph-name="FL00BFh" unicode="&#xbf;" horiz-adv-x="746" 
d="M756 434v-3l10 -14l14 -21l-25 -86q-4 -15 -17 -33t-29.5 -33.5t-34.5 -26.5t-33 -11h-323l-14 -50h407l6 -16l18 -24l9 -21l-34 -120l-20 -22h-542q-23 0 -40 23l-14 20q-10 7 -17.5 18.5t-11.5 25t-4.5 28t3.5 26.5l60 208q4 15 17 34t29.5 35t35.5 27t35 11h319l7 25
l22 23h152zM717 347l22 80l-9 15h-136l-13 -14l-10 -34h-334q-14 0 -29.5 -9.5t-29.5 -23t-24.5 -30t-14.5 -29.5l-60 -208q-4 -14 -2 -30t8 -29.5t16 -23t24 -9.5h535l13 14l31 111l-6 14h-448l33 114h335q13 0 28.5 9.5t30 23.5t25.5 30t15 29zM816 640l-2 -4l25 -34
l-37 -126l-25 -15h-141l-17 15l-18 24l-11 12l37 128l22 22h151zM749 510l17 10l33 113l-10 14h-136l-13 -13l-33 -114l11 -10h131z" />
    <glyph glyph-name="FL00C0h" unicode="&#xc0;" horiz-adv-x="895" 
d="M55 -43l-22 31h1q-11 2 -11 9t3 17l4 14q2 8 4 13t10 13l499 609h162l2 -12v1l21 -28l151 -619l-1 -20q-2 -8 -11 -20t-18 -12h-498l-13 16l-13 18h-3l-14 18l20 68l-96 -120h-163q-11 0 -14 4zM839 20l1 18l-149 610h-144l-490 -600q-6 -7 -8 -11t-4 -9l-4 -14
q-3 -12 5 -12h157l357 450l6 1l69 -291l-3 -12q-3 -9 -10 -9h-249l-14 -13l-34 -116l9 -10h492q3 0 7 6.5t6 11.5zM724 859l2 -10l1 1l20 -29l35 -125l-24 -24h-147l-14 12l-18 23l-13 12l-45 126l26 28h151zM619 157l-52 217l-174 -218h226v1zM592 720h135l13 14l-31 114
l-18 10h-139l-13 -13l42 -115z" />
    <glyph glyph-name="FL00C1h" unicode="&#xc1;" horiz-adv-x="895" 
d="M645 848l26 10h138l4 -13l-107 -115l-17 -10h-134l-6 14zM567 374l52 -217v-1h-226zM637 859l-105 -126l11 -28h4l25 -33h146l20 12l117 124l-9 25l-20 26v-1l-5 15h-149zM840 38l-1 -18q-2 -5 -6 -11.5t-7 -6.5h-492l-9 10l34 116l14 13h249q7 0 10 9l3 12l-69 291
l-6 -1l-357 -450h-157q-8 0 -5 12l4 14q2 5 4 9t8 11l490 600h144zM33 -12l22 -31q3 -4 14 -4h163l96 120l-20 -68l14 -18h3l13 -18l13 -16h498q9 0 18 12t11 20l1 20l-151 619l-21 28v-1l-2 12h-162l-499 -609q-8 -8 -10 -13t-4 -13l-4 -14q-3 -10 -3 -17t11 -9h-1z" />
    <glyph glyph-name="FL00C2h" unicode="&#xc2;" horiz-adv-x="895" 
d="M567 374l52 -217v-1h-226zM664 788l-61 -58h1l-26 -10h-138l-5 13l108 115l17 10h241l11 -10l43 -114l-16 -14h-137l-17 9h1zM636 685l35 33l9 -6h-1l22 -28l23 -12h145l29 24l-48 124l-19 26l-5 13l-15 14h-253l-24 -14l-116 -126l9 -28h5l25 -33h147zM840 38l-1 -18
q-2 -5 -6 -11.5t-7 -6.5h-492l-9 10l34 116l14 13h249q7 0 10 9l3 12l-69 291l-6 -1l-357 -450h-157q-8 0 -5 12l4 14q2 5 4 9t8 11l490 600h144zM33 -12l22 -31q3 -4 14 -4h163l96 120l-20 -68l14 -18h3l13 -18l13 -16h498q9 0 18 12t11 20l1 20l-151 619l-21 28v-1l-2 12
h-162l-499 -609q-8 -8 -10 -13t-4 -13l-4 -14q-3 -10 -3 -17t11 -9h-1z" />
    <glyph glyph-name="FL00C3h" unicode="&#xc3;" horiz-adv-x="895" 
d="M55 -43l-22 31h1q-11 2 -11 9t3 17l4 14q2 8 4 13t10 13l499 609h162l2 -12v1l21 -28l151 -619l-1 -20q-2 -8 -11 -20t-18 -12h-498l-13 16l-13 18h-3l-14 18l20 68l-96 -120h-163q-11 0 -14 4zM839 20l1 18l-149 610h-144l-490 -600q-6 -7 -8 -11t-4 -9l-4 -14
q-3 -12 5 -12h157l357 450l6 1l69 -291l-3 -12q-3 -9 -10 -9h-249l-14 -13l-34 -116l9 -10h492q3 0 7 6.5t6 11.5zM712 860l6 -15l18 -23v-2l40 41l28 12h146l19 -27l-2 -3l8 -10l17 -25l-120 -123l-21 -13h-190l-27 13l-21 29h1l-8 4l-2 2l-35 -36l-28 -12h-144l-25 33h-4
l-19 28l122 126l23 14h193zM726 790l-28 58h1l-19 10h-184l-17 -10l-109 -114l9 -14h136l23 9h-1l56 59l27 -58h-1l20 -10h184l17 10l108 114l-9 14h-136l-22 -9h1zM619 157l-52 217l-174 -218h226v1z" />
    <glyph glyph-name="FL00C4h" unicode="&#xc4;" horiz-adv-x="895" 
d="M595 735l-19 -15h-136l-5 14l33 114l17 10h131l11 -10zM879 858l9 -10l-32 -113l-17 -15h-137l-5 14l33 114l17 10h132zM567 374l52 -217v-1h-226zM643 852l1 4l-18 17h-143l-27 -17l-36 -128l7 -23h5l25 -33h149l25 20l37 126zM904 852l1 4l-16 17h-144l-28 -17
l-36 -128l8 -23h5l25 -33h150l23 19l37 127zM840 38l-1 -18q-2 -5 -6 -11.5t-7 -6.5h-492l-9 10l34 116l14 13h249q7 0 10 9l3 12l-69 291l-6 -1l-357 -450h-157q-8 0 -5 12l4 14q2 5 4 9t8 11l490 600h144zM33 -12l22 -31q3 -4 14 -4h163l96 120l-20 -68l14 -18h3l13 -18
l13 -16h498q9 0 18 12t11 20l1 20l-151 619l-21 28v-1l-2 12h-162l-499 -609q-8 -8 -10 -13t-4 -13l-4 -14q-3 -10 -3 -17t11 -9h-1z" />
    <glyph glyph-name="FL00C5h" unicode="&#xc5;" horiz-adv-x="895" 
d="M55 -43l-22 31h1q-11 2 -11 9t3 17l4 14q2 8 4 13t10 13l499 609h162l2 -12v1l21 -28l151 -619l-1 -20q-2 -8 -11 -20t-18 -12h-498l-13 16l-13 18h-3l-14 18l20 68l-96 -120h-163q-11 0 -14 4zM839 20l1 18l-149 610h-144l-490 -600q-6 -7 -8 -11t-4 -9l-4 -14
q-3 -12 5 -12h157l357 450l6 1l69 -291l-3 -12q-3 -9 -10 -9h-249l-14 -13l-34 -116l9 -10h492q3 0 7 6.5t6 11.5zM776 856l-1 -4l25 -34l-37 -126l-25 -20h-150l-25 33h-5l-8 23l36 128l28 17h144zM619 157l-52 217l-174 -218h226v1zM708 720l19 15l32 113l-11 10h-132
l-17 -10l-33 -114l5 -14h137zM697 811l-12 -42l-9 -7h-46l-2 8l12 41l6 4h46z" />
    <glyph glyph-name="FL00C6h" unicode="&#xc6;" horiz-adv-x="1366" 
d="M1353 390l-1 -3l13 -18l11 -17l-37 -129l-21 -17h-358l-24 34h-1l-24 -84h420l6 -16l18 -24l9 -21l-34 -120l-20 -22h-626l-25 34h-4l-86 386l-178 -217h199l8 -18l16 -22l10 -20l-37 -127l-20 -16h-498q-6 0 -9 4l-22 30q-9 2 -10.5 14.5t1.5 21.5l9 20l507 619h162
l1 -12l1 1l21 -28l42 -171l56 195l27 15h622l6 -15l18 -25l9 -20l-35 -120l-21 -21h-452l-6 -8l-13 -44h357zM52 38l-9 -18q-2 -5 -1 -11.5t4 -6.5h492l12 10l34 116l-7 13h-249q-7 0 -4 9l3 12l237 291l6 -1l98 -450h612l13 14l31 111l-6 14h-452l-5 14l98 340l13 15h452
l14 14l32 110l-5 13h-608l-17 -9l-77 -268h-2l-68 277h-144zM1336 383l-7 11h-346l-13 -11l-34 -117l7 -11h346l13 11z" />
    <glyph glyph-name="FL00C7h" unicode="&#xc7;" horiz-adv-x="761" 
d="M657 438l-15 23h-251l-87 -305h251l9 33l28 23h152l4 -15l19 -25l8 -22l-27 -93q-4 -15 -16.5 -33t-29 -34t-34.5 -26.5t-33 -10.5h-143l-46 -159l-20 -15h-203l-25 33h-4l-10 19l35 122h-71q-23 0 -40 23l-14 20q-10 7 -17.5 18.5t-11.5 25t-4.5 28t3.5 26.5l132 462
q4 15 17 34t30 35t36 27t35 11h487q17 0 30 -13t21 -31l14 -19q12 -17 16.5 -39t-1.5 -42l-27 -93l-20 -22h-149l-24 34h-4zM250 141l106 369h314l-12 -42l10 -15h136l13 14l25 89q4 13 2.5 29.5t-7.5 30t-16.5 23t-23.5 9.5h-487q-14 0 -29.5 -9.5t-29.5 -23t-25 -30
t-15 -29.5l-132 -462q-4 -14 -2 -30t8 -29.5t16 -23t24 -9.5h200l-14 -46h-68l-11 -10l-31 -108l5 -11h190l13 10l48 165h155q13 0 28.5 9.5t30 23t25 29.5t14.5 30l25 89l-5 14h-136l-18 -15l-12 -41h-314z" />
    <glyph glyph-name="FL00C8h" unicode="&#xc8;" horiz-adv-x="759" 
d="M746 390l-1 -3l13 -18l11 -17l-37 -128l-21 -17h-358l-24 33h-1l-24 -84h420l6 -16l18 -24l9 -21l-34 -120l-20 -22h-621l-25 34h-4l-13 22l183 638l26 16h621l6 -15l19 -25l8 -20l-35 -121l-21 -21h-452l-6 -8l-13 -44h357zM251 648l-16 -9l-178 -622l9 -15h607l13 14
l31 111l-6 14h-452l-5 14l98 340l13 15h452l14 14l32 111l-5 13h-607zM682 255l13 11l34 117l-7 11h-346l-13 -11l-34 -117l7 -11h346zM657 859l2 -10l1 1l20 -29l34 -125l-24 -24h-146l-14 12l-18 23l-13 12l-45 126l26 28h150zM525 720h134l13 14l-30 114l-19 10h-138
l-13 -13l42 -115z" />
    <glyph glyph-name="FL00C9h" unicode="&#xc9;" horiz-adv-x="759" 
d="M746 390l-1 -3l13 -18l11 -17l-37 -128l-21 -17h-358l-24 33h-1l-24 -84h420l6 -16l18 -24l9 -21l-34 -120l-20 -22h-621l-25 34h-4l-13 22l183 638l26 16h621l6 -15l19 -25l8 -20l-35 -121l-21 -21h-452l-6 -8l-13 -44h357zM251 648l-16 -9l-178 -622l9 -15h607l13 14
l31 111l-6 14h-452l-5 14l98 340l13 15h452l14 14l32 111l-5 13h-607zM682 255l13 11l34 117l-7 11h-346l-13 -11l-34 -117l7 -11h346zM462 733l106 126l34 14h150l5 -15v1l19 -26l9 -25l-116 -124l-20 -12h-147l-25 33h-4zM601 858l-25 -10l-97 -114l6 -14h135l17 10
l107 115l-4 13h-139z" />
    <glyph glyph-name="FL00CAh" unicode="&#xca;" horiz-adv-x="759" 
d="M746 390l-1 -3l13 -18l11 -17l-37 -128l-21 -17h-358l-24 33h-1l-24 -84h420l6 -16l18 -24l9 -21l-34 -120l-20 -22h-621l-25 34h-4l-13 22l183 638l26 16h621l6 -15l19 -25l8 -20l-35 -121l-21 -21h-452l-6 -8l-13 -44h357zM251 648l-16 -9l-178 -622l9 -15h607l13 14
l31 111l-6 14h-452l-5 14l98 340l13 15h452l14 14l32 111l-5 13h-607zM603 718l-2 2l-35 -36l-28 -12h-145l-24 33h-4l-19 28l122 126l23 14h253l16 -14l4 -14l17 -24l46 -125l-23 -24h-146l-27 13l-21 29h1zM682 255l13 11l34 117l-7 11h-346l-13 -11l-34 -117l7 -11h346z
M590 788l27 -58h-1l20 -10h137l12 13l-40 115l-11 10h-241l-17 -10l-109 -114l9 -14h136l23 9h-1z" />
    <glyph glyph-name="FL00CBh" unicode="&#xcb;" horiz-adv-x="759" 
d="M746 390l-1 -3l13 -18l11 -17l-37 -128l-21 -17h-358l-24 33h-1l-24 -84h420l6 -16l18 -24l9 -21l-34 -120l-20 -22h-621l-25 34h-4l-13 22l183 638l26 16h621l6 -15l19 -25l8 -20l-35 -121l-21 -21h-452l-6 -8l-13 -44h357zM251 648l-16 -9l-178 -622l9 -15h607l13 14
l31 111l-6 14h-452l-5 14l98 340l13 15h452l14 14l32 111l-5 13h-607zM682 255l13 11l34 117l-7 11h-346l-13 -11l-34 -117l7 -11h346zM350 728l36 128l28 17h143l18 -17l-1 -4l25 -34l-36 -125l-20 -21h-150l-24 33h-4zM612 728l36 128l28 17h142l18 -17l-1 -4l25 -34
l-36 -125l-20 -21h-148l-25 33h-4zM416 858l-17 -10l-32 -113l9 -15h136l13 14l33 114l-11 10h-131zM678 858l-17 -10l-32 -113l9 -15h135l13 14l33 114l-11 10h-130z" />
    <glyph glyph-name="FL00CCh" unicode="&#xcc;" horiz-adv-x="587" 
d="M40 11l181 630l19 21h457l13 -18l-1 -4l24 -34l-37 -128l-21 -17h-284l-141 -493l-25 -15h-149l-25 34h-4zM246 647l-12 -13l-178 -619l4 -13h137l16 10l143 498h290l13 11l34 116l-7 10h-440z" />
    <glyph glyph-name="FL00CDh" unicode="&#xcd;" horiz-adv-x="587" 
d="M515 16l-13 -14h-136l-12 10l143 498h-290l-6 11l34 116l12 10h440l5 -13zM199 495l24 -34h245l-131 -457l12 -11l18 -25l16 -15h149l20 22l180 627l-9 20l-18 25l-6 15h-455l-22 -18l-38 -130l11 -19h4z" />
    <glyph glyph-name="FL00CEh" unicode="&#xce;" horiz-adv-x="587" 
d="M234 634l12 13h136l11 -9l-143 -497h290l7 -11l-33 -117l-13 -11h-441l-4 13zM221 641l-181 -630l7 -24h4l25 -34h454l20 17l37 129l-11 17l-13 18l1 3l-12 19h-248l129 452l-24 34l2 5l-19 15h-152z" />
    <glyph glyph-name="FL00CFh" unicode="&#xcf;" horiz-adv-x="587" 
d="M78 -47l-25 34h-4l-10 19l37 131l22 19h283l141 491l27 15h150l6 -15l18 -25l9 -20l-180 -627l-20 -22h-454zM502 2l13 14l177 618l-5 13h-136l-17 -9l-143 -497h-290l-12 -11l-33 -117l6 -11h440z" />
    <glyph glyph-name="FL00D0h" unicode="&#xd0;" horiz-adv-x="963" 
d="M154 10l56 196h-60l-24 34h-4l-11 19l38 131l21 19h98l69 238l27 15h609q18 0 36.5 -19t30.5 -45l9 -12q16 -22 24 -48t2 -48l-116 -403q-5 -18 -24 -41.5t-42.5 -44t-47 -34.5t-38.5 -14h-609l-25 34h-4zM239 255l-68 -238l10 -15h603q13 0 34.5 12.5t42.5 31.5t38 40
t22 38l115 403q5 16 0 37t-15.5 39.5t-24.5 31t-27 12.5h-603l-17 -9l-70 -244h-105l-12 -11l-34 -117l6 -11h105zM730 383l-7 11h-285l33 116h360q13 0 23 -14t6 -27l-81 -284q-2 -5 -6.5 -12.5t-12 -14.5t-17 -12t-19.5 -5h-359l33 114h285l13 11zM747 390l-1 -3l13 -18
l11 -17l-37 -129l-21 -17h-279l-14 -50h310q13 0 23 10.5t12 18.5l79 276h-337l-15 -52h243z" />
    <glyph glyph-name="FL00D1h" unicode="&#xd1;" horiz-adv-x="831" 
d="M597 -13l-16 18l-225 333l-104 -363l-20 -22h-150l-25 34h-4l-13 22l183 638l26 16h141l20 -10l249 -375l106 370l27 15h144l18 -16l-2 -4l25 -34l-182 -634l-20 -22h-149l-16 17l-12 17h-1zM595 17l14 -15h136l13 14l178 623l-10 9h-132l-17 -9l-114 -399l-266 401h1
l-15 7h-132l-16 -9l-178 -622l9 -15h136l13 14l113 396zM682 860l6 -15l18 -23v-2l39 41l29 12h145l19 -27l-2 -3l8 -10l17 -25l-120 -123l-21 -13h-190l-27 13l-21 29h1l-7 4l-2 2l-35 -36l-29 -12h-143l-25 33h-4l-19 28l121 126l23 14h193zM695 790l-27 58h1l-20 10h-184
l-17 -10l-108 -114l9 -14h135l23 9h-1l57 59l26 -58h-1l20 -10h183l17 10l109 114l-9 14h-135l-23 -9h1z" />
    <glyph glyph-name="FL00D2h" unicode="&#xd2;" 
d="M108 -24l-14 20q-10 7 -17.5 18.5t-11.5 25t-4.5 28t3.5 26.5l132 462q4 15 17 34t30 35t36 27t35 11h574q18 0 31.5 -13.5t20.5 -32.5l13 -17q12 -17 16.5 -39t-1.5 -42l-133 -462q-4 -15 -16.5 -33t-29 -34t-34.5 -26.5t-33 -10.5h-574q-23 0 -40 23zM125 2h574
q13 0 29 9.5t30 23t24.5 29.5t14.5 30l132 462q4 13 2.5 29.5t-7.5 30t-16.5 23t-23.5 9.5h-574q-14 0 -29.5 -9.5t-29.5 -23t-25 -30t-15 -29.5l-132 -462q-4 -14 -2 -30t8 -29.5t16 -23t24 -9.5zM356 510h401l-106 -369h-401zM391 461l-87 -305h337l87 305h-337zM694 859
l2 -10l1 1l20 -29l34 -125l-24 -24h-147l-13 12l-16 21l-15 14l-46 126l26 28h151zM561 720h135l13 14l-30 114l-19 10h-139l-13 -13l43 -115z" />
    <glyph glyph-name="FL00D3h" unicode="&#xd3;" 
d="M108 -24l-14 20q-10 7 -17.5 18.5t-11.5 25t-4.5 28t3.5 26.5l132 462q4 15 17 34t30 35t36 27t35 11h574q18 0 31.5 -13.5t20.5 -32.5l13 -17q12 -17 16.5 -39t-1.5 -42l-133 -462q-4 -15 -16.5 -33t-29 -34t-34.5 -26.5t-33 -10.5h-574q-23 0 -40 23zM125 2h574
q13 0 29 9.5t30 23t24.5 29.5t14.5 30l132 462q4 13 2.5 29.5t-7.5 30t-16.5 23t-23.5 9.5h-574q-14 0 -29.5 -9.5t-29.5 -23t-25 -30t-15 -29.5l-132 -462q-4 -14 -2 -30t8 -29.5t16 -23t24 -9.5zM356 510h401l-106 -369h-401zM391 461l-87 -305h337l87 305h-337zM515 733
l105 126l35 14h149l5 -15v1l19 -26l9 -25l-116 -124l-20 -12h-146l-25 33h-4zM654 858l-26 -10l-96 -114l6 -14h134l17 10l107 115l-4 13h-138z" />
    <glyph glyph-name="FL00D4h" unicode="&#xd4;" 
d="M108 -24l-14 20q-10 7 -17.5 18.5t-11.5 25t-4.5 28t3.5 26.5l132 462q4 15 17 34t30 35t36 27t35 11h574q18 0 31.5 -13.5t20.5 -32.5l13 -17q12 -17 16.5 -39t-1.5 -42l-133 -462q-4 -15 -16.5 -33t-29 -34t-34.5 -26.5t-33 -10.5h-574q-23 0 -40 23zM125 2h574
q13 0 29 9.5t30 23t24.5 29.5t14.5 30l132 462q4 13 2.5 29.5t-7.5 30t-16.5 23t-23.5 9.5h-574q-14 0 -29.5 -9.5t-29.5 -23t-25 -30t-15 -29.5l-132 -462q-4 -14 -2 -30t8 -29.5t16 -23t24 -9.5zM356 510h401l-106 -369h-401zM391 461l-87 -305h337l87 305h-337zM648 718
l-2 2l-35 -36l-29 -12h-144l-25 33h-4l-18 28l121 126l23 14h254l15 -14l5 -14l16 -24l47 -125l-23 -24h-147l-27 13l-21 29h1zM635 788l26 -58h-1l20 -10h138l12 13l-41 115l-10 10h-242l-17 -10l-109 -114l9 -14h136l23 9h-1z" />
    <glyph glyph-name="FL00D5h" unicode="&#xd5;" 
d="M108 -24l-14 20q-10 7 -17.5 18.5t-11.5 25t-4.5 28t3.5 26.5l132 462q4 15 17 34t30 35t36 27t35 11h574q18 0 31.5 -13.5t20.5 -32.5l13 -17q12 -17 16.5 -39t-1.5 -42l-133 -462q-4 -15 -16.5 -33t-29 -34t-34.5 -26.5t-33 -10.5h-574q-23 0 -40 23zM125 2h574
q13 0 29 9.5t30 23t24.5 29.5t14.5 30l132 462q4 13 2.5 29.5t-7.5 30t-16.5 23t-23.5 9.5h-574q-14 0 -29.5 -9.5t-29.5 -23t-25 -30t-15 -29.5l-132 -462q-4 -14 -2 -30t8 -29.5t16 -23t24 -9.5zM356 510h401l-106 -369h-401zM690 860l6 -15l18 -23v-2l39 41l29 12h145
l19 -27l-2 -3l8 -10l17 -25l-120 -123l-21 -13h-190l-27 13l-21 29h1l-7 4l-2 2l-35 -36l-29 -12h-143l-25 33h-4l-19 28l121 126l23 14h193zM391 461l-87 -305h337l87 305h-337zM703 790l-27 58h1l-20 10h-184l-17 -10l-108 -114l9 -14h135l23 9h-1l57 59l26 -58h-1l20 -10
h183l17 10l109 114l-9 14h-135l-23 -9h1z" />
    <glyph glyph-name="FL00D6h" unicode="&#xd6;" 
d="M108 -24l-14 20q-10 7 -17.5 18.5t-11.5 25t-4.5 28t3.5 26.5l132 462q4 15 17 34t30 35t36 27t35 11h574q18 0 31.5 -13.5t20.5 -32.5l13 -17q12 -17 16.5 -39t-1.5 -42l-133 -462q-4 -15 -16.5 -33t-29 -34t-34.5 -26.5t-33 -10.5h-574q-23 0 -40 23zM125 2h574
q13 0 29 9.5t30 23t24.5 29.5t14.5 30l132 462q4 13 2.5 29.5t-7.5 30t-16.5 23t-23.5 9.5h-574q-14 0 -29.5 -9.5t-29.5 -23t-25 -30t-15 -29.5l-132 -462q-4 -14 -2 -30t8 -29.5t16 -23t24 -9.5zM356 510h401l-106 -369h-401zM391 461l-87 -305h337l87 305h-337zM656 728
l36 128l28 17h143l18 -17l-1 -4l25 -34l-36 -125l-20 -21h-149l-25 33h-4zM395 728l36 128l27 17h144l17 -17l-1 -4l25 -34l-36 -125l-20 -21h-149l-25 33h-4zM722 858l-17 -10l-32 -113l9 -15h136l13 14l33 114l-11 10h-131zM460 858l-17 -10l-32 -113l9 -15h136l13 14
l33 114l-10 10h-132z" />
    <glyph glyph-name="FL00D7h" unicode="&#xd7;" horiz-adv-x="493" 
d="M463 522l24 -1l66 -92l-1 -4l24 -34l-6 -24l-100 -77l32 -44l-2 -4l25 -34l-8 -24l-116 -89l-24 -1l-24 33h-4l-31 44l-100 -77l-24 1l-24 33h-4l-65 92l7 26l100 78l-55 79l8 26l117 92l27 1l56 -79zM477 506l-12 1l-110 -86l-62 86l-13 -1h1l-107 -84v1l-4 -13l60 -86
l-109 -85l-3 -13v1l59 -84h-1l13 -1l110 86l62 -86l11 1l108 84v-1l5 13l-62 85l111 86l2 13v-1l-60 84h1z" />
    <glyph glyph-name="FL00D8h" unicode="&#xd8;" 
d="M108 -24l-14 20q-10 7 -17.5 18.5t-11.5 25t-4.5 28t3.5 26.5l132 461q4 15 17 34t30 35t36 27t35 11h574q16 0 30.5 -14t22.5 -34l10 -14l3 -3q11 -15 15.5 -35.5t-1.5 -42.5l-133 -462q-4 -15 -16.5 -33t-29 -34t-34.5 -26.5t-33 -10.5h-574q-23 0 -40 23zM125 2h574
q13 0 29 9.5t30 23t24.5 29.5t14.5 30l132 461q5 17 2.5 33.5t-9.5 29.5t-17.5 21t-20.5 8h-574q-14 0 -29.5 -9.5t-30 -23t-25 -30t-14.5 -29.5l-132 -461q-4 -14 -2 -30t8 -29.5t16 -23t24 -9.5zM651 141h-246l338 318zM356 510h246l-338 -320zM530 461h-139l-52 -182z
M503 156h138l50 177z" />
    <glyph glyph-name="FL00D9h" unicode="&#xd9;" 
d="M434 609l-130 -453h337l141 492l27 15h143l19 -15l-2 -5l25 -34l-159 -552q-4 -15 -16.5 -33t-29 -34t-34.5 -26.5t-33 -10.5h-574q-23 0 -40 23l-14 20q-10 7 -17.5 18.5t-11.5 25t-4.5 28t3.5 26.5l159 553l26 16h143l19 -15l-2 -5zM125 2h574q13 0 29 9.5t30 23
t24.5 29.5t14.5 30l156 545l-11 9h-131l-17 -9l-143 -498h-401l143 498l-11 9h-131l-16 -9l-156 -545q-4 -14 -2 -30t8 -29.5t16 -23t24 -9.5zM694 859l2 -10l1 1l20 -29l34 -125l-24 -24h-147l-13 12l-16 21l-15 14l-46 126l26 28h151zM561 720h135l13 14l-30 114l-19 10
h-139l-13 -13l43 -115z" />
    <glyph glyph-name="FL00DAh" unicode="&#xda;" 
d="M434 609l-130 -453h337l141 492l27 15h143l19 -15l-2 -5l25 -34l-159 -552q-4 -15 -16.5 -33t-29 -34t-34.5 -26.5t-33 -10.5h-574q-23 0 -40 23l-14 20q-10 7 -17.5 18.5t-11.5 25t-4.5 28t3.5 26.5l159 553l26 16h143l19 -15l-2 -5zM125 2h574q13 0 29 9.5t30 23
t24.5 29.5t14.5 30l156 545l-11 9h-131l-17 -9l-143 -498h-401l143 498l-11 9h-131l-16 -9l-156 -545q-4 -14 -2 -30t8 -29.5t16 -23t24 -9.5zM515 733l105 126l35 14h149l5 -15v1l19 -26l9 -25l-116 -124l-20 -12h-146l-25 33h-4zM654 858l-26 -10l-96 -114l6 -14h134
l17 10l107 115l-4 13h-138z" />
    <glyph glyph-name="FL00DBh" unicode="&#xdb;" 
d="M434 609l-130 -453h337l141 492l27 15h143l19 -15l-2 -5l25 -34l-159 -552q-4 -15 -16.5 -33t-29 -34t-34.5 -26.5t-33 -10.5h-574q-23 0 -40 23l-14 20q-10 7 -17.5 18.5t-11.5 25t-4.5 28t3.5 26.5l159 553l26 16h143l19 -15l-2 -5zM125 2h574q13 0 29 9.5t30 23
t24.5 29.5t14.5 30l156 545l-11 9h-131l-17 -9l-143 -498h-401l143 498l-11 9h-131l-16 -9l-156 -545q-4 -14 -2 -30t8 -29.5t16 -23t24 -9.5zM648 718l-2 2l-35 -36l-29 -12h-144l-25 33h-4l-18 28l121 126l23 14h254l15 -14l5 -14l16 -24l47 -125l-23 -24h-147l-27 13
l-21 29h1zM635 788l26 -58h-1l20 -10h138l12 13l-41 115l-10 10h-242l-17 -10l-109 -114l9 -14h136l23 9h-1z" />
    <glyph glyph-name="FL00DDh" unicode="&#xdc;" 
d="M434 609l-130 -453h337l141 492l27 15h143l19 -15l-2 -5l25 -34l-159 -552q-4 -15 -16.5 -33t-29 -34t-34.5 -26.5t-33 -10.5h-574q-23 0 -40 23l-14 20q-10 7 -17.5 18.5t-11.5 25t-4.5 28t3.5 26.5l159 553l26 16h143l19 -15l-2 -5zM125 2h574q13 0 29 9.5t30 23
t24.5 29.5t14.5 30l156 545l-11 9h-131l-17 -9l-143 -498h-401l143 498l-11 9h-131l-16 -9l-156 -545q-4 -14 -2 -30t8 -29.5t16 -23t24 -9.5zM656 728l36 128l28 17h143l18 -17l-1 -4l25 -34l-36 -125l-20 -21h-149l-25 33h-4zM395 728l36 128l27 17h144l17 -17l-1 -4
l25 -34l-36 -125l-20 -21h-149l-25 33h-4zM722 858l-17 -10l-32 -113l9 -15h136l13 14l33 114l-11 10h-131zM460 858l-17 -10l-32 -113l9 -15h136l13 14l33 114l-10 10h-132z" />
    <glyph glyph-name="FL00E0h" unicode="&#xdd;" horiz-adv-x="767" 
d="M613 387l-1 -3l10 -14l80 278l26 15h143l19 -15l-2 -5l25 -34l-159 -552q-4 -15 -16.5 -33t-29 -34t-34.5 -26.5t-33 -10.5h-565l-25 34h-4l-7 24l35 122l22 23h464l15 52h-354q-13 0 -22.5 6t-17.5 16l-14 20q-10 7 -17.5 19t-11 25.5t-4 27.5t2.5 26l86 299l26 16h143
l19 -15l-2 -5l25 -34l-57 -199h220zM101 141l-13 -14l-32 -112l4 -13h558q13 0 28.5 9.5t30 23t25 29.5t14.5 30l156 545l-11 9h-131l-17 -9l-143 -498h-469zM596 380l-10 15h-262l70 244l-11 9h-131l-16 -9l-83 -291q-4 -13 -2.5 -29t7.5 -30t16 -23.5t24 -9.5h348l19 15z
M466 733l106 126l34 14h150l5 -15v1l19 -26l9 -25l-116 -124l-20 -12h-147l-25 33h-4zM605 858l-25 -10l-97 -114l6 -14h135l17 10l107 115l-4 13h-139z" />
    <glyph glyph-name="FL00DEh" unicode="&#xde;" horiz-adv-x="787" 
d="M433 608l-17 -59h379q17 0 30.5 -12.5t21.5 -30.5l14 -19q12 -17 16 -39t-2 -42l-66 -230q-4 -15 -16.5 -33t-29 -34t-34.5 -26.5t-33 -10.5h-381l-25 34h-1l-39 -138l-25 -15h-141l-16 15l-17 23l-13 13l184 642l27 16h143l19 -15l-2 -5zM664 396l-40 -138h-287l-13 -11
l-33 -115l7 -11h375q13 0 28.5 9.5t30 23t25 29.5t14.5 29l66 231q4 13 2 29t-8 30t-16.5 23t-23.5 9h-428l30 104l-11 9h-131l-16 -9l-180 -626l11 -10h131l16 10l111 384h340zM359 347l-22 -74h277l22 74h-277z" />
    <glyph glyph-name="FL00DFh" unicode="&#xdf;" horiz-adv-x="847" 
d="M56 -137l-25 34h-4l-13 22l182 637q5 16 17 34.5t28 34.5t35 26.5t37 10.5h574q18 0 31.5 -13.5t20.5 -32.5l13 -17q13 -16 17 -38t-2 -42l-48 -168q-1 -3 -8 -11t-16.5 -17.5l-19.5 -19l-18 -16.5l9 -16t9 -17.5t6.5 -15.5t1.5 -10l-49 -171q-4 -15 -16.5 -33t-29 -34
t-34.5 -26.5t-33 -10.5h-431l-25 34h-4l-4 7l-31 -109l-20 -22h-150zM312 141l-16 -10l-33 -114l10 -15h425q13 0 29 9.5t30 23t24.5 29.5t14.5 30l49 171q0 2 -4 10l-9 18t-10.5 19t-8.5 13q6 3 16.5 12.5l21.5 19.5t19.5 19t9.5 12l48 168q4 13 2.5 29t-7.5 30t-16.5 23
t-23.5 9h-574q-15 0 -30.5 -9t-29 -22.5t-24 -29.5t-14.5 -30l-180 -629l9 -15h136l13 14l167 584h400l-33 -116h-342l-13 -11l-34 -117l7 -11h342l-33 -114h-338zM358 206l-24 34h-4l-2 2l-26 -92l9 6h329l14 50h-296zM376 407l2 2h334l15 52h-336z" />
    <glyph glyph-name="FL00E1h" unicode="&#xe0;" horiz-adv-x="895" 
d="M29 23l9 20l507 620h162l2 -12v1l21 -28l150 -608q2 -8 1.5 -13t-2.5 -12l-4 -14q-2 -10 -7 -17t-19 -7h-166l-25 34h-4l-85 386l-178 -217h199l8 -18l16 -22l10 -20l-37 -127l-20 -16h-498q-6 0 -9 4l-22 30q-9 2 -10.5 14.5t1.5 21.5zM52 38l-9 -18q-2 -5 -1 -11.5
t4 -6.5h492l12 10l34 116l-7 13h-250q-7 0 -4 9l3 12l238 291l6 -1l97 -450h159q8 0 11 12l4 14q2 9 0 20l-148 600h-144zM724 859l2 -10l1 1l20 -29l35 -125l-24 -24h-147l-14 12l-18 23l-13 12l-45 126l26 28h151zM592 720h135l13 14l-31 114l-18 10h-139l-13 -13l42 -115
z" />
    <glyph glyph-name="FL00E8h" unicode="&#xe1;" horiz-adv-x="895" 
d="M645 848l26 10h138l4 -13l-107 -115l-17 -10h-134l-6 14zM637 859l-105 -126l11 -28h4l25 -33h146l20 12l117 124l-9 25l-20 26v-1l-5 15h-149zM43 20l9 18l497 610h144l148 -600q2 -11 0 -20l-4 -14q-3 -12 -11 -12h-159l-97 450l-6 1l-238 -291l-3 -12q-3 -9 4 -9h250
l7 -13l-34 -116l-12 -10h-492q-3 0 -4 6.5t1 11.5zM38 43l-9 -20q-3 -9 -1.5 -21.5t10.5 -14.5l22 -30q3 -4 9 -4h498l20 16l37 127l-10 20l-16 22l-8 18h-199l178 217l85 -386h4l25 -34h166q14 0 19 7t7 17l4 14q2 7 2.5 12t-1.5 13l-150 608l-21 28v-1l-2 12h-162z" />
    <glyph glyph-name="FL00E2h" unicode="&#xe2;" horiz-adv-x="895" 
d="M29 23l9 20l507 620h162l2 -12v1l21 -28l150 -608q2 -8 1.5 -13t-2.5 -12l-4 -14q-2 -10 -7 -17t-19 -7h-166l-25 34h-4l-85 386l-178 -217h199l8 -18l16 -22l10 -20l-37 -127l-20 -16h-498q-6 0 -9 4l-22 30q-9 2 -10.5 14.5t1.5 21.5zM52 38l-9 -18q-2 -5 -1 -11.5
t4 -6.5h492l12 10l34 116l-7 13h-250q-7 0 -4 9l3 12l238 291l6 -1l97 -450h159q8 0 11 12l4 14q2 9 0 20l-148 600h-144zM671 718l-2 2l-35 -36l-29 -12h-144l-25 33h-4l-18 28l121 126l23 14h253l16 -14l5 -14l17 -24l45 -126l-21 -23h-148l-27 13l-21 29h1zM658 788
l26 -58h-1l20 -10h139l11 12l-41 116l-11 10h-241l-17 -10l-109 -114l9 -14h136l23 9h-1z" />
    <glyph glyph-name="FL00E3h" unicode="&#xe3;" horiz-adv-x="895" 
d="M29 23l9 20l507 620h162l2 -12v1l21 -28l150 -608q2 -8 1.5 -13t-2.5 -12l-4 -14q-2 -10 -7 -17t-19 -7h-166l-25 34h-4l-85 386l-178 -217h199l8 -18l16 -22l10 -20l-37 -127l-20 -16h-498q-6 0 -9 4l-22 30q-9 2 -10.5 14.5t1.5 21.5zM52 38l-9 -18q-2 -5 -1 -11.5
t4 -6.5h492l12 10l34 116l-7 13h-250q-7 0 -4 9l3 12l238 291l6 -1l97 -450h159q8 0 11 12l4 14q2 9 0 20l-148 600h-144zM712 860l6 -15l18 -23v-2l40 41l28 12h146l19 -27l-2 -3l8 -10l17 -25l-120 -123l-21 -13h-190l-27 13l-21 29h1l-8 4l-2 2l-35 -36l-28 -12h-144
l-25 33h-4l-19 28l122 126l23 14h193zM726 790l-28 58h1l-19 10h-184l-17 -10l-109 -114l9 -14h136l23 9h-1l56 59l27 -58h-1l20 -10h184l17 10l108 114l-9 14h-136l-22 -9h1z" />
    <glyph glyph-name="FL00E4h" unicode="&#xe4;" horiz-adv-x="895" 
d="M29 23l9 20l507 620h162l2 -12v1l21 -28l150 -608q2 -8 1.5 -13t-2.5 -12l-4 -14q-2 -10 -7 -17t-19 -7h-166l-25 34h-4l-85 386l-178 -217h199l8 -18l16 -22l10 -20l-37 -127l-20 -16h-498q-6 0 -9 4l-22 30q-9 2 -10.5 14.5t1.5 21.5zM52 38l-9 -18q-2 -5 -1 -11.5
t4 -6.5h492l12 10l34 116l-7 13h-250q-7 0 -4 9l3 12l238 291l6 -1l97 -450h159q8 0 11 12l4 14q2 9 0 20l-148 600h-144zM679 728l36 128l28 17h144l16 -17l-1 -4l25 -34l-36 -125l-19 -21h-149l-25 33h-4zM418 728l36 128l27 17h143l18 -17l-1 -4l25 -34l-36 -125l-20 -21
h-149l-25 33h-4zM745 858l-17 -10l-32 -113l9 -15h137l12 13l33 115l-10 10h-132zM483 858l-17 -10l-32 -113l9 -15h136l13 14l33 114l-11 10h-131z" />
    <glyph glyph-name="FL00E5h" unicode="&#xe5;" horiz-adv-x="895" 
d="M638 811l-12 -42l3 -7h46l8 8l12 41l-4 4h-46zM596 848l17 10h132l11 -10l-33 -114l-13 -14h-137l-9 15zM583 856l-36 -128l15 -23h4l25 -33h150l20 21l36 125l-25 34l1 4l-18 17h-144zM43 20l9 18l497 610h144l148 -600q2 -11 0 -20l-4 -14q-3 -12 -11 -12h-159l-97 450
l-6 1l-238 -291l-3 -12q-3 -9 4 -9h250l7 -13l-34 -116l-12 -10h-492q-3 0 -4 6.5t1 11.5zM38 43l-9 -20q-3 -9 -1.5 -21.5t10.5 -14.5l22 -30q3 -4 9 -4h498l20 16l37 127l-10 20l-16 22l-8 18h-199l178 217l85 -386h4l25 -34h166q14 0 19 7t7 17l4 14q2 7 2.5 12t-1.5 13
l-150 608l-21 28v-1l-2 12h-162z" />
    <glyph glyph-name="FL00E6h" unicode="&#xe6;" horiz-adv-x="1366" 
d="M1353 390l-1 -3l13 -18l11 -17l-37 -129l-21 -17h-358l-24 34h-1l-24 -84h420l6 -16l18 -24l9 -21l-34 -120l-20 -22h-626l-25 34h-4l-86 386l-178 -217h199l8 -18l16 -22l10 -20l-37 -127l-20 -16h-498q-6 0 -9 4l-22 30q-9 2 -10.5 14.5t1.5 21.5l9 20l507 619h162
l1 -12l1 1l21 -28l42 -171l56 195l27 15h622l6 -15l18 -25l9 -20l-35 -120l-21 -21h-452l-6 -8l-13 -44h357zM52 38l-9 -18q-2 -5 -1 -11.5t4 -6.5h492l12 10l34 116l-7 13h-249q-7 0 -4 9l3 12l237 291l6 -1l98 -450h612l13 14l31 111l-6 14h-452l-5 14l98 340l13 15h452
l14 14l32 110l-5 13h-608l-17 -9l-77 -268h-2l-68 277h-144zM1336 383l-7 11h-346l-13 -11l-34 -117l7 -11h346l13 11z" />
    <glyph glyph-name="FL00E7h" unicode="&#xe7;" horiz-adv-x="761" 
d="M657 438l-15 23h-251l-87 -305h251l9 33l28 23h152l4 -15l19 -25l8 -22l-27 -93q-4 -15 -16.5 -33t-29 -34t-34.5 -26.5t-33 -10.5h-143l-46 -159l-20 -15h-203l-25 33h-4l-10 19l35 122h-71q-23 0 -40 23l-14 20q-10 7 -17.5 18.5t-11.5 25t-4.5 28t3.5 26.5l132 462
q4 15 17 34t30 35t36 27t35 11h487q17 0 30 -13t21 -31l14 -19q12 -17 16.5 -39t-1.5 -42l-27 -93l-20 -22h-149l-24 34h-4zM250 141l106 369h314l-12 -42l10 -15h136l13 14l25 89q4 13 2.5 29.5t-7.5 30t-16.5 23t-23.5 9.5h-487q-14 0 -29.5 -9.5t-29.5 -23t-25 -30
t-15 -29.5l-132 -462q-4 -14 -2 -30t8 -29.5t16 -23t24 -9.5h200l-14 -46h-68l-11 -10l-31 -108l5 -11h190l13 10l48 165h155q13 0 28.5 9.5t30 23t25 29.5t14.5 30l25 89l-5 14h-136l-18 -15l-12 -41h-314z" />
    <glyph glyph-name="FL00E9h" unicode="&#xe8;" horiz-adv-x="759" 
d="M746 390l-1 -3l13 -18l11 -17l-37 -128l-21 -17h-358l-24 33h-1l-24 -84h420l6 -16l18 -24l9 -21l-34 -120l-20 -22h-621l-25 34h-4l-13 22l183 638l26 16h621l6 -15l19 -25l8 -20l-35 -121l-21 -21h-452l-6 -8l-13 -44h357zM251 648l-16 -9l-178 -622l9 -15h607l13 14
l31 111l-6 14h-452l-5 14l98 340l13 15h452l14 14l32 111l-5 13h-607zM682 255l13 11l34 117l-7 11h-346l-13 -11l-34 -117l7 -11h346zM657 859l2 -10l1 1l20 -29l34 -125l-24 -24h-146l-14 12l-18 23l-13 12l-45 126l26 28h150zM525 720h134l13 14l-30 114l-19 10h-138
l-13 -13l42 -115z" />
    <glyph glyph-name="FL0DBDh" unicode="&#xe9;" horiz-adv-x="759" 
d="M746 390l-1 -3l13 -18l11 -17l-37 -128l-21 -17h-358l-24 33h-1l-24 -84h420l6 -16l18 -24l9 -21l-34 -120l-20 -22h-621l-25 34h-4l-13 22l183 638l26 16h621l6 -15l19 -25l8 -20l-35 -121l-21 -21h-452l-6 -8l-13 -44h357zM251 648l-16 -9l-178 -622l9 -15h607l13 14
l31 111l-6 14h-452l-5 14l98 340l13 15h452l14 14l32 111l-5 13h-607zM682 255l13 11l34 117l-7 11h-346l-13 -11l-34 -117l7 -11h346zM462 733l106 126l34 14h150l5 -15v1l19 -26l9 -25l-116 -124l-20 -12h-147l-25 33h-4zM601 858l-25 -10l-97 -114l6 -14h135l17 10
l107 115l-4 13h-139z" />
    <glyph glyph-name="FL00EAh" unicode="&#xea;" horiz-adv-x="759" 
d="M746 390l-1 -3l13 -18l11 -17l-37 -128l-21 -17h-358l-24 33h-1l-24 -84h420l6 -16l18 -24l9 -21l-34 -120l-20 -22h-621l-25 34h-4l-13 22l183 638l26 16h621l6 -15l19 -25l8 -20l-35 -121l-21 -21h-452l-6 -8l-13 -44h357zM251 648l-16 -9l-178 -622l9 -15h607l13 14
l31 111l-6 14h-452l-5 14l98 340l13 15h452l14 14l32 111l-5 13h-607zM603 718l-2 2l-35 -36l-28 -12h-145l-24 33h-4l-19 28l122 126l23 14h253l16 -14l4 -14l17 -24l46 -125l-23 -24h-146l-27 13l-21 29h1zM682 255l13 11l34 117l-7 11h-346l-13 -11l-34 -117l7 -11h346z
M590 788l27 -58h-1l20 -10h137l12 13l-40 115l-11 10h-241l-17 -10l-109 -114l9 -14h136l23 9h-1z" />
    <glyph glyph-name="FL00EBh" unicode="&#xeb;" horiz-adv-x="759" 
d="M746 390l-1 -3l13 -18l11 -17l-37 -128l-21 -17h-358l-24 33h-1l-24 -84h420l6 -16l18 -24l9 -21l-34 -120l-20 -22h-621l-25 34h-4l-13 22l183 638l26 16h621l6 -15l19 -25l8 -20l-35 -121l-21 -21h-452l-6 -8l-13 -44h357zM251 648l-16 -9l-178 -622l9 -15h607l13 14
l31 111l-6 14h-452l-5 14l98 340l13 15h452l14 14l32 111l-5 13h-607zM682 255l13 11l34 117l-7 11h-346l-13 -11l-34 -117l7 -11h346zM350 728l36 128l28 17h143l18 -17l-1 -4l25 -34l-36 -125l-20 -21h-150l-24 33h-4zM612 728l36 128l28 17h142l18 -17l-1 -4l25 -34
l-36 -125l-20 -21h-148l-25 33h-4zM416 858l-17 -10l-32 -113l9 -15h136l13 14l33 114l-11 10h-131zM678 858l-17 -10l-32 -113l9 -15h135l13 14l33 114l-11 10h-130z" />
    <glyph glyph-name="FL00ECh" unicode="&#xec;" horiz-adv-x="286" 
d="M40 9l183 638l26 16h143l19 -15l-2 -5l24 -34l-182 -634l-20 -22h-150l-24 34h-4zM251 648l-16 -9l-178 -622l9 -15h136l13 14l178 623l-11 9h-131zM440 859l2 -10l1 1l19 -29l35 -125l-24 -24h-146l-14 12l-18 23l-13 12l-44 126l26 28h149zM297 730l11 -10h134l13 14
l-30 114l-19 10h-137l-13 -13z" />
    <glyph glyph-name="FL00EDh" unicode="&#xed;" horiz-adv-x="286" 
d="M40 9l183 638l26 16h143l18 -15l-2 -5l25 -34l-182 -634l-20 -22h-150l-24 34h-4zM251 648l-16 -9l-178 -622l9 -15h136l13 14l178 623l-11 9h-131zM207 733l105 126l34 14h149l5 -15v1l20 -26l9 -25l-117 -124l-20 -12h-145l-25 33h-4zM345 858l-26 -10l-95 -114l6 -14
h133l17 10l107 115l-4 13h-138z" />
    <glyph glyph-name="FL00EEh" unicode="&#xee;" horiz-adv-x="287" 
d="M40 9l183 638l26 16h143l19 -15l-2 -5l25 -34l-182 -634l-20 -22h-150l-25 34h-4zM251 648l-16 -9l-178 -622l9 -15h136l13 14l178 623l-11 9h-131zM368 718l-2 2l-35 -36l-28 -12h-144l-25 33h-4l-19 28l122 126l23 14h252l16 -14l5 -14l17 -24l46 -125l-23 -24h-147
l-27 13l-21 29h1zM355 788l26 -58h-1l20 -10h139l12 13l-42 115l-11 10h-240l-17 -10l-109 -114l9 -14h136l23 9h-1z" />
    <glyph glyph-name="FL00EFh" unicode="&#xef;" horiz-adv-x="287" 
d="M40 9l183 638l26 16h143l19 -15l-2 -5l25 -34l-182 -634l-20 -22h-150l-25 34h-4zM251 648l-16 -9l-178 -622l9 -15h136l13 14l178 623l-11 9h-131zM376 728l36 128l28 17h144l18 -17l-1 -4l24 -34l-36 -125l-20 -21h-149l-25 33h-4zM115 728l36 128l28 17h143l18 -17
l-1 -4l24 -34l-36 -125l-19 -21h-149l-25 33h-4zM442 858l-17 -10l-32 -113l9 -15h137l13 14l33 114l-11 10h-132zM181 858l-17 -10l-32 -113l9 -15h136l13 14l33 114l-11 10h-131z" />
    <glyph glyph-name="FL00F0h" unicode="&#xf0;" horiz-adv-x="844" 
d="M108 -24l-14 20q-10 7 -17.5 18.5t-11.5 25t-4.5 28t3.5 26.5l59 207q3 12 13.5 27.5t25 30t30 27t29.5 18.5h-16l-24 34h-4l-8 24l27 94q4 15 17 33.5t30 34.5t36 27t35 11h190l22 78l27 15h143l19 -15l-1 -5l24 -34l-11 -39h157q18 0 31.5 -13.5t20.5 -32.5l13 -16
q12 -17 16.5 -39t-1.5 -42l-133 -462q-4 -15 -16.5 -33t-29 -34t-34.5 -26.5t-33 -10.5h-570q-23 0 -40 23zM475 510l-16 -58l10 -14h136l12 13l17 59h119l-33 -116h-484q-11 0 -26 -9.5t-30 -24t-26.5 -30.5t-15.5 -29l-59 -207q-4 -14 -2 -30t8 -29.5t16 -23t24 -9.5h570
q13 0 29 9.5t30 23t24.5 29.5t14.5 30l132 462q4 13 2.5 29t-7.5 30t-16.5 23t-23.5 9h-206l24 84l-12 9h-131l-16 -9l-24 -84h-205q-14 0 -29.5 -9t-29.5 -23t-25 -30t-15 -29l-25 -90l3 -13h137l18 15l12 42h119zM283 255h397l-33 -114h-397zM318 206l-14 -50h333l14 50
h-333zM442 445l4 16h-55l-10 -36l-20 -16h110l-10 14h-4zM654 409h55l15 52h-55z" />
    <glyph glyph-name="FL00F1h" unicode="&#xf1;" horiz-adv-x="831" 
d="M597 -13l-16 18l-225 333l-104 -363l-20 -22h-150l-25 34h-4l-13 22l183 638l26 16h141l20 -10l249 -375l106 370l27 15h144l18 -16l-2 -4l25 -34l-182 -634l-20 -22h-149l-16 17l-12 17h-1zM595 17l14 -15h136l13 14l178 623l-10 9h-132l-17 -9l-114 -399l-266 401h1
l-15 7h-132l-16 -9l-178 -622l9 -15h136l13 14l113 396zM682 860l6 -15l18 -23v-2l39 41l29 12h145l19 -27l-2 -3l8 -10l17 -25l-120 -123l-21 -13h-190l-27 13l-21 29h1l-7 4l-2 2l-35 -36l-29 -12h-143l-25 33h-4l-19 28l121 126l23 14h193zM695 790l-27 58h1l-20 10h-184
l-17 -10l-108 -114l9 -14h135l23 9h-1l57 59l26 -58h-1l20 -10h183l17 10l109 114l-9 14h-135l-23 -9h1z" />
    <glyph glyph-name="FL00F2h" unicode="&#xf2;" 
d="M108 -24l-14 20q-10 7 -17.5 18.5t-11.5 25t-4.5 28t3.5 26.5l132 462q4 15 17 34t30 35t36 27t35 11h574q18 0 31.5 -13.5t20.5 -32.5l13 -17q12 -17 16.5 -39t-1.5 -42l-133 -462q-4 -15 -16.5 -33t-29 -34t-34.5 -26.5t-33 -10.5h-574q-23 0 -40 23zM125 2h574
q13 0 29 9.5t30 23t24.5 29.5t14.5 30l132 462q4 13 2.5 29.5t-7.5 30t-16.5 23t-23.5 9.5h-574q-14 0 -29.5 -9.5t-29.5 -23t-25 -30t-15 -29.5l-132 -462q-4 -14 -2 -30t8 -29.5t16 -23t24 -9.5zM356 510h401l-106 -369h-401zM391 461l-87 -305h337l87 305h-337zM694 859
l2 -10l1 1l20 -29l34 -125l-24 -24h-147l-13 12l-16 21l-15 14l-46 126l26 28h151zM561 720h135l13 14l-30 114l-19 10h-139l-13 -13l43 -115z" />
    <glyph glyph-name="FL00F3h" unicode="&#xf3;" 
d="M108 -24l-14 20q-10 7 -17.5 18.5t-11.5 25t-4.5 28t3.5 26.5l132 462q4 15 17 34t30 35t36 27t35 11h574q18 0 31.5 -13.5t20.5 -32.5l13 -17q12 -17 16.5 -39t-1.5 -42l-133 -462q-4 -15 -16.5 -33t-29 -34t-34.5 -26.5t-33 -10.5h-574q-23 0 -40 23zM125 2h574
q13 0 29 9.5t30 23t24.5 29.5t14.5 30l132 462q4 13 2.5 29.5t-7.5 30t-16.5 23t-23.5 9.5h-574q-14 0 -29.5 -9.5t-29.5 -23t-25 -30t-15 -29.5l-132 -462q-4 -14 -2 -30t8 -29.5t16 -23t24 -9.5zM356 510h401l-106 -369h-401zM391 461l-87 -305h337l87 305h-337zM515 733
l105 126l35 14h149l5 -15v1l19 -26l9 -25l-116 -124l-20 -12h-146l-25 33h-4zM654 858l-26 -10l-96 -114l6 -14h134l17 10l107 115l-4 13h-138z" />
    <glyph glyph-name="FL00F4h" unicode="&#xf4;" 
d="M108 -24l-14 20q-10 7 -17.5 18.5t-11.5 25t-4.5 28t3.5 26.5l132 462q4 15 17 34t30 35t36 27t35 11h574q18 0 31.5 -13.5t20.5 -32.5l13 -17q12 -17 16.5 -39t-1.5 -42l-133 -462q-4 -15 -16.5 -33t-29 -34t-34.5 -26.5t-33 -10.5h-574q-23 0 -40 23zM125 2h574
q13 0 29 9.5t30 23t24.5 29.5t14.5 30l132 462q4 13 2.5 29.5t-7.5 30t-16.5 23t-23.5 9.5h-574q-14 0 -29.5 -9.5t-29.5 -23t-25 -30t-15 -29.5l-132 -462q-4 -14 -2 -30t8 -29.5t16 -23t24 -9.5zM356 510h401l-106 -369h-401zM391 461l-87 -305h337l87 305h-337zM648 718
l-2 2l-35 -36l-29 -12h-144l-25 33h-4l-18 28l121 126l23 14h254l15 -14l5 -14l16 -24l47 -125l-23 -24h-147l-27 13l-21 29h1zM635 788l26 -58h-1l20 -10h138l12 13l-41 115l-10 10h-242l-17 -10l-109 -114l9 -14h136l23 9h-1z" />
    <glyph glyph-name="FL00F5h" unicode="&#xf5;" 
d="M108 -24l-14 20q-10 7 -17.5 18.5t-11.5 25t-4.5 28t3.5 26.5l132 462q4 15 17 34t30 35t36 27t35 11h574q18 0 31.5 -13.5t20.5 -32.5l13 -17q12 -17 16.5 -39t-1.5 -42l-133 -462q-4 -15 -16.5 -33t-29 -34t-34.5 -26.5t-33 -10.5h-574q-23 0 -40 23zM125 2h574
q13 0 29 9.5t30 23t24.5 29.5t14.5 30l132 462q4 13 2.5 29.5t-7.5 30t-16.5 23t-23.5 9.5h-574q-14 0 -29.5 -9.5t-29.5 -23t-25 -30t-15 -29.5l-132 -462q-4 -14 -2 -30t8 -29.5t16 -23t24 -9.5zM356 510h401l-106 -369h-401zM690 860l6 -15l18 -23v-2l39 41l29 12h145
l19 -27l-2 -3l8 -10l17 -25l-120 -123l-21 -13h-190l-27 13l-21 29h1l-7 4l-2 2l-35 -36l-29 -12h-143l-25 33h-4l-19 28l121 126l23 14h193zM391 461l-87 -305h337l87 305h-337zM703 790l-27 58h1l-20 10h-184l-17 -10l-108 -114l9 -14h135l23 9h-1l57 59l26 -58h-1l20 -10
h183l17 10l109 114l-9 14h-135l-23 -9h1z" />
    <glyph glyph-name="FL00F6h" unicode="&#xf6;" 
d="M108 -24l-14 20q-10 7 -17.5 18.5t-11.5 25t-4.5 28t3.5 26.5l132 462q4 15 17 34t30 35t36 27t35 11h574q18 0 31.5 -13.5t20.5 -32.5l13 -17q12 -17 16.5 -39t-1.5 -42l-133 -462q-4 -15 -16.5 -33t-29 -34t-34.5 -26.5t-33 -10.5h-574q-23 0 -40 23zM125 2h574
q13 0 29 9.5t30 23t24.5 29.5t14.5 30l132 462q4 13 2.5 29.5t-7.5 30t-16.5 23t-23.5 9.5h-574q-14 0 -29.5 -9.5t-29.5 -23t-25 -30t-15 -29.5l-132 -462q-4 -14 -2 -30t8 -29.5t16 -23t24 -9.5zM356 510h401l-106 -369h-401zM391 461l-87 -305h337l87 305h-337zM656 728
l36 128l28 17h143l18 -17l-1 -4l25 -34l-36 -125l-20 -21h-149l-25 33h-4zM395 728l36 128l27 17h144l17 -17l-1 -4l25 -34l-36 -125l-20 -21h-149l-25 33h-4zM722 858l-17 -10l-32 -113l9 -15h136l13 14l33 114l-11 10h-131zM460 858l-17 -10l-32 -113l9 -15h136l13 14
l33 114l-10 10h-132z" />
    <glyph glyph-name="FL00F7h" unicode="&#xf7;" horiz-adv-x="586" 
d="M209 79l36 127h-95l-24 34h-4l-11 19l38 131l21 19h175l-12 17h-4l-16 21l37 129l28 17h144l17 -17l-1 -4l23 -34l-36 -126l-4 -3h102l13 -19l-1 -3l13 -18l11 -17l-37 -129l-21 -17h-167l-1 -3l23 -34l-35 -125l-21 -22h-148l-24 34h-4zM572 255l13 11l34 117l-7 11
h-438l-12 -11l-34 -117l6 -11h438zM275 209l-17 -10l-32 -113l9 -15h136l13 14l33 114l-10 10h-132zM380 578l-17 -10l-33 -114l10 -14h136l13 13l33 115l-10 10h-132z" />
    <glyph glyph-name="FL00F8h" unicode="&#xf8;" 
d="M108 -24l-14 20q-10 7 -17.5 18.5t-11.5 25t-4.5 28t3.5 26.5l132 461q4 15 17 34t30 35t36 27t35 11h574q18 0 31.5 -13.5t20.5 -32.5l13 -17q12 -17 16 -39t-1 -41l-133 -462q-4 -15 -16.5 -33t-29 -34t-34.5 -26.5t-33 -10.5h-574q-23 0 -40 23zM125 2h574
q13 0 29 9.5t30 23t24.5 29.5t14.5 30l132 461q4 13 2.5 29.5t-7.5 30t-16.5 23t-23.5 9.5h-574q-14 0 -29.5 -9.5t-30 -23t-25 -30t-14.5 -29.5l-132 -461q-4 -14 -2 -30t8 -29.5t16 -23t24 -9.5zM626 510h131l-106 -369h-131zM356 510h132l-106 -369h-132zM391 461
l-87 -305h68l87 305h-68zM661 461l-87 -305h67l87 305h-67z" />
    <glyph glyph-name="FL00F9h" unicode="&#xf9;" 
d="M434 609l-130 -453h337l141 492l27 15h143l19 -15l-2 -5l25 -34l-159 -552q-4 -15 -16.5 -33t-29 -34t-34.5 -26.5t-33 -10.5h-574q-23 0 -40 23l-14 20q-10 7 -17.5 18.5t-11.5 25t-4.5 28t3.5 26.5l159 553l26 16h143l19 -15l-2 -5zM125 2h574q13 0 29 9.5t30 23
t24.5 29.5t14.5 30l156 545l-11 9h-131l-17 -9l-143 -498h-401l143 498l-11 9h-131l-16 -9l-156 -545q-4 -14 -2 -30t8 -29.5t16 -23t24 -9.5zM694 859l2 -10l1 1l20 -29l34 -125l-24 -24h-147l-13 12l-16 21l-15 14l-46 126l26 28h151zM561 720h135l13 14l-30 114l-19 10
h-139l-13 -13l43 -115z" />
    <glyph glyph-name="FL00FAh" unicode="&#xfa;" 
d="M434 609l-130 -453h337l141 492l27 15h143l19 -15l-2 -5l25 -34l-159 -552q-4 -15 -16.5 -33t-29 -34t-34.5 -26.5t-33 -10.5h-574q-23 0 -40 23l-14 20q-10 7 -17.5 18.5t-11.5 25t-4.5 28t3.5 26.5l159 553l26 16h143l19 -15l-2 -5zM125 2h574q13 0 29 9.5t30 23
t24.5 29.5t14.5 30l156 545l-11 9h-131l-17 -9l-143 -498h-401l143 498l-11 9h-131l-16 -9l-156 -545q-4 -14 -2 -30t8 -29.5t16 -23t24 -9.5zM515 733l105 126l35 14h149l5 -15v1l19 -26l9 -25l-116 -124l-20 -12h-146l-25 33h-4zM654 858l-26 -10l-96 -114l6 -14h134
l17 10l107 115l-4 13h-138z" />
    <glyph glyph-name="FL00FBh" unicode="&#xfb;" 
d="M434 609l-130 -453h337l141 492l27 15h143l19 -15l-2 -5l25 -34l-159 -552q-4 -15 -16.5 -33t-29 -34t-34.5 -26.5t-33 -10.5h-574q-23 0 -40 23l-14 20q-10 7 -17.5 18.5t-11.5 25t-4.5 28t3.5 26.5l159 553l26 16h143l19 -15l-2 -5zM125 2h574q13 0 29 9.5t30 23
t24.5 29.5t14.5 30l156 545l-11 9h-131l-17 -9l-143 -498h-401l143 498l-11 9h-131l-16 -9l-156 -545q-4 -14 -2 -30t8 -29.5t16 -23t24 -9.5zM648 718l-2 2l-35 -36l-29 -12h-144l-25 33h-4l-18 28l121 126l23 14h254l15 -14l5 -14l16 -24l47 -125l-23 -24h-147l-27 13
l-21 29h1zM635 788l26 -58h-1l20 -10h138l12 13l-41 115l-10 10h-242l-17 -10l-109 -114l9 -14h136l23 9h-1z" />
    <glyph glyph-name="FL00DCh" unicode="&#xfc;" 
d="M434 609l-130 -453h337l141 492l27 15h143l19 -15l-2 -5l25 -34l-159 -552q-4 -15 -16.5 -33t-29 -34t-34.5 -26.5t-33 -10.5h-574q-23 0 -40 23l-14 20q-10 7 -17.5 18.5t-11.5 25t-4.5 28t3.5 26.5l159 553l26 16h143l19 -15l-2 -5zM125 2h574q13 0 29 9.5t30 23
t24.5 29.5t14.5 30l156 545l-11 9h-131l-17 -9l-143 -498h-401l143 498l-11 9h-131l-16 -9l-156 -545q-4 -14 -2 -30t8 -29.5t16 -23t24 -9.5zM656 728l36 128l28 17h143l18 -17l-1 -4l25 -34l-36 -125l-20 -21h-149l-25 33h-4zM395 728l36 128l27 17h144l17 -17l-1 -4
l25 -34l-36 -125l-20 -21h-149l-25 33h-4zM722 858l-17 -10l-32 -113l9 -15h136l13 14l33 114l-11 10h-131zM460 858l-17 -10l-32 -113l9 -15h136l13 14l33 114l-10 10h-132z" />
    <glyph glyph-name="FL00FDh" unicode="&#xfd;" horiz-adv-x="767" 
d="M613 387l-1 -3l10 -14l80 278l26 15h143l19 -15l-2 -5l25 -34l-159 -552q-4 -15 -16.5 -33t-29 -34t-34.5 -26.5t-33 -10.5h-565l-25 34h-4l-7 24l35 122l22 23h464l15 52h-354q-13 0 -22.5 6t-17.5 16l-14 20q-10 7 -17.5 19t-11 25.5t-4 27.5t2.5 26l86 299l26 16h143
l19 -15l-2 -5l25 -34l-57 -199h220zM101 141l-13 -14l-32 -112l4 -13h558q13 0 28.5 9.5t30 23t25 29.5t14.5 30l156 545l-11 9h-131l-17 -9l-143 -498h-469zM596 380l-10 15h-262l70 244l-11 9h-131l-16 -9l-83 -291q-4 -13 -2.5 -29t7.5 -30t16 -23.5t24 -9.5h348l19 15z
M466 733l106 126l34 14h150l5 -15v1l19 -26l9 -25l-116 -124l-20 -12h-147l-25 33h-4zM605 858l-25 -10l-97 -114l6 -14h135l17 10l107 115l-4 13h-139z" />
    <glyph glyph-name="FL00FEh" unicode="&#xfe;" horiz-adv-x="787" 
d="M433 608l-17 -59h379q17 0 30.5 -12.5t21.5 -30.5l14 -19q12 -17 16 -39t-2 -42l-66 -230q-4 -15 -16.5 -33t-29 -34t-34.5 -26.5t-33 -10.5h-381l-25 34h-1l-39 -138l-25 -15h-141l-16 15l-17 23l-13 13l184 642l27 16h143l19 -15l-2 -5zM664 396l-40 -138h-287l-13 -11
l-33 -115l7 -11h375q13 0 28.5 9.5t30 23t25 29.5t14.5 29l66 231q4 13 2 29t-8 30t-16.5 23t-23.5 9h-428l30 104l-11 9h-131l-16 -9l-180 -626l11 -10h131l16 10l111 384h340zM359 347l-22 -74h277l22 74h-277z" />
    <glyph glyph-name="FL00FFh" unicode="&#xff;" horiz-adv-x="767" 
d="M613 387l-1 -3l10 -14l80 278l26 15h143l19 -15l-2 -5l25 -34l-159 -552q-4 -15 -16.5 -33t-29 -34t-34.5 -26.5t-33 -10.5h-565l-25 34h-4l-7 24l35 122l22 23h464l15 52h-354q-13 0 -22.5 6t-17.5 16l-14 20q-10 7 -17.5 19t-11 25.5t-4 27.5t2.5 26l86 299l26 16h143
l19 -15l-2 -5l25 -34l-57 -199h220zM101 141l-13 -14l-32 -112l4 -13h558q13 0 28.5 9.5t30 23t25 29.5t14.5 30l156 545l-11 9h-131l-17 -9l-143 -498h-469zM596 380l-10 15h-262l70 244l-11 9h-131l-16 -9l-83 -291q-4 -13 -2.5 -29t7.5 -30t16 -23.5t24 -9.5h348l19 15z
M354 728l36 128l28 17h143l18 -17l-1 -4l25 -34l-36 -125l-20 -21h-150l-24 33h-4zM616 728l36 128l28 17h142l18 -17l-1 -4l25 -34l-36 -125l-20 -21h-148l-25 33h-4zM420 858l-17 -10l-32 -113l9 -15h136l13 14l33 114l-11 10h-131zM682 858l-17 -10l-32 -113l9 -15h135
l13 14l33 114l-11 10h-130z" />
    </font>
</defs>
</svg>
